<svg width="414" height="66" viewBox="0 0 414 66" fill="none" xmlns="http://www.w3.org/2000/svg">
<g clip-path="url(#clip0_0_255)">
<path d="M12.9882 26.1921L0.721414 22.7876C0.119628 22.62 -0.148638 22.9338 0.123253 23.5007L20.1635 64.2115C20.4948 64.8007 21.1112 65.1806 21.7948 65.217C21.134 65.2015 20.5674 64.7484 20.4172 64.1152L12.9882 26.1921Z" fill="#F46060"/>
<path d="M21.5519 65.1884C21.0305 65.0807 20.6653 64.6173 20.6891 64.0938L22.9659 16.6568L10.727 11.9948C10.1434 11.7702 9.76634 12.0804 9.89322 12.6866L20.4064 64.1152C20.5576 64.7393 21.1139 65.1872 21.7658 65.2098C21.694 65.2094 21.6224 65.2022 21.5519 65.1884Z" fill="#FFA52E"/>
<path d="M24.2853 4.42174C24.0687 4.27347 23.7843 4.26231 23.5564 4.39314C23.3284 4.52398 23.1984 4.77302 23.2231 5.03144L20.6855 64.0938C20.6617 64.6173 21.0269 65.0807 21.5483 65.1884C21.3117 65.1448 21.107 65.0002 20.9895 64.7937C20.8719 64.5871 20.8535 64.3399 20.9393 64.1188L36.2887 10.3782L24.2853 4.42174Z" fill="#87CC25"/>
<path opacity="0.4" d="M20.6891 64.0938L22.2008 28.7705L12.6375 26.1106L20.4172 64.1152C20.5685 64.7393 21.1248 65.1872 21.7767 65.2098C21.7012 65.2101 21.6259 65.2029 21.5519 65.1884C21.0305 65.0807 20.6653 64.6173 20.6891 64.0938Z" fill="#F98526"/>
<path opacity="0.4" d="M33.1417 20.552L22.7265 16.5765L20.6891 64.0938C20.6653 64.6173 21.0305 65.0807 21.5519 65.1884C21.3154 65.1448 21.1107 65.0002 20.9931 64.7937C20.8755 64.5872 20.8571 64.34 20.9429 64.1188L33.1417 20.552Z" fill="#74B502"/>
<path d="M77.7972 21.9711L39.8992 0.499696C39.6676 0.346761 39.3738 0.317245 39.1156 0.420972C38.8574 0.524699 38.6687 0.748054 38.6122 1.01669L20.9429 64.1473C20.8571 64.3685 20.8755 64.6157 20.9931 64.8222C21.1107 65.0287 21.3154 65.1733 21.5519 65.2169C21.6259 65.2315 21.7012 65.2386 21.7767 65.2383L61.5236 65.192C62.1959 65.158 62.7903 64.7516 63.0571 64.1437L78.3881 23.6041C78.6082 22.9908 78.3617 22.3097 77.7972 21.9711Z" fill="#1D7FF9"/>
<path fill-rule="evenodd" clip-rule="evenodd" d="M72.537 26.8701L42.8102 12.6652C42.6652 12.5974 42.5057 12.6937 42.4477 12.8826L41.7806 15.2715C41.7209 15.4414 41.7886 15.6294 41.9438 15.7243L71.6452 29.1235C71.7286 29.1591 71.841 29.0807 71.8953 28.9416L72.5696 27.1945C72.6458 27.0662 72.6204 26.9093 72.537 26.8701ZM70.061 33.288L40.3813 21.3614C40.3031 21.335 40.217 21.3446 40.1468 21.3874C40.0765 21.4303 40.0295 21.5018 40.0188 21.5824L39.3952 23.8572C39.3439 24.0176 39.4134 24.1914 39.562 24.2744L69.238 35.4558C69.3251 35.4879 69.4338 35.4059 69.4882 35.2739L70.1335 33.5946C70.1734 33.4591 70.1444 33.3236 70.061 33.2915V33.288ZM67.6828 39.4598L38.0612 29.6155C37.9851 29.5987 37.9053 29.6132 37.8403 29.6556C37.7753 29.698 37.7307 29.7647 37.7168 29.8401L37.1114 31.9794C37.0582 32.1328 37.134 32.3005 37.2854 32.3645L66.8853 41.5278C66.9687 41.5563 67.0774 41.4743 67.1282 41.346L67.7517 39.7308C67.788 39.6167 67.7662 39.4884 67.6828 39.4634V39.4598ZM65.3917 45.3964L35.8425 37.4667C35.6866 37.4384 35.5364 37.5384 35.5054 37.6913L34.929 39.7415C34.9025 39.8114 34.9061 39.8889 34.9389 39.9562C34.9717 40.0234 35.031 40.0747 35.103 40.0981L64.6195 47.3895C64.7065 47.4144 64.8117 47.3289 64.8588 47.2076L65.4606 45.6531C65.5077 45.5426 65.4787 45.4213 65.3917 45.3999V45.3964Z" fill="white"/>
</g>
<path fill-rule="evenodd" clip-rule="evenodd" d="M282.75 37.7519C282.75 28.444 286.943 23.3129 294.546 23.3129C302.149 23.3129 306.341 28.444 306.341 37.7519V43.2741C306.341 52.582 302.149 57.7131 294.546 57.7131C286.943 57.7131 282.75 52.582 282.75 43.2741V37.7519ZM294.546 55.1475C300.584 55.1475 303.635 51.1115 303.635 43.2897V37.7362C303.635 29.8675 300.522 25.8784 294.546 25.8784C288.57 25.8784 285.441 29.9145 285.441 37.7362V43.2897C285.441 51.1584 288.507 55.1475 294.546 55.1475Z" fill="white"/>
<path fill-rule="evenodd" clip-rule="evenodd" d="M388 23.8135C385.271 23.4709 382.523 23.3037 379.772 23.3129C372.685 23.3129 368.462 28.6473 368.462 37.5642V43.4618C368.462 52.3786 372.685 57.6974 379.772 57.6974C382.523 57.7144 385.272 57.5472 388 57.1968C388.201 57.1981 388.393 57.1133 388.528 56.9638C388.663 56.8143 388.727 56.6145 388.704 56.4147V55.3509C388.723 55.1771 388.664 55.0039 388.544 54.8773C388.423 54.7508 388.253 54.6837 388.079 54.6939H388C385.29 55.0046 382.563 55.1457 379.834 55.1162C374.281 55.1162 371.23 50.9707 371.23 43.4461V37.5485C371.23 30.0083 374.281 25.8628 379.834 25.8628C382.563 25.8381 385.29 25.9844 388 26.3008H388.141C388.316 26.311 388.486 26.2439 388.606 26.1173C388.727 25.9908 388.786 25.8175 388.767 25.6438V24.5644C388.771 24.3611 388.692 24.1651 388.546 24.0228C388.401 23.8805 388.203 23.8048 388 23.8135Z" fill="white"/>
<path fill-rule="evenodd" clip-rule="evenodd" d="M329.478 23.5788H316.963C315.562 23.4315 314.169 23.9212 313.169 24.9125C312.168 25.9039 311.666 27.2922 311.801 28.6943V56.6024C311.809 57.0827 312.196 57.4701 312.677 57.4784H313.631C314.115 57.4784 314.507 57.0862 314.507 56.6024V41.0527H328.367C328.599 41.0527 328.822 40.9604 328.987 40.7961C329.151 40.6318 329.243 40.409 329.243 40.1766V39.2224C329.235 38.7447 328.845 38.3619 328.367 38.362H314.507V28.663C314.455 27.9957 314.697 27.3389 315.168 26.8642C315.64 26.3894 316.295 26.1438 316.963 26.1913H329.478C329.956 26.1914 330.345 25.8086 330.354 25.3309V24.4079C330.329 23.9425 329.944 23.5781 329.478 23.5788Z" fill="white"/>
<path fill-rule="evenodd" clip-rule="evenodd" d="M352.599 23.5788H340.084C338.683 23.4315 337.291 23.9212 336.29 24.9125C335.29 25.9039 334.787 27.2922 334.922 28.6943V56.6024C334.93 57.0827 335.318 57.4701 335.798 57.4784H336.752C337.236 57.4784 337.628 57.0862 337.628 56.6024V41.0527H351.488C351.721 41.0527 351.943 40.9604 352.108 40.7961C352.272 40.6318 352.364 40.409 352.364 40.1766V39.2224C352.356 38.7447 351.966 38.3619 351.488 38.362H337.628V28.663C337.576 27.9957 337.818 27.3389 338.29 26.8642C338.761 26.3894 339.417 26.1438 340.084 26.1913H352.599C353.074 26.1913 353.459 25.8061 353.459 25.3309V24.4079C353.443 23.945 353.062 23.5785 352.599 23.5788Z" fill="white"/>
<path fill-rule="evenodd" clip-rule="evenodd" d="M399.248 26.1913H411.763C412.238 26.1913 412.623 25.8061 412.623 25.3309V24.4079C412.623 23.9327 412.238 23.5475 411.763 23.5475H399.248C397.847 23.4002 396.455 23.8899 395.454 24.8813C394.454 25.8726 393.951 27.2609 394.086 28.663V52.316C393.946 53.7207 394.446 55.1135 395.447 56.1085C396.449 57.1036 397.844 57.5952 399.248 57.4471H411.763C412.241 57.4386 412.623 57.0489 412.623 56.5711V55.6638C412.623 55.186 412.241 54.7963 411.763 54.7877H399.248C398.579 54.8347 397.923 54.5894 397.449 54.1153C396.975 53.6412 396.73 52.9849 396.776 52.316V41.0214H410.652C411.136 41.0214 411.528 40.6292 411.528 40.1454V39.2224C411.52 38.7447 411.13 38.3619 410.652 38.362H396.776V28.663C396.73 27.9942 396.975 27.3378 397.449 26.8637C397.923 26.3896 398.579 26.1443 399.248 26.1913Z" fill="white"/>
<path fill-rule="evenodd" clip-rule="evenodd" d="M361.015 23.5788H360.045C359.57 23.5788 359.185 23.964 359.185 24.4392V56.6024C359.185 57.0802 359.568 57.4699 360.045 57.4784H361.015C361.493 57.4699 361.876 57.0802 361.876 56.6024V24.4079C361.859 23.945 361.478 23.5785 361.015 23.5788Z" fill="white"/>
<path fill-rule="evenodd" clip-rule="evenodd" d="M123.233 37.5485C123.233 27.9277 128.083 23.2346 135.607 23.2346C143.961 23.2346 147.934 28.7881 147.934 37.5485V43.4305C147.934 52.1127 144.008 57.7444 135.607 57.7444C127.707 57.7444 123.233 52.6602 123.233 43.4305V37.5485ZM135.607 54.0055C141.63 54.0055 143.695 49.6879 143.695 43.4305V37.5485C143.695 30.5715 140.989 26.9735 135.607 26.9735C130.226 26.9735 127.472 30.3994 127.472 37.5485V43.4305C127.472 50.5014 130.132 54.0055 135.607 54.0055Z" fill="white"/>
<path fill-rule="evenodd" clip-rule="evenodd" d="M239.731 23.5788H236.477C236.235 23.5788 236.039 23.7749 236.039 24.0168V56.9935C236.039 57.2354 236.235 57.4315 236.477 57.4315H239.731C239.85 57.4357 239.965 57.3915 240.051 57.3089C240.136 57.2262 240.184 57.1124 240.184 56.9935V24.0012C240.18 23.885 240.13 23.7752 240.045 23.696C239.96 23.6167 239.847 23.5746 239.731 23.5788Z" fill="white"/>
<path fill-rule="evenodd" clip-rule="evenodd" d="M172.291 53.5362H161.169C158.853 53.5362 157.305 51.659 157.305 49.0465V24.0168C157.305 23.7749 157.109 23.5788 156.867 23.5788H153.597C153.355 23.5788 153.159 23.7749 153.159 24.0168V48.8901C153.159 54.6 155.834 57.4315 160.871 57.4315H172.26C172.498 57.4234 172.69 57.2319 172.698 56.9935V54.0212C172.716 53.776 172.536 53.561 172.291 53.5362Z" fill="white"/>
<path fill-rule="evenodd" clip-rule="evenodd" d="M259.848 39.0034C257.877 37.877 256.422 36.9541 255.656 36.5004C253.56 35.2333 250.712 33.4968 250.712 30.8687C250.712 28.7412 252.183 27.5523 255.609 26.9891C258.941 26.7777 262.285 27.0038 265.558 27.6618C265.871 27.6618 265.996 27.5053 265.996 27.1925V24.7521C265.996 24.4705 265.996 24.2984 265.558 24.2358C261.271 23.2192 256.822 23.0808 252.48 23.8291C249.083 24.4902 246.592 27.4095 246.473 30.8687C246.473 35.3584 249.899 37.6893 252.731 39.504C254.06 40.3487 256.532 41.8192 257.142 42.1947C260.787 44.416 263.024 45.9804 263.212 48.6242C263.424 50.981 261.848 53.1269 259.535 53.6301C256.813 54.5061 252.762 54.2558 247.771 53.6301C247.38 53.6301 247.255 53.724 247.255 54.0525V56.4303C247.255 56.884 247.412 56.9622 247.881 57.0404C250.467 57.4671 253.082 57.6972 255.703 57.7287C261.428 57.7287 267.342 55.476 267.342 48.6085C267.357 43.9154 263.18 40.9275 259.848 39.0034Z" fill="white"/>
<path fill-rule="evenodd" clip-rule="evenodd" d="M98.5945 23.5788H105.963C115.427 23.5788 119.885 25.9097 119.885 33.4812C119.885 41.0527 115.396 43.3836 106.01 43.3836H102.302V56.9935C102.302 57.2354 102.106 57.4315 101.864 57.4315H98.5945C98.3525 57.4315 98.1564 57.2354 98.1564 56.9935V24.0168C98.1564 23.7749 98.3525 23.5788 98.5945 23.5788ZM102.255 39.9263H105.869V39.9107C112.955 39.9107 115.693 38.5653 115.693 33.4655C115.693 28.3657 112.955 27.0204 105.869 27.0204H102.255V39.9263Z" fill="white"/>
<path fill-rule="evenodd" clip-rule="evenodd" d="M228.765 33.356C228.765 38.5966 226.637 41.2873 222.179 42.4293L230.141 56.7275C230.345 57.0717 230.235 57.4941 229.781 57.4941H226.465C226.137 57.5106 225.826 57.3491 225.651 57.0717L217.83 43.1489H214.889H211.494V56.9778C211.494 57.0967 211.446 57.2106 211.36 57.2932C211.275 57.3758 211.159 57.4201 211.04 57.4158H207.787C207.668 57.4201 207.552 57.3758 207.467 57.2932C207.381 57.2106 207.333 57.0967 207.333 56.9778V24.0012C207.333 23.8822 207.381 23.7684 207.467 23.6858C207.552 23.6032 207.668 23.5589 207.787 23.5632H214.889C224.337 23.5632 228.765 25.7845 228.765 33.356ZM211.494 39.6917H214.779C221.866 39.6917 224.619 38.4558 224.619 33.356C224.619 28.2562 221.881 27.0204 214.795 27.0204H211.494V39.6917Z" fill="white"/>
<path fill-rule="evenodd" clip-rule="evenodd" d="M189.155 23.4735C191.213 23.4735 193.049 24.7685 193.739 26.7075C193.739 26.7075 202.155 56.2895 202.264 56.7275C202.374 57.1655 202.28 57.4628 201.764 57.4628H198.635C198.501 57.4851 198.364 57.4505 198.257 57.3672C198.15 57.284 198.083 57.1598 198.072 57.0247C198.063 57.0021 197.954 56.601 197.767 55.9077C197.306 54.205 196.368 50.7404 195.256 46.7939H183.07C181.537 52.3317 180.254 57.0247 180.254 57.0247C180.238 57.158 180.17 57.2793 180.064 57.3617C179.958 57.444 179.824 57.4804 179.691 57.4628H176.562C176.061 57.4628 175.999 57.0247 176.061 56.7275C176.124 56.4303 184.571 26.7075 184.571 26.7075C185.261 24.7685 187.097 23.4735 189.155 23.4735ZM188.31 27.7087L184.055 43.1958H194.27C192.174 35.5305 190.015 27.7087 190.015 27.7087C189.859 27.1612 189.562 26.9422 189.155 26.9422C188.748 26.9422 188.467 27.1612 188.31 27.7087Z" fill="white"/>
<defs>
<clipPath id="clip0_0_255">
<rect width="78.451" height="65.6258" fill="white" transform="translate(0.0170593 0.359818)"/>
</clipPath>
</defs>
</svg>
