<svg width="144" height="144" viewBox="0 0 144 144" fill="none" xmlns="http://www.w3.org/2000/svg">
<g clip-path="url(#clip0_0_325)">
<path d="M27.9395 60.693L7.19135 54.9345C6.17348 54.6511 5.71974 55.1818 6.17961 56.1407L40.0758 124.999C40.6362 125.996 41.6788 126.639 42.8351 126.7C41.7173 126.674 40.7591 125.907 40.505 124.836L27.9395 60.693Z" fill="#F46060"/>
<path d="M42.4243 126.652C41.5424 126.469 40.9246 125.686 40.9649 124.8L44.8159 44.5648L24.1149 36.6796C23.1277 36.2997 22.49 36.8243 22.7046 37.8495L40.4866 124.836C40.7425 125.892 41.6834 126.65 42.786 126.688C42.6646 126.687 42.5434 126.675 42.4243 126.652Z" fill="#FFA52E"/>
<path d="M47.0476 23.8704C46.6812 23.6196 46.2001 23.6007 45.8146 23.822C45.4291 24.0433 45.2092 24.4645 45.251 24.9016L40.9588 124.8C40.9185 125.686 41.5363 126.469 42.4181 126.652C42.018 126.578 41.6718 126.333 41.4729 125.984C41.274 125.635 41.2429 125.217 41.388 124.842L67.3502 33.9451L47.0476 23.8704Z" fill="#87CC25"/>
<path opacity="0.4" d="M40.9649 124.8L43.5218 65.0541L27.3463 60.5551L40.505 124.836C40.7608 125.892 41.7018 126.65 42.8044 126.688C42.6768 126.688 42.5494 126.676 42.4242 126.652C41.5424 126.469 40.9246 125.686 40.9649 124.8Z" fill="#F98526"/>
<path opacity="0.4" d="M62.0274 51.1533L44.4109 44.429L40.9649 124.8C40.9246 125.686 41.5424 126.469 42.4243 126.652C42.0241 126.578 41.6779 126.333 41.479 125.984C41.2801 125.635 41.249 125.217 41.3941 124.842L62.0274 51.1533Z" fill="#74B502"/>
<path d="M137.558 53.5535L73.4569 17.2366C73.0653 16.9779 72.5684 16.928 72.1317 17.1034C71.6949 17.2789 71.3757 17.6567 71.2802 18.111L41.3941 124.891C41.249 125.265 41.2801 125.683 41.479 126.032C41.6779 126.382 42.0242 126.626 42.4243 126.7C42.5494 126.724 42.6768 126.737 42.8044 126.736L110.033 126.658C111.17 126.6 112.175 125.913 112.626 124.885L138.557 56.3156C138.93 55.2783 138.513 54.1263 137.558 53.5535Z" fill="#1D7FF9"/>
<path fill-rule="evenodd" clip-rule="evenodd" d="M128.661 61.8397L78.3807 37.8134C78.1355 37.6988 77.8657 37.8616 77.7676 38.1812L76.6393 42.2218C76.5382 42.5091 76.6528 42.827 76.9152 42.9877L127.152 65.6511C127.294 65.7114 127.484 65.5787 127.576 65.3435L128.716 62.3885C128.845 62.1714 128.802 61.906 128.661 61.8397ZM124.473 72.695L74.2725 52.5222C74.1402 52.4777 73.9946 52.4938 73.8758 52.5663C73.757 52.6387 73.6775 52.7598 73.6593 52.8961L72.6046 56.7437C72.5178 57.0149 72.6353 57.3089 72.8867 57.4493L123.081 76.3616C123.228 76.4159 123.412 76.2772 123.504 76.0541L124.596 73.2136C124.663 72.9844 124.614 72.7553 124.473 72.701V72.695ZM120.451 83.1341L70.3482 66.4833C70.2194 66.455 70.0845 66.4795 69.9746 66.5512C69.8646 66.6229 69.7892 66.7356 69.7656 66.8633L68.7416 70.4817C68.6518 70.7411 68.78 71.0248 69.036 71.133L119.102 86.6319C119.243 86.6802 119.427 86.5415 119.512 86.3244L120.567 83.5924C120.628 83.3995 120.592 83.1824 120.451 83.1401V83.1341ZM116.575 93.1752L66.5955 79.7629C66.3318 79.715 66.0778 79.8842 66.0253 80.1429L65.0503 83.6105C65.0055 83.7288 65.0116 83.8599 65.0671 83.9736C65.1226 84.0874 65.2228 84.174 65.3447 84.2136L115.269 96.5464C115.416 96.5886 115.594 96.4439 115.674 96.2388L116.692 93.6094C116.771 93.4225 116.722 93.2174 116.575 93.1813V93.1752Z" fill="white"/>
</g>
<defs>
<clipPath id="clip0_0_325">
<rect width="132.693" height="111" fill="white" transform="translate(6 17)"/>
</clipPath>
</defs>
</svg>
