<svg width="18" height="18" viewBox="0 0 18 18" fill="none" xmlns="http://www.w3.org/2000/svg">
<path d="M7.98933 14.4163C8.09173 14.5937 8.23901 14.7411 8.41636 14.8436C8.59372 14.9461 8.7949 15 8.99968 15C9.20447 15 9.40565 14.9461 9.583 14.8436C9.76036 14.7411 9.90763 14.5937 10.01 14.4163M3.90241 10.9417C3.8262 11.0253 3.77591 11.1292 3.75766 11.2409C3.7394 11.3526 3.75396 11.4671 3.79957 11.5707C3.84518 11.6742 3.91987 11.7622 4.01456 11.8241C4.10925 11.8859 4.21985 11.9189 4.33292 11.919H13.6664C13.7795 11.919 13.8901 11.8862 13.9849 11.8244C14.0796 11.7627 14.1544 11.6748 14.2001 11.5713C14.2459 11.4679 14.2606 11.3533 14.2425 11.2416C14.2244 11.13 14.1742 11.026 14.0981 10.9423C13.3223 10.1419 12.4998 9.12917 12.4998 6.50272C12.4998 5.57374 12.131 4.68281 11.4746 4.02592C10.8182 3.36904 9.92796 3 8.99968 3C8.07141 3 7.18115 3.36904 6.52476 4.02592C5.86837 4.68281 5.49961 5.57374 5.49961 6.50272C5.49961 9.12917 4.67651 10.1419 3.90241 10.9417Z" stroke="#454C53" stroke-linecap="round" stroke-linejoin="round"/>
</svg>
