<svg width="18" height="18" viewBox="0 0 18 18" fill="none" xmlns="http://www.w3.org/2000/svg">
<path d="M16.25 11L12.9397 14L11 12.3988" stroke="#454C53" stroke-width="1.2" stroke-linecap="round" stroke-linejoin="round"/>
<path d="M4.83984 3.5C5.5599 3.5 6.12865 3.49976 6.58594 3.53516C7.04837 3.57098 7.43995 3.64548 7.79785 3.81836C8.28683 4.05457 8.70127 4.41181 9 4.85254C9.29873 4.41181 9.71317 4.05457 10.2021 3.81836C10.56 3.64548 10.9516 3.57098 11.4141 3.53516C11.8714 3.49976 12.4401 3.5 13.1602 3.5H13.4199C13.7761 3.5 14.0719 3.49992 14.3125 3.51855C14.5581 3.53759 14.789 3.57885 15.0078 3.68457C15.344 3.84706 15.6226 4.10869 15.7988 4.43652C15.9149 4.65267 15.9599 4.88075 15.9805 5.11914C16.0005 5.35103 16 5.63538 16 5.97168V9.52246C15.7271 9.56837 15.4635 9.68905 15.2432 9.88867L15 10.1084V5.97168C15 5.61803 14.9998 5.38411 14.9844 5.20508C14.9695 5.0329 14.9434 4.95645 14.918 4.90918C14.8449 4.77343 14.725 4.65875 14.5723 4.58496C14.5131 4.5564 14.4229 4.53016 14.2354 4.51562C14.0424 4.50068 13.7918 4.5 13.4199 4.5H13.1602C12.4244 4.5 11.9009 4.50051 11.4912 4.53223C11.0866 4.56357 10.835 4.62298 10.6367 4.71875C10.2394 4.91077 9.92126 5.21529 9.72363 5.58301C9.62749 5.76207 9.56575 5.9905 9.5332 6.36816C9.51665 6.5604 9.50816 6.77963 9.50391 7.03809L9.5 7.94434V7.94824L9.44629 13.6494C9.54667 13.5593 9.64222 13.4812 9.7334 13.4102C9.76505 13.3855 9.79848 13.3633 9.83105 13.3398C9.89363 13.4174 9.96507 13.4897 10.0449 13.5557L10.6133 14.0254C10.5204 14.0774 10.4309 14.1343 10.3477 14.1992C10.0852 14.4038 9.76436 14.6899 9.34375 15.2881C9.25009 15.421 9.09718 15.5 8.93457 15.5C8.77215 15.4999 8.61995 15.4208 8.52637 15.2881C8.05756 14.6214 7.87791 14.3751 7.65234 14.1992C7.43951 14.0334 7.1925 13.9079 6.92578 13.8311C6.64019 13.7488 6.31733 13.7441 5.47363 13.7441H4.58008C4.22387 13.7441 3.92807 13.7442 3.6875 13.7256C3.44184 13.7066 3.21104 13.6653 2.99219 13.5596C2.65592 13.3971 2.37739 13.1355 2.20117 12.8076C2.0849 12.5913 2.0401 12.3627 2.01953 12.124C1.99955 11.8921 2 11.6078 2 11.2715V5.97168C2 5.63538 1.99955 5.35103 2.01953 5.11914C2.0401 4.88075 2.08507 4.65267 2.20117 4.43652C2.37736 4.10869 2.65597 3.84706 2.99219 3.68457C3.21104 3.57885 3.44185 3.53759 3.6875 3.51855C3.92807 3.49992 4.22387 3.5 4.58008 3.5H4.83984ZM4.58008 4.5C4.20822 4.5 3.95763 4.50068 3.76465 4.51562C3.57707 4.53017 3.48694 4.5564 3.42773 4.58496C3.27499 4.65875 3.15508 4.77343 3.08203 4.90918C3.05663 4.95645 3.03049 5.0329 3.01562 5.20508C3.0002 5.3841 3 5.61803 3 5.97168V11.2715C3 11.6251 3.00021 11.859 3.01562 12.0381C3.03047 12.2104 3.05663 12.2867 3.08203 12.334C3.15506 12.4699 3.27486 12.5853 3.42773 12.6592C3.48694 12.6877 3.57722 12.714 3.76465 12.7285C3.95763 12.7435 4.20822 12.7441 4.58008 12.7441H5.47363C6.25771 12.7441 6.74898 12.7387 7.20215 12.8691C7.58945 12.9807 7.95137 13.1645 8.2666 13.4102C8.32959 13.4592 8.38868 13.5125 8.44727 13.5684L8.5 7.94434L8.49609 7.03809C8.49184 6.77963 8.48335 6.5604 8.4668 6.36816C8.43425 5.9905 8.37251 5.76207 8.27637 5.58301C8.07874 5.21529 7.76064 4.91077 7.36328 4.71875C7.16502 4.62298 6.91345 4.56357 6.50879 4.53223C6.09907 4.50051 5.57558 4.5 4.83984 4.5H4.58008Z" fill="#454C53"/>
</svg>
