<svg width="18" height="18" viewBox="0 0 18 18" fill="none" xmlns="http://www.w3.org/2000/svg">
<path d="M15 9H11.4L10.2 10.4062H7.8L6.6 9H3M3 9L5.07 5.77031C5.16935 5.61412 5.3225 5.48267 5.51223 5.39076C5.70196 5.29884 5.92075 5.25009 6.144 5.25H11.856C12.0793 5.25009 12.298 5.29884 12.4878 5.39076C12.6775 5.48267 12.8307 5.61412 12.93 5.77031L15 9V11.8125C15 12.0611 14.8736 12.2996 14.6485 12.4754C14.4235 12.6512 14.1183 12.75 13.8 12.75H4.2C3.88174 12.75 3.57652 12.6512 3.35147 12.4754C3.12643 12.2996 3 12.0611 3 11.8125V9Z" stroke="#454C53" stroke-linecap="round" stroke-linejoin="round"/>
</svg>
