<svg width="18" height="18" viewBox="0 0 18 18" fill="none" xmlns="http://www.w3.org/2000/svg">
<path d="M6.26144 14.3386C7.53382 14.9913 8.99749 15.1681 10.3887 14.8371C11.7799 14.5061 13.0071 13.6891 13.8493 12.5333C14.6914 11.3776 15.093 9.95904 14.9818 8.53334C14.8706 7.10764 14.2538 5.76855 13.2426 4.75737C12.2315 3.74618 10.8924 3.12941 9.46666 3.01818C8.04096 2.90696 6.62242 3.3086 5.46665 4.15074C4.31089 4.99287 3.4939 6.22011 3.16293 7.61131C2.83195 9.00251 3.00874 10.4662 3.66144 11.7386L3.16293 14.8371L6.26144 14.3386Z" stroke="#454C53" stroke-linecap="round" stroke-linejoin="round"/>
<circle cx="11.2058" cy="8.81221" r="0.551471" fill="#454C53"/>
<circle cx="8.99971" cy="8.81221" r="0.551471" fill="#454C53"/>
<circle cx="6.79366" cy="8.81221" r="0.551471" fill="#454C53"/>
</svg>
