<svg width="18" height="18" viewBox="0 0 18 18" fill="none" xmlns="http://www.w3.org/2000/svg">
<path d="M7.65 3.75C8.78039 3.75 9.78035 4.28558 10.3928 5.10713C10.5976 5.06976 10.8089 5.05 11.025 5.05C12.889 5.05 14.4 6.50507 14.4 8.3C14.4 8.41426 14.3935 8.52711 14.3815 8.63833C15.1986 9.08534 15.75 9.93044 15.75 10.9C15.75 12.3359 14.5412 13.5 13.05 13.5H5.625C3.76104 13.5 2.25 12.0449 2.25 10.25C2.25 8.91286 3.08852 7.76421 4.28687 7.26533C4.27952 7.1778 4.275 7.08935 4.275 7C4.275 5.20507 5.78604 3.75 7.65 3.75Z" stroke="#454C53" stroke-linejoin="round"/>
</svg>
