<svg width="18" height="18" viewBox="0 0 18 18" fill="none" xmlns="http://www.w3.org/2000/svg">
<path d="M4.79886 14.25H13.2005M8.73685 3.90105C8.76275 3.8553 8.8008 3.81716 8.84704 3.79059C8.89327 3.76402 8.946 3.75 8.9997 3.75C9.05341 3.75 9.10613 3.76402 9.15236 3.79059C9.1986 3.81716 9.23665 3.8553 9.26255 3.90105L11.0341 7.17135C11.0764 7.24708 11.1353 7.31277 11.2068 7.36371C11.2782 7.41465 11.3604 7.44957 11.4474 7.46597C11.5343 7.48237 11.624 7.47985 11.7098 7.45857C11.7957 7.4373 11.8756 7.3978 11.9439 7.34292L14.5106 5.20474C14.5599 5.16577 14.6206 5.14301 14.684 5.13973C14.7474 5.13645 14.8103 5.15283 14.8635 5.1865C14.9168 5.22017 14.9577 5.2694 14.9803 5.32711C15.0029 5.38481 15.0062 5.44801 14.9895 5.50761L13.2888 11.4868C13.254 11.6092 13.1793 11.7172 13.0757 11.7945C12.9722 11.8718 12.8456 11.9141 12.715 11.9152H5.28495C5.15433 11.9143 5.02757 11.872 4.92392 11.7947C4.82027 11.7174 4.74538 11.6093 4.71064 11.4868L3.0105 5.50819C2.99385 5.44859 2.99707 5.38539 3.01971 5.32769C3.04234 5.26999 3.08322 5.22075 3.13646 5.18708C3.18971 5.15341 3.25256 5.13703 3.31598 5.14031C3.37941 5.14359 3.44012 5.16635 3.48939 5.20532L6.05551 7.3435C6.1238 7.39838 6.20374 7.43788 6.28959 7.45915C6.37545 7.48043 6.46507 7.48296 6.55205 7.46655C6.63902 7.45015 6.72118 7.41523 6.79263 7.36429C6.86408 7.31335 6.92305 7.24766 6.96529 7.17194L8.73685 3.90105Z" stroke="#454C53" stroke-linecap="round" stroke-linejoin="round"/>
</svg>
