<svg width="18" height="18" viewBox="0 0 18 18" fill="none" xmlns="http://www.w3.org/2000/svg">
<path d="M7.66667 8.4V12M10.3333 8.4V12M13.6667 5.4V13.8C13.6667 14.1183 13.5262 14.4235 13.2761 14.6485C13.0261 14.8736 12.687 15 12.3333 15H5.66667C5.31304 15 4.97391 14.8736 4.72386 14.6485C4.47381 14.4235 4.33333 14.1183 4.33333 13.8V5.4M3 5.4H15M6.33333 5.4V4.2C6.33333 3.88174 6.47381 3.57652 6.72386 3.35147C6.97391 3.12643 7.31304 3 7.66667 3H10.3333C10.687 3 11.0261 3.12643 11.2761 3.35147C11.5262 3.57652 11.6667 3.88174 11.6667 4.2V5.4" stroke="#454C53" stroke-linecap="round" stroke-linejoin="round"/>
</svg>
