<svg width="18" height="18" viewBox="0 0 18 18" fill="none" xmlns="http://www.w3.org/2000/svg">
<path d="M14.724 10.8H12C11.6817 10.8 11.3765 10.9264 11.1515 11.1515C10.9264 11.3765 10.8 11.6817 10.8 12V14.724M6 3.804V4.8C6 5.27739 6.18964 5.73523 6.52721 6.07279C6.86477 6.41036 7.32261 6.6 7.8 6.6C8.11826 6.6 8.42348 6.72643 8.64853 6.95147C8.87357 7.17652 9 7.48174 9 7.8C9 8.46 9.54 9 10.2 9C10.5183 9 10.8235 8.87357 11.0485 8.64853C11.2736 8.42348 11.4 8.11826 11.4 7.8C11.4 7.14 11.94 6.6 12.6 6.6H14.502M8.4 14.97V12.6C8.4 12.2817 8.27357 11.9765 8.04853 11.7515C7.82348 11.5264 7.51826 11.4 7.2 11.4C6.88174 11.4 6.57652 11.2736 6.35147 11.0485C6.12643 10.8235 6 10.5183 6 10.2V9.6C6 9.28174 5.87357 8.97652 5.64853 8.75147C5.42348 8.52643 5.11826 8.4 4.8 8.4H3.03M15 9C15 12.3137 12.3137 15 9 15C5.68629 15 3 12.3137 3 9C3 5.68629 5.68629 3 9 3C12.3137 3 15 5.68629 15 9Z" stroke="#454C53" stroke-linecap="round" stroke-linejoin="round"/>
</svg>
