<svg width="18" height="18" viewBox="0 0 18 18" fill="none" xmlns="http://www.w3.org/2000/svg">
<path d="M9.01562 17C6.14062 17 3.51562 15.5 2.07812 13C0.640625 10.5312 0.640625 7.5 2.07812 5C3.51562 2.53125 6.14062 1 9.01562 1C11.8594 1 14.4844 2.53125 15.9219 5C17.3594 7.5 17.3594 10.5312 15.9219 13C14.4844 15.5 11.8594 17 9.01562 17ZM9.01562 5C8.57812 5 8.26562 5.34375 8.26562 5.75V9.25C8.26562 9.6875 8.57812 10 9.01562 10C9.42188 10 9.76562 9.6875 9.76562 9.25V5.75C9.76562 5.34375 9.42188 5 9.01562 5ZM8.01562 12C8.01562 12.5625 8.45312 13 9.01562 13C9.54688 13 10.0156 12.5625 10.0156 12C10.0156 11.4688 9.54688 11 9.01562 11C8.45312 11 8.01562 11.4688 8.01562 12Z" fill="#F95C5C"/>
</svg>
