<svg width="18" height="18" viewBox="0 0 18 18" fill="none" xmlns="http://www.w3.org/2000/svg">
<mask id="mask0_1288_4636" style="mask-type:alpha" maskUnits="userSpaceOnUse" x="3" y="2" width="11" height="14">
<path d="M9.375 3V5.4C9.375 5.71826 9.49353 6.02348 9.70451 6.24853C9.91548 6.47357 10.2016 6.6 10.5 6.6H12.75M9.9375 3H4.875C4.57663 3 4.29048 3.12643 4.0795 3.35147C3.86853 3.57652 3.75 3.88174 3.75 4.2V13.8C3.75 14.1183 3.86853 14.4235 4.0795 14.6485C4.29048 14.8736 4.57663 15 4.875 15H11.625C11.9234 15 12.2095 14.8736 12.4205 14.6485C12.6315 14.4235 12.75 14.1183 12.75 13.8V6L9.9375 3Z" stroke="#454C53" stroke-linecap="round" stroke-linejoin="round"/>
</mask>
<g mask="url(#mask0_1288_4636)">
<mask id="path-2-inside-1_1288_4636" fill="white">
<path d="M16.5488 17.5112H0.916992V1.5835H16.5488V17.5112ZM12.6553 8.62549C11.9357 8.61923 11.2412 8.89663 10.7236 9.39697L10.71 9.41064L10.2305 9.88818C10.0029 10.1148 9.87445 10.4031 9.84277 10.6987C9.8055 10.7109 9.76814 10.7231 9.73145 10.7368C9.36336 10.8743 9.02811 11.0894 8.75 11.3677H8.74902L7.91797 12.2007C7.9165 12.202 7.91412 12.2037 7.91211 12.2056C7.9079 12.2095 7.90159 12.2158 7.89453 12.2231C7.39513 12.7409 7.11881 13.4347 7.125 14.1538C7.13139 14.8733 7.42054 15.5621 7.92871 16.0708C8.43703 16.5794 9.12504 16.8691 9.84473 16.8755C10.5191 16.8814 11.1686 16.6352 11.6738 16.1929L12.0947 16.1812C12.1809 16.1785 12.2622 16.1443 12.3271 16.0884C12.3325 16.0866 12.3457 16.0832 12.3701 16.0796C12.4328 16.0702 12.5031 16.0695 12.6104 16.0669C12.6878 16.065 12.8397 16.0629 12.9688 16.0142C13.043 15.9861 13.1456 15.9299 13.2178 15.8179C13.2529 15.7632 13.2726 15.706 13.2832 15.6509C13.2986 15.6152 13.309 15.5857 13.3125 15.5708C13.3295 15.4968 13.3283 15.4229 13.3262 15.3765C13.3216 15.2771 13.303 15.1558 13.2891 15.063C13.2804 15.0055 13.2749 14.955 13.2695 14.9126C13.4305 14.7751 13.5123 14.5939 13.5596 14.4839C13.6016 14.3859 13.6229 14.3282 13.6553 14.2622C13.6832 14.2053 13.7041 14.1764 13.7188 14.1616C13.7262 14.1552 13.7386 14.1456 13.751 14.1333L14.5938 13.2896C14.5985 13.2847 14.6027 13.2799 14.6055 13.2769C14.6079 13.2743 14.6104 13.272 14.6113 13.271L14.6055 13.2778C15.0424 12.8249 15.3085 12.2371 15.3643 11.6157L15.375 11.3472L15.3594 11.0786C15.293 10.4583 15.0168 9.8754 14.5723 9.43018C14.0638 8.92129 13.375 8.63187 12.6553 8.62549Z"/>
</mask>
<path d="M16.5488 17.5112H0.916992V1.5835H16.5488V17.5112ZM12.6553 8.62549C11.9357 8.61923 11.2412 8.89663 10.7236 9.39697L10.71 9.41064L10.2305 9.88818C10.0029 10.1148 9.87445 10.4031 9.84277 10.6987C9.8055 10.7109 9.76814 10.7231 9.73145 10.7368C9.36336 10.8743 9.02811 11.0894 8.75 11.3677H8.74902L7.91797 12.2007C7.9165 12.202 7.91412 12.2037 7.91211 12.2056C7.9079 12.2095 7.90159 12.2158 7.89453 12.2231C7.39513 12.7409 7.11881 13.4347 7.125 14.1538C7.13139 14.8733 7.42054 15.5621 7.92871 16.0708C8.43703 16.5794 9.12504 16.8691 9.84473 16.8755C10.5191 16.8814 11.1686 16.6352 11.6738 16.1929L12.0947 16.1812C12.1809 16.1785 12.2622 16.1443 12.3271 16.0884C12.3325 16.0866 12.3457 16.0832 12.3701 16.0796C12.4328 16.0702 12.5031 16.0695 12.6104 16.0669C12.6878 16.065 12.8397 16.0629 12.9688 16.0142C13.043 15.9861 13.1456 15.9299 13.2178 15.8179C13.2529 15.7632 13.2726 15.706 13.2832 15.6509C13.2986 15.6152 13.309 15.5857 13.3125 15.5708C13.3295 15.4968 13.3283 15.4229 13.3262 15.3765C13.3216 15.2771 13.303 15.1558 13.2891 15.063C13.2804 15.0055 13.2749 14.955 13.2695 14.9126C13.4305 14.7751 13.5123 14.5939 13.5596 14.4839C13.6016 14.3859 13.6229 14.3282 13.6553 14.2622C13.6832 14.2053 13.7041 14.1764 13.7188 14.1616C13.7262 14.1552 13.7386 14.1456 13.751 14.1333L14.5938 13.2896C14.5985 13.2847 14.6027 13.2799 14.6055 13.2769C14.6079 13.2743 14.6104 13.272 14.6113 13.271L14.6055 13.2778C15.0424 12.8249 15.3085 12.2371 15.3643 11.6157L15.375 11.3472L15.3594 11.0786C15.293 10.4583 15.0168 9.8754 14.5723 9.43018C14.0638 8.92129 13.375 8.63187 12.6553 8.62549Z" fill="#454C53"/>
<path d="M16.5488 17.5112V18.5112H17.5488V17.5112H16.5488ZM0.916992 17.5112H-0.0830078V18.5112H0.916992V17.5112ZM0.916992 1.5835V0.583496H-0.0830078V1.5835H0.916992ZM16.5488 1.5835H17.5488V0.583496H16.5488V1.5835ZM12.6553 8.62549L12.6641 7.62553L12.664 7.62553L12.6553 8.62549ZM10.7236 9.39697L10.0286 8.67801L10.0225 8.68389L10.0165 8.68987L10.7236 9.39697ZM10.71 9.41064L11.4156 10.1192L11.4171 10.1178L10.71 9.41064ZM10.2305 9.88818L10.936 10.5968L10.9361 10.5967L10.2305 9.88818ZM9.84277 10.6987L10.1529 11.6494L10.7681 11.4487L10.8371 10.8053L9.84277 10.6987ZM9.73145 10.7368L9.38177 9.79995L9.38157 9.80002L9.73145 10.7368ZM8.75 11.3677V12.3677H9.16437L9.4573 12.0746L8.75 11.3677ZM8.74902 11.3677V10.3677H8.33412L8.04109 10.6614L8.74902 11.3677ZM7.91797 12.2007L8.57201 12.9571L8.59988 12.933L8.62591 12.907L7.91797 12.2007ZM7.91211 12.2056L7.2352 11.4695L7.233 11.4715L7.91211 12.2056ZM7.89453 12.2231L7.17489 11.5288L7.17475 11.5289L7.89453 12.2231ZM7.125 14.1538L6.12504 14.1624L6.12504 14.1627L7.125 14.1538ZM7.92871 16.0708L7.22122 16.7775L7.22143 16.7777L7.92871 16.0708ZM9.84473 16.8755L9.83584 17.8754L9.83603 17.8755L9.84473 16.8755ZM11.6738 16.1929L11.646 15.1933L11.2861 15.2033L11.0151 15.4405L11.6738 16.1929ZM12.0947 16.1812L12.1226 17.1808L12.125 17.1807L12.0947 16.1812ZM12.3271 16.0884L12.008 15.1407L11.8225 15.2031L11.6742 15.331L12.3271 16.0884ZM12.3701 16.0796L12.2227 15.0905L12.2223 15.0906L12.3701 16.0796ZM12.6104 16.0669L12.5862 15.0672L12.5861 15.0672L12.6104 16.0669ZM12.9688 16.0142L13.3218 16.9498L13.3227 16.9494L12.9688 16.0142ZM13.2178 15.8179L14.0582 16.3598L14.0588 16.3588L13.2178 15.8179ZM13.2832 15.6509L12.365 15.2548L12.3219 15.3546L12.3013 15.4613L13.2832 15.6509ZM13.3125 15.5708L14.286 15.7995L14.2873 15.7941L13.3125 15.5708ZM13.3262 15.3765L14.3252 15.3313L14.3251 15.3307L13.3262 15.3765ZM13.2891 15.063L12.3001 15.2113L12.3001 15.2114L13.2891 15.063ZM13.2695 14.9126L12.6199 14.1524L12.2095 14.5031L12.2775 15.0386L13.2695 14.9126ZM13.5596 14.4839L14.4784 14.8786L14.4784 14.8785L13.5596 14.4839ZM13.6553 14.2622L12.7577 13.8213L12.7574 13.8219L13.6553 14.2622ZM13.7188 14.1616L13.0666 13.4035L13.0368 13.4292L13.009 13.4572L13.7188 14.1616ZM13.751 14.1333L14.4575 14.841L14.4585 14.84L13.751 14.1333ZM14.5938 13.2896L15.3013 13.9962L15.3013 13.9962L14.5938 13.2896ZM14.6055 13.2769L13.871 12.5982L13.8685 12.6009L14.6055 13.2769ZM14.6113 13.271L15.3706 13.9218L13.8963 12.5719L14.6113 13.271ZM14.6055 13.2778L13.8462 12.627L15.3252 13.9721L14.6055 13.2778ZM15.3643 11.6157L16.3603 11.705L16.3625 11.6804L16.3635 11.6557L15.3643 11.6157ZM15.375 11.3472L16.3742 11.3871L16.3762 11.3381L16.3733 11.2891L15.375 11.3472ZM15.3594 11.0786L16.3577 11.0205L16.3563 10.9963L16.3537 10.9722L15.3594 11.0786ZM14.5723 9.43018L15.2799 8.72363L15.2797 8.72338L14.5723 9.43018ZM16.5488 17.5112V16.5112H0.916992V17.5112V18.5112H16.5488V17.5112ZM0.916992 17.5112H1.91699V1.5835H0.916992H-0.0830078V17.5112H0.916992ZM0.916992 1.5835V2.5835H16.5488V1.5835V0.583496H0.916992V1.5835ZM16.5488 1.5835H15.5488V17.5112H16.5488H17.5488V1.5835H16.5488ZM12.6553 8.62549L12.664 7.62553C11.6818 7.61699 10.7347 7.9954 10.0286 8.67801L10.7236 9.39697L11.4187 10.1159C11.7477 9.79785 12.1895 9.62148 12.6466 9.62545L12.6553 8.62549ZM10.7236 9.39697L10.0165 8.68987L10.0029 8.70354L10.71 9.41064L11.4171 10.1178L11.4307 10.1041L10.7236 9.39697ZM10.71 9.41064L10.0043 8.7021L9.52481 9.17964L10.2305 9.88818L10.9361 10.5967L11.4156 10.1192L10.71 9.41064ZM10.2305 9.88818L9.52489 9.17955C9.12693 9.5758 8.90333 10.0801 8.84846 10.5922L9.84277 10.6987L10.8371 10.8053C10.8456 10.726 10.8788 10.6538 10.936 10.5968L10.2305 9.88818ZM9.84277 10.6987L9.53264 9.74804C9.49774 9.75942 9.44104 9.77782 9.38177 9.79995L9.73145 10.7368L10.0811 11.6737C10.0952 11.6684 10.1133 11.6624 10.1529 11.6494L9.84277 10.6987ZM9.73145 10.7368L9.38157 9.80002C8.87984 9.98741 8.42255 10.2807 8.0427 10.6608L8.75 11.3677L9.4573 12.0746C9.63367 11.8981 9.84688 11.7612 10.0813 11.6736L9.73145 10.7368ZM8.75 11.3677V10.3677H8.74902V11.3677V12.3677H8.75V11.3677ZM8.74902 11.3677L8.04109 10.6614L7.21003 11.4944L7.91797 12.2007L8.62591 12.907L9.45696 12.074L8.74902 11.3677ZM7.91797 12.2007L7.26393 11.4442C7.27072 11.4384 7.27633 11.4337 7.27996 11.4307C7.28364 11.4276 7.28654 11.4253 7.28798 11.4241C7.28936 11.423 7.29046 11.4221 7.29009 11.4224C7.29008 11.4224 7.28969 11.4227 7.2893 11.423C7.28886 11.4234 7.2882 11.4239 7.28741 11.4246C7.28451 11.4269 7.27784 11.4323 7.2696 11.4392C7.26137 11.4462 7.24931 11.4565 7.2352 11.4695L7.91211 12.2056L8.58901 12.9416C8.57591 12.9537 8.56491 12.9631 8.55773 12.9692C8.55055 12.9752 8.54495 12.9797 8.54308 12.9813C8.54217 12.982 8.54137 12.9826 8.54191 12.9822C8.54203 12.9821 8.54361 12.9808 8.54545 12.9793C8.54735 12.9778 8.5507 12.9751 8.5548 12.9717C8.55885 12.9683 8.56485 12.9633 8.57201 12.9571L7.91797 12.2007ZM7.91211 12.2056L7.233 11.4715C7.20582 11.4967 7.18202 11.5214 7.17489 11.5288L7.89453 12.2231L8.61417 12.9175C8.61528 12.9163 8.61452 12.9171 8.61235 12.9193C8.6112 12.9205 8.609 12.9227 8.60598 12.9256C8.60316 12.9283 8.59803 12.9333 8.59122 12.9396L7.91211 12.2056ZM7.89453 12.2231L7.17475 11.5289C6.49338 12.2354 6.11659 13.1816 6.12504 14.1624L7.125 14.1538L8.12496 14.1452C8.12102 13.6878 8.29687 13.2465 8.61431 12.9173L7.89453 12.2231ZM7.125 14.1538L6.12504 14.1627C6.13376 15.1445 6.52819 16.0837 7.22122 16.7775L7.92871 16.0708L8.6362 15.3641C8.3129 15.0404 8.12902 14.6021 8.12496 14.1449L7.125 14.1538ZM7.92871 16.0708L7.22143 16.7777C7.91452 17.4712 8.85308 17.8667 9.83584 17.8754L9.84473 16.8755L9.85361 15.8755C9.397 15.8715 8.95955 15.6876 8.636 15.3639L7.92871 16.0708ZM9.84473 16.8755L9.83603 17.8755C10.7604 17.8835 11.6463 17.546 12.3325 16.9453L11.6738 16.1929L11.0151 15.4405C10.6909 15.7243 10.2778 15.8792 9.85342 15.8755L9.84473 16.8755ZM11.6738 16.1929L11.7017 17.1925L12.1226 17.1808L12.0947 16.1812L12.0669 15.1815L11.646 15.1933L11.6738 16.1929ZM12.0947 16.1812L12.125 17.1807C12.4594 17.1706 12.7566 17.0385 12.9801 16.8458L12.3271 16.0884L11.6742 15.331C11.7679 15.2502 11.9024 15.1865 12.0645 15.1816L12.0947 16.1812ZM12.3271 16.0884L12.6463 17.0361C12.6205 17.0448 12.5996 17.0506 12.5868 17.0539C12.5728 17.0576 12.5612 17.0603 12.5525 17.0622C12.5352 17.0659 12.5232 17.0678 12.518 17.0686L12.3701 16.0796L12.2223 15.0906C12.1758 15.0975 12.0955 15.1112 12.008 15.1407L12.3271 16.0884ZM12.3701 16.0796L12.5175 17.0687C12.4999 17.0713 12.4944 17.0707 12.5168 17.0698C12.5276 17.0693 12.5416 17.0689 12.5621 17.0683C12.5845 17.0678 12.6038 17.0673 12.6346 17.0666L12.6104 16.0669L12.5861 15.0672C12.5146 15.0689 12.3632 15.0696 12.2227 15.0905L12.3701 16.0796ZM12.6104 16.0669L12.6345 17.0666C12.6801 17.0655 13.0067 17.0687 13.3218 16.9498L12.9688 16.0142L12.6157 15.0786C12.6406 15.0692 12.6575 15.0653 12.663 15.0642C12.6689 15.0629 12.6694 15.0632 12.6632 15.0638C12.6574 15.0645 12.6486 15.0652 12.6357 15.0657C12.6294 15.066 12.6226 15.0663 12.6145 15.0665C12.6054 15.0667 12.5985 15.0669 12.5862 15.0672L12.6104 16.0669ZM12.9688 16.0142L13.3227 16.9494C13.5155 16.8765 13.8304 16.7131 14.0582 16.3598L13.2178 15.8179L12.3773 15.276C12.4607 15.1466 12.5705 15.0957 12.6148 15.0789L12.9688 16.0142ZM13.2178 15.8179L14.0588 16.3588C14.1758 16.177 14.2353 15.9948 14.2651 15.8404L13.2832 15.6509L12.3013 15.4613C12.3098 15.4173 12.33 15.3495 12.3767 15.2769L13.2178 15.8179ZM13.2832 15.6509L14.2014 16.047C14.2225 15.9981 14.2617 15.903 14.286 15.7995L13.3125 15.5708L12.339 15.3421C12.3457 15.3135 12.3521 15.2927 12.3549 15.284C12.3582 15.2734 12.3608 15.2661 12.3621 15.2624C12.3647 15.2551 12.3658 15.2529 12.365 15.2548L13.2832 15.6509ZM13.3125 15.5708L14.2873 15.7941C14.3353 15.5842 14.3283 15.4002 14.3252 15.3313L13.3262 15.3765L12.3272 15.4216C12.3276 15.4297 12.3271 15.4261 12.3276 15.4168C12.3279 15.4085 12.3295 15.3837 12.3377 15.3475L13.3125 15.5708ZM13.3262 15.3765L14.3251 15.3307C14.3177 15.1686 14.2893 14.99 14.278 14.9146L13.2891 15.063L12.3001 15.2114C12.3076 15.2611 12.3139 15.303 12.3193 15.3445C12.3247 15.387 12.3267 15.4117 12.3272 15.4222L13.3262 15.3765ZM13.2891 15.063L14.278 14.9146C14.2754 14.8972 14.273 14.8792 14.2704 14.8584C14.2691 14.8477 14.2678 14.8374 14.2663 14.8252C14.2649 14.8138 14.2633 14.8002 14.2616 14.7866L13.2695 14.9126L12.2775 15.0386C12.2802 15.0598 12.2893 15.1392 12.3001 15.2113L13.2891 15.063ZM13.2695 14.9126L13.9192 15.6728C14.2703 15.3728 14.4264 14.9995 14.4784 14.8786L13.5596 14.4839L12.6408 14.0892C12.6211 14.135 12.6114 14.1542 12.6034 14.1673C12.596 14.1795 12.5998 14.1696 12.6199 14.1524L13.2695 14.9126ZM13.5596 14.4839L14.4784 14.8785C14.5016 14.8245 14.5236 14.7709 14.5335 14.7472C14.5454 14.7188 14.5499 14.7091 14.5531 14.7025L13.6553 14.2622L12.7574 13.8219C12.7113 13.9159 12.659 14.0467 12.6407 14.0892L13.5596 14.4839ZM13.6553 14.2622L14.5528 14.7032C14.5536 14.7016 14.5463 14.7167 14.5299 14.7419C14.5145 14.7656 14.4818 14.8124 14.4285 14.866L13.7188 14.1616L13.009 13.4572C12.8831 13.584 12.8054 13.7242 12.7577 13.8213L13.6553 14.2622ZM13.7188 14.1616L14.3709 14.9198C14.3642 14.9255 14.3586 14.93 14.363 14.9264C14.3649 14.9248 14.3721 14.9189 14.3802 14.912C14.3968 14.898 14.4251 14.8733 14.4575 14.841L13.751 14.1333L13.0445 13.4256C13.0645 13.4056 13.0804 13.3919 13.0859 13.3873C13.0884 13.3852 13.0903 13.3836 13.0874 13.3861C13.0865 13.3868 13.0837 13.3891 13.0807 13.3916C13.0777 13.3941 13.0727 13.3983 13.0666 13.4035L13.7188 14.1616ZM13.751 14.1333L14.4585 14.84L15.3013 13.9962L14.5938 13.2896L13.8862 12.5829L13.0435 13.4266L13.751 14.1333ZM14.5938 13.2896L15.3013 13.9962C15.3205 13.977 15.3352 13.9609 15.3424 13.9529C15.3459 13.949 15.3491 13.9454 15.3492 13.9453C15.3506 13.9437 15.347 13.9478 15.3424 13.9528L14.6055 13.2769L13.8685 12.6009C13.8651 12.6046 13.8623 12.6077 13.8607 12.6096C13.859 12.6114 13.8576 12.613 13.8571 12.6135C13.8554 12.6154 13.8569 12.6138 13.8584 12.6122C13.8602 12.6101 13.8636 12.6064 13.8681 12.6016C13.8726 12.5968 13.8787 12.5904 13.8862 12.5829L14.5938 13.2896ZM14.6055 13.2769L15.3399 13.9555C15.3315 13.9646 15.3242 13.9721 15.3189 13.9775C15.3135 13.983 15.3091 13.9873 15.3066 13.9897C15.3053 13.991 15.3044 13.9919 15.304 13.9923C15.3038 13.9925 15.3037 13.9926 15.3038 13.9925C15.3038 13.9925 15.3042 13.9921 15.3046 13.9917C15.3051 13.9912 15.3074 13.989 15.3102 13.9862C15.3118 13.9847 15.3139 13.9826 15.3164 13.9801C15.3189 13.9777 15.3223 13.9742 15.3264 13.97L14.6113 13.271L13.8963 12.5719C13.9036 12.5644 13.9094 12.5587 13.9116 12.5566C13.9141 12.5542 13.916 12.5523 13.9162 12.5522C13.9178 12.5506 13.9141 12.5541 13.9113 12.5569C13.9077 12.5604 13.9022 12.5658 13.8957 12.5724C13.8891 12.579 13.8807 12.5878 13.871 12.5982L14.6055 13.2769ZM14.6113 13.271L13.8521 12.6202L13.8462 12.627L14.6055 13.2778L15.3647 13.9286L15.3706 13.9218L14.6113 13.271ZM14.6055 13.2778L15.3252 13.9721C15.9215 13.354 16.2843 12.5523 16.3603 11.705L15.3643 11.6157L14.3683 11.5264C14.3328 11.9219 14.1633 12.2959 13.8858 12.5835L14.6055 13.2778ZM15.3643 11.6157L16.3635 11.6557L16.3742 11.3871L15.375 11.3472L14.3758 11.3072L14.3651 11.5758L15.3643 11.6157ZM15.375 11.3472L16.3733 11.2891L16.3577 11.0205L15.3594 11.0786L14.3611 11.1367L14.3767 11.4053L15.375 11.3472ZM15.3594 11.0786L16.3537 10.9722C16.2632 10.1262 15.8866 9.33122 15.2799 8.72363L14.5723 9.43018L13.8646 10.1367C14.147 10.4196 14.3228 10.7903 14.3651 11.185L15.3594 11.0786ZM14.5723 9.43018L15.2797 8.72338C14.586 8.02911 13.6464 7.63424 12.6641 7.62553L12.6553 8.62549L12.6464 9.62545C13.1036 9.62951 13.5416 9.81347 13.8648 10.137L14.5723 9.43018Z" fill="#454C53" mask="url(#path-2-inside-1_1288_4636)"/>
</g>
<path d="M10.6466 13.052C10.7762 13.2254 10.9415 13.3689 11.1313 13.4727C11.3211 13.5765 11.531 13.6382 11.7468 13.6537C11.9626 13.6692 12.1791 13.638 12.3818 13.5623C12.5845 13.4867 12.7685 13.3682 12.9214 13.2151L13.8265 12.3091C14.1013 12.0243 14.2534 11.6428 14.2499 11.2469C14.2465 10.851 14.0879 10.4723 13.8082 10.1923C13.5285 9.91231 13.1501 9.7535 12.7546 9.75006C12.3591 9.74662 11.978 9.89882 11.6935 10.1739L11.1746 10.6903M11.8534 12.448C11.7238 12.2746 11.5585 12.1311 11.3687 12.0273C11.1789 11.9235 10.969 11.8618 10.7532 11.8463C10.5374 11.8308 10.3209 11.862 10.1182 11.9377C9.91554 12.0133 9.7315 12.1318 9.57857 12.2849L8.67346 13.1909C8.39867 13.4757 8.24662 13.8572 8.25006 14.2531C8.25349 14.649 8.41214 15.0277 8.69183 15.3077C8.97152 15.5877 9.34988 15.7465 9.74541 15.7499C10.1409 15.7534 10.522 15.6012 10.8065 15.3261L11.3224 14.8097" stroke="#454C53" stroke-linecap="round" stroke-linejoin="round"/>
</svg>
