<svg width="18" height="18" viewBox="0 0 18 18" fill="none" xmlns="http://www.w3.org/2000/svg">
<mask id="mask0_1288_4644" style="mask-type:alpha" maskUnits="userSpaceOnUse" x="3" y="2" width="11" height="14">
<path d="M9.375 3V5.4C9.375 5.71826 9.49353 6.02348 9.70451 6.24853C9.91548 6.47357 10.2016 6.6 10.5 6.6H12.75M9.9375 3H4.875C4.57663 3 4.29048 3.12643 4.0795 3.35147C3.86853 3.57652 3.75 3.88174 3.75 4.2V13.8C3.75 14.1183 3.86853 14.4235 4.0795 14.6485C4.29048 14.8736 4.57663 15 4.875 15H11.625C11.9234 15 12.2095 14.8736 12.4205 14.6485C12.6315 14.4235 12.75 14.1183 12.75 13.8V6L9.9375 3Z" stroke="#454C53" stroke-linecap="round" stroke-linejoin="round"/>
</mask>
<g mask="url(#mask0_1288_4644)">
<mask id="path-2-inside-1_1288_4644" fill="white">
<path d="M16.1875 16.3252H13.2891C13.4741 16.1419 13.5898 15.9003 13.5898 15.625V13.6875H14.7227C15.3642 13.6875 15.9375 13.2389 15.9375 12.625C15.9375 12.0111 15.3642 11.5625 14.7227 11.5625H13.5898V10.625C13.5898 10.0111 13.0165 9.5625 12.375 9.5625C11.7335 9.5625 11.1602 10.0111 11.1602 10.625V11.5625H10.0273C9.42383 11.5625 8.88566 11.9566 8.81934 12.5137H8.81836V12.5244L8.8125 12.6143V12.625C8.8125 13.2389 9.38582 13.6875 10.0273 13.6875H11.1602V15.625C11.1602 15.9003 11.2759 16.1419 11.4609 16.3252H0.879883V2.11035H16.1875V16.3252Z"/>
</mask>
<path d="M16.1875 16.3252H13.2891C13.4741 16.1419 13.5898 15.9003 13.5898 15.625V13.6875H14.7227C15.3642 13.6875 15.9375 13.2389 15.9375 12.625C15.9375 12.0111 15.3642 11.5625 14.7227 11.5625H13.5898V10.625C13.5898 10.0111 13.0165 9.5625 12.375 9.5625C11.7335 9.5625 11.1602 10.0111 11.1602 10.625V11.5625H10.0273C9.42383 11.5625 8.88566 11.9566 8.81934 12.5137H8.81836V12.5244L8.8125 12.6143V12.625C8.8125 13.2389 9.38582 13.6875 10.0273 13.6875H11.1602V15.625C11.1602 15.9003 11.2759 16.1419 11.4609 16.3252H0.879883V2.11035H16.1875V16.3252Z" fill="#454C53"/>
<path d="M16.1875 16.3252V17.3252H17.1875V16.3252H16.1875ZM13.2891 16.3252L12.5854 15.6147L10.8583 17.3252H13.2891V16.3252ZM13.5898 13.6875V12.6875H12.5898V13.6875H13.5898ZM13.5898 11.5625H12.5898V12.5625H13.5898V11.5625ZM12.375 9.5625V8.5625V8.5625V9.5625ZM11.1602 11.5625V12.5625H12.1602V11.5625H11.1602ZM8.81934 12.5137V13.5137H9.70734L9.81232 12.6319L8.81934 12.5137ZM8.81836 12.5137V11.5137H7.81836V12.5137H8.81836ZM8.81836 12.5244L9.81624 12.5895L9.81836 12.557V12.5244H8.81836ZM8.8125 12.6143L7.81462 12.5492L7.8125 12.5817V12.6143H8.8125ZM11.1602 13.6875H12.1602V12.6875H11.1602V13.6875ZM11.4609 16.3252V17.3252H13.8917L12.1646 15.6147L11.4609 16.3252ZM0.879883 16.3252H-0.120117V17.3252H0.879883V16.3252ZM0.879883 2.11035V1.11035H-0.120117V2.11035H0.879883ZM16.1875 2.11035H17.1875V1.11035H16.1875V2.11035ZM16.1875 16.3252V15.3252H13.2891V16.3252V17.3252H16.1875V16.3252ZM13.2891 16.3252L13.9927 17.0357C14.345 16.6868 14.5898 16.1971 14.5898 15.625H13.5898H12.5898C12.5898 15.6234 12.59 15.62 12.591 15.6156C12.5919 15.6112 12.5932 15.6076 12.5943 15.6052C12.5965 15.6001 12.5959 15.6042 12.5854 15.6147L13.2891 16.3252ZM13.5898 15.625H14.5898V13.6875H13.5898H12.5898V15.625H13.5898ZM13.5898 13.6875V14.6875H14.7227V13.6875V12.6875H13.5898V13.6875ZM14.7227 13.6875V14.6875C15.7521 14.6875 16.9375 13.9423 16.9375 12.625H15.9375H14.9375C14.9375 12.6193 14.9396 12.6106 14.9423 12.6051C14.9441 12.6015 14.9413 12.609 14.9252 12.6227C14.889 12.6533 14.8162 12.6875 14.7227 12.6875V13.6875ZM15.9375 12.625H16.9375C16.9375 11.3077 15.7521 10.5625 14.7227 10.5625V11.5625V12.5625C14.8162 12.5625 14.889 12.5967 14.9252 12.6273C14.9413 12.641 14.9441 12.6485 14.9423 12.6449C14.9396 12.6394 14.9375 12.6307 14.9375 12.625H15.9375ZM14.7227 11.5625V10.5625H13.5898V11.5625V12.5625H14.7227V11.5625ZM13.5898 11.5625H14.5898V10.625H13.5898H12.5898V11.5625H13.5898ZM13.5898 10.625H14.5898C14.5898 9.30768 13.4044 8.5625 12.375 8.5625V9.5625V10.5625C12.4685 10.5625 12.5413 10.5967 12.5775 10.6273C12.5936 10.641 12.5964 10.6485 12.5946 10.6449C12.5919 10.6394 12.5898 10.6307 12.5898 10.625H13.5898ZM12.375 9.5625V8.5625C11.3456 8.5625 10.1602 9.30768 10.1602 10.625H11.1602H12.1602C12.1602 10.6307 12.1581 10.6394 12.1554 10.6449C12.1536 10.6485 12.1564 10.641 12.1725 10.6273C12.2087 10.5967 12.2815 10.5625 12.375 10.5625V9.5625ZM11.1602 10.625H10.1602V11.5625H11.1602H12.1602V10.625H11.1602ZM11.1602 11.5625V10.5625H10.0273V11.5625V12.5625H11.1602V11.5625ZM10.0273 11.5625V10.5625C9.04638 10.5625 7.96667 11.2169 7.82635 12.3955L8.81934 12.5137L9.81232 12.6319C9.80968 12.6541 9.79832 12.6474 9.83219 12.6214C9.86983 12.5924 9.93905 12.5625 10.0273 12.5625V11.5625ZM8.81934 12.5137V11.5137H8.81836V12.5137V13.5137H8.81934V12.5137ZM8.81836 12.5137H7.81836V12.5244H8.81836H9.81836V12.5137H8.81836ZM8.81836 12.5244L7.82048 12.4593L7.81462 12.5492L8.8125 12.6143L9.81038 12.6793L9.81624 12.5895L8.81836 12.5244ZM8.8125 12.6143H7.8125V12.625H8.8125H9.8125V12.6143H8.8125ZM8.8125 12.625H7.8125C7.8125 13.9423 8.99792 14.6875 10.0273 14.6875V13.6875V12.6875C9.9338 12.6875 9.86103 12.6533 9.82481 12.6227C9.8087 12.609 9.80591 12.6015 9.8077 12.6051C9.81044 12.6106 9.8125 12.6193 9.8125 12.625H8.8125ZM10.0273 13.6875V14.6875H11.1602V13.6875V12.6875H10.0273V13.6875ZM11.1602 13.6875H10.1602V15.625H11.1602H12.1602V13.6875H11.1602ZM11.1602 15.625H10.1602C10.1602 16.1971 10.405 16.6868 10.7573 17.0357L11.4609 16.3252L12.1646 15.6147C12.1541 15.6042 12.1535 15.6001 12.1557 15.6052C12.1568 15.6076 12.1581 15.6112 12.159 15.6156C12.16 15.62 12.1602 15.6234 12.1602 15.625H11.1602ZM11.4609 16.3252V15.3252H0.879883V16.3252V17.3252H11.4609V16.3252ZM0.879883 16.3252H1.87988V2.11035H0.879883H-0.120117V16.3252H0.879883ZM0.879883 2.11035V3.11035H16.1875V2.11035V1.11035H0.879883V2.11035ZM16.1875 2.11035H15.1875V16.3252H16.1875H17.1875V2.11035H16.1875Z" fill="#454C53" mask="url(#path-2-inside-1_1288_4644)"/>
</g>
<path d="M10.5 12.75H14.25M12.375 10.875V14.625" stroke="#454C53" stroke-linecap="round" stroke-linejoin="round"/>
</svg>
