<svg width="18" height="18" viewBox="0 0 18 18" fill="none" xmlns="http://www.w3.org/2000/svg">
<path d="M10.75 3V5.26488C10.75 5.56522 10.8729 5.85326 11.0917 6.06564C11.3105 6.27801 11.6072 6.39732 11.9167 6.39732H14.25M5.57292 5.8311V4.13244C5.57292 3.8321 5.69583 3.54406 5.91463 3.33168C6.13342 3.11931 6.43016 3 6.73958 3H11.3333L14.25 5.8311V13.8586C14.25 14.159 14.1271 14.447 13.9083 14.6594C13.6895 14.8718 13.3928 14.9911 13.0833 14.9911L6.77633 14.9905C6.54589 15.0197 6.31172 14.9813 6.10386 14.8804C5.896 14.7796 5.72392 14.6207 5.60967 14.4243M5.5 11.4933L3.75 9.79464L5.5 8.09598M3.75 9.79464H9.58333" stroke="#454C53" stroke-linecap="round" stroke-linejoin="round"/>
</svg>
