<svg width="18" height="18" viewBox="0 0 18 18" fill="none" xmlns="http://www.w3.org/2000/svg">
<path d="M10.125 3V5.4C10.125 5.71826 10.2435 6.02348 10.4545 6.24853C10.6655 6.47357 10.9516 6.6 11.25 6.6H13.5M10.6875 3H5.625C5.32663 3 5.04048 3.12643 4.8295 3.35147C4.61853 3.57652 4.5 3.88174 4.5 4.2V13.8C4.5 14.1183 4.61853 14.4235 4.8295 14.6485C5.04048 14.8736 5.32663 15 5.625 15H12.375C12.6734 15 12.9595 14.8736 13.1705 14.6485C13.3815 14.4235 13.5 14.1183 13.5 13.8V6L10.6875 3Z" stroke="#454C53" stroke-linecap="round" stroke-linejoin="round"/>
</svg>
