<svg width="18" height="18" viewBox="0 0 18 18" fill="none" xmlns="http://www.w3.org/2000/svg">
<path d="M7.80044 13.8109C7.80038 13.9214 7.83141 14.0296 7.89002 14.1236C7.94864 14.2176 8.03253 14.2935 8.13228 14.3429L9.33245 14.9373C9.42396 14.9826 9.52564 15.004 9.62783 14.9994C9.73002 14.9948 9.82934 14.9644 9.91634 14.9111C10.0033 14.8578 10.0751 14.7834 10.1249 14.6948C10.1747 14.6063 10.2008 14.5066 10.2008 14.4053V9.53854C10.2009 9.24394 10.3115 8.95988 10.511 8.74143L14.8454 3.99267C14.9231 3.90741 14.9742 3.80167 14.9925 3.68826C15.0108 3.57485 14.9955 3.45861 14.9485 3.3536C14.9016 3.24859 14.8249 3.15932 14.7278 3.09656C14.6307 3.03381 14.5173 3.00027 14.4013 3H3.59987C3.48381 3.00004 3.37026 3.03342 3.27297 3.09608C3.17568 3.15874 3.09881 3.24801 3.05169 3.35306C3.00457 3.45811 2.98921 3.57445 3.00748 3.68797C3.02574 3.80149 3.07685 3.90733 3.1546 3.99267L7.49019 8.74143C7.68974 8.95988 7.8003 9.24394 7.80044 9.53854V13.8109Z" stroke="#454C53" stroke-linecap="round" stroke-linejoin="round"/>
</svg>
