<svg width="18" height="18" viewBox="0 0 18 18" fill="none" xmlns="http://www.w3.org/2000/svg">
<path d="M13.8324 13.5C14.3043 13.5 14.4391 13.3856 14.658 13.1806C14.877 12.9757 15 12.6983 15 12.4084V7.23245C15 6.94257 14.877 6.66457 14.658 6.45959C14.4391 6.25462 14.1421 6.13947 13.8324 6.13947H9.70703C9.51176 6.14126 9.31913 6.09718 9.14677 6.01125C8.97441 5.92533 8.82783 5.8003 8.72043 5.64763L8.24757 4.99184C8.14126 4.84072 7.99653 4.71667 7.82637 4.63083C7.65621 4.54498 7.46594 4.50003 7.27265 4.5H4.16757C3.85791 4.5 3.56093 4.61515 3.34197 4.82013C3.12301 5.0251 3 5.3031 3 5.59298V12.4084C3 12.6983 3.12301 12.9757 3.34197 13.1806C3.56093 13.3856 3.85791 13.5 4.16757 13.5H13.8324Z" stroke="#454C53" stroke-linecap="round" stroke-linejoin="round"/>
</svg>
