<svg width="18" height="18" viewBox="0 0 18 18" fill="none" xmlns="http://www.w3.org/2000/svg">
<path d="M9 6.33354V15M9 6.33354C8.75885 5.33984 8.34363 4.4903 7.80849 3.89571C7.27335 3.30112 6.64312 2.98909 6 3.00029C5.55797 3.00029 5.13405 3.17588 4.82149 3.48844C4.50893 3.80099 4.33333 4.2249 4.33333 4.66692C4.33333 5.10893 4.50893 5.53285 4.82149 5.8454C5.13405 6.15795 5.55797 6.33354 6 6.33354M9 6.33354C9.24115 5.33984 9.65637 4.4903 10.1915 3.89571C10.7267 3.30112 11.3569 2.98909 12 3.00029C12.442 3.00029 12.866 3.17588 13.1785 3.48844C13.4911 3.80099 13.6667 4.2249 13.6667 4.66692C13.6667 5.10893 13.4911 5.53285 13.1785 5.8454C12.866 6.15795 12.442 6.33354 12 6.33354M13.6667 9.00015V13.6667C13.6667 14.0203 13.5262 14.3594 13.2761 14.6095C13.0261 14.8595 12.687 15 12.3333 15H5.66667C5.31304 15 4.97391 14.8595 4.72386 14.6095C4.47381 14.3594 4.33333 14.0203 4.33333 13.6667V9.00015M3.66667 6.33354H14.3333C14.7015 6.33354 15 6.63201 15 7.00019V8.3335C15 8.70168 14.7015 9.00015 14.3333 9.00015H3.66667C3.29848 9.00015 3 8.70168 3 8.3335V7.00019C3 6.63201 3.29848 6.33354 3.66667 6.33354Z" stroke="#454C53" stroke-linecap="round" stroke-linejoin="round"/>
</svg>
