<svg width="18" height="18" viewBox="0 0 18 18" fill="none" xmlns="http://www.w3.org/2000/svg">
<path d="M13.3784 7.125V5.03571C13.3784 4.69472 13.2417 4.3677 12.9984 4.12658C12.7551 3.88546 12.4251 3.75 12.0811 3.75H4.2973C3.95323 3.75 3.62326 3.88546 3.37997 4.12658C3.13668 4.3677 3 4.69472 3 5.03571V10.3393C3 10.6803 3.13668 11.0073 3.37997 11.2484C3.62326 11.4895 3.95323 11.625 4.2973 11.625H9.48649M8.18919 14.3571V11.6507V13.6757M6.24324 14.3571H9.48649M12.4054 9.05357H13.7027C14.4192 9.05357 15 9.62921 15 10.3393V13.7143C15 14.4244 14.4192 15 13.7027 15H12.4054C11.6889 15 11.1081 14.4244 11.1081 13.7143V10.3393C11.1081 9.62921 11.6889 9.05357 12.4054 9.05357Z" stroke="#454C53" stroke-linecap="round" stroke-linejoin="round"/>
</svg>
