<svg width="18" height="18" viewBox="0 0 18 18" fill="none" xmlns="http://www.w3.org/2000/svg">
<path d="M3.18462 9.09231C3.18462 10.2607 3.5311 11.4029 4.18024 12.3744C4.82939 13.346 5.75204 14.1032 6.83153 14.5503C7.91102 14.9974 9.09886 15.1144 10.2448 14.8865C11.3908 14.6585 12.4435 14.0959 13.2697 13.2697C14.0959 12.4435 14.6585 11.3908 14.8865 10.2448C15.1144 9.09886 14.9974 7.91102 14.5503 6.83153C14.1032 5.75204 13.346 4.82939 12.3744 4.18024C11.4029 3.5311 10.2607 3.18462 9.09231 3.18462C7.44075 3.19083 5.85553 3.83526 4.6681 4.98318L3 6.648M6.648 6.648H3V3M9.09231 5.81026V9.09231L11.7179 10.4051" stroke="#454C53" stroke-linecap="round" stroke-linejoin="round"/>
</svg>
