<svg width="18" height="18" viewBox="0 0 18 18" fill="none" xmlns="http://www.w3.org/2000/svg">
<path d="M15 8.32828C15.2761 8.32828 15.5 8.10442 15.5 7.82828C15.5 7.55213 15.2761 7.32828 15 7.32828V7.82828V8.32828ZM9.66667 7.32828C9.39053 7.32828 9.16667 7.55213 9.16667 7.82828C9.16667 8.10442 9.39053 8.32828 9.66667 8.32828V7.82828V7.32828ZM15 5.41919C15.2761 5.41919 15.5 5.19533 15.5 4.91919C15.5 4.64305 15.2761 4.41919 15 4.41919V4.91919V5.41919ZM9.66667 4.41919C9.39053 4.41919 9.16667 4.64305 9.16667 4.91919C9.16667 5.19533 9.39053 5.41919 9.66667 5.41919V4.91919V4.41919ZM15 11.2374C15.2761 11.2374 15.5 11.0135 15.5 10.7374C15.5 10.4612 15.2761 10.2374 15 10.2374V10.7374V11.2374ZM9.66667 10.2374C9.39053 10.2374 9.16667 10.4612 9.16667 10.7374C9.16667 11.0135 9.39053 11.2374 9.66667 11.2374V10.7374V10.2374ZM15 14.1465C15.2761 14.1465 15.5 13.9226 15.5 13.6465C15.5 13.3703 15.2761 13.1465 15 13.1465V13.6465V14.1465ZM9.66667 13.1465C9.39053 13.1465 9.16667 13.3703 9.16667 13.6465C9.16667 13.9226 9.39053 14.1465 9.66667 14.1465V13.6465V13.1465ZM5.5 7.90909L5.15727 8.27314C5.34973 8.45434 5.64998 8.45442 5.84254 8.27333L5.5 7.90909ZM6.00135 3.00014C6.00142 2.72399 5.77763 2.50008 5.50149 2.5C5.22534 2.49992 5.00142 2.72372 5.00135 2.99986L5.50135 3L6.00135 3.00014ZM8.34254 5.92226C8.5437 5.73308 8.55341 5.41664 8.36424 5.21548C8.17506 5.01432 7.85862 5.00461 7.65746 5.19378L8 5.55802L8.34254 5.92226ZM3.34543 5.19397C3.14437 5.00468 2.82793 5.01423 2.63864 5.21529C2.44936 5.41635 2.4589 5.73279 2.65996 5.92207L3.0027 5.55802L3.34543 5.19397ZM4.99865 14.9999C4.99858 15.276 5.22237 15.4999 5.49851 15.5C5.77466 15.5001 5.99858 15.2763 5.99865 15.0001L5.49865 15L4.99865 14.9999ZM5.5 10.0909L5.8403 9.72458C5.64851 9.54642 5.35178 9.54634 5.1599 9.7244L5.5 10.0909ZM2.6599 12.0443C2.45748 12.2321 2.44566 12.5485 2.63349 12.7509C2.82132 12.9533 3.13769 12.9651 3.3401 12.7773L3 12.4108L2.6599 12.0443ZM7.657 12.7771C7.85932 12.9651 8.17569 12.9534 8.36363 12.7511C8.55157 12.5488 8.53992 12.2324 8.33761 12.0445L7.9973 12.4108L7.657 12.7771ZM15 7.82828V7.32828H9.66667V7.82828V8.32828H15V7.82828ZM15 4.91919V4.41919H9.66667V4.91919V5.41919H15V4.91919ZM15 10.7374V10.2374H9.66667V10.7374V11.2374H15V10.7374ZM15 13.6465V13.1465H9.66667V13.6465V14.1465H15V13.6465ZM5.5 7.90909L6 7.90923L6.00135 3.00014L5.50135 3L5.00135 2.99986L5 7.90895L5.5 7.90909ZM8 5.55802L7.65746 5.19378L5.15746 7.54486L5.5 7.90909L5.84254 8.27333L8.34254 5.92226L8 5.55802ZM5.5 7.90909L5.84273 7.54504L3.34543 5.19397L3.0027 5.55802L2.65996 5.92207L5.15727 8.27314L5.5 7.90909ZM5.49865 15L5.99865 15.0001L6 10.091L5.5 10.0909L5 10.0908L4.99865 14.9999L5.49865 15ZM3 12.4108L3.3401 12.7773L5.8401 10.4574L5.5 10.0909L5.1599 9.7244L2.6599 12.0443L3 12.4108ZM5.5 10.0909L5.1597 10.4572L7.657 12.7771L7.9973 12.4108L8.33761 12.0445L5.8403 9.72458L5.5 10.0909Z" fill="#454C53"/>
</svg>
