<svg width="18" height="18" viewBox="0 0 18 18" fill="none" xmlns="http://www.w3.org/2000/svg">
<path d="M14.0285 14.2154H9.47566M3.5 14.5L6.65814 13.2853C6.86014 13.2076 6.96114 13.1688 7.05563 13.1181C7.13957 13.073 7.21958 13.021 7.29484 12.9626C7.37957 12.8969 7.45609 12.8203 7.60913 12.6673L14.0285 6.24791C14.6572 5.61929 14.6572 4.60009 14.0285 3.97147C13.3999 3.34285 12.3807 3.34284 11.7521 3.97146L5.33269 10.3909C5.17966 10.5439 5.10314 10.6204 5.03739 10.7052C4.97899 10.7804 4.92699 10.8604 4.88193 10.9444C4.83121 11.0389 4.79236 11.1399 4.71467 11.3419L3.5 14.5ZM3.5 14.5L4.6713 11.4547C4.75511 11.2367 4.79702 11.1278 4.8689 11.0779C4.93172 11.0343 5.00945 11.0178 5.08457 11.0321C5.17052 11.0485 5.25307 11.1311 5.41817 11.2962L6.70384 12.5818C6.86894 12.7469 6.95149 12.8295 6.9679 12.9154C6.98225 12.9906 6.96575 13.0683 6.92214 13.1311C6.87223 13.203 6.76327 13.2449 6.54534 13.3287L3.5 14.5Z" stroke="#454C53" stroke-linecap="round" stroke-linejoin="round"/>
</svg>
