<svg width="18" height="18" viewBox="0 0 18 18" fill="none" xmlns="http://www.w3.org/2000/svg">
<path d="M7.6348 4.27343C7.66709 3.92501 7.82491 3.60145 8.07742 3.36597C8.32993 3.13049 8.65898 3 9.00029 3C9.34161 3 9.67066 3.13049 9.92317 3.36597C10.1757 3.60145 10.3335 3.92501 10.3658 4.27343C10.3852 4.4985 10.4572 4.71547 10.5757 4.90596C10.6942 5.09646 10.8557 5.25487 11.0466 5.36779C11.2375 5.48072 11.4521 5.54483 11.6722 5.5547C11.8923 5.56456 12.1116 5.5199 12.3113 5.42449C12.6215 5.2801 12.9729 5.25921 13.2973 5.36588C13.6216 5.47255 13.8956 5.69915 14.066 6.00159C14.2364 6.30402 14.291 6.66065 14.2191 7.00206C14.1472 7.34347 13.954 7.64524 13.6771 7.84864C13.4968 7.97838 13.3496 8.15074 13.248 8.35115C13.1463 8.55156 13.0933 8.77412 13.0933 9C13.0933 9.22588 13.1463 9.44844 13.248 9.64885C13.3496 9.84926 13.4968 10.0216 13.6771 10.1514C13.954 10.3548 14.1472 10.6565 14.2191 10.9979C14.291 11.3394 14.2364 11.696 14.066 11.9984C13.8956 12.3008 13.6216 12.5275 13.2973 12.6341C12.9729 12.7408 12.6215 12.7199 12.3113 12.5755C12.1116 12.4801 11.8923 12.4354 11.6722 12.4453C11.4521 12.4552 11.2375 12.5193 11.0466 12.6322C10.8557 12.7451 10.6942 12.9035 10.5757 13.094C10.4572 13.2845 10.3852 13.5015 10.3658 13.7266C10.3335 14.075 10.1757 14.3986 9.92317 14.634C9.67066 14.8695 9.34161 15 9.00029 15C8.65898 15 8.32993 14.8695 8.07742 14.634C7.82491 14.3986 7.66709 14.075 7.6348 13.7266C7.61542 13.5014 7.54341 13.2844 7.42487 13.0938C7.30632 12.9032 7.14474 12.7448 6.9538 12.6318C6.76286 12.5189 6.54818 12.4548 6.32796 12.445C6.10774 12.4352 5.88846 12.48 5.68869 12.5755C5.37854 12.7199 5.02709 12.7408 4.70275 12.6341C4.3784 12.5275 4.10436 12.3008 3.93397 11.9984C3.76357 11.696 3.70901 11.3394 3.7809 10.9979C3.85279 10.6565 4.046 10.3548 4.3229 10.1514C4.50322 10.0216 4.65042 9.84926 4.75204 9.64885C4.85366 9.44844 4.90671 9.22588 4.90671 9C4.90671 8.77412 4.85366 8.55156 4.75204 8.35115C4.65042 8.15074 4.50322 7.97838 4.3229 7.84864C4.04638 7.64514 3.85352 7.34349 3.78181 7.00231C3.71009 6.66113 3.76464 6.30479 3.93485 6.00255C4.10506 5.70032 4.37877 5.47377 4.7028 5.36693C5.02682 5.2601 5.37801 5.28061 5.68811 5.42449C5.88785 5.5199 6.10707 5.56456 6.32721 5.5547C6.54736 5.54483 6.76194 5.48072 6.9528 5.36779C7.14366 5.25487 7.30519 5.09646 7.42369 4.90596C7.5422 4.71547 7.61421 4.4985 7.63362 4.27343M10.7585 9.0003C10.7585 9.9962 9.97121 10.8035 9 10.8035C8.02879 10.8035 7.24147 9.9962 7.24147 9.0003C7.24147 8.0044 8.02879 7.19707 9 7.19707C9.97121 7.19707 10.7585 8.0044 10.7585 9.0003Z" stroke="#454C53" stroke-linecap="round" stroke-linejoin="round"/>
</svg>
