<svg width="18" height="18" viewBox="0 0 18 18" fill="none" xmlns="http://www.w3.org/2000/svg">
<path d="M6.86875 9.906L11.1375 12.294M11.1312 5.706L6.86875 8.094M14.625 4.8C14.625 5.79411 13.7855 6.6 12.75 6.6C11.7145 6.6 10.875 5.79411 10.875 4.8C10.875 3.80589 11.7145 3 12.75 3C13.7855 3 14.625 3.80589 14.625 4.8ZM7.125 9C7.125 9.99411 6.28553 10.8 5.25 10.8C4.21447 10.8 3.375 9.99411 3.375 9C3.375 8.00589 4.21447 7.2 5.25 7.2C6.28553 7.2 7.125 8.00589 7.125 9ZM14.625 13.2C14.625 14.1941 13.7855 15 12.75 15C11.7145 15 10.875 14.1941 10.875 13.2C10.875 12.2059 11.7145 11.4 12.75 11.4C13.7855 11.4 14.625 12.2059 14.625 13.2Z" stroke="#454C53" stroke-linecap="round" stroke-linejoin="round"/>
</svg>
