<svg width="18" height="18" viewBox="0 0 18 18" fill="none" xmlns="http://www.w3.org/2000/svg">
<path d="M6 14.1972V13.2C6 12.8817 6.12643 12.5765 6.35147 12.3515C6.57652 12.1264 6.88174 12 7.2 12H10.8C11.1183 12 11.4235 12.1264 11.6485 12.3515C11.8736 12.5765 12 12.8817 12 13.2V14.1972M15 9C15 12.3137 12.3137 15 9 15C5.68629 15 3 12.3137 3 9C3 5.68629 5.68629 3 9 3C12.3137 3 15 5.68629 15 9ZM10.8 7.8C10.8 8.79411 9.99411 9.6 9 9.6C8.00589 9.6 7.2 8.79411 7.2 7.8C7.2 6.80589 8.00589 6 9 6C9.99411 6 10.8 6.80589 10.8 7.8Z" stroke="#454C53" stroke-linecap="round" stroke-linejoin="round"/>
</svg>
