<svg width="24" height="24" viewBox="0 0 24 24" fill="none" xmlns="http://www.w3.org/2000/svg">
<path d="M10.6524 19.2217C10.789 19.4583 10.9853 19.6548 11.2218 19.7915C11.4583 19.9281 11.7265 20 11.9996 20C12.2726 20 12.5409 19.9281 12.7773 19.7915C13.0138 19.6548 13.2102 19.4583 13.3467 19.2217M5.20321 14.5889C5.10161 14.7004 5.03455 14.839 5.01021 14.9879C4.98586 15.1368 5.00528 15.2895 5.06609 15.4276C5.12691 15.5656 5.2265 15.683 5.35275 15.7654C5.479 15.8479 5.62647 15.8918 5.77723 15.8919H18.2219C18.3727 15.892 18.5202 15.8482 18.6465 15.7659C18.7728 15.6836 18.8725 15.5664 18.9335 15.4284C18.9945 15.2905 19.0141 15.1378 18.99 14.9889C18.9658 14.84 18.8989 14.7013 18.7975 14.5897C17.763 13.5225 16.6663 12.1722 16.6663 8.67029C16.6663 7.43165 16.1747 6.24375 15.2995 5.3679C14.4243 4.49205 13.2373 4 11.9996 4C10.7619 4 9.57486 4.49205 8.69968 5.3679C7.82449 6.24375 7.33281 7.43165 7.33281 8.67029C7.33281 12.1722 6.23535 13.5225 5.20321 14.5889Z" stroke="#454C53" stroke-width="1.5" stroke-linecap="round" stroke-linejoin="round"/>
</svg>
