<svg width="24" height="24" viewBox="0 0 24 24" fill="none" xmlns="http://www.w3.org/2000/svg">
<path d="M20 14L15.5862 18L13 15.8651" stroke="#454C53" stroke-width="1.5" stroke-linecap="round" stroke-linejoin="round"/>
<path fill-rule="evenodd" clip-rule="evenodd" d="M6.62988 4.10401C7.51382 4.10401 8.22082 4.10361 8.79102 4.14893C9.36927 4.1949 9.87226 4.29117 10.3359 4.521C10.8979 4.79966 11.3822 5.20636 11.75 5.70362C12.1178 5.20636 12.6021 4.79966 13.1641 4.521C13.6277 4.29117 14.1307 4.1949 14.709 4.14893C15.2792 4.10361 15.9862 4.10401 16.8701 4.10401H17.1904C17.6262 4.10401 17.9975 4.10333 18.3008 4.12744C18.6122 4.15223 18.9175 4.20708 19.21 4.35205C19.6501 4.57038 20.0122 4.92068 20.2402 5.35596C20.3929 5.64748 20.4497 5.95275 20.4756 6.26026C20.5006 6.55835 20.5 6.92234 20.5 7.34522V11.7378C19.9994 11.6089 19.4593 11.676 19 11.9419V7.34522C19 6.89677 18.999 6.60616 18.9805 6.38526C18.9627 6.17431 18.9328 6.09365 18.9111 6.05225C18.8324 5.90213 18.7045 5.77589 18.543 5.6958C18.4933 5.67124 18.403 5.64018 18.1816 5.62256C17.9515 5.60427 17.6503 5.60401 17.1904 5.60401H16.8701C15.9623 5.60401 15.325 5.60457 14.8281 5.64404C14.3395 5.6829 14.0508 5.75633 13.8301 5.86572C13.3678 6.09503 12.9957 6.4591 12.7637 6.90186C12.6548 7.10972 12.5806 7.38305 12.541 7.85401C12.5209 8.09423 12.5101 8.36903 12.5049 8.69385L12.5 9.83643V9.84326L12.4639 13.7397C12.1032 13.8396 11.7661 14.0408 11.5 14.3423C10.7692 15.1705 10.8487 16.4347 11.6768 17.1655L12.9727 18.3091C12.772 18.5224 12.5465 18.7985 12.2891 19.1743C12.1492 19.3784 11.9173 19.5005 11.6699 19.5005C11.4225 19.5005 11.1906 19.3784 11.0508 19.1743C10.4693 18.3255 10.2603 18.0332 10.001 17.8257C9.75255 17.627 9.46441 17.4769 9.1543 17.3853C8.82841 17.289 8.45687 17.2817 7.41016 17.2817H6.30957C5.87376 17.2817 5.50255 17.2824 5.19922 17.2583C4.88778 17.2335 4.58255 17.1787 4.29004 17.0337C3.84981 16.8153 3.48779 16.4643 3.25977 16.0288C3.10734 15.7374 3.05022 15.4329 3.02442 15.1255C2.99943 14.8274 3 14.4634 3 14.0405V7.34522C3 6.92234 2.99942 6.55835 3.02442 6.26026C3.05026 5.95275 3.10713 5.64748 3.25977 5.35596C3.48781 4.92068 3.84995 4.57038 4.29004 4.35205C4.5825 4.20708 4.88784 4.15223 5.19922 4.12744C5.50254 4.10333 5.87378 4.10401 6.30957 4.10401H6.62988ZM6.30957 5.60401C5.84975 5.60401 5.54846 5.60427 5.31836 5.62256C5.09696 5.64018 5.00669 5.67124 4.95703 5.6958C4.7955 5.77589 4.66757 5.90213 4.58887 6.05225C4.56722 6.09365 4.53728 6.17431 4.51953 6.38526C4.50099 6.60616 4.5 6.89677 4.5 7.34522V14.0405C4.5 14.4888 4.50102 14.7796 4.51953 15.0005C4.53725 15.2112 4.56722 15.292 4.58887 15.3335C4.66753 15.4837 4.7955 15.6098 4.95703 15.6899C5.00667 15.7145 5.09695 15.7446 5.31836 15.7622C5.54847 15.7805 5.84973 15.7817 6.30957 15.7817H7.41016C8.36615 15.7817 8.99684 15.7744 9.58008 15.9468C10.0746 16.093 10.5362 16.3329 10.9375 16.6538L10.9385 16.6548L11 9.83643L10.9951 8.69385C10.9899 8.36903 10.9792 8.09423 10.959 7.85401C10.9194 7.38305 10.8452 7.10972 10.7363 6.90186C10.5043 6.4591 10.1322 6.09503 9.66992 5.86572C9.44921 5.75633 9.16055 5.6829 8.67188 5.64404C8.17496 5.60457 7.53773 5.60401 6.62988 5.60401H6.30957Z" fill="#454C53"/>
</svg>
