<svg width="24" height="24" viewBox="0 0 24 24" fill="none" xmlns="http://www.w3.org/2000/svg">
<path d="M20 12H15.2L13.6 13.875H10.4L8.8 12H4M4 12L6.76 7.69375C6.89246 7.48549 7.09666 7.31023 7.34964 7.18767C7.60261 7.06512 7.89433 7.00012 8.192 7H15.808C16.1057 7.00012 16.3974 7.06512 16.6504 7.18767C16.9033 7.31023 17.1075 7.48549 17.24 7.69375L20 12V15.75C20 16.0815 19.8314 16.3995 19.5314 16.6339C19.2313 16.8683 18.8243 17 18.4 17H5.6C5.17565 17 4.76869 16.8683 4.46863 16.6339C4.16857 16.3995 4 16.0815 4 15.75V12Z" stroke="#454C53" stroke-width="1.5" stroke-linecap="round" stroke-linejoin="round"/>
</svg>
