<svg width="24" height="24" viewBox="0 0 24 24" fill="none" xmlns="http://www.w3.org/2000/svg">
<path d="M10.2 5C11.7072 5 13.0405 5.71411 13.8571 6.80951C14.1302 6.75968 14.4119 6.73333 14.7 6.73333C17.1853 6.73333 19.2 8.67343 19.2 11.0667C19.2 11.219 19.1913 11.3695 19.1754 11.5178C20.2648 12.1138 21 13.2406 21 14.5333C21 16.4479 19.3882 18 17.4 18H7.5C5.01472 18 3 16.0599 3 13.6667C3 11.8838 4.11803 10.3523 5.71582 9.68711C5.70603 9.5704 5.7 9.45247 5.7 9.33333C5.7 6.9401 7.71472 5 10.2 5Z" stroke="#454C53" stroke-width="1.5" stroke-linejoin="round"/>
</svg>
