<svg width="24" height="24" viewBox="0 0 24 24" fill="none" xmlns="http://www.w3.org/2000/svg">
<path d="M6.39848 19H17.6007M11.6491 5.2014C11.6837 5.14041 11.7344 5.08954 11.7961 5.05411C11.8577 5.01869 11.928 5 11.9996 5C12.0712 5 12.1415 5.01869 12.2031 5.05411C12.2648 5.08954 12.3155 5.14041 12.3501 5.2014L14.7121 9.5618C14.7685 9.66277 14.8471 9.75036 14.9424 9.81828C15.0376 9.88619 15.1472 9.93276 15.2631 9.95463C15.3791 9.9765 15.4986 9.97313 15.6131 9.94476C15.7275 9.91639 15.8341 9.86373 15.9252 9.79056L19.3475 6.93965C19.4132 6.88769 19.4941 6.85734 19.5787 6.85297C19.6632 6.8486 19.7471 6.87044 19.818 6.91533C19.889 6.96023 19.9435 7.02587 19.9737 7.10281C20.0039 7.17975 20.0082 7.26401 19.986 7.34348L17.7183 15.3158C17.6721 15.4789 17.5723 15.6229 17.4343 15.726C17.2963 15.829 17.1274 15.8855 16.9534 15.8869H7.04661C6.87244 15.8857 6.70343 15.8293 6.56522 15.7262C6.42702 15.6231 6.32718 15.479 6.28085 15.3158L4.014 7.34426C3.99179 7.26479 3.99609 7.18052 4.02627 7.10359C4.05646 7.02665 4.11096 6.96101 4.18195 6.91611C4.25294 6.87121 4.33675 6.84938 4.42131 6.85375C4.50587 6.85812 4.58683 6.88847 4.65253 6.94043L8.07401 9.79134C8.16507 9.86451 8.27166 9.91717 8.38613 9.94554C8.50059 9.97391 8.6201 9.97728 8.73607 9.95541C8.85203 9.93354 8.96158 9.88697 9.05684 9.81905C9.15211 9.75114 9.23073 9.66355 9.28706 9.56258L11.6491 5.2014Z" stroke="#454C53" stroke-width="1.5" stroke-linecap="round" stroke-linejoin="round"/>
</svg>
