<svg width="24" height="24" viewBox="0 0 24 24" fill="none" xmlns="http://www.w3.org/2000/svg">
<path d="M10.2222 11.2V16M13.7778 11.2V16M18.2222 7.2V18.4C18.2222 18.8243 18.0349 19.2313 17.7015 19.5314C17.3681 19.8314 16.9159 20 16.4444 20H7.55556C7.08406 20 6.63187 19.8314 6.29848 19.5314C5.96508 19.2313 5.77778 18.8243 5.77778 18.4V7.2M4 7.2H20M8.44444 7.2V5.6C8.44444 5.17565 8.63175 4.76869 8.96514 4.46863C9.29854 4.16857 9.75073 4 10.2222 4H13.7778C14.2493 4 14.7015 4.16857 15.0349 4.46863C15.3683 4.76869 15.5556 5.17565 15.5556 5.6V7.2" stroke="#454C53" stroke-width="1.5" stroke-linecap="round" stroke-linejoin="round"/>
</svg>
