<svg width="24" height="24" viewBox="0 0 24 24" fill="none" xmlns="http://www.w3.org/2000/svg">
<path d="M19.632 14.4H16C15.5757 14.4 15.1687 14.5686 14.8686 14.8686C14.5686 15.1687 14.4 15.5757 14.4 16V19.632M8 5.072V6.4C8 7.03652 8.25286 7.64697 8.70294 8.09706C9.15303 8.54714 9.76348 8.8 10.4 8.8C10.8243 8.8 11.2313 8.96857 11.5314 9.26863C11.8314 9.56869 12 9.97565 12 10.4C12 11.28 12.72 12 13.6 12C14.0243 12 14.4313 11.8314 14.7314 11.5314C15.0314 11.2313 15.2 10.8243 15.2 10.4C15.2 9.52 15.92 8.8 16.8 8.8H19.336M11.2 19.96V16.8C11.2 16.3757 11.0314 15.9687 10.7314 15.6686C10.4313 15.3686 10.0243 15.2 9.6 15.2C9.17565 15.2 8.76869 15.0314 8.46863 14.7314C8.16857 14.4313 8 14.0243 8 13.6V12.8C8 12.3757 7.83143 11.9687 7.53137 11.6686C7.23131 11.3686 6.82435 11.2 6.4 11.2H4.04M20 12C20 16.4183 16.4183 20 12 20C7.58172 20 4 16.4183 4 12C4 7.58172 7.58172 4 12 4C16.4183 4 20 7.58172 20 12Z" stroke="#454C53" stroke-width="1.5" stroke-linecap="round" stroke-linejoin="round"/>
</svg>
