<svg width="24" height="24" viewBox="0 0 24 24" fill="none" xmlns="http://www.w3.org/2000/svg">
<path d="M14.3333 4V7.01984C14.3333 7.4203 14.4972 7.80435 14.7889 8.08752C15.0807 8.37068 15.4763 8.52976 15.8889 8.52976H19M7.43056 7.7748V5.50992C7.43056 5.10947 7.59444 4.72541 7.88617 4.44225C8.17789 4.15908 8.57355 4 8.98611 4H15.1111L19 7.7748V18.4782C19 18.8786 18.8361 19.2627 18.5444 19.5459C18.2527 19.829 17.857 19.9881 17.4444 19.9881L9.03511 19.9873C8.72785 20.0262 8.41563 19.9751 8.13848 19.8406C7.86134 19.7061 7.63189 19.4943 7.47956 19.2324M7.33333 15.3244L5 13.0595L7.33333 10.7946M5 13.0595H12.7778" stroke="#454C53" stroke-width="1.5" stroke-linecap="round" stroke-linejoin="round"/>
</svg>
