<svg width="24" height="24" viewBox="0 0 24 24" fill="none" xmlns="http://www.w3.org/2000/svg">
<mask id="mask0_1245_1424" style="mask-type:alpha" maskUnits="userSpaceOnUse" x="4" y="3" width="14" height="18">
<path d="M12.5 4V7.2C12.5 7.62435 12.658 8.03131 12.9393 8.33137C13.2206 8.63143 13.6022 8.8 14 8.8H17M13.25 4H6.5C6.10218 4 5.72064 4.16857 5.43934 4.46863C5.15804 4.76869 5 5.17565 5 5.6V18.4C5 18.8243 5.15804 19.2313 5.43934 19.5314C5.72064 19.8314 6.10218 20 6.5 20H15.5C15.8978 20 16.2794 19.8314 16.5607 19.5314C16.842 19.2313 17 18.8243 17 18.4V8L13.25 4Z" stroke="#454C53" stroke-width="1.5" stroke-linecap="round" stroke-linejoin="round"/>
</mask>
<g mask="url(#mask0_1245_1424)">
<path d="M22.0654 23.3486H1.22266V2.11133H22.0654V23.3486ZM16.873 11.5C15.9137 11.4918 14.9888 11.8613 14.2988 12.5283L14.293 12.5342L14.2803 12.5459L13.6406 13.1836C13.3369 13.4859 13.1662 13.8702 13.124 14.2646C13.0741 14.2809 13.0237 14.2961 12.9746 14.3145C12.5449 14.4749 12.1493 14.7152 11.8086 15.0215L11.666 15.1562L10.5566 16.2666C10.5576 16.2657 10.56 16.2652 10.5605 16.2646C10.5597 16.2654 10.5571 16.2664 10.5547 16.2686L10.5264 16.2969C9.86019 16.9873 9.49174 17.9121 9.5 18.8711C9.50835 19.8307 9.89351 20.7493 10.5713 21.4277C11.249 22.106 12.1664 22.4914 13.126 22.5H13.127C14.0279 22.5077 14.8981 22.1819 15.5723 21.5898L16.126 21.5742C16.2408 21.5708 16.349 21.5256 16.4355 21.4512C16.4424 21.4488 16.4605 21.4435 16.4941 21.4385C16.5776 21.4261 16.6708 21.4253 16.8135 21.4219C16.9167 21.4194 17.1196 21.4168 17.292 21.3516C17.3911 21.3141 17.5277 21.2395 17.624 21.0898C17.6688 21.0201 17.6933 20.9475 17.708 20.877C17.7315 20.8247 17.7452 20.7817 17.75 20.7607C17.7727 20.6617 17.7714 20.564 17.7686 20.502C17.7625 20.3693 17.7374 20.208 17.7188 20.084C17.7073 20.0073 17.7006 19.9403 17.6934 19.8838C17.9083 19.7002 18.0171 19.4582 18.0801 19.3115C18.1362 19.1809 18.1639 19.1046 18.207 19.0166C18.2443 18.9407 18.2725 18.9025 18.292 18.8828C18.302 18.8742 18.3181 18.8606 18.335 18.8438L19.459 17.7188C19.4656 17.7121 19.4709 17.7061 19.4746 17.7021C19.4781 17.6984 19.4815 17.6954 19.4824 17.6943C19.484 17.6926 19.4823 17.6934 19.4814 17.6943C20.1425 17.0048 20.5082 16.084 20.5 15.1289C20.4916 14.1697 20.1067 13.2509 19.4287 12.5723C18.7509 11.8941 17.8334 11.5086 16.874 11.5H16.873Z" fill="#454C53"/>
</g>
<path d="M14.1955 17.4027C14.3682 17.6339 14.5886 17.8252 14.8417 17.9636C15.0948 18.102 15.3747 18.1843 15.6624 18.2049C15.9501 18.2256 16.2388 18.184 16.5091 18.0831C16.7793 17.9822 17.0247 17.8243 17.2286 17.6201L18.4354 16.4121C18.8018 16.0324 19.0045 15.5238 18.9999 14.9959C18.9953 14.468 18.7838 13.963 18.4109 13.5897C18.038 13.2164 17.5335 13.0047 17.0061 13.0001C16.4788 12.9955 15.9707 13.1984 15.5913 13.5652L14.8994 14.2538M15.8045 16.5973C15.6318 16.3661 15.4114 16.1748 15.1583 16.0364C14.9052 15.898 14.6253 15.8157 14.3376 15.7951C14.0499 15.7744 13.7612 15.816 13.4909 15.9169C13.2207 16.0178 12.9753 16.1757 12.7714 16.3799L11.5646 17.5879C11.1982 17.9676 10.9955 18.4762 11.0001 19.0041C11.0047 19.532 11.2162 20.037 11.5891 20.4103C11.962 20.7836 12.4665 20.9953 12.9939 20.9999C13.5212 21.0045 14.0293 20.8016 14.4087 20.4348L15.0965 19.7462" stroke="#454C53" stroke-width="1.5" stroke-linecap="round" stroke-linejoin="round"/>
</svg>
