<svg width="24" height="24" viewBox="0 0 24 24" fill="none" xmlns="http://www.w3.org/2000/svg">
<mask id="mask0_1245_1420" style="mask-type:alpha" maskUnits="userSpaceOnUse" x="4" y="3" width="14" height="18">
<path d="M12.5 4V7.2C12.5 7.62435 12.658 8.03131 12.9393 8.33137C13.2206 8.63143 13.6022 8.8 14 8.8H17M13.25 4H6.5C6.10218 4 5.72064 4.16857 5.43934 4.46863C5.15804 4.76869 5 5.17565 5 5.6V18.4C5 18.8243 5.15804 19.2313 5.43934 19.5314C5.72064 19.8314 6.10218 20 6.5 20H15.5C15.8978 20 16.2794 19.8314 16.5607 19.5314C16.842 19.2313 17 18.8243 17 18.4V8L13.25 4Z" stroke="#454C53" stroke-width="1.5" stroke-linecap="round" stroke-linejoin="round"/>
</mask>
<g mask="url(#mask0_1245_1420)">
<mask id="path-2-inside-1_1245_1420" fill="white">
<path fill-rule="evenodd" clip-rule="evenodd" d="M21.583 21.7671H17.7178C17.9645 21.5226 18.119 21.2005 18.1191 20.8335V18.2505H19.6309C20.4859 18.2503 21.2497 17.6516 21.25 16.8335C21.2498 16.0153 20.4859 15.4177 19.6309 15.4175H18.1191V14.1675C18.1191 13.349 17.3554 12.7505 16.5 12.7505C15.6446 12.7505 14.8809 13.349 14.8809 14.1675V15.4175H13.3691C12.5647 15.4177 11.8473 15.9424 11.7588 16.6851L11.7568 16.7007L11.75 16.8198C11.7498 16.8242 11.75 16.8291 11.75 16.8335C11.7503 17.6516 12.5141 18.2503 13.3691 18.2505H14.8809V20.8335C14.881 21.2005 15.0355 21.5226 15.2822 21.7671H1.17285V2.81494H21.583V21.7671Z"/>
</mask>
<path fill-rule="evenodd" clip-rule="evenodd" d="M21.583 21.7671H17.7178C17.9645 21.5226 18.119 21.2005 18.1191 20.8335V18.2505H19.6309C20.4859 18.2503 21.2497 17.6516 21.25 16.8335C21.2498 16.0153 20.4859 15.4177 19.6309 15.4175H18.1191V14.1675C18.1191 13.349 17.3554 12.7505 16.5 12.7505C15.6446 12.7505 14.8809 13.349 14.8809 14.1675V15.4175H13.3691C12.5647 15.4177 11.8473 15.9424 11.7588 16.6851L11.7568 16.7007L11.75 16.8198C11.7498 16.8242 11.75 16.8291 11.75 16.8335C11.7503 17.6516 12.5141 18.2503 13.3691 18.2505H14.8809V20.8335C14.881 21.2005 15.0355 21.5226 15.2822 21.7671H1.17285V2.81494H21.583V21.7671Z" fill="#454C53"/>
<path d="M21.583 21.7671V23.2671H23.083V21.7671H21.583ZM17.7178 21.7671L16.6619 20.7016L14.0732 23.2671H17.7178V21.7671ZM18.1191 20.8335L19.6191 20.8341V20.8335H18.1191ZM18.1191 18.2505V16.7505H16.6191V18.2505H18.1191ZM19.6309 18.2505V19.7505H19.6312L19.6309 18.2505ZM21.25 16.8335L22.75 16.8341V16.8331L21.25 16.8335ZM19.6309 15.4175L19.6312 13.9175H19.6309V15.4175ZM18.1191 15.4175H16.6191V16.9175H18.1191V15.4175ZM16.5 12.7505V11.2505V11.2505V12.7505ZM14.8809 15.4175V16.9175H16.3809V15.4175H14.8809ZM13.3691 15.4175V13.9175H13.3688L13.3691 15.4175ZM11.7588 16.6851L13.2472 16.8711L13.2483 16.8625L11.7588 16.6851ZM11.7568 16.7007L10.2684 16.5146L10.2622 16.5645L10.2593 16.6148L11.7568 16.7007ZM11.75 16.8198L10.2524 16.7339L10.2517 16.7478L11.75 16.8198ZM11.75 16.8335L10.25 16.8315L10.25 16.8341L11.75 16.8335ZM13.3691 18.2505L13.3688 19.7505H13.3691V18.2505ZM14.8809 18.2505H16.3809V16.7505H14.8809V18.2505ZM14.8809 20.8335H13.3809V20.8341L14.8809 20.8335ZM15.2822 21.7671V23.2671H18.9268L16.3381 20.7016L15.2822 21.7671ZM1.17285 21.7671H-0.327148V23.2671H1.17285V21.7671ZM1.17285 2.81494V1.31494H-0.327148V2.81494H1.17285ZM21.583 2.81494H23.083V1.31494H21.583V2.81494ZM21.583 21.7671V20.2671H17.7178V21.7671V23.2671H21.583V21.7671ZM17.7178 21.7671L18.7736 22.8325C19.2703 22.3404 19.6188 21.6467 19.6191 20.8341L18.1191 20.8335L16.6191 20.8329C16.6192 20.8021 16.6264 20.7682 16.6393 20.739C16.6513 20.712 16.6627 20.7008 16.6619 20.7016L17.7178 21.7671ZM18.1191 20.8335H19.6191V18.2505H18.1191H16.6191V20.8335H18.1191ZM18.1191 18.2505V19.7505H19.6309V18.2505V16.7505H18.1191V18.2505ZM19.6309 18.2505L19.6312 19.7505C21.0694 19.7502 22.7493 18.7055 22.75 16.8341L21.25 16.8335L19.75 16.8329C19.75 16.7989 19.759 16.7623 19.7737 16.7328C19.7869 16.7063 19.7978 16.6987 19.7922 16.7035C19.7862 16.7085 19.7685 16.7212 19.7373 16.7324C19.7066 16.7434 19.6699 16.7505 19.6305 16.7505L19.6309 18.2505ZM21.25 16.8335L22.75 16.8331C22.7495 14.96 21.0678 13.9178 19.6312 13.9175L19.6309 15.4175L19.6305 16.9175C19.6703 16.9175 19.7072 16.9246 19.738 16.9356C19.7693 16.9469 19.787 16.9595 19.7929 16.9645C19.7983 16.9691 19.7872 16.9614 19.7738 16.9345C19.7591 16.9048 19.75 16.8679 19.75 16.8339L21.25 16.8335ZM19.6309 15.4175V13.9175H18.1191V15.4175V16.9175H19.6309V15.4175ZM18.1191 15.4175H19.6191V14.1675H18.1191H16.6191V15.4175H18.1191ZM18.1191 14.1675H19.6191C19.6191 12.2949 17.9385 11.2505 16.5 11.2505V12.7505V14.2505C16.5396 14.2505 16.5763 14.2575 16.607 14.2685C16.6382 14.2798 16.6558 14.2924 16.6616 14.2973C16.6671 14.3019 16.6561 14.2943 16.6428 14.2676C16.6281 14.238 16.6191 14.2013 16.6191 14.1675H18.1191ZM16.5 12.7505V11.2505C15.0615 11.2505 13.3809 12.2949 13.3809 14.1675H14.8809H16.3809C16.3809 14.2013 16.3719 14.238 16.3572 14.2676C16.3439 14.2943 16.3329 14.3019 16.3384 14.2973C16.3442 14.2924 16.3618 14.2798 16.393 14.2685C16.4237 14.2575 16.4604 14.2505 16.5 14.2505V12.7505ZM14.8809 14.1675H13.3809V15.4175H14.8809H16.3809V14.1675H14.8809ZM14.8809 15.4175V13.9175H13.3691V15.4175V16.9175H14.8809V15.4175ZM13.3691 15.4175L13.3688 13.9175C11.9992 13.9178 10.4689 14.8321 10.2693 16.5076L11.7588 16.6851L13.2483 16.8625C13.2442 16.8962 13.2326 16.9258 13.2205 16.946C13.2095 16.9644 13.2028 16.9674 13.2106 16.9614C13.2186 16.9552 13.2369 16.9436 13.2666 16.9337C13.2958 16.9239 13.3309 16.9175 13.3695 16.9175L13.3691 15.4175ZM11.7588 16.6851L10.2704 16.499L10.2684 16.5146L11.7568 16.7007L13.2453 16.8867L13.2472 16.8711L11.7588 16.6851ZM11.7568 16.7007L10.2593 16.6148L10.2525 16.7339L11.75 16.8198L13.2475 16.9057L13.2544 16.7866L11.7568 16.7007ZM11.75 16.8198L10.2517 16.7478C10.2505 16.7739 10.2501 16.7957 10.25 16.8108C10.2498 16.8259 10.25 16.8381 10.25 16.8442C10.2501 16.8473 10.2501 16.8499 10.2501 16.851C10.2501 16.8528 10.2501 16.8517 10.2501 16.8514C10.2501 16.8503 10.25 16.8422 10.25 16.8315L11.75 16.8335L13.25 16.8355C13.25 16.8226 13.2499 16.8122 13.2498 16.8089C13.2498 16.8074 13.2498 16.8051 13.2498 16.8058C13.2498 16.8058 13.2498 16.8059 13.2498 16.8061C13.2498 16.8062 13.2498 16.8064 13.2498 16.8067C13.2498 16.8072 13.2498 16.8081 13.2498 16.8092C13.2499 16.8129 13.25 16.8227 13.2499 16.8356C13.2498 16.8484 13.2494 16.868 13.2483 16.8919L11.75 16.8198ZM11.75 16.8335L10.25 16.8341C10.2507 18.7055 11.9306 19.7502 13.3688 19.7505L13.3691 18.2505L13.3695 16.7505C13.3301 16.7505 13.2934 16.7434 13.2627 16.7324C13.2315 16.7212 13.2138 16.7085 13.2078 16.7035C13.2022 16.6987 13.2131 16.7063 13.2263 16.7328C13.241 16.7623 13.25 16.7989 13.25 16.8329L11.75 16.8335ZM13.3691 18.2505V19.7505H14.8809V18.2505V16.7505H13.3691V18.2505ZM14.8809 18.2505H13.3809V20.8335H14.8809H16.3809V18.2505H14.8809ZM14.8809 20.8335L13.3809 20.8341C13.3812 21.6467 13.7297 22.3404 14.2264 22.8325L15.2822 21.7671L16.3381 20.7016C16.3373 20.7008 16.3487 20.712 16.3607 20.739C16.3736 20.7682 16.3808 20.8021 16.3809 20.8329L14.8809 20.8335ZM15.2822 21.7671V20.2671H1.17285V21.7671V23.2671H15.2822V21.7671ZM1.17285 21.7671H2.67285V2.81494H1.17285H-0.327148V21.7671H1.17285ZM1.17285 2.81494V4.31494H21.583V2.81494V1.31494H1.17285V2.81494ZM21.583 2.81494H20.083V21.7671H21.583H23.083V2.81494H21.583Z" fill="#454C53" mask="url(#path-2-inside-1_1245_1420)"/>
</g>
<path d="M14 17H19M16.5 14.5V19.5" stroke="#454C53" stroke-width="1.5" stroke-linecap="round" stroke-linejoin="round"/>
</svg>
