<svg width="24" height="24" viewBox="0 0 24 24" fill="none" xmlns="http://www.w3.org/2000/svg">
<path d="M10.4006 18.4145C10.4005 18.5618 10.4419 18.7062 10.52 18.8315C10.5982 18.9568 10.71 19.058 10.843 19.1239L12.4433 19.9164C12.5653 19.9768 12.7008 20.0053 12.8371 19.9992C12.9734 19.9931 13.1058 19.9526 13.2218 19.8815C13.3378 19.8104 13.4335 19.7111 13.4999 19.5931C13.5663 19.4751 13.6011 19.3422 13.601 19.2071V12.7181C13.6012 12.3252 13.7486 11.9465 14.0147 11.6552L19.7939 5.32356C19.8974 5.20987 19.9656 5.0689 19.99 4.91768C20.0144 4.76646 19.994 4.61148 19.9314 4.47147C19.8688 4.33146 19.7665 4.21242 19.637 4.12875C19.5076 4.04508 19.3564 4.00036 19.2018 4H4.79982C4.64508 4.00006 4.49369 4.04455 4.36396 4.1281C4.23424 4.21166 4.13175 4.33068 4.06892 4.47075C4.0061 4.61082 3.98562 4.76593 4.00997 4.91729C4.03433 5.06865 4.10247 5.20977 4.20614 5.32356L9.98693 11.6552C10.253 11.9465 10.4004 12.3252 10.4006 12.7181V18.4145Z" stroke="#454C53" stroke-width="1.5" stroke-linecap="round" stroke-linejoin="round"/>
</svg>
