<svg width="24" height="24" viewBox="0 0 24 24" fill="none" xmlns="http://www.w3.org/2000/svg">
<path d="M18.4432 18C19.0723 18 19.2521 17.8475 19.544 17.5742C19.836 17.3009 20 16.931 20 16.5445V9.64326C20 9.25676 19.836 8.88609 19.544 8.61279C19.2521 8.3395 18.8561 8.18596 18.4432 8.18596H12.9427C12.6823 8.18835 12.4255 8.12957 12.1957 8.015C11.9659 7.90043 11.7704 7.73374 11.6272 7.53017L10.9968 6.65579C10.855 6.45429 10.662 6.2889 10.4352 6.17444C10.2083 6.05998 9.95459 6.00004 9.69687 6H5.55676C5.14388 6 4.74791 6.15354 4.45596 6.42683C4.16402 6.70013 4 7.0708 4 7.45731V16.5445C4 16.931 4.16402 17.3009 4.45596 17.5742C4.74791 17.8475 5.14388 18 5.55676 18H18.4432Z" stroke="#454C53" stroke-width="1.5" stroke-linecap="round" stroke-linejoin="round"/>
</svg>
