<svg width="24" height="24" viewBox="0 0 24 24" fill="none" xmlns="http://www.w3.org/2000/svg">
<path d="M12 8.44473V20M12 8.44473C11.6785 7.11978 11.1248 5.98706 10.4113 5.19428C9.6978 4.4015 8.8575 3.98545 8 4.00039C7.41063 4.00039 6.8454 4.23451 6.42865 4.65125C6.0119 5.06798 5.77778 5.6332 5.77778 6.22256C5.77778 6.81191 6.0119 7.37713 6.42865 7.79387C6.8454 8.2106 7.41063 8.44473 8 8.44473M12 8.44473C12.3215 7.11978 12.8752 5.98706 13.5887 5.19428C14.3022 4.4015 15.1425 3.98545 16 4.00039C16.5894 4.00039 17.1546 4.23451 17.5713 4.65125C17.9881 5.06798 18.2222 5.6332 18.2222 6.22256C18.2222 6.81191 17.9881 7.37713 17.5713 7.79387C17.1546 8.2106 16.5894 8.44473 16 8.44473M18.2222 12.0002V18.2223C18.2222 18.6937 18.0349 19.1459 17.7015 19.4793C17.3681 19.8127 16.9159 20 16.4444 20H7.55556C7.08406 20 6.63187 19.8127 6.29848 19.4793C5.96508 19.1459 5.77778 18.6937 5.77778 18.2223V12.0002M4.88889 8.44473H19.1111C19.602 8.44473 20 8.84268 20 9.33359V11.1113C20 11.6022 19.602 12.0002 19.1111 12.0002H4.88889C4.39797 12.0002 4 11.6022 4 11.1113V9.33359C4 8.84268 4.39797 8.44473 4.88889 8.44473Z" stroke="#454C53" stroke-width="1.5" stroke-linecap="round" stroke-linejoin="round"/>
</svg>
