<svg width="24" height="24" viewBox="0 0 24 24" fill="none" xmlns="http://www.w3.org/2000/svg">
<path d="M17.8378 9.5V6.71429C17.8378 6.25963 17.6556 5.82359 17.3312 5.5021C17.0068 5.18061 16.5669 5 16.1081 5H5.72973C5.27098 5 4.83101 5.18061 4.50663 5.5021C4.18224 5.82359 4 6.25963 4 6.71429V13.7857C4 14.2404 4.18224 14.6764 4.50663 14.9979C4.83101 15.3194 5.27098 15.5 5.72973 15.5H12.6486M10.9189 19.1429V15.5343V18.2343M8.32432 19.1429H12.6486M16.5405 12.0714H18.2703C19.2256 12.0714 20 12.8389 20 13.7857V18.2857C20 19.2325 19.2256 20 18.2703 20H16.5405C15.5852 20 14.8108 19.2325 14.8108 18.2857V13.7857C14.8108 12.8389 15.5852 12.0714 16.5405 12.0714Z" stroke="#454C53" stroke-width="1.5" stroke-linecap="round" stroke-linejoin="round"/>
</svg>
