<svg width="24" height="24" viewBox="0 0 24 24" fill="none" xmlns="http://www.w3.org/2000/svg">
<path d="M4.24615 12.1231C4.24615 13.681 4.70813 15.2039 5.57365 16.4993C6.43918 17.7946 7.66939 18.8042 9.10871 19.4004C10.548 19.9966 12.1318 20.1526 13.6598 19.8486C15.1878 19.5447 16.5913 18.7945 17.6929 17.6929C18.7945 16.5913 19.5447 15.1878 19.8486 13.6598C20.1526 12.1318 19.9966 10.548 19.4004 9.10871C18.8042 7.66939 17.7946 6.43918 16.4993 5.57365C15.2039 4.70813 13.681 4.24615 12.1231 4.24615C9.921 4.25444 7.80737 5.11369 6.22414 6.64424L4 8.864M8.864 8.864H4V4M12.1231 7.74701V12.1231L15.6239 13.8735" stroke="#454C53" stroke-width="1.5" stroke-linecap="round" stroke-linejoin="round"/>
</svg>
