<svg width="24" height="24" viewBox="0 0 24 24" fill="none" xmlns="http://www.w3.org/2000/svg">
<path d="M20 11.1877C20.4142 11.1877 20.75 10.8519 20.75 10.4377C20.75 10.0235 20.4142 9.6877 20 9.6877V10.4377V11.1877ZM12.8889 9.6877C12.4747 9.6877 12.1389 10.0235 12.1389 10.4377C12.1389 10.8519 12.4747 11.1877 12.8889 11.1877V10.4377V9.6877ZM20 7.30892C20.4142 7.30892 20.75 6.97313 20.75 6.55892C20.75 6.14471 20.4142 5.80892 20 5.80892V6.55892V7.30892ZM12.8889 5.80892C12.4747 5.80892 12.1389 6.14471 12.1389 6.55892C12.1389 6.97313 12.4747 7.30892 12.8889 7.30892V6.55892V5.80892ZM20 15.0665C20.4142 15.0665 20.75 14.7307 20.75 14.3165C20.75 13.9023 20.4142 13.5665 20 13.5665V14.3165V15.0665ZM12.8889 13.5665C12.4747 13.5665 12.1389 13.9023 12.1389 14.3165C12.1389 14.7307 12.4747 15.0665 12.8889 15.0665V14.3165V13.5665ZM20 18.9453C20.4142 18.9453 20.75 18.6095 20.75 18.1953C20.75 17.7811 20.4142 17.4453 20 17.4453V18.1953V18.9453ZM12.8889 17.4453C12.4747 17.4453 12.1389 17.7811 12.1389 18.1953C12.1389 18.6095 12.4747 18.9453 12.8889 18.9453V18.1953V17.4453ZM7.33333 10.5455L6.81923 11.0915C7.10793 11.3633 7.5583 11.3634 7.84714 11.0918L7.33333 10.5455ZM8.08513 4.00021C8.08524 3.58599 7.74955 3.25011 7.33534 3.25C6.92112 3.24989 6.58524 3.58558 6.58513 3.99979L7.33513 4L8.08513 4.00021ZM11.1805 7.95705C11.4822 7.67328 11.4968 7.19863 11.213 6.89689C10.9293 6.59514 10.4546 6.58057 10.1529 6.86434L10.6667 7.41069L11.1805 7.95705ZM4.51769 6.86462C4.2161 6.58069 3.74145 6.595 3.45752 6.89659C3.17359 7.19818 3.1879 7.67284 3.48949 7.95677L4.00359 7.41069L4.51769 6.86462ZM6.58154 19.9998C6.58142 20.414 6.91712 20.7499 7.33133 20.75C7.74554 20.7501 8.08142 20.4144 8.08154 20.0002L7.33154 20L6.58154 19.9998ZM7.33333 13.4545L7.84379 12.9051C7.55611 12.6378 7.111 12.6377 6.82318 12.9048L7.33333 13.4545ZM3.48984 15.998C3.18622 16.2797 3.16848 16.7543 3.45024 17.0579C3.73199 17.3615 4.20653 17.3792 4.51016 17.0975L4 16.5477L3.48984 15.998ZM10.1526 17.0972C10.4561 17.3791 10.9306 17.3617 11.2126 17.0582C11.4945 16.7547 11.477 16.2801 11.1735 15.9982L10.6631 16.5477L10.1526 17.0972ZM20 10.4377V9.6877H12.8889V10.4377V11.1877H20V10.4377ZM20 6.55892V5.80892H12.8889V6.55892V7.30892H20V6.55892ZM20 14.3165V13.5665H12.8889V14.3165V15.0665H20V14.3165ZM20 18.1953V17.4453H12.8889V18.1953V18.9453H20V18.1953ZM7.33333 10.5455L8.08333 10.5457L8.08513 4.00021L7.33513 4L6.58513 3.99979L6.58333 10.5452L7.33333 10.5455ZM10.6667 7.41069L10.1529 6.86434L6.81953 9.9991L7.33333 10.5455L7.84714 11.0918L11.1805 7.95705L10.6667 7.41069ZM7.33333 10.5455L7.84743 9.99938L4.51769 6.86462L4.00359 7.41069L3.48949 7.95677L6.81923 11.0915L7.33333 10.5455ZM7.33154 20L8.08154 20.0002L8.08333 13.4548L7.33333 13.4545L6.58333 13.4543L6.58154 19.9998L7.33154 20ZM4 16.5477L4.51016 17.0975L7.84349 14.0043L7.33333 13.4545L6.82318 12.9048L3.48984 15.998L4 16.5477ZM7.33333 13.4545L6.82288 14.004L10.1526 17.0972L10.6631 16.5477L11.1735 15.9982L7.84379 12.9051L7.33333 13.4545Z" fill="#454C53"/>
</svg>
