<svg width="24" height="24" viewBox="0 0 24 24" fill="none" xmlns="http://www.w3.org/2000/svg">
<path d="M8.43748 12.007H15.5486M11.993 8.45142V15.5625M8.34859 19.1181C10.0451 19.9883 11.9967 20.2241 13.8516 19.7828C15.7065 19.3415 17.3428 18.2522 18.4657 16.7111C19.5885 15.1701 20.1241 13.2787 19.9758 11.3778C19.8275 9.47686 19.0051 7.6914 17.6568 6.34315C16.3086 4.99491 14.5231 4.17254 12.6222 4.02425C10.7213 3.87595 8.82989 4.41147 7.28887 5.53431C5.74785 6.65716 4.65854 8.29348 4.21723 10.1484C3.77593 12.0033 4.01165 13.9549 4.88192 15.6514L4.21724 19.7828L8.34859 19.1181Z" stroke="#454C53" stroke-width="1.5" stroke-linecap="round" stroke-linejoin="round"/>
</svg>
