<svg width="24" height="24" viewBox="0 0 24 24" fill="none" xmlns="http://www.w3.org/2000/svg">
<path fill-rule="evenodd" clip-rule="evenodd" d="M5.09986 9.74222C2.52556 4.63037 4.63503 2.53248 9.77466 5.09281L17.426 8.89749C20.8584 10.6044 20.8584 13.3957 17.426 15.1026L9.77466 18.9073C4.62609 21.4676 2.52556 19.3697 5.09986 14.2578L5.87818 12.7198C5.88078 12.7146 5.8815 12.7084 5.88404 12.7032C5.96328 12.7316 6.04792 12.75 6.13697 12.75H10.9641C11.3781 12.7497 11.7141 12.4141 11.7141 12C11.7141 11.586 11.3781 11.2503 10.9641 11.25H6.13697C6.04695 11.25 5.96108 11.2678 5.88111 11.2969C5.87988 11.2944 5.87942 11.2916 5.87818 11.2891L5.09986 9.74222Z" fill="#454C53"/>
</svg>
