<svg width="24" height="24" viewBox="0 0 24 24" fill="none" xmlns="http://www.w3.org/2000/svg">
<path d="M10.1797 5.6979C10.2228 5.23334 10.4332 4.80193 10.7699 4.48796C11.1066 4.17398 11.5453 4 12.0004 4C12.4555 4 12.8942 4.17398 13.2309 4.48796C13.5676 4.80193 13.778 5.23334 13.8211 5.6979C13.8469 5.998 13.9429 6.28729 14.101 6.54129C14.259 6.79528 14.4743 7.0065 14.7288 7.15706C14.9833 7.30762 15.2694 7.3931 15.5629 7.40626C15.8565 7.41942 16.1487 7.35987 16.4151 7.23265C16.8286 7.04013 17.2972 7.01227 17.7297 7.1545C18.1621 7.29673 18.5275 7.59887 18.7547 8.00212C18.9819 8.40536 19.0547 8.88087 18.9588 9.33608C18.8629 9.7913 18.6053 10.1937 18.2361 10.4648C17.9957 10.6378 17.7994 10.8677 17.664 11.1349C17.5285 11.4021 17.4577 11.6988 17.4577 12C17.4577 12.3012 17.5285 12.5979 17.664 12.8651C17.7994 13.1323 17.9957 13.3622 18.2361 13.5352C18.6053 13.8063 18.8629 14.2087 18.9588 14.6639C19.0547 15.1191 18.9819 15.5946 18.7547 15.9979C18.5275 16.4011 18.1621 16.7033 17.7297 16.8455C17.2972 16.9877 16.8286 16.9599 16.4151 16.7673C16.1487 16.6401 15.8565 16.5806 15.5629 16.5937C15.2694 16.6069 14.9833 16.6924 14.7288 16.8429C14.4743 16.9935 14.259 17.2047 14.101 17.4587C13.9429 17.7127 13.8469 18.002 13.8211 18.3021C13.778 18.7667 13.5676 19.1981 13.2309 19.512C12.8942 19.826 12.4555 20 12.0004 20C11.5453 20 11.1066 19.826 10.7699 19.512C10.4332 19.1981 10.2228 18.7667 10.1797 18.3021C10.1539 18.0019 10.0579 17.7125 9.89982 17.4584C9.74176 17.2043 9.52632 16.993 9.27173 16.8425C9.01714 16.6919 8.73091 16.6064 8.43729 16.5934C8.14366 16.5803 7.85128 16.64 7.58492 16.7673C7.17139 16.9599 6.70279 16.9877 6.27033 16.8455C5.83787 16.7033 5.47248 16.4011 5.24529 15.9979C5.0181 15.5946 4.94535 15.1191 5.0412 14.6639C5.13706 14.2087 5.39466 13.8063 5.76387 13.5352C6.0043 13.3622 6.20056 13.1323 6.33605 12.8651C6.47154 12.5979 6.54228 12.3012 6.54228 12C6.54228 11.6988 6.47154 11.4021 6.33605 11.1349C6.20056 10.8677 6.0043 10.6378 5.76387 10.4648C5.39518 10.1935 5.13803 9.79132 5.04241 9.33641C4.94678 8.8815 5.01951 8.40639 5.24646 8.00341C5.47341 7.60042 5.83837 7.29835 6.2704 7.15591C6.70243 7.01346 7.17068 7.04082 7.58414 7.23265C7.85047 7.35987 8.14276 7.41942 8.43629 7.40626C8.72981 7.3931 9.01592 7.30762 9.2704 7.15706C9.52489 7.0065 9.74025 6.79528 9.89826 6.54129C10.0563 6.28729 10.1523 5.998 10.1782 5.6979M14.3447 12.0004C14.3447 13.3283 13.2949 14.4047 12 14.4047C10.7051 14.4047 9.6553 13.3283 9.6553 12.0004C9.6553 10.6725 10.7051 9.59609 12 9.59609C13.2949 9.59609 14.3447 10.6725 14.3447 12.0004Z" stroke="#454C53" stroke-width="1.5" stroke-linecap="round" stroke-linejoin="round"/>
</svg>
