<svg width="24" height="24" viewBox="0 0 24 24" fill="none" xmlns="http://www.w3.org/2000/svg">
<path d="M9.15833 13.208L14.85 16.392M14.8417 7.608L9.15833 10.792M19.5 6.4C19.5 7.72548 18.3807 8.8 17 8.8C15.6193 8.8 14.5 7.72548 14.5 6.4C14.5 5.07452 15.6193 4 17 4C18.3807 4 19.5 5.07452 19.5 6.4ZM9.5 12C9.5 13.3255 8.38071 14.4 7 14.4C5.61929 14.4 4.5 13.3255 4.5 12C4.5 10.6745 5.61929 9.6 7 9.6C8.38071 9.6 9.5 10.6745 9.5 12ZM19.5 17.6C19.5 18.9255 18.3807 20 17 20C15.6193 20 14.5 18.9255 14.5 17.6C14.5 16.2745 15.6193 15.2 17 15.2C18.3807 15.2 19.5 16.2745 19.5 17.6Z" stroke="#454C53" stroke-width="1.5" stroke-linecap="round" stroke-linejoin="round"/>
</svg>
