<svg width="32" height="32" viewBox="0 0 32 32" fill="none" xmlns="http://www.w3.org/2000/svg">
<path fill-rule="evenodd" clip-rule="evenodd" d="M26.6835 30.993H5.32563C4.59612 30.993 4 30.3878 4 29.6481V2.34165C4 1.60192 4.59612 0.995972 5.32563 0.995972H21.0001L28.0001 8L28.0095 29.6481C28.0095 30.3878 27.4124 30.993 26.6835 30.993Z" fill="#FD8900"/>
<mask id="mask0_0_1007" style="mask-type:luminance" maskUnits="userSpaceOnUse" x="4" y="0" width="25" height="31">
<path fill-rule="evenodd" clip-rule="evenodd" d="M26.6835 30.993H5.32563C4.59612 30.993 4 30.3878 4 29.6481V2.34165C4 1.60192 4.59612 0.995972 5.32563 0.995972H21.0001L28.0001 8L28.0095 29.6481C28.0095 30.3878 27.4124 30.993 26.6835 30.993Z" fill="white"/>
</mask>
<g mask="url(#mask0_0_1007)">
<g opacity="0.4">
<path opacity="0.3" fill-rule="evenodd" clip-rule="evenodd" d="M18.7237 35.5865L17.0428 26.2274L14.1634 25.3564C14.0192 25.3121 13.9513 25.3887 14.0143 25.5253L18.6449 35.6036C18.7074 35.7408 18.8832 35.8556 19.0347 35.858C18.8832 35.8556 18.7508 35.7343 18.7237 35.5865Z" fill="white"/>
<path opacity="0.5" fill-rule="evenodd" clip-rule="evenodd" d="M18.959 35.959C19.4006 36.0663 18.744 35.9578 18.6975 35.6953L16.5045 23.1838C16.4784 23.0365 16.5685 22.9626 16.7032 23.0188L19.5 24.2613L18.8242 35.1939C18.8242 35.1939 18.8387 35.9324 18.959 35.959Z" fill="white"/>
<path opacity="0.7" fill-rule="evenodd" clip-rule="evenodd" d="M23.6967 22.8827L19.9799 20.9343C19.8467 20.8625 19.7289 20.928 19.7189 21.079L18.7772 35.579C18.769 35.7115 18.8565 35.8241 18.9807 35.8511C18.8631 35.8242 19.8502 35.6072 19.8888 35.4797L23.6967 22.8827Z" fill="white"/>
<path fill-rule="evenodd" clip-rule="evenodd" d="M32.852 25.4503L23.7866 20.0302C23.6576 19.9524 23.5159 20.0072 23.4718 20.1533L22.7935 22.4106L22.0373 24.9303L21.2706 27.4856L18.8388 35.5903C18.7994 35.7163 18.8631 35.8242 18.9807 35.8511C18.9977 35.8551 19.0154 35.8577 19.0347 35.858L28.667 35.9996C28.7028 36.0002 28.7355 35.9926 28.7652 35.9813C28.7517 35.9877 28.7378 35.9927 28.7218 35.9947C28.7049 35.9973 28.6871 35.9999 28.667 35.9996C28.8193 36.002 28.9891 35.8878 29.045 35.7479L32.9864 25.8471C33.0417 25.7072 32.9817 25.5277 32.852 25.4503Z" fill="white"/>
</g>
<path fill-rule="evenodd" clip-rule="evenodd" d="M21 6.68986C21 7.4102 21.5892 8 22.3101 8H28L21 1C21 1 21 6.04962 21 6.68986Z" fill="#BD4100"/>
<path fill-rule="evenodd" clip-rule="evenodd" d="M8.00103 15.9852L19.0124 16.0043V18.0043L8.00103 18.0063V15.9852ZM11.0073 13.9953C9.34645 13.9953 8 12.6533 8 10.9979C8 9.40171 9.25199 8.0969 10.8306 8.00573L11.0244 8.00127L11.0246 11.015H14.0146L14.0146 10.9979C14.0146 12.6533 12.6682 13.9953 11.0073 13.9953ZM19.0266 12.0125V13.9939H15.019V12.0125H19.0266ZM19.0266 8V10.021H15.019V8H19.0266Z" fill="white"/>
</g>
</svg>
