<svg width="32" height="32" viewBox="0 0 32 32" fill="none" xmlns="http://www.w3.org/2000/svg">
<path fill-rule="evenodd" clip-rule="evenodd" d="M26.6834 30.993H5.32551C4.596 30.993 3.99988 30.3878 3.99988 29.6481C3.99988 29.6481 3.99988 3.6952 3.99988 2.34165C3.99988 1.60192 4.596 0.995972 5.32551 0.995972H21L28 8L28.0094 29.6481C28.0094 30.3878 27.4123 30.993 26.6834 30.993Z" fill="#51B41B"/>
<mask id="mask0_0_991" style="mask-type:luminance" maskUnits="userSpaceOnUse" x="3" y="0" width="26" height="31">
<path fill-rule="evenodd" clip-rule="evenodd" d="M26.6834 30.993H5.32551C4.596 30.993 3.99988 30.3878 3.99988 29.6481C3.99988 29.6481 3.99988 3.6952 3.99988 2.34165C3.99988 1.60192 4.596 0.995972 5.32551 0.995972H21L28 8L28.0094 29.6481C28.0094 30.3878 27.4123 30.993 26.6834 30.993Z" fill="white"/>
</mask>
<g mask="url(#mask0_0_991)">
<g opacity="0.4">
<path opacity="0.3" fill-rule="evenodd" clip-rule="evenodd" d="M18.7237 35.5865L17.0428 26.2274L14.1634 25.3564C14.0192 25.3121 13.9513 25.3887 14.0143 25.5253L18.6449 35.6036C18.7074 35.7408 18.8832 35.8556 19.0347 35.858C18.8832 35.8556 18.7508 35.7343 18.7237 35.5865Z" fill="white"/>
<path opacity="0.5" fill-rule="evenodd" clip-rule="evenodd" d="M18.9807 35.8511C19.4366 35.9597 18.7588 35.8499 18.7107 35.584L16.4469 22.9084C16.4199 22.7592 16.513 22.6844 16.652 22.7413L19.5001 23.9993L19.2759 35.0666C19.2759 35.0666 18.8565 35.8241 18.9807 35.8511Z" fill="white"/>
<path opacity="0.7" fill-rule="evenodd" clip-rule="evenodd" d="M23.6967 22.8827L19.9799 20.9343C19.8467 20.8625 19.7289 20.928 19.7189 21.079L18.7772 35.579C18.769 35.7115 18.8565 35.8241 18.9807 35.8511C18.8631 35.8242 19.8502 35.6072 19.8888 35.4797L23.6967 22.8827Z" fill="white"/>
<path fill-rule="evenodd" clip-rule="evenodd" d="M32.852 25.4503L23.7866 20.0302C23.6576 19.9524 23.5159 20.0072 23.4718 20.1533L22.7935 22.4106L22.0373 24.9303L21.2706 27.4856L18.8388 35.5903C18.7994 35.7163 18.8631 35.8242 18.9807 35.8511C18.9977 35.8551 19.0154 35.8577 19.0347 35.858L28.667 35.9996C28.7028 36.0002 28.7355 35.9926 28.7652 35.9813C28.7517 35.9877 28.7378 35.9927 28.7218 35.9947C28.7049 35.9973 28.6871 35.9999 28.667 35.9996C28.8193 36.002 28.9891 35.8878 29.045 35.7479L32.9864 25.8471C33.0417 25.7072 32.9817 25.5277 32.852 25.4503Z" fill="white"/>
</g>
<path fill-rule="evenodd" clip-rule="evenodd" d="M21 6.68986C21 7.4102 21.5892 8 22.3101 8H28L21 1C21 1 21 6.03149 21 6.68986Z" fill="#007800"/>
<path fill-rule="evenodd" clip-rule="evenodd" d="M13.0218 15.9852V18.0063H8V15.9852H13.0218ZM19.0283 15.9852V18.0063H14.0065V15.9852H19.0283ZM13.0218 12.0125V13.9939H8V12.0125H13.0218ZM19.0283 12.0125V13.9939H14.0065V12.0125H19.0283ZM13.0218 8V10.021H8V8H13.0218ZM19.0283 8V10.021H14.0065V8H19.0283Z" fill="white"/>
</g>
</svg>
