<svg width="32" height="32" viewBox="0 0 32 32" fill="none" xmlns="http://www.w3.org/2000/svg">
<g clip-path="url(#clip0_0_1199)">
<path fill-rule="evenodd" clip-rule="evenodd" d="M26.6746 31H5.32508C4.59589 31 4 30.3946 4 29.6549V2.34581C4 1.60603 4.59589 1 5.32508 1H21L28 8V29.6549C28 30.3946 27.4033 31 26.6746 31Z" fill="#B4B6B8"/>
<path fill-rule="evenodd" clip-rule="evenodd" d="M9.63658 10C10.7646 10 11.7209 10.7892 11.9268 12.2116L11.9502 12.4095H10.8084C10.7333 11.7438 10.2225 11.2375 9.63658 11.2375C8.57744 11.2375 8.17932 12.3626 8.17932 13.5345C8.17932 14.6502 8.57744 15.7752 9.63658 15.7752C10.3126 15.7752 10.7114 15.2314 10.8329 14.4372L10.8535 14.2752H11.9952C11.875 15.944 10.9511 17.0128 9.63658 17.0128C7.97652 17.0128 7 15.4658 7 13.5345C7 11.5469 7.97652 10 9.63658 10ZM15.4165 10C16.6089 10 17.7091 10.5616 17.7952 11.9752L17.8007 12.1563H16.5336C16.4919 11.3501 15.9834 11.1438 15.3582 11.1438C14.9414 11.1438 14.4579 11.3407 14.4579 11.9032C14.4579 12.3206 14.6436 12.4431 15.506 12.7035L16.4441 12.9753C16.9922 13.1389 18.0007 13.5451 18.0007 14.8658C18.0007 16.094 17.1421 17.0128 15.5249 17.0128C14.2585 17.0128 13.0691 16.3367 12.9943 14.8178L12.9907 14.6314H14.2578C14.2578 15.5221 14.8747 15.869 15.5749 15.869C16.0334 15.869 16.7336 15.719 16.7336 15.0346C16.7336 14.3127 15.8417 14.1908 14.9664 13.9283C14.0828 13.6658 13.1908 13.2814 13.1908 12.0251C13.1908 10.6563 14.3412 10 15.4165 10ZM20.2609 10.0029L21.489 14.9292H21.5045L22.748 10.0029H23.9993L22.1687 17.0097H20.8016L19.0097 10.0029H20.2609Z" fill="white"/>
<path fill-rule="evenodd" clip-rule="evenodd" d="M21 6.68987C21 7.41025 21.5893 8 22.3101 8H28L21 1C21 1 21 6.21427 21 6.68987Z" fill="#8C8C8C"/>
</g>
<defs>
<clipPath id="clip0_0_1199">
<rect width="32" height="32" fill="white"/>
</clipPath>
</defs>
</svg>
