<svg width="32" height="32" viewBox="0 0 32 32" fill="none" xmlns="http://www.w3.org/2000/svg">
<path fill-rule="evenodd" clip-rule="evenodd" d="M26.6746 31H5.32511C4.59586 31 4 30.3946 4 29.6549V2.34581C4 1.606 4.59586 1 5.32511 1H21L28 8V29.6549C28 30.3946 27.4032 31 26.6746 31Z" fill="#1D7FF9"/>
<path fill-rule="evenodd" clip-rule="evenodd" d="M21 6.68986C21 7.41021 21.5892 8 22.31 8H28L21 1C21 1 21 6.22429 21 6.68986Z" fill="#0044CC"/>
<path fill-rule="evenodd" clip-rule="evenodd" d="M8 10H19.0267V12.021H8V10ZM8 14.0125H19.0267V15.9939H8V14.0125ZM14.9991 17.9852H8.00015V20.0063H14.9991V17.9852Z" fill="white"/>
</svg>
