<svg width="32" height="32" viewBox="0 0 32 32" fill="none" xmlns="http://www.w3.org/2000/svg">
<path fill-rule="evenodd" clip-rule="evenodd" d="M26.6746 31H5.32514C4.59589 31 4 30.3947 4 29.6549V29.6487V2.34584C4 1.60607 4.59589 1 5.32514 1H20.9966L28 8.0031V29.6549C28 30.3947 27.4032 31 26.6746 31Z" fill="#1D7FF9"/>
<path fill-rule="evenodd" clip-rule="evenodd" d="M21 6.68989C21 7.41021 21.5892 8 22.31 8H28L21 1C21 1 21 6.21535 21 6.68989Z" fill="#0044CC"/>
<path fill-rule="evenodd" clip-rule="evenodd" d="M8 17.9915L22.0111 18V20L8 20.0125V17.9915ZM14.0111 14V16L8.00083 15.9999V14.0185L14.0111 14ZM21.25 10C21.6642 10 22 10.3838 22 10.8572V15.1429C22 15.6162 21.6642 16 21.25 16H16.75C16.3358 16 16 15.6162 16 15.1429V10.8572C16 10.3838 16.3358 10 16.75 10H21.25ZM18.9999 14C17.9515 14 17.0912 14.6732 17.0068 15.5712L17 15.7147V16H20.9997L21 15.7167L20.9934 15.573C20.9099 14.6742 20.0493 14 18.9999 14ZM18.9448 11.014C18.3034 11.014 17.7837 11.478 17.7837 12.0506C17.7837 12.6233 18.3034 13.6403 18.9448 13.6403C19.5862 13.6403 20.1064 12.6233 20.1064 12.0506C20.1064 11.478 19.5862 11.014 18.9448 11.014ZM14.0111 10V12L8.00083 11.9875V10.0061L14.0111 10Z" fill="white"/>
</svg>
