<svg width="32" height="32" viewBox="0 0 32 32" fill="none" xmlns="http://www.w3.org/2000/svg">
<path fill-rule="evenodd" clip-rule="evenodd" d="M28 8.3397V25.6379C28 26.193 27.6553 26.6704 27.1654 26.8827C27.1582 26.885 27.152 26.8897 27.1458 26.8925C27.1064 26.9084 27.0645 26.9169 27.0236 26.9299C26.9769 26.9444 26.9326 26.9626 26.8836 26.972C26.8674 26.9757 26.8488 26.9748 26.8316 26.9776C26.7574 26.9897 26.6822 27 26.6041 27H5.40258C4.62749 27 4 26.3879 4 25.6393V5.10726C4 4.49566 4.50801 4 5.136 4H15.5143C16.098 4 16.3223 4.40251 16.5357 4.84841L17.5112 6.97899H26.5965H26.6041C27.3711 6.97899 28 7.59059 28 8.3397Z" fill="#ECA909"/>
<path fill-rule="evenodd" clip-rule="evenodd" d="M26.864 10.0066C27.492 10.0066 28 10.493 28 11.0932V26.6647C28 27.3994 27.3725 28 26.6041 28H26.5975H5.39638C5.31781 28 5.24259 27.9899 5.16837 27.978C5.1512 27.9752 5.13264 27.9761 5.11644 27.9725C5.06742 27.9633 5.02315 27.9454 4.97645 27.9311C4.93551 27.9183 4.89365 27.9101 4.85416 27.8945C4.84798 27.8916 4.84179 27.8871 4.83461 27.8848C4.34473 27.6765 4 27.2079 4 26.6647V11.3354C4 10.6002 4.62889 10 5.39589 10L26.864 10.0066Z" fill="#FFC900"/>
<path fill-rule="evenodd" clip-rule="evenodd" d="M15.9965 19.0133C17.5967 19.0133 18.9041 20.4062 18.9919 22.2477L18.9965 22.4466V23.0133H12.9965V22.4428C12.9982 20.5052 14.341 19.0133 15.9965 19.0133ZM11.4951 20.6169C11.8299 20.6169 12.1493 20.6819 12.4411 20.8007C12.1452 21.3083 11.9615 21.8896 11.9197 22.5151L11.9105 22.7858L11.9095 23.0123L9 23.0128C9.06755 21.7054 10.0724 20.7028 11.331 20.6222L11.4951 20.6169ZM20.4965 21.0133C21.7223 21.0133 22.7419 21.8543 22.9554 23.0124L19.9465 23.0123L19.9475 22.79C19.9475 22.2097 19.8265 21.6622 19.6074 21.1701C19.8823 21.0685 20.1827 21.0133 20.4965 21.0133ZM20.4721 15.9988C21.2897 15.9988 21.9526 16.7179 21.9526 17.6054C21.9526 18.4929 21.2897 20.0691 20.4721 20.0691C19.6545 20.0691 18.9919 18.4929 18.9919 17.6054C18.9919 16.7179 19.6545 15.9988 20.4721 15.9988ZM11.4839 15.9866C12.2879 15.9866 12.9399 16.6939 12.9399 17.5667C12.9399 18.4397 12.2879 19.9899 11.4839 19.9899C10.6797 19.9899 10.028 18.4397 10.028 17.5667C10.028 16.6939 10.6797 15.9866 11.4839 15.9866ZM15.9811 14C16.9507 14 17.7369 14.8394 17.7369 15.8754C17.7369 16.9112 16.9507 18.7509 15.9811 18.7509C15.0115 18.7509 14.2257 16.9112 14.2257 15.8754C14.2257 14.8394 15.0115 14 15.9811 14Z" fill="#E59A0C"/>
</svg>
