<svg width="32" height="32" viewBox="0 0 32 32" fill="none" xmlns="http://www.w3.org/2000/svg">
<g clip-path="url(#clip0_0_1068)">
<path fill-rule="evenodd" clip-rule="evenodd" d="M26.6746 31H5.32507C4.59587 31 4 30.3946 4 29.6549C4 29.6549 4 4.14683 4 2.34582C4 1.60604 4.59587 1 5.32507 1H21L28 8V29.6549C28 30.3946 27.4033 31 26.6746 31Z" fill="#1D7FF9"/>
<path fill-rule="evenodd" clip-rule="evenodd" d="M8.30189 10V12.5318H10.6984V10H12.0003V16.9893H10.6984V13.8239H8.30189V16.9893H7V10H8.30189ZM14.1593 10L15.0058 14.7574H15.0208L15.9497 10H17.0509L17.9649 14.8162H17.9799L18.8563 10H20.01L18.5717 16.9893H17.403L16.4966 12.2319H16.4816L15.5901 16.9893H14.399L12.9832 10H14.1593ZM23.834 10C25.4048 10 26.0137 11.1062 26.0137 12.2417C26.0137 13.3299 25.4545 14.3911 24.0254 14.4776L23.834 14.4833H22.3779V16.9893H20.9924V10H23.834ZM23.4545 11.1942H22.3779V13.2891H23.4545C24.0988 13.2891 24.6724 13.1325 24.6724 12.2417C24.6724 11.4033 24.1642 11.2152 23.5674 11.196L23.4545 11.1942Z" fill="white"/>
<path opacity="0.3" fill-rule="evenodd" clip-rule="evenodd" d="M23.1668 18.3994C23.9896 18.3994 24.6567 19.0563 24.6567 19.8666C24.6567 20.6769 23.9896 21.3338 23.1668 21.3338C22.344 21.3338 21.6769 20.6769 21.6769 19.8666C21.6769 19.0563 22.344 18.3994 23.1668 18.3994ZM18.6633 22.0674H27.5348C28.0771 22.0674 28.5168 22.5003 28.5168 23.0344C28.5168 23.5684 28.0771 24.0014 27.5348 24.0014H24.6785C26.0622 24.6219 27.0263 26.0134 27.0263 27.6306C27.0263 29.8253 25.2504 31.6046 23.0597 31.6046C20.869 31.6046 19.0932 29.8253 19.0932 27.6306C19.0932 26.0134 20.0572 24.6219 21.4409 24.0014H18.6633C18.121 24.0014 17.6814 23.5684 17.6814 23.0344C17.6814 22.5003 18.121 22.0674 18.6633 22.0674ZM23.0273 29.4987C24.0571 29.4987 24.8919 28.6623 24.8919 27.6306C24.8919 26.5988 24.0571 25.7624 23.0273 25.7624C21.9975 25.7624 21.1627 26.5988 21.1627 27.6306C21.1627 28.6623 21.9975 29.4987 23.0273 29.4987Z" fill="white"/>
<path fill-rule="evenodd" clip-rule="evenodd" d="M21 6.68987C21 7.41025 21.5893 8 22.3101 8H28L21 1C21 1 21 6.1913 21 6.68987Z" fill="#0044CC"/>
</g>
<defs>
<clipPath id="clip0_0_1068">
<rect width="32" height="32" fill="white"/>
</clipPath>
</defs>
</svg>
