<svg width="32" height="32" viewBox="0 0 32 32" fill="none" xmlns="http://www.w3.org/2000/svg">
<g clip-path="url(#clip0_306_42)">
<path fill-rule="evenodd" clip-rule="evenodd" d="M26.6746 31H5.32507C4.59587 31 4 30.3946 4 29.6549C4 29.6549 4 4.14683 4 2.34582C4 1.60604 4.59587 1 5.32507 1H21L28 8V29.6549C28 30.3946 27.4033 31 26.6746 31Z" fill="#1D7FF9"/>
<path fill-rule="evenodd" clip-rule="evenodd" d="M8.30189 10V12.5318H10.6984V10H12.0003V16.9893H10.6984V13.8239H8.30189V16.9893H7V10H8.30189ZM14.1593 10L15.0058 14.7574H15.0208L15.9497 10H17.0509L17.9649 14.8162H17.9799L18.8563 10H20.01L18.5717 16.9893H17.403L16.4966 12.2319H16.4816L15.5901 16.9893H14.399L12.9832 10H14.1593ZM25.9944 10V11.2943H24.162V17.001H22.8177V11.2943H20.9854V10H25.9944Z" fill="white"/>
<path opacity="0.3" fill-rule="evenodd" clip-rule="evenodd" d="M23.1665 18.3994C23.9893 18.3994 24.6564 19.0563 24.6564 19.8666C24.6564 20.6769 23.9893 21.3338 23.1665 21.3338C22.3437 21.3338 21.6767 20.6769 21.6767 19.8666C21.6767 19.0563 22.3437 18.3994 23.1665 18.3994ZM18.6631 22.0674H27.5345C28.0769 22.0674 28.5165 22.5003 28.5165 23.0344C28.5165 23.5684 28.0769 24.0014 27.5345 24.0014H24.6783C26.062 24.6219 27.026 26.0134 27.026 27.6306C27.026 29.8253 25.2502 31.6046 23.0595 31.6046C20.8688 31.6046 19.0929 29.8253 19.0929 27.6306C19.0929 26.0134 20.057 24.6219 21.4407 24.0014H18.6631C18.1208 24.0014 17.6812 23.5684 17.6812 23.0344C17.6812 22.5003 18.1208 22.0674 18.6631 22.0674ZM23.027 29.4987C24.0569 29.4987 24.8917 28.6623 24.8917 27.6306C24.8917 26.5988 24.0569 25.7624 23.027 25.7624C21.9973 25.7624 21.1625 26.5988 21.1625 27.6306C21.1625 28.6623 21.9973 29.4987 23.027 29.4987Z" fill="white"/>
<path fill-rule="evenodd" clip-rule="evenodd" d="M21 6.68987C21 7.41025 21.5893 8 22.3101 8H28L21 1C21 1 21 6.1913 21 6.68987Z" fill="#0044CC"/>
</g>
<defs>
<clipPath id="clip0_306_42">
<rect width="32" height="32" fill="white"/>
</clipPath>
</defs>
</svg>
