<svg width="32" height="32" viewBox="0 0 32 32" fill="none" xmlns="http://www.w3.org/2000/svg">
<path fill-rule="evenodd" clip-rule="evenodd" d="M26.7249 3H5.26794C4.57098 3 4 3.61926 4 4.37729V25.6224C4 26.3805 4.57098 27 5.26794 27H26.7321C27.4292 27 28 26.3792 28 25.6215V4.37729C28 3.61926 27.4292 3 26.7321 3H26.7249Z" fill="#009FD2"/>
<path fill-rule="evenodd" clip-rule="evenodd" d="M8.12499 6.00972L20 6L25 10.9977C25 10.9977 25 19.9131 25 21.8267C25 22.4746 24.4963 23 23.875 23H8.12499C7.50366 23 7 22.4746 7 21.8267V7.18291C7 6.53498 7.50366 6.00972 8.12499 6.00972Z" fill="#F7F7F7"/>
<mask id="mask0_0_1107" style="mask-type:luminance" maskUnits="userSpaceOnUse" x="7" y="6" width="18" height="17">
<path fill-rule="evenodd" clip-rule="evenodd" d="M8.12499 6.00972L20 6L25 10.9977C25 10.9977 25 19.9131 25 21.8267C25 22.4746 24.4963 23 23.875 23H8.12499C7.50366 23 7 22.4746 7 21.8267V7.18291C7 6.53498 7.50366 6.00972 8.12499 6.00972Z" fill="white"/>
</mask>
<g mask="url(#mask0_0_1107)">
<path fill-rule="evenodd" clip-rule="evenodd" d="M8.99996 8.98985H18V10.9981H8.99996V8.98985ZM9 12H18V14H9V12ZM14 14.9839H8.99996V16.9922H14V14.9839Z" fill="#ACAEB0"/>
<path fill-rule="evenodd" clip-rule="evenodd" d="M25.0141 11.0058H20.931C20.647 11.0058 20.3945 10.8726 20.2231 10.6682C20.0831 10.5016 19.9953 10.289 19.9953 10.0544V6.01921V6.0126L25.0141 11.0058Z" fill="#ACAEB0"/>
</g>
<path fill-rule="evenodd" clip-rule="evenodd" d="M4.01065 27.6571V18.999H27.9977V27.6556C27.9977 28.395 27.426 29.0001 26.7279 29.0001H5.28628H5.28051C4.58252 29.0001 4.01065 28.3962 4.01065 27.6571ZM20 18.9999H12L14 22H18L20 18.9999Z" fill="#00BDDF"/>
</svg>
