<svg width="32" height="32" viewBox="0 0 32 32" fill="none" xmlns="http://www.w3.org/2000/svg">
<path fill-rule="evenodd" clip-rule="evenodd" d="M27.9875 29.6547C27.9875 30.3947 27.3711 31 26.6186 31H5.3686C4.61551 31 4 30.3947 4 29.6547V2.35254C4 1.60591 4.61579 1 5.36939 1H26.6304C27.3833 1 28 1.60591 28 2.34629L27.9875 29.6547Z" fill="#00BDDF"/>
<mask id="mask0_0_1121" style="mask-type:luminance" maskUnits="userSpaceOnUse" x="4" y="1" width="24" height="30">
<path fill-rule="evenodd" clip-rule="evenodd" d="M27.9875 29.6547C27.9875 30.3947 27.3711 31 26.6186 31H5.3686C4.61551 31 4 30.3947 4 29.6547V2.35254C4 1.60591 4.61579 1 5.36939 1H26.6304C27.3833 1 28 1.60591 28 2.34629L27.9875 29.6547Z" fill="white"/>
</mask>
<g mask="url(#mask0_0_1121)">
<path fill-rule="evenodd" clip-rule="evenodd" d="M19.7473 20.988C18.6543 21.516 17.3783 21.377 16.8973 20.679C16.4163 19.98 16.9123 18.987 18.0053 18.459C18.7533 18.098 19.3933 18.056 19.9993 18.284V11.695L13.9993 13.602V20.891C14.0103 21.494 13.3173 22.155 12.4933 22.553C11.3933 23.084 10.1093 22.944 9.62432 22.242C9.14032 21.539 9.63932 20.538 10.7403 20.007C11.5203 19.63 12.3893 19.597 13.0033 19.858V13.842V11.4545C13.0033 11.2334 13.1484 11.0386 13.3602 10.9754L20.3572 8.88512C20.6779 8.78932 21.0003 9.02951 21.0003 9.3642V10.262V19.1C21.1673 19.755 20.6773 20.539 19.7473 20.988Z" fill="white"/>
</g>
</svg>
