<svg width="32" height="32" viewBox="0 0 32 32" fill="none" xmlns="http://www.w3.org/2000/svg">
<path fill-rule="evenodd" clip-rule="evenodd" d="M28 8.3397V25.6379C28 26.193 27.6553 26.6704 27.1654 26.8827C27.1583 26.885 27.1521 26.8897 27.1459 26.8925C27.1064 26.9084 27.0645 26.9169 27.0235 26.9299C26.9769 26.9444 26.9326 26.9626 26.8836 26.972C26.8674 26.9757 26.8488 26.9748 26.8317 26.9776C26.7574 26.9897 26.6822 27 26.6041 27H5.40253C4.62749 27 4 26.3879 4 25.6393V5.10726C4 4.49566 4.50796 4 5.13595 4H15.5143C16.098 4 16.3223 4.40251 16.5357 4.84841L17.5112 6.97899H26.5965H26.6041C27.3711 6.97899 28 7.59059 28 8.3397Z" fill="#009FD2"/>
<path fill-rule="evenodd" clip-rule="evenodd" d="M26.864 10.0066C27.492 10.0066 28 10.493 28 11.0932V26.6647C28 27.3994 27.3725 28 26.604 28H26.5974H5.3964C5.31784 28 5.24262 27.9899 5.1684 27.978C5.15122 27.9752 5.13264 27.9761 5.11646 27.9725C5.06744 27.9633 5.0231 27.9454 4.97645 27.9311C4.93551 27.9183 4.89365 27.9101 4.85411 27.8945C4.84792 27.8916 4.84182 27.8871 4.83463 27.8848C4.34468 27.6765 4 27.2079 4 26.6647V11.3354C4 10.6002 4.62891 10 5.39592 10L26.864 10.0066Z" fill="#00BDDF"/>
</svg>
