<svg width="32" height="32" viewBox="0 0 32 32" fill="none" xmlns="http://www.w3.org/2000/svg">
<g clip-path="url(#clip0_0_1137)">
<g clip-path="url(#clip1_0_1137)">
<path fill-rule="evenodd" clip-rule="evenodd" d="M26.6804 30.9745H5.32233C4.59273 30.9745 3.99658 30.3688 3.99658 29.6287V2.34257C3.99658 1.60238 4.59273 0.995972 5.32233 0.995972L20.9999 0.995972L27.9999 8.00003L28.0064 29.6287C28.0064 30.3688 27.4094 30.9745 26.6804 30.9745Z" fill="#1D7FF9"/>
<path fill-rule="evenodd" clip-rule="evenodd" d="M21 6.6899C21 7.41021 21.5892 8 22.3101 8H28L21 1C21 1 21 6.21464 21 6.6899Z" fill="#0044CC"/>
<path fill-rule="evenodd" clip-rule="evenodd" d="M9.9913 10.0243C11.8747 10.0243 12.9826 11.5647 12.9826 13.544C12.9826 15.4672 11.8747 17.0076 9.9913 17.0076C8.1079 17.0076 7 15.4672 7 13.544C7 11.5647 8.1079 10.0243 9.9913 10.0243ZM16.437 10C17.8978 10 18.9954 11.1374 18.9954 13.4613C18.9954 15.421 18.2151 16.8962 16.6119 16.9956L16.437 17.001H14.005V10H16.437ZM24.9946 10V11.2943H23.1622V17.001H21.8179V11.2943H19.9855V10H24.9946ZM16.1291 11.2943H15.2447V15.7067H16.3502C17.0687 15.7067 17.7557 15.1576 17.7557 13.6083C17.7557 12.2578 17.3945 11.3737 16.285 11.2994L16.1291 11.2943ZM9.9913 11.4024C8.78966 11.4024 8.48747 12.377 8.48747 13.544C8.48747 14.655 8.78966 15.6295 9.9913 15.6295C11.1929 15.6295 11.4951 14.655 11.4951 13.544C11.4951 12.377 11.1929 11.4024 9.9913 11.4024Z" fill="white"/>
</g>
</g>
<defs>
<clipPath id="clip0_0_1137">
<rect width="32" height="32" fill="white"/>
</clipPath>
<clipPath id="clip1_0_1137">
<rect width="46" height="30" fill="white" transform="translate(-8 1)"/>
</clipPath>
</defs>
</svg>
