<svg width="32" height="32" viewBox="0 0 32 32" fill="none" xmlns="http://www.w3.org/2000/svg">
<path fill-rule="evenodd" clip-rule="evenodd" d="M26.6784 31.0038H5.32535C4.59598 31.0038 4 30.3983 4 29.6584C4 29.6584 4 3.9685 4 2.34213C4 1.60216 4.59598 0.995972 5.32535 0.995972H21.0001L28.004 8V29.6584C28.004 30.3983 27.407 31.0038 26.6784 31.0038Z" fill="#F85C5C"/>
<mask id="mask0_0_1148" style="mask-type:luminance" maskUnits="userSpaceOnUse" x="4" y="0" width="25" height="32">
<path fill-rule="evenodd" clip-rule="evenodd" d="M26.6784 31.0038H5.32535C4.59598 31.0038 4 30.3983 4 29.6584C4 29.6584 4 3.9685 4 2.34213C4 1.60216 4.59598 0.995972 5.32535 0.995972H21.0001L28.004 8V29.6584C28.004 30.3983 27.407 31.0038 26.6784 31.0038Z" fill="white"/>
</mask>
<g mask="url(#mask0_0_1148)">
<g opacity="0.4">
<path fill-rule="evenodd" clip-rule="evenodd" d="M20.9916 27.4634H23.8946C26.0138 27.4634 27.7378 25.7956 27.7378 23.7456C27.7378 21.6955 26.0138 20.0276 23.8946 20.0276H18.5316C17.9847 20.0276 17.5413 20.4565 17.5413 20.9856C17.5413 21.5147 17.9847 21.9436 18.5316 21.9436H23.8946C24.9217 21.9436 25.7573 22.752 25.7573 23.7456C25.7573 24.7392 24.9217 25.5475 23.8946 25.5475H20.9916V23.7502C20.9916 23.2211 20.5483 22.7922 20.0013 22.7922C19.4545 22.7922 19.0111 23.2211 19.0111 23.7502V31.6193C19.0111 32.1484 19.4545 32.5773 20.0013 32.5773C20.5483 32.5773 20.9916 32.1484 20.9916 31.6193V27.4634Z" fill="white"/>
<path fill-rule="evenodd" clip-rule="evenodd" d="M20.9916 27.4634H23.8946C26.0138 27.4634 27.7378 25.7956 27.7378 23.7456C27.7378 21.6955 26.0138 20.0276 23.8946 20.0276H18.5316C17.9847 20.0276 17.5413 20.4565 17.5413 20.9856C17.5413 21.5147 17.9847 21.9436 18.5316 21.9436H23.8946C24.9217 21.9436 25.7573 22.752 25.7573 23.7456C25.7573 24.7392 24.9217 25.5475 23.8946 25.5475H20.9916V23.7502C20.9916 23.2211 20.5483 22.7922 20.0013 22.7922C19.4545 22.7922 19.0111 23.2211 19.0111 23.7502V31.6193C19.0111 32.1484 19.4545 32.5773 20.0013 32.5773C20.5483 32.5773 20.9916 32.1484 20.9916 31.6193V27.4634Z" fill="white"/>
</g>
<path fill-rule="evenodd" clip-rule="evenodd" d="M21 6.68986C21 7.4102 21.5892 8 22.3101 8H28L21 1C21 1 21 6.18946 21 6.68986Z" fill="#B40000"/>
<path fill-rule="evenodd" clip-rule="evenodd" d="M7 10H9.02302L9.44718 10.0035C10.0404 10.0141 10.4398 10.0483 10.6459 10.1054C11.0332 10.211 11.3572 10.44 11.6192 10.7926C11.8799 11.1453 12.0106 11.6011 12.0106 12.1586C12.0106 12.589 11.935 12.9519 11.7845 13.2448C11.6344 13.5385 11.4433 13.7693 11.2104 13.937C10.9782 14.1045 10.7429 14.2155 10.5031 14.269C10.1773 14.3365 9.70596 14.3697 9.0874 14.3697H8.3651V17.0167H7V10ZM14.9371 10C15.4836 10 15.8995 10.0444 16.1858 10.1345C16.5703 10.2555 16.8999 10.4712 17.175 10.78C17.449 11.0905 17.6582 11.4691 17.8015 11.9169C17.9445 12.3653 18.0162 12.9181 18.0162 13.5753C18.0162 14.1534 17.9492 14.6511 17.8148 15.0685C17.6511 15.5797 17.4165 15.9927 17.112 16.3085C16.882 16.5478 16.5714 16.7338 16.1814 16.8683C15.8893 16.9678 15.4975 17.0167 15.0088 17.0167H13.002V10H14.9371ZM23.9874 10V11.1867H20.5322V12.8483H23.4896V14.0351H20.5322V17.0167H19.012V10H23.9874ZM14.8073 11.1913L14.3274 11.1871V15.8347H14.8302C15.1999 15.8347 15.4666 15.8122 15.6312 15.7678C15.8452 15.7098 16.0234 15.6133 16.1661 15.4752C16.3075 15.3384 16.4232 15.1129 16.5127 14.7982C16.6018 14.4842 16.647 14.0556 16.647 13.5132C16.647 12.9713 16.6018 12.5554 16.5127 12.264C16.4232 11.9741 16.2974 11.7475 16.1368 11.5841C15.9757 11.4219 15.771 11.3118 15.5235 11.2538C15.3848 11.2207 15.1459 11.1997 14.8073 11.1913ZM9.03379 11.1878L8.3651 11.1871V13.1779H8.94466C9.48232 13.1779 9.84162 13.1411 10.0229 13.0682C10.2052 12.9954 10.347 12.8801 10.4497 12.7235C10.553 12.5671 10.6041 12.3853 10.6041 12.1781C10.6041 11.9229 10.5321 11.7124 10.3876 11.5462C10.2431 11.3804 10.0607 11.2768 9.8389 11.235C9.69659 11.2072 9.42768 11.1913 9.03379 11.1878Z" fill="white"/>
</g>
</svg>
