<svg width="32" height="32" viewBox="0 0 32 32" fill="none" xmlns="http://www.w3.org/2000/svg">
<path fill-rule="evenodd" clip-rule="evenodd" d="M26.6792 31.0002H5.32538C4.59601 31.0002 4 30.3947 4 29.6548V29.6487C4 29.6487 4 3.67849 4 2.342C4 1.60216 4.59601 0.995972 5.32538 0.995972H21.0001L28.0049 8.00004V29.6548C28.0049 30.3947 27.408 31.0002 26.6792 31.0002Z" fill="#FD8900"/>
<path fill-rule="evenodd" clip-rule="evenodd" d="M21.0052 6.67952C21.0052 7.39766 21.5942 7.9856 22.3148 7.9856H28.0028L21.0052 1.00711V6.67952Z" fill="#BD4100"/>
<path fill-rule="evenodd" clip-rule="evenodd" d="M8.00136 17.9985L22.0124 18.007V20.007L8.00136 20.0196V17.9985ZM21.2558 10.0123C21.6704 10.0123 22.0065 10.3957 22.0065 10.8687V15.1506C22.0065 15.6235 21.6704 16.0069 21.2558 16.0069H16.7514C16.3367 16.0069 16.0006 15.6235 16.0006 15.1506V10.8687C16.0006 10.3957 16.3367 10.0123 16.7514 10.0123H21.2558ZM19.0037 14.0588C17.9588 14.0588 17.1015 14.7113 17.0174 15.5816L17.0106 15.7207V15.9972H20.9966L20.997 15.7226L20.9904 15.5833C20.9072 14.7122 20.0496 14.0588 19.0037 14.0588ZM11.0244 10L11.0246 13.0141H14.0146L14.0095 13.1732C13.918 14.7467 12.6089 15.9945 11.0073 15.9945C9.34645 15.9945 8 14.6525 8 12.9971C8 11.4009 9.25199 10.0961 10.8306 10.0049L11.0244 10ZM18.9461 11.021C18.3047 11.021 17.785 11.485 17.785 12.0576C17.785 12.6303 18.3047 13.6473 18.9461 13.6473C19.5875 13.6473 20.1077 12.6303 20.1077 12.0576C20.1077 11.485 19.5875 11.021 18.9461 11.021Z" fill="white"/>
</svg>
