<svg width="32" height="32" viewBox="0 0 32 32" fill="none" xmlns="http://www.w3.org/2000/svg">
<path fill-rule="evenodd" clip-rule="evenodd" d="M26.6792 31.0001H5.32538C4.59601 31.0001 4 30.3947 4 29.6548V29.6486V2.342C4 1.60212 4.59601 0.995972 5.32538 0.995972C6.31126 0.995972 21.0001 0.995972 21.0001 0.995972L28.0049 8V29.6548C28.0049 30.3947 27.408 31.0001 26.6792 31.0001Z" fill="#FD8900"/>
<path fill-rule="evenodd" clip-rule="evenodd" d="M21 6.68989C21 7.41028 21.5892 8 22.31 8H28L21 1C21 1 21 6.11401 21 6.68989Z" fill="#BD4100"/>
<path fill-rule="evenodd" clip-rule="evenodd" d="M7.98975 10.9675C7.98975 10.4345 8.38787 10.0009 8.8774 10.0009H17.1024C17.592 10.0009 17.9901 10.4345 17.9901 10.9675V17.046C17.9901 17.5788 17.592 18.0125 17.1024 18.0125H8.8774C8.38787 18.0125 7.98975 17.5788 7.98975 17.046V10.9675ZM12.3451 12.0686C12.1569 11.9379 12.0017 12.0117 12.0017 12.2308V15.7506C12.0017 15.97 12.1583 16.0458 12.3488 15.919L14.8468 14.2624C15.0373 14.1357 15.0397 13.9255 14.8505 13.795L12.3451 12.0686ZM19.1195 19.9974C19.609 19.9974 20.0071 19.5655 20.0071 19.0348L20.0079 12.0133L19 12V18C19 18.5307 18.4895 19 18 19H9.99997V20L19.1195 19.9974Z" fill="white"/>
</svg>
