<svg width="32" height="32" viewBox="0 0 32 32" fill="none" xmlns="http://www.w3.org/2000/svg">
<path fill-rule="evenodd" clip-rule="evenodd" d="M26.6746 31H5.32511C4.59589 31 4 30.3946 4 29.6549V2.34581C4 1.60603 4.59589 1 5.32511 1H21L28 8V29.6549C28 30.3946 27.4032 31 26.6746 31Z" fill="#FD8900"/>
<path fill-rule="evenodd" clip-rule="evenodd" d="M21.0052 6.67949C21.0052 7.39767 21.5942 7.98561 22.3148 7.98561H28.0028L21.0052 1.00708V6.67949Z" fill="#BD4100"/>
<path fill-rule="evenodd" clip-rule="evenodd" d="M8 18L19 18.0188V19.998L8 20V18ZM11 16C9.34317 16 8 14.6567 8 12.9997C8 11.4018 9.24895 10.0957 10.8237 10.0045L11.0171 10L11.0172 13.0167H14L14 12.9997C14 14.6567 12.6568 16 11 16ZM19 14V16H15V14H19ZM19 10V12H15V10H19Z" fill="white"/>
</svg>
