<svg width="32" height="32" viewBox="0 0 32 32" fill="none" xmlns="http://www.w3.org/2000/svg">
<g clip-path="url(#clip0_0_1189)">
<g clip-path="url(#clip1_0_1189)">
<path fill-rule="evenodd" clip-rule="evenodd" d="M26.6792 31.0001H5.32535C4.59601 31.0001 4 30.3946 4 29.6548V29.6487C4 29.6487 4 3.72676 4 2.34196C4 1.60209 4.59601 0.995972 5.32535 0.995972H21.0001L28.0049 8V29.6548C28.0049 30.3946 27.408 31.0001 26.6792 31.0001Z" fill="#B4B6B8"/>
<path fill-rule="evenodd" clip-rule="evenodd" d="M11.1177 11C12.1543 11 12.8102 11.8751 12.8102 12.937C12.8102 13.704 12.5728 14.2929 12.0267 14.625L11.8952 14.6971V14.7168C12.5187 14.9134 12.6969 15.6509 12.7374 16.3588L12.7608 16.8989C12.7788 17.2364 12.8142 17.6082 12.9131 17.8745L12.9803 18.0205H11.7089C11.5551 17.5781 11.5712 16.8996 11.5065 16.3391C11.4233 15.6509 11.2132 15.3223 10.6654 15.2816L10.5428 15.2772H9.27138V18.0205H8V11H11.1177ZM18.9824 11V12.2979H17.1599V18.0205H15.8229V12.2979H14.0005V11H18.9824ZM24.985 11V12.2979H21.5609V13.9203H24.5284V15.1199H21.5609V18.0205H20.0028V11H24.985ZM10.6643 12.1996H9.27138V14.176H10.6643C11.2311 14.176 11.5388 13.881 11.5388 13.173C11.5388 12.543 11.2735 12.2437 10.7817 12.2041L10.6643 12.1996Z" fill="white"/>
<path fill-rule="evenodd" clip-rule="evenodd" d="M21.0049 6.67949C21.0049 7.39767 21.5939 7.98561 22.3146 7.98561H28.0026L21.0049 1.00708C21.0049 1.00708 21.0049 6.15272 21.0049 6.67949Z" fill="#8C8C8C"/>
</g>
</g>
<defs>
<clipPath id="clip0_0_1189">
<rect width="32" height="32" fill="white"/>
</clipPath>
<clipPath id="clip1_0_1189">
<rect width="45" height="30" fill="white" transform="translate(-6 1)"/>
</clipPath>
</defs>
</svg>
