<svg width="32" height="32" viewBox="0 0 32 32" fill="none" xmlns="http://www.w3.org/2000/svg">
<path fill-rule="evenodd" clip-rule="evenodd" d="M26.6792 31.0001H5.32544C4.59598 31.0001 4 30.3948 4 29.6548V2.34196C4 1.60209 4.59598 0.995972 5.32544 0.995972H21.0001L28.0049 8V29.6548C28.0049 30.3948 27.4081 31.0001 26.6792 31.0001Z" fill="#B4B6B8"/>
<path fill-rule="evenodd" clip-rule="evenodd" d="M21 6.68987C21 7.41021 21.5892 8 22.3101 8H28L21 1C21 1 21 6.24745 21 6.68987Z" fill="#8C8C8C"/>
<path fill-rule="evenodd" clip-rule="evenodd" d="M13.0187 11V12.182H11.1491V17.9873H9.87393V12.182H8V11H13.0187ZM14.7341 11L16.0298 13.2449L17.299 11H18.8106L16.801 14.3935L19.0089 17.9873H17.4356L16.0034 15.5708L14.5667 17.9873H13.0022L15.2102 14.3411L13.2093 11H14.7341ZM24.0083 11V12.182H22.1492V17.9873H20.8812V12.182H19.0177V11H24.0083Z" fill="white"/>
</svg>
