<svg width="32" height="32" viewBox="0 0 32 32" fill="none" xmlns="http://www.w3.org/2000/svg">
<path fill-rule="evenodd" clip-rule="evenodd" d="M26.6746 31H5.32508C4.59589 31 4 30.3946 4 29.6549V2.34581C4 1.60603 4.59589 1 5.32508 1H21L28 8V29.6549C28 30.3946 27.4033 31 26.6746 31Z" fill="#B4B6B8"/>
<path fill-rule="evenodd" clip-rule="evenodd" d="M21 6.68987C21 7.41025 21.5893 8 22.3101 8H28L21 1C21 1 21 6.21427 21 6.68987Z" fill="#8C8C8C"/>
<path fill-rule="evenodd" clip-rule="evenodd" d="M13.7575 14.9784V16.9933H12.2561V14.9784H13.7575ZM12.9276 7C13.8558 7 14.6338 7.37484 15.1796 7.8544C15.7255 8.33424 16.0118 8.98257 16.0118 9.79834C16.0118 10.233 15.8719 10.6415 15.6191 11.0248C15.3659 11.4082 14.901 11.7998 14.3116 12.2548C14.0804 12.4353 13.9198 12.6289 13.8304 12.8359C13.7407 13.0432 13.7454 13.6567 13.7575 13.9926H12.2561C12.2403 13.4147 12.3169 12.6128 12.5201 12.215C12.698 11.8671 12.9146 11.5332 13.3024 11.2133L13.4794 11.077C13.7183 10.9048 13.9288 10.7192 14.0956 10.5297L14.2358 10.3726C14.3683 10.2194 14.4697 10.0652 14.4697 9.79834C14.4697 9.43758 14.3543 9.02248 14.139 8.80943C13.9239 8.60027 13.3753 8.33574 13.0089 8.33574C12.5704 8.33574 11.9724 8.62013 11.7551 8.87009C11.5379 9.12038 11.3057 9.59013 11.2895 10.1108H10C10.0278 9.16386 10.2019 8.41215 10.7378 7.87915C11.2734 7.34613 12.003 7 12.9276 7Z" fill="white"/>
</svg>
