<svg width="32" height="32" viewBox="0 0 32 32" fill="none" xmlns="http://www.w3.org/2000/svg">
<path fill-rule="evenodd" clip-rule="evenodd" d="M26.6746 31H5.32508C4.59589 31 4 30.3946 4 29.6549V2.34581C4 1.60603 4.59589 1 5.32508 1H21L28 8V29.6549C28 30.3946 27.4033 31 26.6746 31Z" fill="#B4B6B8"/>
<path fill-rule="evenodd" clip-rule="evenodd" d="M21 6.68987C21 7.41025 21.5893 8 22.3101 8H28L21 1C21 1 21 6.21427 21 6.68987Z" fill="#8C8C8C"/>
<path fill-rule="evenodd" clip-rule="evenodd" d="M10.8842 10.1716H12.1826L10.2831 16.8326H8.86454L7.00514 10.1716H8.30352L9.57783 14.8548H9.59387L10.8842 10.1716ZM15.2378 16.9912C13.4665 16.9912 12.4247 15.4519 12.4247 13.5301C12.4247 11.5523 13.4665 10.013 15.2378 10.013C17.009 10.013 18.0509 11.5523 18.0509 13.5301C18.0509 15.4519 17.009 16.9912 15.2378 16.9912ZM15.2378 11.2444C14.1077 11.2444 13.683 12.3639 13.683 13.5301C13.683 14.6402 14.1077 15.7597 15.2378 15.7597C16.3678 15.7597 16.7926 14.6402 16.7926 13.5301C16.7926 12.3639 16.3678 11.2444 15.2378 11.2444ZM21.4753 10.013C22.7336 10.013 23.7915 10.8713 23.9438 12.4106H22.7255C22.6454 11.7482 22.1004 11.2444 21.4753 11.2444C20.3452 11.2444 19.9204 12.3639 19.9204 13.5301C19.9204 14.6402 20.3452 15.7597 21.4753 15.7597C22.2447 15.7597 22.6775 15.144 22.7736 14.2671H23.9919C23.8636 15.9277 22.8778 16.9912 21.4753 16.9912C19.704 16.9912 18.6621 15.4519 18.6621 13.5301C18.6621 11.5523 19.704 10.013 21.4753 10.013Z" fill="white"/>
</svg>
