<svg width="32" height="32" viewBox="0 0 32 32" fill="none" xmlns="http://www.w3.org/2000/svg">
<path fill-rule="evenodd" clip-rule="evenodd" d="M26.6791 31.0001H5.32526C4.59586 31.0001 3.99988 30.3948 3.99988 29.6548V29.6486C3.99988 29.6486 3.99988 3.66105 3.99988 2.34196C3.99988 1.60209 4.59586 0.995972 5.32526 0.995972H21L28.0048 8V29.6548C28.0048 30.3948 27.4079 31.0001 26.6791 31.0001Z" fill="#51B41B"/>
<path fill-rule="evenodd" clip-rule="evenodd" d="M21 6.68987C21 7.41021 21.5892 8 22.3101 8H28L21 1C21 1 21 6.26301 21 6.68987Z" fill="#007800"/>
<path fill-rule="evenodd" clip-rule="evenodd" d="M13.0218 17.9852V20.0063H8V17.9852H13.0218ZM19.0283 17.9852V20.0063H14.0065V17.9852H19.0283ZM13.0218 14.0125V15.9939H8V14.0125H13.0218ZM19.0283 14.0125V15.9939H14.0065V14.0125H19.0283ZM13.0218 10V12.021H8V10H13.0218ZM19.0283 10V12.021H14.0065V10H19.0283Z" fill="white"/>
</svg>
