<svg width="32" height="32" viewBox="0 0 32 32" fill="none" xmlns="http://www.w3.org/2000/svg">
<path fill-rule="evenodd" clip-rule="evenodd" d="M26.6791 31.0001H5.32531C4.59591 31.0001 3.9999 30.3947 3.9999 29.6548V29.6487V2.342C3.9999 1.60212 4.59591 0.995972 5.32531 0.995972H21L28.0048 8.00004V29.6548C28.0048 30.3947 27.4079 31.0001 26.6791 31.0001Z" fill="#51B41B"/>
<path fill-rule="evenodd" clip-rule="evenodd" d="M21 6.68989C21 7.41021 21.5892 8 22.31 8H28L21 1C21 1 21 6.04177 21 6.68989Z" fill="#007800"/>
<path fill-rule="evenodd" clip-rule="evenodd" d="M8 17.9915L14.0111 18V20L8 20.0125V17.9915ZM15 17.9915L21.0111 18V20L15 20.0125V17.9915ZM14.0111 14V16L8.00083 15.9999L8.0111 14H14.0111ZM20.2545 10.0053C20.6691 10.0053 21.0052 10.3887 21.0052 10.8617V15.1436C21.0052 15.6165 20.6691 15.9999 20.2545 15.9999H15.7501C15.3354 15.9999 14.9993 15.6165 14.9993 15.1436V10.8617C14.9993 10.3887 15.3354 10.0053 15.7501 10.0053H20.2545ZM18.0023 14.0518C16.9575 14.0518 16.1002 14.7043 16.0161 15.5746L16.0093 15.7137V15.9902H19.9953L19.9956 15.7156L19.989 15.5763C19.9059 14.7052 19.0482 14.0518 18.0023 14.0518ZM17.9448 11.014C17.3034 11.014 16.7837 11.478 16.7837 12.0506C16.7837 12.6233 17.3034 13.6403 17.9448 13.6403C18.5862 13.6403 19.1064 12.6233 19.1064 12.0506C19.1064 11.478 18.5862 11.014 17.9448 11.014ZM14.0111 10V12L8.00083 11.9875V10.0061L14.0111 10Z" fill="white"/>
</svg>
