<svg width="32" height="32" viewBox="0 0 32 32" fill="none" xmlns="http://www.w3.org/2000/svg">
<path fill-rule="evenodd" clip-rule="evenodd" d="M5.32525 31.0001H14.3209H17.6791H26.6747C27.4041 31.0001 28.0001 30.3947 28.0001 29.6548V29.6487V2.34196C28.0001 1.60212 27.4041 0.99597 26.6747 0.99597L16 0.999128L5.32525 0.99597C4.59591 0.99597 3.99993 1.60212 3.99993 2.34196V29.6487V29.6548C3.99993 30.3947 4.59591 31.0001 5.32525 31.0001Z" fill="#FFC900"/>
<path fill-rule="evenodd" clip-rule="evenodd" d="M11.7058 12.0005C12.4243 12.0005 13.0093 12.5968 13.0093 13.3792V15.5733C13.0093 15.6478 13.004 15.7209 12.9939 15.7923C13.004 15.846 13.0093 15.9025 13.0093 15.9602V18.0354C13.0093 18.5628 12.5708 18.9901 12.0292 18.9901H9.97521C9.43498 18.9901 8.99512 18.5628 8.99512 18.0354V15.9602C8.99512 15.9021 9.00045 15.8453 9.01067 15.7901C9.00051 15.7202 8.99526 15.6474 8.99526 15.5733V13.3792C8.99526 12.5968 9.58121 12.0005 10.3006 12.0005H11.7058ZM11.494 13.0119H10.5118C10.2357 13.0119 10.0114 13.2622 10.0114 13.5704V14.4384C10.0114 14.7466 10.2357 14.9968 10.5118 14.9968H11.494C11.7694 14.9968 11.9936 14.7466 11.9936 14.4384V13.5704C11.9936 13.2622 11.7694 13.0119 11.494 13.0119ZM11.0062 8.98192V9.99839H13.0062V10.9827H11.0062V10.0072H9.00623V8.98192H11.0062ZM13.0062 7.99839V8.98266H11.0062V7.99839H13.0062ZM11.0062 7.0141V7.99839H9.00623V7.0141H11.0062ZM13.0062 5.98936V7.01475H11.0062V5.98936H13.0062ZM11.0062 5.00553V5.9898H9.00623V5.00553H11.0062ZM11.0062 0.987915V2.01267H13.0062V2.99696H11.0062V3.98042H13.0062V5.0058H11.0062V4.0129H9.00623V2.99686H11.0062V2.01324H9.00623V0.987915H11.0062Z" fill="#646668"/>
</svg>
