<svg width="198" height="60" viewBox="0 0 198 60" fill="none" xmlns="http://www.w3.org/2000/svg">
<path fill-rule="evenodd" clip-rule="evenodd" d="M130.759 20.975C128.565 18.3195 125.332 17 121.093 17C116.887 17 113.671 18.336 111.478 20.975C109.284 23.614 108.179 27.4735 108.179 32.5371V38.2934C108.179 43.39 109.284 47.266 111.478 49.905C113.671 52.5605 116.854 53.88 121.093 53.88C125.332 53.88 128.565 52.544 130.759 49.905C132.952 47.266 134.057 43.39 134.057 38.2934V32.5371C134.057 27.4735 132.952 23.614 130.759 20.975ZM121.093 20.8925C127.015 20.8925 129.983 24.7686 129.983 32.5371V38.2934C129.983 46.1279 126.982 50.037 121.093 50.037C115.205 50.037 112.253 46.1115 112.253 38.2934V32.5371C112.253 24.7686 115.172 20.8925 121.093 20.8925ZM79.793 21.8986C80.0075 21.8986 80.2054 22.1625 80.4033 22.7068L93.5983 50.9441C94.357 52.6595 95.759 53.5171 97.8207 53.5171C98.8103 53.5171 99.7175 53.1543 100.559 52.4285C101.4 51.7028 101.812 50.7132 101.812 49.4432V18.7978C101.812 18.5174 101.746 18.237 101.581 17.9896C101.416 17.7422 101.119 17.6103 100.674 17.6103H98.9588C98.464 17.6103 98.1341 17.7422 97.9691 17.9896C97.8207 18.237 97.7382 18.5174 97.7382 18.7978V48.3216C97.7382 48.7669 97.6063 48.9814 97.3589 48.9814C97.1115 48.9814 96.8971 48.7504 96.6991 48.2721L83.5371 19.8039C83.1578 19.0617 82.6135 18.4844 81.9042 18.0391C81.195 17.5938 80.3373 17.3794 79.3147 17.3794C78.2921 17.3794 77.385 17.6927 76.5603 18.303C75.7356 18.9298 75.3232 19.8039 75.3232 20.942V52.1152C75.3232 52.3791 75.3892 52.643 75.5377 52.9069C75.6696 53.1873 75.983 53.3192 76.4613 53.3192H78.1272C78.6385 53.3192 78.9684 53.1708 79.1498 52.9069C79.3312 52.6265 79.4137 52.3626 79.4137 52.1152V22.6573C79.4137 22.4594 79.4302 22.2945 79.4797 22.1295C79.5291 21.9811 79.6281 21.8986 79.793 21.8986ZM152.382 49.7401C152.662 49.7401 152.926 49.3607 153.141 48.602L161.651 18.7648C161.783 18.3525 161.899 18.0556 162.014 17.8907C162.13 17.7257 162.41 17.6268 162.839 17.6268H165.033C165.659 17.6268 165.989 17.7587 166.022 18.0391C166.055 18.303 165.989 18.7319 165.824 19.2926L156.885 49.938C156.637 51.0431 156.11 51.9337 155.318 52.5935C154.526 53.2532 153.537 53.5831 152.365 53.5831C151.194 53.5831 150.254 53.2697 149.545 52.6265C148.836 51.9997 148.292 51.1091 147.912 49.971L138.89 19.2761C138.725 18.6989 138.659 18.2865 138.676 18.0226C138.676 17.7587 139.022 17.6103 139.649 17.6103H141.875C142.288 17.6103 142.552 17.6927 142.684 17.8742C142.816 18.0556 142.915 18.3195 143.014 18.6989L151.656 48.536C151.755 48.8824 151.854 49.1628 151.97 49.3937C152.085 49.6081 152.217 49.7236 152.365 49.7236L152.382 49.7401ZM185.963 17.9401C185.287 17.4453 184.479 17.1979 183.522 17.1979C181.493 17.1979 180.174 18.1875 179.58 20.1833L169.7 51.9832C169.42 52.8739 169.651 53.3192 170.41 53.3192H172.686C172.933 53.3192 173.181 53.2532 173.395 53.1048C173.626 52.9563 173.774 52.7089 173.873 52.3626L177.205 41.4272H189.839L193.122 52.3626C193.204 52.7089 193.385 52.9563 193.616 53.1048C193.864 53.2532 194.111 53.3192 194.359 53.3192H196.585C197.344 53.3192 197.591 52.8739 197.344 51.9832L187.514 20.1998C187.151 19.1772 186.64 18.435 185.963 17.9401ZM188.602 37.5677H178.393L183.192 21.7007C183.258 21.5523 183.357 21.4698 183.522 21.4698C183.638 21.4698 183.737 21.5358 183.803 21.7007L188.602 37.5677Z" fill="#6F3AD0"/>
<path fill-rule="evenodd" clip-rule="evenodd" d="M33.4948 15.2513L47.2683 50.7103C47.9748 52.5293 47.0731 54.5766 45.2541 55.2831C44.2788 55.662 43.1858 55.5891 42.2694 55.0841L31.9085 49.374C30.8479 48.7895 29.5619 48.7888 28.5008 49.3723L18.0947 55.0939C16.3848 56.0341 14.2365 55.4101 13.2963 53.7002C12.7923 52.7835 12.7204 51.6907 13.0999 50.7159L26.9088 15.2487C27.6168 13.4303 29.6648 12.5302 31.4832 13.2381C32.4063 13.5975 33.1361 14.3279 33.4948 15.2513Z" fill="white"/>
<path fill-rule="evenodd" clip-rule="evenodd" d="M9.80743 49.434L23.6163 13.9668C25.0323 10.33 29.1283 8.52969 32.7651 9.94564C34.6113 10.6644 36.0709 12.1252 36.7883 13.972L50.5618 49.431C51.9749 53.0689 50.1713 57.1636 46.5334 58.5766C44.5828 59.3343 42.3967 59.1885 40.5641 58.1785L30.2032 52.4684L19.7971 58.19C16.3772 60.0703 12.0806 58.8223 10.2002 55.4025C9.19223 53.5692 9.04839 51.3836 9.80743 49.434ZM33.4948 15.2513C33.1361 14.3279 32.4063 13.5975 31.4832 13.2381C29.6648 12.5302 27.6168 13.4303 26.9088 15.2487L13.0999 50.7159C12.7204 51.6907 12.7923 52.7835 13.2963 53.7002C14.2365 55.4101 16.3848 56.0341 18.0947 55.0939L28.5008 49.3723C29.5619 48.7888 30.8479 48.7895 31.9085 49.374L42.2694 55.0841C43.1858 55.5891 44.2788 55.662 45.2541 55.2831C47.0731 54.5766 47.9748 52.5293 47.2683 50.7103L33.4948 15.2513Z" fill="#6F3AD0"/>
<path fill-rule="evenodd" clip-rule="evenodd" d="M32.4814 20.8782L42.4481 46.4228C42.9407 47.6852 42.3166 49.1079 41.0542 49.6004C40.3776 49.8644 39.6188 49.8151 38.982 49.4657L32.556 45.94C31.0872 45.1341 29.3088 45.1332 27.8392 45.9377L21.3815 49.4725C20.1929 50.1232 18.7018 49.6871 18.0511 48.4984C17.7025 47.8615 17.6538 47.1028 17.9183 46.4266L27.9105 20.8764C28.404 19.6144 29.8272 18.9914 31.0893 19.4849C31.7275 19.7346 32.2323 20.2397 32.4814 20.8782Z" fill="url(#paint0_linear_1513_296)"/>
<path d="M24.8252 19.8895L23.321 23.5647L22.3648 23.6556C13.5291 24.5575 7.21512 26.9449 7.21512 29.7483C7.21512 33.2278 16.9417 36.0665 29.1442 36.2194L30.1811 36.2259C42.8649 36.2259 53.1471 33.3258 53.1471 29.7483C53.1471 26.8461 46.3799 24.3896 37.0532 23.5657L35.5518 19.8904L36.6031 19.9593C48.2472 20.7997 56.6804 24.0339 56.6804 29.7483C56.6804 36.3109 45.558 39.6024 31.2229 39.7537L30.1811 39.7591L29.1394 39.7537C14.8043 39.6024 3.68188 36.3109 3.68188 29.7483C3.68188 23.861 12.6332 20.6062 24.8252 19.8895Z" fill="#6F3AD0"/>
<path fill-rule="evenodd" clip-rule="evenodd" d="M46.2356 13.4601L45.2818 10.2447C44.8936 9.37364 44.4476 8.69451 43.5208 8.40735L41.6461 8.00764C41.2564 7.90303 40.9817 7.5147 40.9817 7.06824C40.9817 6.62179 41.2564 6.23346 41.6461 6.12885L43.5208 5.72914C44.6307 5.40635 44.9387 4.85481 45.2818 4.00507L46.2356 0.710297C46.486 0.229491 46.759 -0.00721854 47.0547 0.000167625L47.18 0.0119468C47.4278 0.0653944 47.6591 0.298178 47.8737 0.710297L48.8275 4.00507C49.1706 4.85481 49.4786 5.40635 50.5885 5.72914L52.4632 6.12885C52.853 6.23346 53.1276 6.62179 53.1276 7.06824C53.1276 7.5147 52.853 7.90303 52.4632 8.00764L50.5885 8.40735C49.6617 8.69451 49.2157 9.37364 48.8275 10.2447L47.8737 13.4601C47.7133 13.9336 47.4402 14.1703 47.0547 14.1703C46.6691 14.1703 46.3961 13.9336 46.2356 13.4601Z" fill="#9D75EC"/>
<path fill-rule="evenodd" clip-rule="evenodd" d="M11.9586 17.6102L11.1638 14.8541C10.8403 14.1075 10.4686 13.5254 9.69623 13.2793L8.13401 12.9367C7.80921 12.847 7.58032 12.5141 7.58032 12.1315C7.58032 11.7488 7.80921 11.4159 8.13401 11.3263L9.69623 10.9837C10.6212 10.707 10.8778 10.2342 11.1638 9.50589L11.9586 6.6818C12.1673 6.26968 12.3948 6.06678 12.6411 6.07312L12.7456 6.08321C12.9521 6.12902 13.1448 6.32855 13.3236 6.6818L14.1185 9.50589C14.4045 10.2342 14.6611 10.707 15.586 10.9837L17.1483 11.3263C17.4731 11.4159 17.7019 11.7488 17.7019 12.1315C17.7019 12.5141 17.4731 12.847 17.1483 12.9367L15.586 13.2793C14.8136 13.5254 14.442 14.1075 14.1185 14.8541L13.3236 17.6102C13.19 18.016 12.9625 18.2189 12.6411 18.2189C12.3198 18.2189 12.0923 18.016 11.9586 17.6102Z" fill="#9D75EC"/>
<defs>
<linearGradient id="paint0_linear_1513_296" x1="17.7498" y1="19.3158" x2="17.7498" y2="49.7744" gradientUnits="userSpaceOnUse">
<stop stop-color="#A86CEA"/>
<stop offset="1" stop-color="#6F3AD0"/>
</linearGradient>
</defs>
</svg>
