<svg width="198" height="60" viewBox="0 0 198 60" fill="none" xmlns="http://www.w3.org/2000/svg">
<path d="M121.094 17C125.332 17.0001 128.565 18.3193 130.759 20.9746C132.952 23.6136 134.058 27.4735 134.058 32.5371V38.293C134.058 43.3895 132.952 47.2663 130.759 49.9053C128.565 52.5441 125.332 53.8798 121.094 53.8799C116.855 53.8799 113.671 52.5607 111.478 49.9053C109.284 47.2663 108.179 43.3895 108.179 38.293V32.5371C108.179 27.4735 109.284 23.6136 111.478 20.9746C113.671 18.3358 116.888 17 121.094 17ZM141.875 17.6104C142.287 17.6104 142.552 17.6927 142.684 17.874C142.816 18.0555 142.915 18.3199 143.014 18.6992L151.656 48.5361C151.755 48.8824 151.854 49.1627 151.97 49.3936C152.085 49.6079 152.217 49.7235 152.365 49.7236L152.382 49.7402C152.662 49.7402 152.926 49.3603 153.141 48.6016L161.651 18.7646C161.783 18.3524 161.899 18.0555 162.015 17.8906C162.13 17.7258 162.41 17.627 162.839 17.627H165.032C165.659 17.627 165.989 17.7587 166.022 18.0391C166.055 18.303 165.989 18.7322 165.824 19.293L156.885 49.9385C156.637 51.0433 156.109 51.9341 155.317 52.5938C154.526 53.2533 153.536 53.583 152.365 53.583C151.194 53.583 150.254 53.2701 149.545 52.627C148.836 52.0002 148.291 51.1088 147.912 49.9707L138.89 19.2764C138.725 18.6991 138.659 18.2864 138.676 18.0225C138.676 17.7587 139.022 17.6104 139.648 17.6104H141.875ZM79.3145 17.3789C80.3371 17.3789 81.1951 17.5937 81.9043 18.0391C82.6135 18.4844 83.1578 19.0616 83.5371 19.8037L96.6992 48.2725C96.897 48.7503 97.1113 48.9811 97.3584 48.9814C97.6058 48.9814 97.7383 48.7666 97.7383 48.3213V18.7979C97.7383 18.5175 97.8203 18.2367 97.9688 17.9893C98.1337 17.7419 98.4642 17.6104 98.959 17.6104H100.674C101.119 17.6104 101.416 17.7421 101.581 17.9893C101.746 18.2367 101.812 18.5175 101.812 18.7979V49.4434C101.812 50.7133 101.4 51.703 100.559 52.4287C99.7174 53.1544 98.8099 53.5176 97.8203 53.5176C95.7589 53.5175 94.3573 52.6594 93.5986 50.9443L80.4033 22.707C80.2054 22.1627 80.0074 21.8984 79.793 21.8984C79.6281 21.8985 79.529 21.9815 79.4795 22.1299C79.4301 22.2947 79.4141 22.4595 79.4141 22.6572V52.1152C79.414 52.3626 79.3308 52.6269 79.1494 52.9072C78.9679 53.1709 78.638 53.3193 78.127 53.3193H76.4609C75.9831 53.3193 75.6701 53.1872 75.5381 52.9072C75.3897 52.6434 75.3233 52.3791 75.3232 52.1152V20.9424C75.3232 19.8043 75.7359 18.9295 76.5605 18.3027C77.3851 17.6927 78.2921 17.379 79.3145 17.3789ZM183.522 17.1982C184.479 17.1983 185.287 17.4457 185.963 17.9404C186.639 18.4352 187.151 19.1776 187.514 20.2002L197.344 51.9834C197.591 52.874 197.344 53.3193 196.585 53.3193H194.358C194.111 53.3193 193.864 53.2529 193.616 53.1045C193.385 52.956 193.204 52.7086 193.121 52.3623L189.839 41.4268H177.205L173.873 52.3623C173.774 52.7084 173.626 52.956 173.396 53.1045C173.181 53.2529 172.933 53.3193 172.686 53.3193H170.409C169.651 53.3191 169.42 52.8737 169.7 51.9834L179.58 20.1836C180.174 18.1879 181.494 17.1982 183.522 17.1982ZM121.094 20.8926C115.172 20.8926 112.253 24.7686 112.253 32.5371V38.293C112.253 46.111 115.205 50.0371 121.094 50.0371C126.982 50.0369 129.983 46.1273 129.983 38.293V32.5371C129.983 24.7687 127.015 20.8927 121.094 20.8926ZM183.522 21.4697C183.358 21.4697 183.258 21.5527 183.192 21.7012L178.393 37.5674H188.603L183.803 21.7012C183.737 21.5364 183.638 21.4698 183.522 21.4697Z" fill="white"/>
<path fill-rule="evenodd" clip-rule="evenodd" d="M9.80743 49.434L23.6163 13.9668C25.0323 10.33 29.1283 8.52969 32.7651 9.94564C34.6113 10.6644 36.0709 12.1252 36.7883 13.972L50.5618 49.431C51.9749 53.0689 50.1713 57.1636 46.5334 58.5766C44.5828 59.3343 42.3967 59.1885 40.5641 58.1785L30.2032 52.4684L19.7971 58.19C16.3772 60.0703 12.0806 58.8223 10.2002 55.4025C9.19223 53.5692 9.04839 51.3836 9.80743 49.434ZM33.4948 15.2513C33.1361 14.3279 32.4063 13.5975 31.4832 13.2381C29.6648 12.5302 27.6168 13.4303 26.9088 15.2487L13.0999 50.7159C12.7204 51.6907 12.7923 52.7835 13.2963 53.7002C14.2365 55.4101 16.3848 56.0341 18.0947 55.0939L28.5008 49.3723C29.562 48.7888 30.848 48.7895 31.9085 49.374L42.2694 55.0841C43.1858 55.5891 44.2788 55.662 45.2541 55.2831C47.0731 54.5766 47.9749 52.5293 47.2683 50.7103L33.4948 15.2513Z" fill="white"/>
<path fill-rule="evenodd" clip-rule="evenodd" d="M32.4814 20.8782L42.4481 46.4228C42.9407 47.6852 42.3166 49.1079 41.0542 49.6004C40.3776 49.8644 39.6188 49.8151 38.982 49.4657L32.556 45.94C31.0872 45.1341 29.3088 45.1332 27.8392 45.9377L21.3815 49.4725C20.1929 50.1232 18.7018 49.6871 18.0511 48.4984C17.7025 47.8615 17.6538 47.1028 17.9183 46.4266L27.9105 20.8764C28.404 19.6144 29.8272 18.9914 31.0893 19.4849C31.7275 19.7346 32.2323 20.2397 32.4814 20.8782Z" fill="white"/>
<path d="M24.8252 19.8895L23.321 23.5647L22.3648 23.6556C13.5291 24.5575 7.21512 26.9449 7.21512 29.7483C7.21512 33.2278 16.9417 36.0665 29.1442 36.2194L30.1811 36.2259C42.8649 36.2259 53.1471 33.3258 53.1471 29.7483C53.1471 26.846 46.3799 24.3896 37.0532 23.5657L35.5518 19.8904L36.6031 19.9593C48.2472 20.7997 56.6804 24.0339 56.6804 29.7483C56.6804 36.3109 45.558 39.6024 31.2229 39.7537L30.1811 39.7591L29.1394 39.7537C14.8043 39.6024 3.68188 36.3109 3.68188 29.7483C3.68188 23.8609 12.6332 20.6062 24.8252 19.8895Z" fill="white"/>
<path fill-rule="evenodd" clip-rule="evenodd" d="M46.2356 13.4601L45.2818 10.2447C44.8936 9.37364 44.4476 8.69451 43.5208 8.40735L41.6461 8.00764C41.2564 7.90303 40.9817 7.5147 40.9817 7.06824C40.9817 6.62179 41.2564 6.23346 41.6461 6.12885L43.5208 5.72914C44.6307 5.40635 44.9387 4.85481 45.2818 4.00507L46.2356 0.710297C46.486 0.229491 46.759 -0.00721854 47.0547 0.000167625L47.18 0.0119468C47.4278 0.0653944 47.6591 0.298178 47.8737 0.710297L48.8275 4.00507C49.1706 4.85481 49.4786 5.40635 50.5885 5.72914L52.4632 6.12885C52.853 6.23346 53.1276 6.62179 53.1276 7.06824C53.1276 7.5147 52.853 7.90303 52.4632 8.00764L50.5885 8.40735C49.6617 8.69451 49.2157 9.37364 48.8275 10.2447L47.8737 13.4601C47.7133 13.9336 47.4402 14.1703 47.0547 14.1703C46.6691 14.1703 46.3961 13.9336 46.2356 13.4601Z" fill="white"/>
<path fill-rule="evenodd" clip-rule="evenodd" d="M11.9586 17.6102L11.1638 14.8541C10.8403 14.1075 10.4686 13.5254 9.69623 13.2793L8.13401 12.9367C7.80921 12.847 7.58032 12.5141 7.58032 12.1315C7.58032 11.7488 7.80921 11.4159 8.13401 11.3263L9.69623 10.9837C10.6212 10.707 10.8778 10.2342 11.1638 9.50588L11.9586 6.68179C12.1673 6.26967 12.3948 6.06678 12.6411 6.07311L12.7456 6.08321C12.9521 6.12902 13.1448 6.32855 13.3236 6.68179L14.1185 9.50588C14.4045 10.2342 14.6611 10.707 15.586 10.9837L17.1483 11.3263C17.4731 11.4159 17.7019 11.7488 17.7019 12.1315C17.7019 12.5141 17.4731 12.847 17.1483 12.9367L15.586 13.2793C14.8136 13.5254 14.442 14.1075 14.1185 14.8541L13.3236 17.6102C13.19 18.016 12.9625 18.2189 12.6411 18.2189C12.3198 18.2189 12.0923 18.016 11.9586 17.6102Z" fill="white"/>
</svg>
