<svg width="16" height="16" viewBox="0 0 16 16" fill="none" xmlns="http://www.w3.org/2000/svg">
<path fill-rule="evenodd" clip-rule="evenodd" d="M7 11H8V12H7V11ZM7 13H8V16H7V13ZM1 0H2V4H1V0ZM3 10V7H5V6H3V5H6V10H3ZM5 8H4V9H5V8Z" fill="#3D6EC9"/>
<path fill-rule="evenodd" clip-rule="evenodd" d="M5.5 3H14.5C14.7761 3 15 3.22386 15 3.5C15 3.77614 14.7761 4 14.5 4H5.5C5.22386 4 5 3.77614 5 3.5C5 3.22386 5.22386 3 5.5 3Z" fill="#404040"/>
<path fill-rule="evenodd" clip-rule="evenodd" d="M8.5 8H14.5C14.7761 8 15 8.22386 15 8.5C15 8.77614 14.7761 9 14.5 9H8.5C8.22386 9 8 8.77614 8 8.5C8 8.22386 8.22386 8 8.5 8Z" fill="#404040"/>
<path fill-rule="evenodd" clip-rule="evenodd" d="M11.5 13H14.5C14.7761 13 15 13.2239 15 13.5C15 13.7761 14.7761 14 14.5 14H11.5C11.2239 14 11 13.7761 11 13.5C11 13.2239 11.2239 13 11.5 13Z" fill="#404040"/>
</svg>
