<svg width="16" height="16" viewBox="0 0 16 16" fill="none" xmlns="http://www.w3.org/2000/svg">
<path d="M13.2793 11.2684C12.5024 12.0317 12.2542 12.2177 11.437 12.8525C10.565 13.5297 9.3915 14.3937 8.34268 14.817L4.205 10.6794C4.49324 10.5062 4.80768 10.3018 5.03433 10.1166C5.30752 9.89337 5.54952 9.692 5.69862 9.51996C5.76978 9.43785 5.87016 9.30727 5.91131 9.14017C5.9342 9.04706 5.94037 8.93596 5.90786 8.81907C5.88342 8.73139 5.84176 8.65747 5.79392 8.59741L5.74351 8.54148C5.54685 8.34504 5.30039 8.34229 5.15241 8.36608C5.00804 8.3893 4.86629 8.4493 4.74776 8.50695C4.5068 8.62421 4.19163 8.81965 3.8328 9.03935C3.54977 9.21264 3.24584 9.37338 3.00899 9.48337L1.18944 7.66381C2.26851 7.17743 3.47422 6.50332 4.38109 5.85047C5.25966 5.21794 5.77723 4.67247 6.2186 4.20769L13.2793 11.2684Z" fill="#FFF0C7" stroke="#D88C4F"/>
<path opacity="0.3" d="M13.2793 11.2684C12.5024 12.0317 12.2542 12.2177 11.437 12.8525C10.565 13.5297 9.3915 14.3937 8.34268 14.817L4.205 10.6794C4.49324 10.5062 4.80768 10.3018 5.03433 10.1166C5.30752 9.89337 5.54952 9.692 5.69862 9.51996C5.76978 9.43785 5.87016 9.30727 5.91131 9.14017C5.9342 9.04706 5.94037 8.93596 5.90786 8.81907C5.88342 8.73139 5.84176 8.65747 5.79392 8.59741L5.74351 8.54148C5.54685 8.34504 5.30039 8.34229 5.15241 8.36608C5.00804 8.3893 4.86629 8.4493 4.74776 8.50695C4.5068 8.62421 4.19163 8.81965 3.8328 9.03935C3.54977 9.21264 3.24584 9.37338 3.00899 9.48337L1.18944 7.66381C2.26851 7.17743 3.47422 6.50332 4.38109 5.85047C5.25966 5.21794 5.77723 4.67247 6.2186 4.20769L13.2793 11.2684Z" fill="#FFF0C7" stroke="#D88C4F"/>
<mask id="path-3-inside-1_0_40054" fill="white">
<path fill-rule="evenodd" clip-rule="evenodd" d="M15.0453 2.43877C14.4596 1.85298 13.5098 1.85298 12.924 2.43877L11.1562 4.20654L9.74204 2.79232C8.96099 2.01127 7.69466 2.01127 6.91361 2.79232L5.4994 4.20654L13.2776 11.9847L14.6918 10.5705C15.4728 9.78945 15.4728 8.52312 14.6918 7.74207L13.2776 6.32786L15.0453 4.56009C15.6311 3.9743 15.6311 3.02456 15.0453 2.43877Z"/>
</mask>
<path fill-rule="evenodd" clip-rule="evenodd" d="M15.0453 2.43877C14.4596 1.85298 13.5098 1.85298 12.924 2.43877L11.1562 4.20654L9.74204 2.79232C8.96099 2.01127 7.69466 2.01127 6.91361 2.79232L5.4994 4.20654L13.2776 11.9847L14.6918 10.5705C15.4728 9.78945 15.4728 8.52312 14.6918 7.74207L13.2776 6.32786L15.0453 4.56009C15.6311 3.9743 15.6311 3.02456 15.0453 2.43877Z" fill="white"/>
<path d="M11.1562 4.20654L10.4491 4.91364L11.1562 5.62075L11.8634 4.91364L11.1562 4.20654ZM5.4994 4.20654L4.79229 3.49943L4.08518 4.20654L4.79229 4.91364L5.4994 4.20654ZM13.2776 11.9847L12.5705 12.6918L13.2776 13.3989L13.9847 12.6918L13.2776 11.9847ZM13.2776 6.32786L12.5705 5.62075L11.8634 6.32786L12.5705 7.03496L13.2776 6.32786ZM13.6311 3.14588C13.8264 2.95061 14.143 2.95061 14.3382 3.14588L15.7524 1.73166C14.7761 0.755352 13.1932 0.755352 12.2169 1.73166L13.6311 3.14588ZM11.8634 4.91364L13.6311 3.14588L12.2169 1.73166L10.4491 3.49943L11.8634 4.91364ZM9.03493 3.49943L10.4491 4.91364L11.8634 3.49943L10.4491 2.08522L9.03493 3.49943ZM7.62072 3.49943C8.01124 3.10891 8.64441 3.10891 9.03493 3.49943L10.4491 2.08522C9.27757 0.913644 7.37808 0.913644 6.2065 2.08522L7.62072 3.49943ZM6.2065 4.91364L7.62072 3.49943L6.2065 2.08522L4.79229 3.49943L6.2065 4.91364ZM13.9847 11.2776L6.2065 3.49943L4.79229 4.91364L12.5705 12.6918L13.9847 11.2776ZM13.9847 9.86339L12.5705 11.2776L13.9847 12.6918L15.3989 11.2776L13.9847 9.86339ZM13.9847 8.44918C14.3752 8.8397 14.3752 9.47287 13.9847 9.86339L15.3989 11.2776C16.5705 10.106 16.5705 8.20654 15.3989 7.03496L13.9847 8.44918ZM12.5705 7.03496L13.9847 8.44918L15.3989 7.03496L13.9847 5.62075L12.5705 7.03496ZM14.3382 3.85298L12.5705 5.62075L13.9847 7.03496L15.7524 5.2672L14.3382 3.85298ZM14.3382 3.14588C14.5335 3.34114 14.5335 3.65772 14.3382 3.85298L15.7524 5.2672C16.7288 4.29089 16.7288 2.70797 15.7524 1.73166L14.3382 3.14588Z" fill="#404040" mask="url(#path-3-inside-1_0_40054)"/>
</svg>
