<svg width="16" height="16" viewBox="0 0 16 16" fill="none" xmlns="http://www.w3.org/2000/svg">
<path fill-rule="evenodd" clip-rule="evenodd" d="M1 2.5C1 2.22386 1.22386 2 1.5 2H14.5C14.7761 2 15 2.22386 15 2.5C15 2.77614 14.7761 3 14.5 3H1.5C1.22386 3 1 2.77614 1 2.5ZM10 5.5C10 5.22386 10.2239 5 10.5 5H14.5C14.7761 5 15 5.22386 15 5.5C15 5.77614 14.7761 6 14.5 6H10.5C10.2239 6 10 5.77614 10 5.5ZM10.5 8C10.2239 8 10 8.22386 10 8.5C10 8.77614 10.2239 9 10.5 9H14.5C14.7761 9 15 8.77614 15 8.5C15 8.22386 14.7761 8 14.5 8H10.5ZM1 11.5C1 11.2239 1.22386 11 1.5 11H14.5C14.7761 11 15 11.2239 15 11.5C15 11.7761 14.7761 12 14.5 12H1.5C1.22386 12 1 11.7761 1 11.5ZM1.5 14C1.22386 14 1 14.2239 1 14.5C1 14.7761 1.22386 15 1.5 15H14.5C14.7761 15 15 14.7761 15 14.5C15 14.2239 14.7761 14 14.5 14H1.5Z" fill="#404040"/>
<path d="M5 4L7.5 6.5L5 9" stroke="#3D6EC9" stroke-linecap="round" stroke-linejoin="round"/>
<path d="M7 6.5H1" stroke="#3D6EC9" stroke-linecap="round" stroke-linejoin="round"/>
</svg>
