<svg width="16" height="16" viewBox="0 0 16 16" fill="none" xmlns="http://www.w3.org/2000/svg">
<path fill-rule="evenodd" clip-rule="evenodd" d="M7 2.5C7 2.22386 7.22386 2 7.5 2H14.5C14.7761 2 15 2.22386 15 2.5C15 2.77614 14.7761 3 14.5 3H7.5C7.22386 3 7 2.77614 7 2.5ZM7 8.5C7 8.22386 7.22386 8 7.5 8H14.5C14.7761 8 15 8.22386 15 8.5C15 8.77614 14.7761 9 14.5 9H7.5C7.22386 9 7 8.77614 7 8.5ZM7.5 5C7.22386 5 7 5.22386 7 5.5C7 5.77614 7.22386 6 7.5 6H14.5C14.7761 6 15 5.77614 15 5.5C15 5.22386 14.7761 5 14.5 5H7.5ZM7 11.5C7 11.2239 7.22386 11 7.5 11H14.5C14.7761 11 15 11.2239 15 11.5C15 11.7761 14.7761 12 14.5 12H7.5C7.22386 12 7 11.7761 7 11.5ZM7.5 14C7.22386 14 7 14.2239 7 14.5C7 14.7761 7.22386 15 7.5 15H14.5C14.7761 15 15 14.7761 15 14.5C15 14.2239 14.7761 14 14.5 14H7.5Z" fill="#404040"/>
<path d="M6 5L3.5 2.5L1 5" stroke="#3D6EC9" stroke-linecap="round" stroke-linejoin="round"/>
<path d="M3.5 3L3.5 11" stroke="#3D6EC9" stroke-linecap="round" stroke-linejoin="round"/>
<path d="M6 12L3.5 14.5L1 12" stroke="#3D6EC9" stroke-linecap="round" stroke-linejoin="round"/>
<path d="M3.5 14L3.5 10" stroke="#3D6EC9" stroke-linecap="round" stroke-linejoin="round"/>
</svg>
