<svg width="16" height="16" viewBox="0 0 16 16" fill="none" xmlns="http://www.w3.org/2000/svg">
<path fill-rule="evenodd" clip-rule="evenodd" d="M15 2.5C15 2.22386 14.7761 2 14.5 2H1.5C1.22386 2 1 2.22386 1 2.5C1 2.77614 1.22386 3 1.5 3H14.5C14.7761 3 15 2.77614 15 2.5ZM15 5.5C15 5.22386 14.7761 5 14.5 5H6.5C6.22386 5 6 5.22386 6 5.5C6 5.77614 6.22386 6 6.5 6H14.5C14.7761 6 15 5.77614 15 5.5ZM14.5 8C14.7761 8 15 8.22386 15 8.5C15 8.77614 14.7761 9 14.5 9H3.5C3.22386 9 3 8.77614 3 8.5C3 8.22386 3.22386 8 3.5 8H14.5ZM15 11.5C15 11.2239 14.7761 11 14.5 11H9.5C9.22386 11 9 11.2239 9 11.5C9 11.7761 9.22386 12 9.5 12H14.5C14.7761 12 15 11.7761 15 11.5ZM14.5 14C14.7761 14 15 14.2239 15 14.5C15 14.7761 14.7761 15 14.5 15H4.5C4.22386 15 4 14.7761 4 14.5C4 14.2239 4.22386 14 4.5 14H14.5Z" fill="#404040"/>
</svg>
