<svg width="17" height="22" viewBox="0 0 17 22" fill="none" xmlns="http://www.w3.org/2000/svg">
<path fill-rule="evenodd" clip-rule="evenodd" d="M1.78512 11L2.45154 9.13736H5.63678L6.30884 11H7.7998L4.68798 3H3.40598L0.299805 11H1.78512ZM4.04416 4.6978L2.85252 8.01648H5.2358L4.04416 4.6978Z" fill="#404040"/>
<path fill-rule="evenodd" clip-rule="evenodd" d="M10 19V11H12.8816C13.8325 11 14.5563 11.1813 15.0529 11.544C15.5496 11.9066 15.7979 12.4469 15.7979 13.1648C15.7979 13.5311 15.6939 13.8608 15.486 14.1538C15.2782 14.4469 14.974 14.674 14.5736 14.8352C15.0279 14.9524 15.3792 15.1731 15.6275 15.4973C15.8758 15.8214 16 16.2106 16 16.6648C16 17.4158 15.7469 17.9927 15.2406 18.3956C14.7344 18.7985 14.0096 19 13.0664 19H10ZM11.461 15.3901V17.8901H13.0837C13.5419 17.8901 13.8999 17.7821 14.1578 17.5659C14.4158 17.3498 14.5448 17.0495 14.5448 16.6648C14.5448 15.8333 14.0982 15.4084 13.205 15.3901H11.461ZM11.461 12.1209V14.3681H12.8932C13.3475 14.3681 13.7026 14.2701 13.9586 14.0742C14.2146 13.8782 14.3426 13.6007 14.3426 13.2418C14.3426 12.8462 14.2243 12.5604 13.9875 12.3846C13.7507 12.2088 13.3821 12.1209 12.8816 12.1209H11.461Z" fill="#3D6EC9"/>
<path d="M6 12L8.5 14.5L6 17" stroke="#3D6EC9" stroke-linecap="round" stroke-linejoin="round"/>
<path d="M8 14.5C8 14.5 6 14.5 4.57047 14.5C3.14094 14.5 2.5 14 2.5 13C2.5 12 2.5 12 2.5 12" stroke="#3D6EC9" stroke-linecap="round" stroke-linejoin="round"/>
</svg>
