<svg width="16" height="16" viewBox="0 0 16 16" fill="none" xmlns="http://www.w3.org/2000/svg">
<g clip-path="url(#clip0_0_41329)">
<mask id="mask0_0_41329" style="mask-type:luminance" maskUnits="userSpaceOnUse" x="-1" y="0" width="15" height="13">
<path fill-rule="evenodd" clip-rule="evenodd" d="M5.00009 0H-0.0830078V13H13.917V0H8.00009V4.5C8.00009 5.32843 7.32852 6 6.50009 6C5.67167 6 5.00009 5.32843 5.00009 4.5V0Z" fill="white"/>
</mask>
<g mask="url(#mask0_0_41329)">
<path d="M6.74743 0.716709L11.2428 5.81285C11.3214 5.90203 11.316 6.03694 11.2304 6.11945L6.52507 10.6549C6.43551 10.7412 6.29272 10.7371 6.20812 10.6459L1.56152 5.63745C1.47887 5.54836 1.48327 5.4092 1.57118 5.32533L6.42771 0.702208C6.51901 0.615657 6.66416 0.622318 6.74743 0.716709Z" fill="white" stroke="#404040"/>
</g>
<path d="M6 0H7V4C7 4.27614 6.77614 4.5 6.5 4.5C6.22386 4.5 6 4.27614 6 4V0Z" fill="#404040"/>
<path d="M8.7832 2.77747C8.7832 2.77747 9.23326 3.56043 9.50135 4.00001C9.76945 4.4396 10.4548 4.69304 10.4548 5.21194C10.4548 5.44645 10.9982 6.72426 10.9982 7.49113C10.9982 8.42109 10.9982 9.40212 10.9982 9.60868C10.9982 10.5383 11.3632 10.9833 12.1084 10.9833C12.8536 10.9833 13.5615 10.1414 13.5615 8.68561C13.5615 7.22984 13.3397 5.92131 12.1084 4.60978C10.8771 3.29825 8.7832 2.77747 8.7832 2.77747Z" fill="#404040"/>
</g>
<defs>
<clipPath id="clip0_0_41329">
<rect width="16" height="16" fill="white"/>
</clipPath>
</defs>
</svg>
