<svg width="16" height="16" viewBox="0 0 16 16" fill="none" xmlns="http://www.w3.org/2000/svg">
<g id="small/ribbon_ico_alignment">
<path id="Combined Shape" fill-rule="evenodd" clip-rule="evenodd" d="M1 1H0V15H1V1ZM16 1H15V15H16V1ZM2 8.5C2 8.22386 2.22386 8 2.5 8H13.5C13.7761 8 14 8.22386 14 8.5C14 8.77614 13.7761 9 13.5 9H2.5C2.22386 9 2 8.77614 2 8.5ZM2.5 10C2.22386 10 2 10.2239 2 10.5C2 10.7761 2.22386 11 2.5 11H13.5C13.7761 11 14 10.7761 14 10.5C14 10.2239 13.7761 10 13.5 10H2.5ZM2 12.5C2 12.2239 2.22386 12 2.5 12H13.5C13.7761 12 14 12.2239 14 12.5C14 12.7761 13.7761 13 13.5 13H2.5C2.22386 13 2 12.7761 2 12.5ZM2.5 14C2.22386 14 2 14.2239 2 14.5C2 14.7761 2.22386 15 2.5 15H13.5C13.7761 15 14 14.7761 14 14.5C14 14.2239 13.7761 14 13.5 14H2.5Z" fill="#404040"/>
<g id="element/arrow 2">
<path id="Path 6" d="M5 1L2.5 3.5L5 6" stroke="#3D6EC9" stroke-linecap="round" stroke-linejoin="round"/>
<path id="Path 7" d="M3 3.5H7" stroke="#3D6EC9" stroke-linecap="round" stroke-linejoin="round"/>
</g>
<g id="element/arrow 2 copy">
<path id="Path 6_2" d="M11 1L13.5 3.5L11 6" stroke="#3D6EC9" stroke-linecap="round" stroke-linejoin="round"/>
<path id="Path 7_2" d="M13 3.5H6" stroke="#3D6EC9" stroke-linecap="round" stroke-linejoin="round"/>
</g>
</g>
</svg>
