<svg width="16" height="16" viewBox="0 0 16 16" fill="none" xmlns="http://www.w3.org/2000/svg">
<path fill-rule="evenodd" clip-rule="evenodd" d="M15 2.5C15 2.22386 14.7761 2 14.5 2H1.5C1.22386 2 1 2.22386 1 2.5C1 2.77614 1.22386 3 1.5 3H14.5C14.7761 3 15 2.77614 15 2.5ZM15 5.5C15 5.22386 14.7761 5 14.5 5H1.5C1.22386 5 1 5.22386 1 5.5C1 5.77614 1.22386 6 1.5 6H14.5C14.7761 6 15 5.77614 15 5.5ZM14.5 8C14.7761 8 15 8.22386 15 8.5C15 8.77614 14.7761 9 14.5 9H1.5C1.22386 9 1 8.77614 1 8.5C1 8.22386 1.22386 8 1.5 8H14.5ZM15 11.5C15 11.2239 14.7761 11 14.5 11H1.5C1.22386 11 1 11.2239 1 11.5C1 11.7761 1.22386 12 1.5 12H14.5C14.7761 12 15 11.7761 15 11.5ZM14.5 14C14.7761 14 15 14.2239 15 14.5C15 14.7761 14.7761 15 14.5 15H1.5C1.22386 15 1 14.7761 1 14.5C1 14.2239 1.22386 14 1.5 14H14.5Z" fill="#404040"/>
</svg>
