<svg width="16" height="19" viewBox="0 0 16 19" fill="none" xmlns="http://www.w3.org/2000/svg">
<path fill-rule="evenodd" clip-rule="evenodd" d="M14 3H13V4H12V5H13V8H12V9H13H14H15V8H14V4V3Z" fill="#DB4C4C"/>
<path opacity="0.5" d="M4.89844 8.4375L8.10156 3.625H9.25L5.48438 9.23438L9.36719 15H8.21094L4.89844 10.0312L1.57031 15H0.429688L4.32031 9.23438L0.546875 3.625H1.69531L4.89844 8.4375Z" fill="#404040"/>
<path d="M4.89844 8.4375L8.10156 3.625H9.25L5.48438 9.23438L9.36719 15H8.21094L4.89844 10.0312L1.57031 15H0.429688L4.32031 9.23438L0.546875 3.625H1.69531L4.89844 8.4375Z" fill="#404040"/>
</svg>
