<svg width="16" height="16" viewBox="0 0 16 16" fill="none" xmlns="http://www.w3.org/2000/svg">
<path fill-rule="evenodd" clip-rule="evenodd" d="M6.5 1C6.22386 1 6 1.22386 6 1.5V3.5V7.5C6 7.77614 6.22386 8 6.5 8H9.5C9.77614 8 10 7.77614 10 7.5V3.5C10 3.22386 9.77614 3 9.5 3H7V1.5C7 1.22386 6.77614 1 6.5 1ZM7 7H9V4H7V7ZM1 3.5C1 3.22386 1.22386 3 1.5 3H4.5C4.77614 3 5 3.22386 5 3.5V5.5V7.5C5 7.77614 4.77614 8 4.5 8H1.5C1.22386 8 1 7.77614 1 7.5V5.5C1 5.22386 1.22386 5 1.5 5H4V4H1.5C1.22386 4 1 3.77614 1 3.5ZM2 7H4V6H2V7ZM11.5 3C11.2239 3 11 3.22386 11 3.5V7.5C11 7.77614 11.2239 8 11.5 8H14.5C14.7761 8 15 7.77614 15 7.5C15 7.22386 14.7761 7 14.5 7H12V4H14.5C14.7761 4 15 3.77614 15 3.5C15 3.22386 14.7761 3 14.5 3H11.5Z" fill="#404040"/>
<path d="M4 10L1.5 12.5L4 15" stroke="#3D6EC9" stroke-linecap="round" stroke-linejoin="round"/>
<path d="M2 12.5H6" stroke="#3D6EC9" stroke-linecap="round" stroke-linejoin="round"/>
<path d="M12 10L14.5 12.5L12 15" stroke="#3D6EC9" stroke-linecap="round" stroke-linejoin="round"/>
<path d="M14 12.5H6" stroke="#3D6EC9" stroke-linecap="round" stroke-linejoin="round"/>
</svg>
