<svg width="16" height="16" viewBox="0 0 16 16" fill="none" xmlns="http://www.w3.org/2000/svg">
<path fill-rule="evenodd" clip-rule="evenodd" d="M4 14V2H8.11264C9.46979 2 10.5027 2.27198 11.2115 2.81593C11.9203 3.35989 12.2747 4.17032 12.2747 5.24725C12.2747 5.79671 12.1264 6.29121 11.8297 6.73077C11.533 7.17033 11.0989 7.51099 10.5275 7.75275C11.1758 7.92857 11.6772 8.25961 12.0316 8.74588C12.386 9.23215 12.5632 9.81593 12.5632 10.4973C12.5632 11.6236 12.2019 12.489 11.4794 13.0934C10.7569 13.6978 9.72253 14 8.37637 14H4ZM6.08516 8.58517V12.3352H8.4011C9.05495 12.3352 9.56593 12.1731 9.93407 11.8489C10.3022 11.5247 10.4863 11.0742 10.4863 10.4973C10.4863 9.24999 9.84891 8.61264 8.57418 8.58517H6.08516ZM8.12912 7.0522H6.08516V3.68132H8.11264C8.82693 3.68132 9.35302 3.81319 9.69093 4.07692C10.0288 4.34066 10.1978 4.76923 10.1978 5.36264C10.1978 5.9011 10.0151 6.31731 9.64972 6.61126C9.28434 6.90522 8.77748 7.0522 8.12912 7.0522Z" fill="#404040"/>
</svg>
