<svg width="16" height="16" viewBox="0 0 16 16" fill="none" xmlns="http://www.w3.org/2000/svg">
<path fill-rule="evenodd" clip-rule="evenodd" d="M14 8H13V9H12V10H13V13H12V14H13H14H15V13H14V9V8Z" fill="#DB4C4C"/>
<path opacity="0.5" d="M4.89844 7.4375L8.10156 2.625H9.25L5.48438 8.23438L9.36719 14H8.21094L4.89844 9.03125L1.57031 14H0.429688L4.32031 8.23438L0.546875 2.625H1.69531L4.89844 7.4375Z" fill="#404040"/>
<path d="M4.89844 7.4375L8.10156 2.625H9.25L5.48438 8.23438L9.36719 14H8.21094L4.89844 9.03125L1.57031 14H0.429688L4.32031 8.23438L0.546875 2.625H1.69531L4.89844 7.4375Z" fill="#404040"/>
</svg>
