<svg width="17" height="16" viewBox="0 0 17 16" fill="none" xmlns="http://www.w3.org/2000/svg">
<g id="small/ribbon_ico_clearformat">
<path id="Combined Shape" fill-rule="evenodd" clip-rule="evenodd" d="M0 0H14.9744L9 5.825V3.5C9 3.22386 8.77614 3 8.5 3H6V1.5C6 1.22386 5.77614 1 5.5 1C5.22386 1 5 1.22386 5 1.5V3.5V7.5C5 7.77614 5.22386 8 5.5 8H6.76923L4.71795 10H0V0ZM8 6.8L7.79487 7H6V4H8V6.8ZM1 3.5C1 3.22386 1.22386 3 1.5 3H3.5C3.77614 3 4 3.22386 4 3.5V5.5V7.5C4 7.77614 3.77614 8 3.5 8H1.5C1.22386 8 1 7.77614 1 7.5V5.5C1 5.22386 1.22386 5 1.5 5H3V4H1.5C1.22386 4 1 3.77614 1 3.5ZM3 6V7H2V6H3Z" fill="#404040"/>
<g id="Group">
<path id="Rectangle" fill-rule="evenodd" clip-rule="evenodd" d="M7.50039 9.99986L10.9266 13.3673L8.50039 15.9999H6.80039L4.3647 13.8251C4.16692 13.6485 4.15825 13.342 4.34574 13.1545L7.50039 9.99986Z" fill="#FFE0E0"/>
<path id="Rectangle_2" d="M13.2436 5.24852L15.561 7.64467C15.7498 7.83995 15.7477 8.15023 15.5569 8.34349L8.48859 15.4988L6.20361 15.4995L4.57257 13.9002C4.37391 13.7055 4.37226 13.3863 4.56912 13.1897L12.531 5.24162C12.7286 5.04433 13.0495 5.04775 13.2436 5.24852Z" stroke="#DB4C4C" stroke-linecap="round" stroke-linejoin="round"/>
<path id="Path" d="M10.7225 13.4853L7.48702 10.2586" stroke="#DB4C4C"/>
</g>
</g>
</svg>
