<svg width="16" height="16" viewBox="0 0 16 16" fill="none" xmlns="http://www.w3.org/2000/svg">
<g id="small/ribbon_ico_text_accentcolour new">
<path id="Combined Shape" fill-rule="evenodd" clip-rule="evenodd" d="M9.85799 9.59426L10 10H9.6142L9.85799 9.59426ZM8.1403 4.68657L6.5 0H5.5L2 10H3L4.05 7H6.75025L7.35111 6H4.4L6 1.42857L7.50839 5.73825L8.1403 4.68657Z" fill="#404040"/>
<g id="Group">
<path id="Rectangle" d="M12.6633 2.15494L13.4651 2.6314C13.6954 2.76821 13.7777 3.06208 13.6509 3.29795L9.3496 11.287L7.29362 9.96916L11.9812 2.3227C12.1241 2.08961 12.4282 2.01528 12.6633 2.15494Z" fill="#D7EDAE" stroke="#4F9D70"/>
<path id="Rectangle_2" d="M7.52605 8.58958L10.4858 10.2643L9.53427 12L5.50003 12L7.52605 8.58958Z" fill="#FF6D33"/>
</g>
</g>
</svg>
