<svg width="16" height="16" viewBox="0 0 16 16" fill="none" xmlns="http://www.w3.org/2000/svg">
<path fill-rule="evenodd" clip-rule="evenodd" d="M4.2732 0.000684738C4.2732 0.000684738 3.45213 0.98652 3.91005 1.81753C4.26591 2.45739 6.23873 6.52199 7.11746 8.33541L5.69732 10.9031C5.21952 10.6243 4.66684 10.5777 4.13404 10.7277C3.46074 10.9175 2.82258 11.4197 2.41237 12.1609C1.67347 13.4934 1.95445 15.0951 3.03994 15.7343C3.51906 16.0193 4.07572 16.0659 4.6125 15.9165C5.28579 15.7268 5.92462 15.2246 6.33681 14.4833C6.51574 14.1559 6.63436 13.8147 6.69533 13.4756H6.69599L6.6965 13.4728C6.6968 13.471 6.69709 13.4692 6.69798 13.4674C6.69937 13.458 6.701 13.4482 6.70268 13.4381L6.70268 13.438C6.7058 13.4192 6.70908 13.3995 6.71123 13.3804C7.0154 11.2662 7.59261 10.1851 7.9995 9.66036C8.40771 10.1851 8.98359 11.2662 9.28842 13.3804C9.29082 13.4016 9.29424 13.4236 9.29746 13.4442L9.30102 13.4674C9.30168 13.4687 9.30201 13.4701 9.30234 13.4715C9.30267 13.4728 9.303 13.4742 9.30367 13.4756C9.36463 13.814 9.48325 14.1552 9.66284 14.4833C10.075 15.2246 10.7132 15.7261 11.3872 15.9165C11.9226 16.0666 12.4793 16.0193 12.961 15.7343C14.0445 15.0944 14.3268 13.4934 13.5879 12.1602C13.1764 11.419 12.5382 10.9175 11.8636 10.727C11.3315 10.577 10.7801 10.6243 10.3017 10.9024L8.8822 8.33472C9.76026 6.52199 11.7351 2.45671 12.0889 1.81684C12.5469 0.985834 11.7265 0 11.7265 0L7.9995 6.73985L4.2732 0.000684738ZM5.1062 11.9972C5.59791 12.289 5.6781 13.1413 5.28115 13.8585C5.04921 14.2799 4.67943 14.5971 4.29507 14.7053C4.12343 14.7526 3.87227 14.7834 3.64232 14.645C3.15127 14.3545 3.07108 13.5023 3.46737 12.785C3.70263 12.3568 4.06246 12.0492 4.45345 11.9396C4.6231 11.8903 4.87558 11.8622 5.1062 11.9972ZM12.5316 12.785C12.2957 12.3568 11.9365 12.0492 11.5449 11.9396C11.3752 11.8903 11.1247 11.8622 10.8928 11.9972C10.4004 12.289 10.3202 13.1413 10.7165 13.8585C10.9498 14.2799 11.3196 14.5971 11.7052 14.7053C11.8749 14.7519 12.1254 14.7827 12.356 14.645C12.8484 14.3545 12.9292 13.5023 12.5316 12.785Z" fill="#404040"/>
</svg>
