<svg width="16" height="16" viewBox="0 0 16 16" fill="none" xmlns="http://www.w3.org/2000/svg">
<path fill-rule="evenodd" clip-rule="evenodd" d="M7 2.5C7 2.22386 7.22386 2 7.5 2H15.5C15.7761 2 16 2.22386 16 2.5C16 2.77614 15.7761 3 15.5 3H7.5C7.22386 3 7 2.77614 7 2.5ZM7 4.5C7 4.22386 7.22386 4 7.5 4H15.5C15.7761 4 16 4.22386 16 4.5C16 4.77614 15.7761 5 15.5 5H7.5C7.22386 5 7 4.77614 7 4.5ZM7.5 6C7.22386 6 7 6.22386 7 6.5C7 6.77614 7.22386 7 7.5 7H15.5C15.7761 7 16 6.77614 16 6.5C16 6.22386 15.7761 6 15.5 6H7.5Z" fill="#404040"/>
<path fill-rule="evenodd" clip-rule="evenodd" d="M7 10.5C7 10.2239 7.22386 10 7.5 10H15.5C15.7761 10 16 10.2239 16 10.5C16 10.7761 15.7761 11 15.5 11H7.5C7.22386 11 7 10.7761 7 10.5ZM7 12.5C7 12.2239 7.22386 12 7.5 12H15.5C15.7761 12 16 12.2239 16 12.5C16 12.7761 15.7761 13 15.5 13H7.5C7.22386 13 7 12.7761 7 12.5ZM7.5 14C7.22386 14 7 14.2239 7 14.5C7 14.7761 7.22386 15 7.5 15H15.5C15.7761 15 16 14.7761 16 14.5C16 14.2239 15.7761 14 15.5 14H7.5Z" fill="#404040"/>
<path d="M6 5L3.5 2.5L1 5" stroke="#3D6EC9" stroke-linecap="round" stroke-linejoin="round"/>
<path d="M3.5 3L3.5 8" stroke="#3D6EC9" stroke-linecap="round" stroke-linejoin="round"/>
<path d="M6 12L3.5 14.5L1 12" stroke="#3D6EC9" stroke-linecap="round" stroke-linejoin="round"/>
<path d="M3.5 14L3.5 8" stroke="#3D6EC9" stroke-linecap="round" stroke-linejoin="round"/>
</svg>
