<svg width="16" height="16" viewBox="0 0 16 16" fill="none" xmlns="http://www.w3.org/2000/svg">
<path fill-rule="evenodd" clip-rule="evenodd" d="M2.5 0C2.22386 0 2 0.223858 2 0.5V3.5C2 3.77614 2.22386 4 2.5 4C2.77614 4 3 3.77614 3 3.5V0.5C3 0.223858 2.77614 0 2.5 0ZM1.5 5C1.22386 5 1 5.22386 1 5.5C1 5.77614 1.22386 6 1.5 6H3V7H1.5C1.22386 7 1 7.22386 1 7.5V9.5C1 9.77614 1.22386 10 1.5 10H3.5C3.77614 10 4 9.77614 4 9.5C4 9.22386 3.77614 9 3.5 9H2V8H3.5C3.77614 8 4 7.77614 4 7.5V5.5C4 5.22386 3.77614 5 3.5 5H1.5ZM1.5 11C1.22386 11 1 11.2239 1 11.5C1 11.7761 1.22386 12 1.5 12H3V13H1.5C1.22386 13 1 13.2239 1 13.5C1 13.7761 1.22386 14 1.5 14H3V15H1.5C1.22386 15 1 15.2239 1 15.5C1 15.7761 1.22386 16 1.5 16H3.5C3.77614 16 4 15.7761 4 15.5V13.5V11.5C4 11.2239 3.77614 11 3.5 11H1.5Z" fill="#3D6EC9"/>
<rect x="6" y="3" width="9" height="1" rx="0.5" fill="#404040"/>
<rect x="6" y="8" width="9" height="1" rx="0.5" fill="#404040"/>
<rect x="6" y="13" width="9" height="1" rx="0.5" fill="#404040"/>
</svg>
