<svg width="16" height="22" viewBox="0 0 16 22" fill="none" xmlns="http://www.w3.org/2000/svg">
<path fill-rule="evenodd" clip-rule="evenodd" d="M1.77661 11.1758L2.43921 9.27222H5.6062L6.27441 11.1758H7.75684L4.66284 3H3.38818L0.299805 11.1758H1.77661ZM4.02271 4.73511L2.83789 8.12671H5.20752L4.02271 4.73511Z" fill="#404040"/>
<path fill-rule="evenodd" clip-rule="evenodd" d="M13.6533 18.0082C13.7002 18.2816 13.7549 18.4789 13.8174 18.6H15.2705V18.5004C15.1104 18.1605 15.0303 17.7054 15.0303 17.1351V14.2758C15.0186 13.6 14.792 13.0756 14.3506 12.7025C13.9092 12.3295 13.3174 12.1429 12.5752 12.1429C12.0869 12.1429 11.6445 12.2289 11.248 12.4008C10.8516 12.5726 10.5381 12.8099 10.3076 13.1127C10.0771 13.4154 9.96191 13.7406 9.96191 14.0883H11.3857C11.3857 13.8383 11.4893 13.6322 11.6963 13.4701C11.9033 13.308 12.1689 13.2269 12.4932 13.2269C12.8682 13.2269 13.1475 13.3256 13.3311 13.5228C13.5146 13.7201 13.6064 13.9828 13.6064 14.3109V14.7269H12.7334C11.7998 14.7269 11.082 14.9076 10.5801 15.2689C10.0781 15.6303 9.82715 16.1488 9.82715 16.8246C9.82715 17.3597 10.0283 17.809 10.4307 18.1722C10.833 18.5355 11.3525 18.7172 11.9893 18.7172C12.6455 18.7172 13.2002 18.4808 13.6533 18.0082ZM11.5234 17.3314C11.7051 17.4935 11.9482 17.5746 12.2529 17.5746C12.5342 17.5746 12.7988 17.5062 13.0469 17.3695C13.2949 17.2328 13.4814 17.0492 13.6064 16.8187V15.6234H12.8389C12.3115 15.6234 11.915 15.7152 11.6494 15.8988C11.3838 16.0824 11.251 16.3422 11.251 16.6781C11.251 16.9515 11.3418 17.1693 11.5234 17.3314Z" fill="#3D6EC9"/>
<path d="M5 13L7.5 15.5L5 18" stroke="#3D6EC9" stroke-linecap="round" stroke-linejoin="round"/>
<path d="M7 15.5C7 15.5 5 15.5 3.57047 15.5C2.14094 15.5 1.5 15 1.5 14C1.5 13 1.5 13 1.5 13" stroke="#3D6EC9" stroke-linecap="round" stroke-linejoin="round"/>
</svg>
