<svg width="32" height="32" viewBox="0 0 32 32" fill="none" xmlns="http://www.w3.org/2000/svg">
<mask id="mask0_0_16518" style="mask-type:luminance" maskUnits="userSpaceOnUse" x="18" y="5" width="13" height="22">
<rect x="18" y="5" width="13" height="22" fill="white"/>
</mask>
<g mask="url(#mask0_0_16518)">
<rect x="5" y="5" width="26" height="22" rx="1" fill="#CAE0FF"/>
<mask id="mask1_0_16518" style="mask-type:luminance" maskUnits="userSpaceOnUse" x="5" y="5" width="26" height="22">
<rect x="5" y="5" width="26" height="22" rx="1" fill="white"/>
</mask>
<g mask="url(#mask1_0_16518)">
<path d="M27.5 7.75C30.5376 7.75 33 10.0076 33 12.792C32.9999 14.3573 32.2211 15.7551 31 16.6797V27H5V20.5049C2.16244 20.0684 0 17.8082 0 15.083C0.000192003 12.0456 2.68641 9.58301 6 9.58301C8.27765 9.58301 10.2582 10.7471 11.2744 12.4609C11.8054 11.3087 13.0497 10.5 14.5 10.5C15.3964 10.5 16.2138 10.8093 16.833 11.3174C17.6488 10.2679 18.9871 9.58301 20.5 9.58301C21.3421 9.58301 22.1297 9.79606 22.8037 10.165C23.77 8.71642 25.5121 7.75 27.5 7.75Z" fill="white"/>
<mask id="path-5-inside-1_0_16518" fill="white">
<path d="M13.29 13.9204C13.6922 13.5491 14.318 13.5699 14.6943 13.9673L19.9531 19.5268L23.415 16.9009C23.7681 16.6331 24.2555 16.6295 24.6123 16.8921L30.8711 21.5005H31V27.0005H5V21.5005H5.08008L13.29 13.9204Z"/>
</mask>
<path d="M13.29 13.9204C13.6922 13.5491 14.318 13.5699 14.6943 13.9673L19.9531 19.5268L23.415 16.9009C23.7681 16.6331 24.2555 16.6295 24.6123 16.8921L30.8711 21.5005H31V27.0005H5V21.5005H5.08008L13.29 13.9204Z" fill="#A3DEC6"/>
<path d="M13.29 13.9204L13.9684 14.6551L13.9684 14.6551L13.29 13.9204ZM14.6943 13.9673L15.4208 13.2801L15.4204 13.2796L14.6943 13.9673ZM19.9531 19.5268L19.2266 20.214L19.8429 20.8656L20.5575 20.3236L19.9531 19.5268ZM23.415 16.9009L22.8108 16.1041L22.8107 16.1041L23.415 16.9009ZM24.6123 16.8921L25.2052 16.0868L25.205 16.0866L24.6123 16.8921ZM30.8711 21.5005L30.2782 22.3057L30.5427 22.5005H30.8711V21.5005ZM31 21.5005H32V20.5005H31V21.5005ZM31 27.0005V28.0005H32V27.0005H31ZM5 27.0005H4V28.0005H5V27.0005ZM5 21.5005V20.5005H4V21.5005H5ZM5.08008 21.5005V22.5005H5.47112L5.75844 22.2352L5.08008 21.5005ZM13.29 13.9204L13.9684 14.6551L13.9683 14.6549L14.6943 13.9673L15.4204 13.2796C14.6675 12.4847 13.4158 12.4432 12.6117 13.1857L13.29 13.9204ZM14.6943 13.9673L13.9679 14.6544L19.2266 20.214L19.9531 19.5268L20.6796 18.8397L15.4208 13.2801L14.6943 13.9673ZM19.9531 19.5268L20.5575 20.3236L24.0194 17.6976L23.415 16.9009L22.8107 16.1041L19.3488 18.7301L19.9531 19.5268ZM23.415 16.9009L24.0193 17.6976L24.0196 17.6975L24.6123 16.8921L25.205 16.0866C24.4911 15.5613 23.5166 15.5688 22.8108 16.1041L23.415 16.9009ZM24.6123 16.8921L24.0194 17.6973L30.2782 22.3057L30.8711 21.5005L31.464 20.6952L25.2052 16.0868L24.6123 16.8921ZM30.8711 21.5005V22.5005H31V21.5005V20.5005H30.8711V21.5005ZM31 21.5005H30V27.0005H31H32V21.5005H31ZM31 27.0005V26.0005H5V27.0005V28.0005H31V27.0005ZM5 27.0005H6V21.5005H5H4V27.0005H5ZM5 21.5005V22.5005H5.08008V21.5005V20.5005H5V21.5005ZM5.08008 21.5005L5.75844 22.2352L13.9684 14.6551L13.29 13.9204L12.6117 13.1857L4.40172 20.7657L5.08008 21.5005Z" fill="#00A661" mask="url(#path-5-inside-1_0_16518)"/>
<rect x="5.5" y="5.5" width="25" height="21" rx="0.5" stroke="#404040"/>
</g>
</g>
<rect x="2" y="5" width="1" height="1" fill="#BBBBBB"/>
<rect x="2" y="26" width="1" height="1" fill="#BBBBBB"/>
<rect x="3" y="5" width="12" height="1" fill="#404040"/>
<rect x="3" y="26" width="12" height="1" fill="#404040"/>
<rect x="2" y="6" width="1" height="20" fill="#404040"/>
<rect x="3" y="9" width="12" height="14" fill="white"/>
<path fill-rule="evenodd" clip-rule="evenodd" d="M15 6H3V10H6V11H7V12H8V13H10V12H14V11H15V10V6Z" fill="#CAE0FF"/>
<rect x="5" y="9" width="3" height="3" fill="#E4EFFF"/>
<rect x="11" y="10" width="2" height="2" fill="#E4EFFF"/>
<path fill-rule="evenodd" clip-rule="evenodd" d="M12 14H10V15H9V16H8V17H7V18H6V19H5V20H4V22H3V26H15V22V20V19V18H14V17V16H13V15H12V14Z" fill="#A3DEC6"/>
<rect x="10" y="14" width="1" height="2" fill="#DCFFF1"/>
<rect x="14" y="18" width="1" height="2" fill="#DCFFF1"/>
<rect x="8" y="16" width="2" height="2" fill="#DCFFF1"/>
<rect x="4" y="20" width="2" height="2" fill="#DCFFF1"/>
<rect x="13" y="14" width="1" height="2" fill="#00A661"/>
<rect x="12" y="14" width="1" height="2" fill="#00A661"/>
<rect x="9" y="14" width="1" height="2" fill="#00A661"/>
<rect x="8" y="14" width="1" height="2" fill="#00A661"/>
<rect x="7" y="16" width="1" height="2" fill="#00A661"/>
<rect x="6" y="16" width="1" height="2" fill="#00A661"/>
<rect x="5" y="18" width="1" height="2" fill="#00A661"/>
<rect x="4" y="18" width="1" height="2" fill="#00A661"/>
<rect x="3" y="20" width="1" height="2" fill="#00A661"/>
<rect x="10" y="12" width="2" height="2" fill="#00A661"/>
<rect x="14" y="16" width="1" height="2" fill="#00A661"/>
<path fill-rule="evenodd" clip-rule="evenodd" d="M18.5 1L16.5 4L14.5 1L18.5 1Z" fill="#404040"/>
<path fill-rule="evenodd" clip-rule="evenodd" d="M18.5 31L16.5 28L14.5 31H18.5Z" fill="#404040"/>
<path d="M16.5 5.5V26.5" stroke="#404040" stroke-linecap="square"/>
</svg>
