<svg width="32" height="32" viewBox="0 0 32 32" fill="none" xmlns="http://www.w3.org/2000/svg">
<path fill-rule="evenodd" clip-rule="evenodd" d="M17 11C17.5523 11 18.0523 11.2239 18.4142 11.5858C18.7761 11.9477 19 12.4477 19 13V26H26C26.5523 26 27 25.5523 27 25V6C27 5.44772 26.5523 5 26 5H10C9.44772 5 9 5.44772 9 6V11H17Z" fill="#FFF0C7"/>
<mask id="mask0_0_25831" style="mask-type:luminance" maskUnits="userSpaceOnUse" x="9" y="5" width="18" height="21">
<path fill-rule="evenodd" clip-rule="evenodd" d="M17 11C17.5523 11 18.0523 11.2239 18.4142 11.5858C18.7761 11.9477 19 12.4477 19 13V26H26C26.5523 26 27 25.5523 27 25V6C27 5.44772 26.5523 5 26 5H10C9.44772 5 9 5.44772 9 6V11H17Z" fill="white"/>
</mask>
<g mask="url(#mask0_0_25831)">
<path d="M12 23.5H24C24.2761 23.5 24.5 23.2761 24.5 23V6.5H11.5V23C11.5 23.2761 11.7239 23.5 12 23.5Z" fill="white" stroke="#B4B4B4"/>
<path fill-rule="evenodd" clip-rule="evenodd" d="M10 11H9V6C9 5.44772 9.44772 5 10 5H26C26.5523 5 27 5.44772 27 6V25C27 25.5523 26.5523 26 26 26H19V25H26V6H10V11Z" fill="#D88C4F"/>
</g>
<mask id="path-5-inside-1_0_25831" fill="white">
<path fill-rule="evenodd" clip-rule="evenodd" d="M15.1707 4C15.5825 2.83481 16.6938 2 18 2C19.3062 2 20.4175 2.83481 20.8293 4H24V8H18H12V4H15.1707Z"/>
</mask>
<path fill-rule="evenodd" clip-rule="evenodd" d="M15.1707 4C15.5825 2.83481 16.6938 2 18 2C19.3062 2 20.4175 2.83481 20.8293 4H24V8H18H12V4H15.1707Z" fill="#FFF0C7"/>
<path d="M15.1707 4V5H15.8779L16.1135 4.33325L15.1707 4ZM20.8293 4L19.8865 4.33325L20.1221 5H20.8293V4ZM24 4H25V3H24V4ZM24 8V9H25V8H24ZM12 8H11V9H12V8ZM12 4V3H11V4H12ZM16.1135 4.33325C16.3886 3.5551 17.1307 3 18 3V1C16.2568 1 14.7765 2.11451 14.2279 3.66675L16.1135 4.33325ZM18 3C18.8693 3 19.6114 3.5551 19.8865 4.33325L21.7721 3.66675C21.2235 2.11451 19.7432 1 18 1V3ZM20.8293 5H24V3H20.8293V5ZM23 4V8H25V4H23ZM24 7H18V9H24V7ZM18 7H12V9H18V7ZM13 8V4H11V8H13ZM12 5H15.1707V3H12V5Z" fill="#D88C4F" mask="url(#path-5-inside-1_0_25831)"/>
<path d="M4 28C4 28.5523 4.44772 29 5 29H17C17.5523 29 18 28.5523 18 28V13C18 12.4477 17.5523 12 17 12H5C4.44772 12 4 12.4477 4 13V28Z" fill="white"/>
<path d="M5 28.5H17C17.2761 28.5 17.5 28.2761 17.5 28V13C17.5 12.7239 17.2761 12.5 17 12.5H5C4.72386 12.5 4.5 12.7239 4.5 13V28C4.5 28.2761 4.72386 28.5 5 28.5Z" stroke="#404040"/>
<mask id="mask1_0_25831" style="mask-type:luminance" maskUnits="userSpaceOnUse" x="4" y="12" width="14" height="17">
<path d="M5 28.5H17C17.2761 28.5 17.5 28.2761 17.5 28V13C17.5 12.7239 17.2761 12.5 17 12.5H5C4.72386 12.5 4.5 12.7239 4.5 13V28C4.5 28.2761 4.72386 28.5 5 28.5Z" fill="white" stroke="white"/>
</mask>
<g mask="url(#mask1_0_25831)">
</g>
<path fill-rule="evenodd" clip-rule="evenodd" d="M7 17.4286C7 17.1919 7.19188 17 7.42857 17H14.5714C14.8081 17 15 17.1919 15 17.4286C15 17.6653 14.8081 17.8571 14.5714 17.8571H7.42857C7.19188 17.8571 7 17.6653 7 17.4286ZM7 20.4286C7 20.1919 7.19188 20 7.42857 20H14.5714C14.8081 20 15 20.1919 15 20.4286C15 20.6653 14.8081 20.8571 14.5714 20.8571H7.42857C7.19188 20.8571 7 20.6653 7 20.4286ZM7.42857 23.1429C7.19188 23.1429 7 23.3347 7 23.5714C7 23.8081 7.19188 24 7.42857 24H14.5714C14.8081 24 15 23.8081 15 23.5714C15 23.3347 14.8081 23.1429 14.5714 23.1429H7.42857Z" fill="#B4B4B4"/>
</svg>
