<svg width="32" height="32" viewBox="0 0 32 32" fill="none" xmlns="http://www.w3.org/2000/svg">
<g id="big/ribbon_big_ico_margin">
<g id="-g-&#236;&#151;&#172;&#235;&#176;&#177;">
<path id="Rectangle" d="M6 3.5H26C26.2761 3.5 26.5 3.72386 26.5 4V28C26.5 28.2761 26.2761 28.5 26 28.5H6C5.72386 28.5 5.5 28.2761 5.5 28V4C5.5 3.72386 5.72386 3.5 6 3.5Z" fill="white" stroke="#404040"/>
<path id="Combined Shape" fill-rule="evenodd" clip-rule="evenodd" d="M10 4H9V7H6V8H9V24H6V25H9V28H10V25H22V28H23V25H26V24H23V8H26V7H23V4H22V7H10V4ZM22 24V8H10V24H22Z" fill="#3D6EC9"/>
</g>
</g>
</svg>
