<svg width="32" height="32" viewBox="0 0 32 32" fill="none" xmlns="http://www.w3.org/2000/svg">
<path d="M28.5 3.5V28.5H3.5V3.5H28.5Z" stroke="#404040"/>
<path fill-rule="evenodd" clip-rule="evenodd" d="M8 8H11H13H16H17V9V10H16V9H13V17H15V18H13H11H9V17H11V9H8V10H7V9V8H8ZM19 11.5C19 11.2239 19.2239 11 19.5 11H24.5C24.7761 11 25 11.2239 25 11.5C25 11.7761 24.7761 12 24.5 12H19.5C19.2239 12 19 11.7761 19 11.5ZM19.5 8C19.2239 8 19 8.22386 19 8.5C19 8.77614 19.2239 9 19.5 9H24.5C24.7761 9 25 8.77614 25 8.5C25 8.22386 24.7761 8 24.5 8H19.5ZM19 14.5C19 14.2239 19.2239 14 19.5 14H24.5C24.7761 14 25 14.2239 25 14.5C25 14.7761 24.7761 15 24.5 15H19.5C19.2239 15 19 14.7761 19 14.5ZM19.5 17C19.2239 17 19 17.2239 19 17.5C19 17.7761 19.2239 18 19.5 18H24.5C24.7761 18 25 17.7761 25 17.5C25 17.2239 24.7761 17 24.5 17H19.5ZM7 20.5C7 20.2239 7.22386 20 7.5 20H24.5C24.7761 20 25 20.2239 25 20.5C25 20.7761 24.7761 21 24.5 21H7.5C7.22386 21 7 20.7761 7 20.5ZM7.5 23C7.22386 23 7 23.2239 7 23.5C7 23.7761 7.22386 24 7.5 24H24.5C24.7761 24 25 23.7761 25 23.5C25 23.2239 24.7761 23 24.5 23H7.5Z" fill="#404040"/>
</svg>
