<svg width="32" height="32" viewBox="0 0 32 32" fill="none" xmlns="http://www.w3.org/2000/svg">
<path fill-rule="evenodd" clip-rule="evenodd" d="M4 4C3.44772 4 3 4.44772 3 5V27C3 27.5523 3.44772 28 4 28H14.7531C13.6492 26.4479 13 24.5497 13 22.5C13 17.2533 17.2533 13 22.5 13C25.0144 13 27.3007 13.9769 29 15.5718V5C29 4.44772 28.5523 4 28 4H4Z" fill="#CAE0FF"/>
<mask id="mask0_0_23470" style="mask-type:luminance" maskUnits="userSpaceOnUse" x="3" y="4" width="26" height="24">
<path fill-rule="evenodd" clip-rule="evenodd" d="M4 4C3.44772 4 3 4.44772 3 5V27C3 27.5523 3.44772 28 4 28H14.7531C13.6492 26.4479 13 24.5497 13 22.5C13 17.2533 17.2533 13 22.5 13C25.0144 13 27.3007 13.9769 29 15.5718V5C29 4.44772 28.5523 4 28 4H4Z" fill="white"/>
</mask>
<g mask="url(#mask0_0_23470)">
<rect x="3" y="4" width="26" height="24" rx="1" fill="#CAE0FF"/>
<mask id="mask1_0_23470" style="mask-type:luminance" maskUnits="userSpaceOnUse" x="3" y="4" width="26" height="24">
<rect x="3" y="4" width="26" height="24" rx="1" fill="white"/>
</mask>
<g mask="url(#mask1_0_23470)">
<path fill-rule="evenodd" clip-rule="evenodd" d="M29 16.7428C30.2215 15.734 31 14.2079 31 12.5C31 9.46243 28.5376 7 25.5 7C23.5124 7 21.7711 8.05431 20.8047 9.63419C20.1306 9.23144 19.3423 9 18.5 9C16.9873 9 15.6489 9.7464 14.8331 10.891C14.2139 10.3369 13.3963 10 12.5 10C11.05 10 9.80602 10.8817 9.27482 12.1382C8.25848 10.2688 6.27742 9 4 9C0.686291 9 -2 11.6863 -2 15C-2 17.973 0.162287 20.441 3 20.917V28H29V16.7428Z" fill="white"/>
<mask id="path-6-inside-1_0_23470" fill="white">
<path fill-rule="evenodd" clip-rule="evenodd" d="M28.8708 22H29V28H3V22H3.08071L11.2566 13.7647C11.6664 13.3519 12.3407 13.3747 12.7218 13.8141L17.953 19.8471L21.3827 17.0096C21.7484 16.7071 22.2763 16.7033 22.6463 17.0005L28.8708 22Z"/>
</mask>
<path fill-rule="evenodd" clip-rule="evenodd" d="M28.8708 22H29V28H3V22H3.08071L11.2566 13.7647C11.6664 13.3519 12.3407 13.3747 12.7218 13.8141L17.953 19.8471L21.3827 17.0096C21.7484 16.7071 22.2763 16.7033 22.6463 17.0005L28.8708 22Z" fill="#A3DEC6"/>
<path d="M28.8708 22L28.2446 22.7796L28.5189 23H28.8708V22ZM29 22H30V21H29V22ZM29 28V29H30V28H29ZM3 28H2V29H3V28ZM3 22V21H2V22H3ZM3.08071 22V23H3.49704L3.79037 22.7045L3.08071 22ZM11.2566 13.7647L10.547 13.0602V13.0602L11.2566 13.7647ZM12.7218 13.8141L11.9663 14.4692L11.9663 14.4692L12.7218 13.8141ZM17.953 19.8471L17.1975 20.5022L17.8376 21.2405L18.5905 20.6176L17.953 19.8471ZM21.3827 17.0096L22.0201 17.7801L21.3827 17.0096ZM22.6463 17.0005L23.2726 16.2208L22.6463 17.0005ZM28.8708 23H29V21H28.8708V23ZM28 22V28H30V22H28ZM29 27H3V29H29V27ZM4 28V22H2V28H4ZM3 23H3.08071V21H3V23ZM3.79037 22.7045L11.9663 14.4692L10.547 13.0602L2.37105 21.2954L3.79037 22.7045ZM11.9663 14.4692V14.4692L13.4773 13.159C12.7152 12.2801 11.3666 12.2346 10.547 13.0602L11.9663 14.4692ZM11.9663 14.4692L17.1975 20.5022L18.7085 19.192L13.4773 13.159L11.9663 14.4692ZM18.5905 20.6176L22.0201 17.7801L20.7452 16.2391L17.3156 19.0766L18.5905 20.6176ZM22.0201 17.7801L23.2726 16.2208C22.5325 15.6264 21.4766 15.6341 20.7452 16.2391L22.0201 17.7801ZM22.0201 17.7801L28.2446 22.7796L29.497 21.2203L23.2726 16.2208L22.0201 17.7801Z" fill="#00A661" mask="url(#path-6-inside-1_0_23470)"/>
<rect x="3.5" y="4.5" width="25" height="23" rx="0.5" stroke="#404040"/>
</g>
</g>
<circle cx="22.5" cy="22.5" r="7" fill="white" stroke="#3D6EC9"/>
<path d="M22.5 15.5C23.498 15.5 24.4867 16.177 25.2529 17.4541C26.0132 18.7213 26.5 20.504 26.5 22.5C26.5 24.496 26.0132 26.2787 25.2529 27.5459C24.4867 28.823 23.498 29.5 22.5 29.5C21.502 29.5 20.5133 28.823 19.7471 27.5459C18.9868 26.2787 18.5 24.496 18.5 22.5C18.5 20.504 18.9868 18.7213 19.7471 17.4541C20.5133 16.177 21.502 15.5 22.5 15.5Z" stroke="#3D6EC9"/>
<rect x="22" y="15" width="1" height="15" fill="#3D6EC9"/>
<rect x="15" y="22" width="15" height="1" fill="#3D6EC9"/>
<mask id="mask2_0_23470" style="mask-type:luminance" maskUnits="userSpaceOnUse" x="15" y="15" width="15" height="15">
<circle cx="22.5" cy="22.5" r="7.5" fill="white"/>
</mask>
<g mask="url(#mask2_0_23470)">
<path d="M29.5586 15.5C29.5586 16.5268 28.8627 17.5318 27.5762 18.3037C26.2984 19.0703 24.5048 19.5586 22.5 19.5586C20.4952 19.5586 18.7016 19.0703 17.4238 18.3037C16.1373 17.5318 15.4414 16.5268 15.4414 15.5C15.4414 14.4732 16.1373 13.4682 17.4238 12.6963C18.7016 11.9297 20.4952 11.4414 22.5 11.4414C24.5048 11.4414 26.2984 11.9297 27.5762 12.6963C28.8627 13.4682 29.5586 14.4732 29.5586 15.5Z" stroke="#3D6EC9" stroke-width="0.882353"/>
<path d="M29.5586 29.5C29.5586 30.5268 28.8627 31.5318 27.5762 32.3037C26.2984 33.0703 24.5048 33.5586 22.5 33.5586C20.4952 33.5586 18.7016 33.0703 17.4238 32.3037C16.1373 31.5318 15.4414 30.5268 15.4414 29.5C15.4414 28.4732 16.1373 27.4682 17.4238 26.6963C18.7016 25.9297 20.4952 25.4414 22.5 25.4414C24.5048 25.4414 26.2984 25.9297 27.5762 26.6963C28.8627 27.4682 29.5586 28.4732 29.5586 29.5Z" stroke="#3D6EC9" stroke-width="0.882353"/>
</g>
</svg>
