<svg width="32" height="32" viewBox="0 0 32 32" fill="none" xmlns="http://www.w3.org/2000/svg">
<path d="M25.5 3.5C26.0523 3.5 26.5 3.94772 26.5 4.5V26.5C26.5 27.6046 25.6046 28.5 24.5 28.5H23.7607V23.5H9.41309C7.75623 23.5 6.41309 24.8431 6.41309 26.5C6.41309 27.0348 6.55459 27.5359 6.7998 27.9707C6.01501 27.4296 5.5 26.5253 5.5 25.5V6.5C5.5 4.84315 6.84315 3.5 8.5 3.5H25.5Z" fill="#DECEFF"/>
<path d="M23.7607 28.5H23.2607C23.2607 28.7761 23.4846 29 23.7607 29V28.5ZM23.7607 23.5H24.2607C24.2607 23.2239 24.0369 23 23.7607 23V23.5ZM6.7998 27.9707L6.51599 28.3823C6.70767 28.5145 6.9652 28.4969 7.13708 28.3398C7.30896 28.1828 7.34969 27.9279 7.23531 27.7251L6.7998 27.9707ZM5.5 6.5H5V6.5H5.5ZM8.5 3.5V3V3V3.5ZM25.5 3.5V4C25.7761 4 26 4.22386 26 4.5H26.5H27C27 3.67157 26.3284 3 25.5 3V3.5ZM26.5 4.5H26V26.5H26.5H27V4.5H26.5ZM26.5 26.5H26C26 27.3284 25.3284 28 24.5 28V28.5V29C25.8807 29 27 27.8807 27 26.5H26.5ZM24.5 28.5V28H23.7607V28.5V29H24.5V28.5ZM23.7607 28.5H24.2607V23.5H23.7607H23.2607V28.5H23.7607ZM23.7607 23.5V23H9.41309V23.5V24H23.7607V23.5ZM9.41309 23.5V23C7.48009 23 5.91309 24.567 5.91309 26.5H6.41309H6.91309C6.91309 25.1193 8.03237 24 9.41309 24V23.5ZM6.41309 26.5H5.91309C5.91309 27.1242 6.0785 27.7096 6.3643 28.2163L6.7998 27.9707L7.23531 27.7251C7.03068 27.3622 6.91309 26.9453 6.91309 26.5H6.41309ZM6.7998 27.9707L7.08362 27.5591C6.42806 27.1071 6 26.3536 6 25.5H5.5H5C5 26.697 5.60196 27.7522 6.51599 28.3823L6.7998 27.9707ZM5.5 25.5H6V6.5H5.5H5V25.5H5.5ZM5.5 6.5H6C6 5.11929 7.11929 4 8.5 4V3.5V3C6.567 3 5 4.567 5 6.5H5.5ZM8.5 3.5V4H25.5V3.5V3H8.5V3.5Z" fill="#6F3AD0"/>
<path fill-rule="evenodd" clip-rule="evenodd" d="M17.4381 7.64121L21.3364 17.6938C21.5364 18.2095 21.2811 18.7899 20.7663 18.9902C20.4903 19.0976 20.1809 19.0769 19.9216 18.9338L16.9891 17.3149C16.689 17.1492 16.325 17.1491 16.0247 17.3145L13.0795 18.9365C12.5955 19.2031 11.9875 19.0262 11.7214 18.5414C11.5787 18.2816 11.5584 17.9717 11.6658 17.6954L15.5741 7.64047C15.7745 7.12496 16.3541 6.86976 16.8688 7.07047C17.13 7.17236 17.3366 7.37943 17.4381 7.64121Z" fill="white"/>
<path fill-rule="evenodd" clip-rule="evenodd" d="M10.7339 17.332L14.6422 7.27704C15.043 6.24601 16.2023 5.73562 17.2316 6.13704C17.7541 6.34082 18.1672 6.75496 18.3702 7.27851L22.2685 17.3311C22.6685 18.3624 22.158 19.5233 21.1284 19.9239C20.5763 20.1387 19.9576 20.0973 19.4389 19.811L16.5065 18.1922L13.5613 19.8143C12.5934 20.3473 11.3773 19.9935 10.8451 19.024C10.5598 18.5043 10.5191 17.8847 10.7339 17.332ZM17.4381 7.64119C17.3366 7.37941 17.13 7.17235 16.8688 7.07046C16.3541 6.86975 15.7745 7.12494 15.5741 7.64045L11.6658 17.6954C11.5584 17.9717 11.5787 18.2815 11.7214 18.5414C11.9875 19.0262 12.5955 19.2031 13.0795 18.9365L16.0247 17.3145C16.325 17.149 16.689 17.1492 16.9891 17.3149L19.9216 18.9337C20.1809 19.0769 20.4903 19.0976 20.7663 18.9902C21.2811 18.7899 21.5364 18.2095 21.3364 17.6938L17.4381 7.64119Z" fill="#6F3AD0"/>
<path fill-rule="evenodd" clip-rule="evenodd" d="M17.1509 9.23641L19.9717 16.4783C20.1112 16.8362 19.9345 17.2395 19.5772 17.3791C19.3857 17.454 19.171 17.44 18.9908 17.3409L17.172 16.3414C16.7563 16.1129 16.253 16.1127 15.837 16.3407L14.0093 17.3429C13.6729 17.5273 13.2509 17.4037 13.0667 17.0667C12.9681 16.8861 12.9543 16.6711 13.0291 16.4794L15.8572 9.23589C15.9969 8.87811 16.3997 8.7015 16.7569 8.84142C16.9375 8.91219 17.0804 9.0554 17.1509 9.23641Z" fill="url(#paint0_linear_117_6516)"/>
<path d="M14.9841 8.95605L14.5584 9.99795L14.2878 10.0237C11.787 10.2794 10 10.9563 10 11.751C10 12.7374 12.7529 13.5422 16.2065 13.5856L16.5 13.5874C20.0899 13.5874 23 12.7652 23 11.751C23 10.9282 21.0847 10.2318 18.445 9.99825L18.0201 8.9563L18.3176 8.97582C21.6132 9.21408 24 10.131 24 11.751C24 13.6115 20.8521 14.5446 16.7948 14.5875L16.5 14.5891L16.2052 14.5875C12.1479 14.5446 9 13.6115 9 11.751C9 10.0819 11.5335 9.15923 14.9841 8.95605Z" fill="#6F3AD0"/>
<path d="M5.5 26C5.5 24.6193 6.61929 23.5 8 23.5H26.5V27.5C26.5 28.0523 26.0523 28.5 25.5 28.5H8C6.61929 28.5 5.5 27.3807 5.5 26Z" fill="white" stroke="#6F3AD0" stroke-linejoin="round"/>
<path d="M26.5 25.5L11.5 25.5" stroke="#6F3AD0" stroke-linecap="round"/>
<defs>
<linearGradient id="paint0_linear_117_6516" x1="12.9814" y1="8.79346" x2="12.9814" y2="17.4284" gradientUnits="userSpaceOnUse">
<stop stop-color="#A86CEA"/>
<stop offset="1" stop-color="#6F3AD0"/>
</linearGradient>
</defs>
</svg>
