<svg width="32" height="32" viewBox="0 0 32 32" fill="none" xmlns="http://www.w3.org/2000/svg">
<g id="big/ribbon_big_ico_text_format">
<path id="Combined Shape" fill-rule="evenodd" clip-rule="evenodd" d="M13 6H5H4V8V10H5V8H13V25H10V26H13H15H15.9639C15.9665 25.908 15.9593 25.8283 15.9532 25.76C15.9507 25.7332 15.9485 25.7081 15.947 25.6847C15.9323 25.4714 15.9325 25.2414 15.9553 25H15V8H23V10H24V8V6H23H15H13Z" fill="#404040"/>
<g id="element/big/brush 1">
<g id="pen">
<path id="Rectangle" d="M28.1982 9.7222L28.4359 9.8594C28.8832 10.1177 29.0584 10.6688 28.8434 11.1321C28.2328 12.4477 27.2099 14.6251 26.1707 16.7202C25.1254 18.8277 24.0811 20.8147 23.4248 21.7733C22.5614 23.0342 21.967 23.697 21.6031 24.0379C21.5033 24.1314 21.4212 24.1989 21.3577 24.248L19.2705 23.043C19.2788 22.9963 19.2875 22.9383 19.3045 22.8687C19.4115 22.4328 19.7002 21.5946 20.4402 20.0501C21.5696 17.6931 25.2502 12.3506 26.8941 10.0044C27.1868 9.58707 27.7505 9.46368 28.1982 9.7222Z" fill="white" stroke="#8B572A"/>
<path id="Combined Shape_2" d="M19.5027 23.2022L21.2889 24.2334C21.3981 24.2965 21.4791 24.3987 21.5163 24.5192C21.6489 24.9497 21.6224 25.3555 21.4365 25.7609C21.2448 26.179 20.8714 26.6219 20.2679 27.0799C19.2747 27.8337 17.994 28.3319 16.4024 28.5524C17.2472 27.7409 17.6644 26.7873 17.5708 25.7144C17.4891 24.7775 17.9022 23.9529 18.9712 23.2223C19.1099 23.1277 19.2854 23.1096 19.4385 23.1708L19.5027 23.2022Z" fill="#FFE0E0" stroke="#DB4C4C"/>
</g>
</g>
</g>
</svg>
