<svg width="32" height="32" viewBox="0 0 32 32" fill="none" xmlns="http://www.w3.org/2000/svg">
<mask id="mask0_0_30657" style="mask-type:luminance" maskUnits="userSpaceOnUse" x="5" y="3" width="22" height="26">
<path fill-rule="evenodd" clip-rule="evenodd" d="M5 4C5 3.44772 5.44772 3 6 3H26C26.5523 3 27 3.44772 27 4V9.48469C26.1845 9.64866 25.4408 10.1491 24.9921 10.9261L17.2053 24.4132L17.3625 28.9011C17.3636 28.9342 17.3654 28.9672 17.3679 29H6C5.44772 29 5 28.5523 5 28V4Z" fill="white"/>
</mask>
<g mask="url(#mask0_0_30657)">
<g clip-path="url(#clip0_0_30657)">
<mask id="path-2-inside-1_0_30657" fill="white">
<path fill-rule="evenodd" clip-rule="evenodd" d="M6 3C5.44772 3 5 3.44772 5 4V28C5 28.5523 5.44772 29 6 29H21L27 23V4C27 3.44772 26.5523 3 26 3H6Z"/>
</mask>
<path fill-rule="evenodd" clip-rule="evenodd" d="M6 3C5.44772 3 5 3.44772 5 4V28C5 28.5523 5.44772 29 6 29H21L27 23V4C27 3.44772 26.5523 3 26 3H6Z" fill="white"/>
<path d="M21 29V30H21.4142L21.7071 29.7071L21 29ZM27 23L27.7071 23.7071L28 23.4142V23H27ZM6 4V4V2C4.89543 2 4 2.89543 4 4H6ZM6 28V4H4V28H6ZM6 28H6H4C4 29.1046 4.89543 30 6 30V28ZM21 28H6V30H21V28ZM21.7071 29.7071L27.7071 23.7071L26.2929 22.2929L20.2929 28.2929L21.7071 29.7071ZM26 4V23H28V4H26ZM26 4H28C28 2.89543 27.1046 2 26 2V4ZM6 4H26V2H6V4Z" fill="#404040" mask="url(#path-2-inside-1_0_30657)"/>
<mask id="path-4-inside-2_0_30657" fill="white">
<path fill-rule="evenodd" clip-rule="evenodd" d="M27 22H21C20.4477 22 20 22.4477 20 23V29H21L27 23V22Z"/>
</mask>
<path fill-rule="evenodd" clip-rule="evenodd" d="M27 22H21C20.4477 22 20 22.4477 20 23V29H21L27 23V22Z" fill="white"/>
<path d="M27 22H28V21H27V22ZM20 29H19V30H20V29ZM21 29V30H21.4142L21.7071 29.7071L21 29ZM27 23L27.7071 23.7071L28 23.4142V23H27ZM21 23H27V21H21V23ZM21 23V23V21C19.8954 21 19 21.8954 19 23H21ZM21 29V23H19V29H21ZM21 28H20V30H21V28ZM21.7071 29.7071L27.7071 23.7071L26.2929 22.2929L20.2929 28.2929L21.7071 29.7071ZM26 22V23H28V22H26Z" fill="#404040" mask="url(#path-4-inside-2_0_30657)"/>
</g>
<path fill-rule="evenodd" clip-rule="evenodd" d="M9.5 10C9.22386 10 9 10.2239 9 10.5C9 10.7761 9.22386 11 9.5 11H22.5C22.7761 11 23 10.7761 23 10.5C23 10.2239 22.7761 10 22.5 10H9.5ZM9.5 16C9.22386 16 9 16.2239 9 16.5C9 16.7761 9.22386 17 9.5 17H22.5C22.7761 17 23 16.7761 23 16.5C23 16.2239 22.7761 16 22.5 16H9.5Z" fill="#B4B4B4"/>
<path fill-rule="evenodd" clip-rule="evenodd" d="M9.5 7C9.22386 7 9 7.22386 9 7.5C9 7.77614 9.22386 8 9.5 8H22.5C22.7761 8 23 7.77614 23 7.5C23 7.22386 22.7761 7 22.5 7H9.5ZM9.5 13C9.22386 13 9 13.2239 9 13.5C9 13.7761 9.22386 14 9.5 14H22.5C22.7761 14 23 13.7761 23 13.5C23 13.2239 22.7761 13 22.5 13H9.5ZM9 10.5C9 10.2239 9.22386 10 9.5 10H14.5C14.7761 10 15 10.2239 15 10.5C15 10.7761 14.7761 11 14.5 11H9.5C9.22386 11 9 10.7761 9 10.5ZM11.5 16C11.2239 16 11 16.2239 11 16.5C11 16.7761 11.2239 17 11.5 17H18.5C18.7761 17 19 16.7761 19 16.5C19 16.2239 18.7761 16 18.5 16H11.5Z" fill="#DB4C4C"/>
</g>
<mask id="path-8-inside-3_0_30657" fill="white">
<path fill-rule="evenodd" clip-rule="evenodd" d="M23.8301 26.4904L19.5 23.9904L19 24.8564L19.1371 28.771C19.15 29.1403 19.5452 29.3684 19.8715 29.195L23.3301 27.3564L23.8301 26.4904Z"/>
</mask>
<path fill-rule="evenodd" clip-rule="evenodd" d="M23.8301 26.4904L19.5 23.9904L19 24.8564L19.1371 28.771C19.15 29.1403 19.5452 29.3684 19.8715 29.195L23.3301 27.3564L23.8301 26.4904Z" fill="white"/>
<path d="M19.5 23.9904L20 23.1244L19.134 22.6244L18.634 23.4904L19.5 23.9904ZM23.8301 26.4904L24.6962 26.9904L25.1962 26.1244L24.3301 25.6244L23.8301 26.4904ZM19 24.8564L18.134 24.3564L17.9906 24.6048L18.0006 24.8914L19 24.8564ZM19.1371 28.771L20.1365 28.736L20.1365 28.736L19.1371 28.771ZM19.8715 29.195L19.4021 28.312L19.4021 28.312L19.8715 29.195ZM23.3301 27.3564L23.7995 28.2394L24.0528 28.1048L24.1962 27.8564L23.3301 27.3564ZM19 24.8564L23.3301 27.3564L24.3301 25.6244L20 23.1244L19 24.8564ZM19.866 25.3564L20.366 24.4904L18.634 23.4904L18.134 24.3564L19.866 25.3564ZM18.0006 24.8914L18.1377 28.806L20.1365 28.736L19.9994 24.8214L18.0006 24.8914ZM18.1377 28.806C18.1765 29.9138 19.3621 30.5983 20.3408 30.078L19.4021 28.312C19.7283 28.1386 20.1235 28.3667 20.1365 28.736L18.1377 28.806ZM20.3408 30.078L23.7995 28.2394L22.8607 26.4734L19.4021 28.312L20.3408 30.078ZM22.9641 25.9904L22.4641 26.8564L24.1962 27.8564L24.6962 26.9904L22.9641 25.9904Z" fill="#8B572A" mask="url(#path-8-inside-3_0_30657)"/>
<path d="M29.1471 16.2811L23.1471 26.6734L19.683 24.6734L25.683 14.2811L29.1471 16.2811Z" fill="white" stroke="#8B572A"/>
<path d="M27.616 11.933L30.2141 13.433C30.4532 13.5711 30.5352 13.8769 30.3971 14.116L29.1471 16.2811L25.683 14.2811L26.933 12.116C27.0711 11.8769 27.3769 11.7949 27.616 11.933Z" fill="#FFE0E0" stroke="#DB4C4C"/>
<defs>
<clipPath id="clip0_0_30657">
<rect width="22" height="26" fill="white" transform="translate(5 3)"/>
</clipPath>
</defs>
</svg>
