<svg width="32" height="32" viewBox="0 0 32 32" fill="none" xmlns="http://www.w3.org/2000/svg">
<mask id="mask0_0_16494" style="mask-type:luminance" maskUnits="userSpaceOnUse" x="3" y="5" width="26" height="22">
<path fill-rule="evenodd" clip-rule="evenodd" d="M29 5L3 27H29V5Z" fill="white"/>
</mask>
<g mask="url(#mask0_0_16494)">
<rect x="3" y="5" width="26" height="22" rx="1" fill="#CAE0FF"/>
<mask id="mask1_0_16494" style="mask-type:luminance" maskUnits="userSpaceOnUse" x="3" y="5" width="26" height="22">
<rect x="3" y="5" width="26" height="22" rx="1" fill="white"/>
</mask>
<g mask="url(#mask1_0_16494)">
<path d="M25.5 7.75C28.5376 7.75 31 10.0076 31 12.792C30.9999 14.3573 30.2211 15.7551 29 16.6797V27H3V20.5049C0.162441 20.0684 -2 17.8082 -2 15.083C-1.99981 12.0456 0.68641 9.58301 4 9.58301C6.27765 9.58301 8.25817 10.7471 9.27441 12.4609C9.80538 11.3087 11.0497 10.5 12.5 10.5C13.3964 10.5 14.2138 10.8093 14.833 11.3174C15.6488 10.2679 16.9871 9.58301 18.5 9.58301C19.3421 9.58301 20.1297 9.79606 20.8037 10.165C21.77 8.71642 23.5121 7.75 25.5 7.75Z" fill="white"/>
<mask id="path-5-inside-1_0_16494" fill="white">
<path d="M11.29 13.9204C11.6922 13.5491 12.318 13.5699 12.6943 13.9673L17.9531 19.5268L21.415 16.9009C21.7681 16.6331 22.2555 16.6295 22.6123 16.8921L28.8711 21.5005H29V27.0005H3V21.5005H3.08008L11.29 13.9204Z"/>
</mask>
<path d="M11.29 13.9204C11.6922 13.5491 12.318 13.5699 12.6943 13.9673L17.9531 19.5268L21.415 16.9009C21.7681 16.6331 22.2555 16.6295 22.6123 16.8921L28.8711 21.5005H29V27.0005H3V21.5005H3.08008L11.29 13.9204Z" fill="#A3DEC6"/>
<path d="M11.29 13.9204L11.9684 14.6551L11.9684 14.6551L11.29 13.9204ZM12.6943 13.9673L13.4208 13.2801L13.4204 13.2796L12.6943 13.9673ZM17.9531 19.5268L17.2266 20.214L17.8429 20.8656L18.5575 20.3236L17.9531 19.5268ZM21.415 16.9009L20.8108 16.1041L20.8107 16.1041L21.415 16.9009ZM22.6123 16.8921L23.2052 16.0868L23.205 16.0866L22.6123 16.8921ZM28.8711 21.5005L28.2782 22.3057L28.5427 22.5005H28.8711V21.5005ZM29 21.5005H30V20.5005H29V21.5005ZM29 27.0005V28.0005H30V27.0005H29ZM3 27.0005H2V28.0005H3V27.0005ZM3 21.5005V20.5005H2V21.5005H3ZM3.08008 21.5005V22.5005H3.47112L3.75844 22.2352L3.08008 21.5005ZM11.29 13.9204L11.9684 14.6551L11.9683 14.6549L12.6943 13.9673L13.4204 13.2796C12.6675 12.4847 11.4158 12.4432 10.6117 13.1857L11.29 13.9204ZM12.6943 13.9673L11.9679 14.6544L17.2266 20.214L17.9531 19.5268L18.6796 18.8397L13.4208 13.2801L12.6943 13.9673ZM17.9531 19.5268L18.5575 20.3236L22.0194 17.6976L21.415 16.9009L20.8107 16.1041L17.3488 18.7301L17.9531 19.5268ZM21.415 16.9009L22.0193 17.6976L22.0196 17.6975L22.6123 16.8921L23.205 16.0866C22.4911 15.5613 21.5166 15.5688 20.8108 16.1041L21.415 16.9009ZM22.6123 16.8921L22.0194 17.6973L28.2782 22.3057L28.8711 21.5005L29.464 20.6952L23.2052 16.0868L22.6123 16.8921ZM28.8711 21.5005V22.5005H29V21.5005V20.5005H28.8711V21.5005ZM29 21.5005H28V27.0005H29H30V21.5005H29ZM29 27.0005V26.0005H3V27.0005V28.0005H29V27.0005ZM3 27.0005H4V21.5005H3H2V27.0005H3ZM3 21.5005V22.5005H3.08008V21.5005V20.5005H3V21.5005ZM3.08008 21.5005L3.75844 22.2352L11.9684 14.6551L11.29 13.9204L10.6117 13.1857L2.40172 20.7657L3.08008 21.5005Z" fill="#00A661" mask="url(#path-5-inside-1_0_16494)"/>
<rect x="3.5" y="5.5" width="25" height="21" rx="0.5" stroke="#404040"/>
</g>
</g>
<mask id="mask2_0_16494" style="mask-type:luminance" maskUnits="userSpaceOnUse" x="3" y="5" width="26" height="22">
<path fill-rule="evenodd" clip-rule="evenodd" d="M3 5H29L3 27V5Z" fill="white"/>
</mask>
<g mask="url(#mask2_0_16494)">
<rect x="3" y="5" width="26" height="22" rx="1" fill="#FFF2CA"/>
<mask id="mask3_0_16494" style="mask-type:luminance" maskUnits="userSpaceOnUse" x="3" y="5" width="26" height="22">
<rect x="3" y="5" width="26" height="22" rx="1" fill="white"/>
</mask>
<g mask="url(#mask3_0_16494)">
<mask id="path-11-inside-2_0_16494" fill="white">
<path fill-rule="evenodd" clip-rule="evenodd" d="M28.8705 21.4999H29V26.9999H3V21.4999H3.07503C3.23863 21.2049 6.89812 14.6654 10.0156 14.2499C13.2051 13.8248 17.9528 19.5265 17.9528 19.5265L21.4151 16.9007C21.7682 16.6329 22.2554 16.6294 22.6123 16.8922L28.8705 21.4999Z"/>
</mask>
<path fill-rule="evenodd" clip-rule="evenodd" d="M28.8705 21.4999H29V26.9999H3V21.4999H3.07503C3.23863 21.2049 6.89812 14.6654 10.0156 14.2499C13.2051 13.8248 17.9528 19.5265 17.9528 19.5265L21.4151 16.9007C21.7682 16.6329 22.2554 16.6294 22.6123 16.8922L28.8705 21.4999Z" fill="#FFCF8A"/>
<path d="M28.8705 21.4999L28.2776 22.3052L28.5421 22.4999H28.8705V21.4999ZM29 21.4999H30V20.4999H29V21.4999ZM29 26.9999V27.9999H30V26.9999H29ZM3 26.9999H2V27.9999H3V26.9999ZM3 21.4999V20.4999H2V21.4999H3ZM3.07503 21.4999V22.4999H3.66391L3.94953 21.9849L3.07503 21.4999ZM10.0156 14.2499L9.88349 13.2587L10.0156 14.2499ZM17.9528 19.5265L17.1843 20.1664L17.7957 20.9007L18.5571 20.3233L17.9528 19.5265ZM21.4151 16.9007L20.8109 16.1039L20.8108 16.1039L21.4151 16.9007ZM22.6123 16.8922L23.2052 16.0869V16.0869L22.6123 16.8922ZM28.8705 22.4999H29V20.4999H28.8705V22.4999ZM28 21.4999V26.9999H30V21.4999H28ZM29 25.9999H3V27.9999H29V25.9999ZM4 26.9999V21.4999H2V26.9999H4ZM3 22.4999H3.07503V20.4999H3V22.4999ZM3.94953 21.9849C4.02235 21.8536 4.95011 20.1951 6.23043 18.5296C6.87151 17.6956 7.5795 16.8883 8.29202 16.2739C9.025 15.6418 9.65694 15.3066 10.1477 15.2412L9.88349 13.2587C8.81553 13.401 7.82098 14.0391 6.98589 14.7593C6.13036 15.497 5.32872 16.421 4.64478 17.3107C3.27509 19.0925 2.2913 20.8512 2.20052 21.0149L3.94953 21.9849ZM10.1477 15.2412C10.6402 15.1755 11.3102 15.3415 12.1322 15.7782C12.9336 16.2039 13.7622 16.8241 14.5258 17.4849C15.2846 18.1416 15.9522 18.8149 16.4316 19.3262C16.6706 19.5811 16.8611 19.7939 16.9908 19.9418C17.0557 20.0157 17.1053 20.0733 17.138 20.1117C17.1544 20.1309 17.1666 20.1453 17.1744 20.1546C17.1783 20.1592 17.1811 20.1625 17.1827 20.1645C17.1836 20.1655 17.1841 20.1661 17.1844 20.1665C17.1845 20.1666 17.1846 20.1667 17.1846 20.1667C17.1846 20.1667 17.1845 20.1666 17.1845 20.1666C17.1844 20.1665 17.1843 20.1664 17.9528 19.5265C18.7212 18.8866 18.7211 18.8864 18.721 18.8863C18.7209 18.8862 18.7207 18.886 18.7206 18.8858C18.7203 18.8854 18.7199 18.885 18.7195 18.8845C18.7186 18.8834 18.7174 18.882 18.7159 18.8802C18.713 18.8767 18.7089 18.8719 18.7037 18.8657C18.6934 18.8534 18.6785 18.8358 18.6593 18.8134C18.621 18.7685 18.5655 18.704 18.4943 18.6228C18.3519 18.4606 18.1466 18.2313 17.8906 17.9583C17.3801 17.4138 16.6615 16.6882 15.8347 15.9727C15.0126 15.2612 14.0563 14.5357 13.0705 14.0119C12.1053 13.4992 10.9857 13.1118 9.88349 13.2587L10.1477 15.2412ZM18.5571 20.3233L22.0194 17.6974L20.8108 16.1039L17.3485 18.7297L18.5571 20.3233ZM22.0194 17.6974L22.0194 17.6974L23.2052 16.0869C22.4915 15.5614 21.517 15.5683 20.8109 16.1039L22.0194 17.6974ZM22.0194 17.6974L28.2776 22.3052L29.4634 20.6946L23.2052 16.0869L22.0194 17.6974Z" fill="#FF923F" mask="url(#path-11-inside-2_0_16494)"/>
<path d="M7.5 16.5V23.5" stroke="#FF923F" stroke-linecap="square"/>
<path d="M5.5 18.5V25.5" stroke="#FF923F"/>
<path d="M9.5 15.5V22.5" stroke="#FF923F" stroke-linecap="square"/>
<path d="M11.5 15.5V22.5" stroke="#FF923F" stroke-linecap="square"/>
<path d="M13.5 16.5V23.5" stroke="#FF923F" stroke-linecap="square"/>
<rect x="3.5" y="5.5" width="25" height="21" stroke="#F54717" stroke-dasharray="2 1"/>
</g>
</g>
</svg>
