<svg width="32" height="32" viewBox="0 0 32 32" fill="none" xmlns="http://www.w3.org/2000/svg">
<g clip-path="url(#clip0_771_11956)">
<mask id="mask0_771_11956" style="mask-type:luminance" maskUnits="userSpaceOnUse" x="0" y="0" width="32" height="32">
<path fill-rule="evenodd" clip-rule="evenodd" d="M0 1C0 0.447715 0.447715 0 1 0H23.5C20.3909 0 17.6718 1.66922 16.1897 4.16036L12.9821 7.36798C12.0058 8.34429 12.0058 9.9272 12.9821 10.9035C13.6758 11.5972 14.6758 11.798 15.5468 11.5059C16.761 14.7168 19.8639 17 23.5 17C28.1944 17 32 13.1944 32 8.5V31C32 31.5523 31.5523 32 31 32H1C0.447715 32 0 31.5523 0 31V1ZM32 8.5C32 3.80558 28.1944 0 23.5 0H31C31.5523 0 32 0.447715 32 1V8.5Z" fill="white"/>
</mask>
<g mask="url(#mask0_771_11956)">
<rect x="3" y="5" width="26" height="22" rx="1" fill="#CAE0FF"/>
<mask id="mask1_771_11956" style="mask-type:luminance" maskUnits="userSpaceOnUse" x="3" y="5" width="26" height="22">
<rect x="3" y="5" width="26" height="22" rx="1" fill="white"/>
</mask>
<g mask="url(#mask1_771_11956)">
<path d="M25.5 7.75C28.5376 7.75 31 10.0076 31 12.792C30.9999 14.3573 30.2211 15.7551 29 16.6797V27H3V20.5049C0.162441 20.0684 -2 17.8082 -2 15.083C-1.99981 12.0456 0.68641 9.58301 4 9.58301C6.27765 9.58301 8.25817 10.7471 9.27441 12.4609C9.80538 11.3087 11.0497 10.5 12.5 10.5C13.3964 10.5 14.2138 10.8093 14.833 11.3174C15.6488 10.2679 16.9871 9.58301 18.5 9.58301C19.3421 9.58301 20.1297 9.79606 20.8037 10.165C21.77 8.71642 23.5121 7.75 25.5 7.75Z" fill="white"/>
<mask id="path-5-inside-1_771_11956" fill="white">
<path d="M11.29 13.9204C11.6922 13.5491 12.318 13.5699 12.6943 13.9673L17.9531 19.5268L21.415 16.9009C21.7681 16.6331 22.2555 16.6295 22.6123 16.8921L28.8711 21.5005H29V27.0005H3V21.5005H3.08008L11.29 13.9204Z"/>
</mask>
<path d="M11.29 13.9204C11.6922 13.5491 12.318 13.5699 12.6943 13.9673L17.9531 19.5268L21.415 16.9009C21.7681 16.6331 22.2555 16.6295 22.6123 16.8921L28.8711 21.5005H29V27.0005H3V21.5005H3.08008L11.29 13.9204Z" fill="#A3DEC6"/>
<path d="M11.29 13.9204L11.9684 14.6551L11.9684 14.6551L11.29 13.9204ZM12.6943 13.9673L13.4208 13.2801L13.4204 13.2796L12.6943 13.9673ZM17.9531 19.5268L17.2266 20.214L17.8429 20.8656L18.5575 20.3236L17.9531 19.5268ZM21.415 16.9009L20.8108 16.1041L20.8107 16.1041L21.415 16.9009ZM22.6123 16.8921L23.2052 16.0868L23.205 16.0866L22.6123 16.8921ZM28.8711 21.5005L28.2782 22.3057L28.5427 22.5005H28.8711V21.5005ZM29 21.5005H30V20.5005H29V21.5005ZM29 27.0005V28.0005H30V27.0005H29ZM3 27.0005H2V28.0005H3V27.0005ZM3 21.5005V20.5005H2V21.5005H3ZM3.08008 21.5005V22.5005H3.47112L3.75844 22.2352L3.08008 21.5005ZM11.29 13.9204L11.9684 14.6551L11.9683 14.6549L12.6943 13.9673L13.4204 13.2796C12.6675 12.4847 11.4158 12.4432 10.6117 13.1857L11.29 13.9204ZM12.6943 13.9673L11.9679 14.6544L17.2266 20.214L17.9531 19.5268L18.6796 18.8397L13.4208 13.2801L12.6943 13.9673ZM17.9531 19.5268L18.5575 20.3236L22.0194 17.6976L21.415 16.9009L20.8107 16.1041L17.3488 18.7301L17.9531 19.5268ZM21.415 16.9009L22.0193 17.6976L22.0196 17.6975L22.6123 16.8921L23.205 16.0866C22.4911 15.5613 21.5166 15.5688 20.8108 16.1041L21.415 16.9009ZM22.6123 16.8921L22.0194 17.6973L28.2782 22.3057L28.8711 21.5005L29.464 20.6952L23.2052 16.0868L22.6123 16.8921ZM28.8711 21.5005V22.5005H29V21.5005V20.5005H28.8711V21.5005ZM29 21.5005H28V27.0005H29H30V21.5005H29ZM29 27.0005V26.0005H3V27.0005V28.0005H29V27.0005ZM3 27.0005H4V21.5005H3H2V27.0005H3ZM3 21.5005V22.5005H3.08008V21.5005V20.5005H3V21.5005ZM3.08008 21.5005L3.75844 22.2352L11.9684 14.6551L11.29 13.9204L10.6117 13.1857L2.40172 20.7657L3.08008 21.5005Z" fill="#00A661" mask="url(#path-5-inside-1_771_11956)"/>
<rect x="3.5" y="5.5" width="25" height="21" rx="0.5" stroke="#404040"/>
</g>
</g>
<path d="M24 7L27.5 10.5L31 7" stroke="#3D6EC9" stroke-linecap="round" stroke-linejoin="round"/>
<path d="M27.5 10.4844V7.5C27.5 4.73858 25.2614 2.5 22.5 2.5" stroke="#3D6EC9" stroke-linecap="round"/>
<path d="M22 9L18.5 5.5L15 9" stroke="#3D6EC9" stroke-linecap="round" stroke-linejoin="round"/>
<path d="M18.5 5.52295V8.50732C18.5 11.2687 20.7386 13.5073 23.5 13.5073" stroke="#3D6EC9" stroke-linecap="round"/>
</g>
<defs>
<clipPath id="clip0_771_11956">
<rect width="32" height="32" fill="white"/>
</clipPath>
</defs>
</svg>
