<svg width="32" height="32" viewBox="0 0 32 32" fill="none" xmlns="http://www.w3.org/2000/svg">
<g id="big/ribbon_big_ico_group">
<g id="-g-&#234;&#183;&#184;&#235;&#163;&#185;">
<g id="Group 1157">
<mask id="mask0_0_22486" style="mask-type:alpha" maskUnits="userSpaceOnUse" x="11" y="11" width="14" height="14">
<path id="Subtract" d="M25 25H11V21H19C20.1046 21 21 20.1046 21 19V11H25V25Z" fill="#D9D9D9"/>
</mask>
<g mask="url(#mask0_0_22486)">
<path id="Rectangle" d="M13 11.5H23C23.8284 11.5 24.5 12.1716 24.5 13V23C24.5 23.8284 23.8284 24.5 23 24.5H13C12.1716 24.5 11.5 23.8284 11.5 23V13C11.5 12.1716 12.1716 11.5 13 11.5Z" fill="#E6E6E6" stroke="#404040"/>
</g>
</g>
<path id="Rectangle Copy" d="M9 7.5H19C19.8284 7.5 20.5 8.17157 20.5 9V19C20.5 19.8284 19.8284 20.5 19 20.5H9C8.17157 20.5 7.5 19.8284 7.5 19V9C7.5 8.17157 8.17157 7.5 9 7.5Z" fill="white" stroke="#404040"/>
<g id="Combined Shape">
<mask id="path-4-inside-1_0_22486" fill="white">
<path fill-rule="evenodd" clip-rule="evenodd" d="M5 3C3.89543 3 3 3.89543 3 5C3 6.10457 3.89543 7 5 7C6.10457 7 7 6.10457 7 5C7 3.89543 6.10457 3 5 3ZM27 3C25.8954 3 25 3.89543 25 5C25 6.10457 25.8954 7 27 7C28.1046 7 29 6.10457 29 5C29 3.89543 28.1046 3 27 3ZM3 27C3 25.8954 3.89543 25 5 25C6.10457 25 7 25.8954 7 27C7 28.1046 6.10457 29 5 29C3.89543 29 3 28.1046 3 27ZM27 25C25.8954 25 25 25.8954 25 27C25 28.1046 25.8954 29 27 29C28.1046 29 29 28.1046 29 27C29 25.8954 28.1046 25 27 25Z"/>
</mask>
<path fill-rule="evenodd" clip-rule="evenodd" d="M5 3C3.89543 3 3 3.89543 3 5C3 6.10457 3.89543 7 5 7C6.10457 7 7 6.10457 7 5C7 3.89543 6.10457 3 5 3ZM27 3C25.8954 3 25 3.89543 25 5C25 6.10457 25.8954 7 27 7C28.1046 7 29 6.10457 29 5C29 3.89543 28.1046 3 27 3ZM3 27C3 25.8954 3.89543 25 5 25C6.10457 25 7 25.8954 7 27C7 28.1046 6.10457 29 5 29C3.89543 29 3 28.1046 3 27ZM27 25C25.8954 25 25 25.8954 25 27C25 28.1046 25.8954 29 27 29C28.1046 29 29 28.1046 29 27C29 25.8954 28.1046 25 27 25Z" fill="white"/>
<path d="M4 5C4 4.44772 4.44772 4 5 4V2C3.34315 2 2 3.34315 2 5H4ZM5 6C4.44772 6 4 5.55228 4 5H2C2 6.65685 3.34315 8 5 8V6ZM6 5C6 5.55228 5.55228 6 5 6V8C6.65685 8 8 6.65685 8 5H6ZM5 4C5.55228 4 6 4.44772 6 5H8C8 3.34315 6.65685 2 5 2V4ZM26 5C26 4.44771 26.4477 4 27 4V2C25.3431 2 24 3.34315 24 5H26ZM27 6C26.4477 6 26 5.55228 26 5H24C24 6.65685 25.3431 8 27 8V6ZM28 5C28 5.55228 27.5523 6 27 6V8C28.6569 8 30 6.65685 30 5H28ZM27 4C27.5523 4 28 4.44771 28 5H30C30 3.34315 28.6569 2 27 2V4ZM5 24C3.34315 24 2 25.3431 2 27H4C4 26.4477 4.44771 26 5 26V24ZM8 27C8 25.3431 6.65685 24 5 24V26C5.55228 26 6 26.4477 6 27H8ZM5 30C6.65685 30 8 28.6569 8 27H6C6 27.5523 5.55228 28 5 28V30ZM2 27C2 28.6569 3.34315 30 5 30V28C4.44771 28 4 27.5523 4 27H2ZM26 27C26 26.4477 26.4477 26 27 26V24C25.3431 24 24 25.3431 24 27H26ZM27 28C26.4477 28 26 27.5523 26 27H24C24 28.6569 25.3431 30 27 30V28ZM28 27C28 27.5523 27.5523 28 27 28V30C28.6569 30 30 28.6569 30 27H28ZM27 26C27.5523 26 28 26.4477 28 27H30C30 25.3431 28.6569 24 27 24V26Z" fill="#404040" mask="url(#path-4-inside-1_0_22486)"/>
</g>
<path id="Combined Shape_2" fill-rule="evenodd" clip-rule="evenodd" d="M24 4H8V5H24V4ZM28 8H27V24H28V8ZM4 8H5V24H4V8ZM24 27H8V28H24V27Z" fill="#404040"/>
</g>
</g>
</svg>
