<svg width="32" height="32" viewBox="0 0 32 32" fill="none" xmlns="http://www.w3.org/2000/svg">
<mask id="path-1-inside-1_0_24394" fill="white">
<path fill-rule="evenodd" clip-rule="evenodd" d="M4 4C3.44772 4 3 4.44772 3 5V27C3 27.5523 3.44772 28 4 28H23L29 22V5C29 4.44772 28.5523 4 28 4H4Z"/>
</mask>
<path fill-rule="evenodd" clip-rule="evenodd" d="M4 4C3.44772 4 3 4.44772 3 5V27C3 27.5523 3.44772 28 4 28H23L29 22V5C29 4.44772 28.5523 4 28 4H4Z" fill="#FFF0C7"/>
<path d="M23 28V29H23.4142L23.7071 28.7071L23 28ZM29 22L29.7071 22.7071L30 22.4142V22H29ZM3 5H4V5V4V3C2.89543 3 2 3.89543 2 5H3ZM3 27H4V5H3H2V27H3ZM4 28V27H4H3H2C2 28.1046 2.89543 29 4 29V28ZM23 28V27H4V28V29H23V28ZM23 28L23.7071 28.7071L29.7071 22.7071L29 22L28.2929 21.2929L22.2929 27.2929L23 28ZM29 5H28V22H29H30V5H29ZM28 4V5H29H30C30 3.89543 29.1046 3 28 3V4ZM4 4V5H28V4V3H4V4Z" fill="#D88C4F" mask="url(#path-1-inside-1_0_24394)"/>
<rect x="4" y="5" width="24" height="4" fill="#F8DB8F"/>
<mask id="path-4-inside-2_0_24394" fill="white">
<path fill-rule="evenodd" clip-rule="evenodd" d="M29 21H23C22.4477 21 22 21.4477 22 22V28H23L29 22V21Z"/>
</mask>
<path fill-rule="evenodd" clip-rule="evenodd" d="M29 21H23C22.4477 21 22 21.4477 22 22V28H23L29 22V21Z" fill="#FFF0C7"/>
<path d="M29 21H30V20H29V21ZM22 28H21V29H22V28ZM23 28V29H23.4142L23.7071 28.7071L23 28ZM29 22L29.7071 22.7071L30 22.4142V22H29ZM23 21V22H29V21V20H23V21ZM22 22H23V22V21V20C21.8954 20 21 20.8954 21 22H22ZM22 28H23V22H22H21V28H22ZM23 28V27H22V28V29H23V28ZM23 28L23.7071 28.7071L29.7071 22.7071L29 22L28.2929 21.2929L22.2929 27.2929L23 28ZM29 21H28V22H29H30V21H29Z" fill="#D88C4F" mask="url(#path-4-inside-2_0_24394)"/>
<path d="M17.6001 12L22.257 16.6569L17.6568 21.2571" stroke="#8B572A" stroke-linecap="round" stroke-linejoin="round"/>
<path d="M21.5063 16.5H10" stroke="#8B572A" stroke-linecap="round" stroke-linejoin="round"/>
</svg>
