<svg width="32" height="32" viewBox="0 0 32 32" fill="none" xmlns="http://www.w3.org/2000/svg">
<mask id="path-1-inside-1_0_24378" fill="white">
<path fill-rule="evenodd" clip-rule="evenodd" d="M4 4C3.44772 4 3 4.44772 3 5V27C3 27.5523 3.44772 28 4 28H23L29 22V5C29 4.44772 28.5523 4 28 4H4Z"/>
</mask>
<path fill-rule="evenodd" clip-rule="evenodd" d="M4 4C3.44772 4 3 4.44772 3 5V27C3 27.5523 3.44772 28 4 28H23L29 22V5C29 4.44772 28.5523 4 28 4H4Z" fill="#FFF0C7"/>
<path d="M23 28V29H23.4142L23.7071 28.7071L23 28ZM29 22L29.7071 22.7071L30 22.4142V22H29ZM4 5V5V3C2.89543 3 2 3.89543 2 5H4ZM4 27V5H2V27H4ZM4 27H4H2C2 28.1046 2.89543 29 4 29V27ZM23 27H4V29H23V27ZM23.7071 28.7071L29.7071 22.7071L28.2929 21.2929L22.2929 27.2929L23.7071 28.7071ZM28 5V22H30V5H28ZM28 5H30C30 3.89543 29.1046 3 28 3V5ZM4 5H28V3H4V5Z" fill="#D88C4F" mask="url(#path-1-inside-1_0_24378)"/>
<rect x="4" y="5" width="24" height="4" fill="#F8DB8F"/>
<mask id="path-4-inside-2_0_24378" fill="white">
<path fill-rule="evenodd" clip-rule="evenodd" d="M29 21H23C22.4477 21 22 21.4477 22 22V28H23L29 22V21Z"/>
</mask>
<path fill-rule="evenodd" clip-rule="evenodd" d="M29 21H23C22.4477 21 22 21.4477 22 22V28H23L29 22V21Z" fill="#FFF0C7"/>
<path d="M29 21H30V20H29V21ZM22 28H21V29H22V28ZM23 28V29H23.4142L23.7071 28.7071L23 28ZM29 22L29.7071 22.7071L30 22.4142V22H29ZM23 22H29V20H23V22ZM23 22V22V20C21.8954 20 21 20.8954 21 22H23ZM23 28V22H21V28H23ZM23 27H22V29H23V27ZM23.7071 28.7071L29.7071 22.7071L28.2929 21.2929L22.2929 27.2929L23.7071 28.7071ZM28 21V22H30V21H28Z" fill="#D88C4F" mask="url(#path-4-inside-2_0_24378)"/>
<path fill-rule="evenodd" clip-rule="evenodd" d="M21.0962 11.9038C20.9009 11.7085 20.5843 11.7085 20.3891 11.9038L16.5 15.7929L12.6109 11.9038C12.4157 11.7085 12.0991 11.7085 11.9038 11.9038C11.7085 12.0991 11.7085 12.4157 11.9038 12.6109L15.7929 16.5L11.9038 20.3891C11.7085 20.5844 11.7085 20.9009 11.9038 21.0962C12.0991 21.2915 12.4157 21.2915 12.6109 21.0962L16.5 17.2071L20.3891 21.0962C20.5843 21.2915 20.9009 21.2915 21.0962 21.0962C21.2915 20.9009 21.2915 20.5844 21.0962 20.3891L17.2071 16.5L21.0962 12.6109C21.2915 12.4157 21.2915 12.0991 21.0962 11.9038Z" fill="#DB4C4C"/>
</svg>
