<svg width="32" height="32" viewBox="0 0 32 32" fill="none" xmlns="http://www.w3.org/2000/svg">
<path d="M6 3.5H26C26.2761 3.5 26.5 3.72386 26.5 4V28C26.5 28.2761 26.2761 28.5 26 28.5H6C5.72386 28.5 5.5 28.2761 5.5 28V4C5.5 3.72386 5.72386 3.5 6 3.5Z" fill="white" stroke="#404040"/>
<path d="M6 3.5H10C10.2761 3.5 10.5 3.72386 10.5 4V28C10.5 28.2761 10.2761 28.5 10 28.5H6C5.72386 28.5 5.5 28.2761 5.5 28V4C5.5 3.72386 5.72386 3.5 6 3.5Z" fill="#A8A8A8" stroke="#404040"/>
<mask id="path-3-inside-1_0_18540" fill="white">
<path fill-rule="evenodd" clip-rule="evenodd" d="M20 2C19.4477 2 19 2.44772 19 3V17L22 13L25 17V3C25 2.44772 24.5523 2 24 2H20Z"/>
</mask>
<path fill-rule="evenodd" clip-rule="evenodd" d="M20 2C19.4477 2 19 2.44772 19 3V17L22 13L25 17V3C25 2.44772 24.5523 2 24 2H20Z" fill="#FFE0E0"/>
<path d="M19 17H18V20L19.8 17.6L19 17ZM22 13L22.8 12.4L22 11.3333L21.2 12.4L22 13ZM25 17L24.2 17.6L26 20V17H25ZM20 3V3V1C18.8954 1 18 1.89543 18 3H20ZM20 17V3H18V17H20ZM19.8 17.6L22.8 13.6L21.2 12.4L18.2 16.4L19.8 17.6ZM21.2 13.6L24.2 17.6L25.8 16.4L22.8 12.4L21.2 13.6ZM24 3V17H26V3H24ZM24 3H26C26 1.89543 25.1046 1 24 1V3ZM20 3H24V1H20V3Z" fill="#DB4C4C" mask="url(#path-3-inside-1_0_18540)"/>
<rect x="15.5" y="23.5" width="6" height="1" rx="0.5" fill="#A8A8A8" stroke="#A8A8A8"/>
</svg>
