<svg width="32" height="36" viewBox="0 0 32 36" fill="none" xmlns="http://www.w3.org/2000/svg">
<path d="M23.9387 17.2906C23.9387 12.1976 21.0179 8.89681 16.4775 8.89681C11.9227 8.89681 9.01635 12.1976 9.01635 17.2906C9.01635 21.4426 10.7804 24.5642 14.5978 26.5954V29H6.97754V27.148H12.2698V26.9688C8.87176 25.1466 6.992 21.5322 6.992 17.2458C6.992 11.167 10.8238 7 16.4775 7C22.1313 7 25.9631 11.1521 25.9631 17.2458C25.9631 21.5322 24.0689 25.1616 20.6853 26.9688V27.148H25.9775V29H18.3573V26.5954C22.1746 24.5642 23.9387 21.4426 23.9387 17.2906Z" fill="#404040"/>
</svg>
