<svg width="32" height="32" viewBox="0 0 32 32" fill="none" xmlns="http://www.w3.org/2000/svg">
<g clip-path="url(#clip0_0_24704)">
<mask id="path-1-inside-1_0_24704" fill="white">
<path fill-rule="evenodd" clip-rule="evenodd" d="M6 3C5.44772 3 5 3.44772 5 4V28C5 28.5523 5.44772 29 6 29H21L27 23V4C27 3.44772 26.5523 3 26 3H6Z"/>
</mask>
<path fill-rule="evenodd" clip-rule="evenodd" d="M6 3C5.44772 3 5 3.44772 5 4V28C5 28.5523 5.44772 29 6 29H21L27 23V4C27 3.44772 26.5523 3 26 3H6Z" fill="white"/>
<path d="M21 29V30H21.4142L21.7071 29.7071L21 29ZM27 23L27.7071 23.7071L28 23.4142V23H27ZM6 4V4V2C4.89543 2 4 2.89543 4 4H6ZM6 28V4H4V28H6ZM6 28H6H4C4 29.1046 4.89543 30 6 30V28ZM21 28H6V30H21V28ZM21.7071 29.7071L27.7071 23.7071L26.2929 22.2929L20.2929 28.2929L21.7071 29.7071ZM26 4V23H28V4H26ZM26 4H28C28 2.89543 27.1046 2 26 2V4ZM6 4H26V2H6V4Z" fill="#404040" mask="url(#path-1-inside-1_0_24704)"/>
<mask id="path-3-inside-2_0_24704" fill="white">
<path fill-rule="evenodd" clip-rule="evenodd" d="M27 22H21C20.4477 22 20 22.4477 20 23V29H21L27 23V22Z"/>
</mask>
<path fill-rule="evenodd" clip-rule="evenodd" d="M27 22H21C20.4477 22 20 22.4477 20 23V29H21L27 23V22Z" fill="white"/>
<path d="M27 22H28V21H27V22ZM20 29H19V30H20V29ZM21 29V30H21.4142L21.7071 29.7071L21 29ZM27 23L27.7071 23.7071L28 23.4142V23H27ZM21 23H27V21H21V23ZM21 23V23V21C19.8954 21 19 21.8954 19 23H21ZM21 29V23H19V29H21ZM21 28H20V30H21V28ZM21.7071 29.7071L27.7071 23.7071L26.2929 22.2929L20.2929 28.2929L21.7071 29.7071ZM26 22V23H28V22H26Z" fill="#404040" mask="url(#path-3-inside-2_0_24704)"/>
</g>
<path fill-rule="evenodd" clip-rule="evenodd" d="M16.6938 15L20.8563 19.1626C21.0479 19.3541 21.0479 19.6647 20.8563 19.8563C20.6647 20.0479 20.3541 20.0479 20.1626 19.8563L16 15.6938L11.8374 19.8563C11.6459 20.0479 11.3353 20.0479 11.1437 19.8563C10.9521 19.6647 10.9521 19.3541 11.1437 19.1626L15.3062 15L11.1437 10.8374C10.9521 10.6459 10.9521 10.3353 11.1437 10.1437C11.3353 9.95211 11.6459 9.95211 11.8374 10.1437L16 14.3062L20.1626 10.1437C20.3541 9.95211 20.6647 9.95211 20.8563 10.1437C21.0479 10.3353 21.0479 10.6459 20.8563 10.8374L16.6938 15Z" fill="#DB4C4C"/>
<defs>
<clipPath id="clip0_0_24704">
<rect width="22" height="26" fill="white" transform="translate(5 3)"/>
</clipPath>
</defs>
</svg>
