<svg width="32" height="32" viewBox="0 0 32 32" fill="none" xmlns="http://www.w3.org/2000/svg">
<g id="big/ribbon_big_ico_wordcount">
<g id="&#237;&#145;&#156;&#236;&#139;&#156; &#237;&#152;&#149;&#236;&#139;&#157;" clip-path="url(#clip0_0_31035)">
<path id="ABC" fill-rule="evenodd" clip-rule="evenodd" d="M20.8827 10.059C20.8827 13.272 22.7322 15.1755 25.1892 15.1755C26.4717 15.1755 27.4437 14.6625 28.2267 13.758L27.5382 12.975C26.9037 13.6635 26.1882 14.082 25.2432 14.082C23.3532 14.082 22.1652 12.516 22.1652 10.0185C22.1652 7.548 23.4072 6.009 25.2837 6.009C26.1342 6.009 26.7957 6.4005 27.3087 6.954L27.9837 6.144C27.4167 5.5095 26.4717 4.9155 25.2702 4.9155C22.7592 4.9155 20.8827 6.8595 20.8827 10.059ZM12.154 15H10.831L9.88603 11.976H6.26803L5.30953 15H4.04053L7.40203 5.1045H8.79253L12.154 15ZM7.06453 9.465L6.57853 10.977H9.57553L9.10303 9.465C8.73853 8.3445 8.42803 7.2645 8.10403 6.117H8.05003C7.73953 7.278 7.41553 8.3445 7.06453 9.465ZM13.0624 15H16.2214C18.4354 15 19.9744 14.0415 19.9744 12.0975C19.9744 10.7475 19.1374 9.9645 17.9494 9.735V9.6675C18.8809 9.3705 19.4074 8.5065 19.4074 7.521C19.4074 5.7795 18.0169 5.1045 16.0054 5.1045H13.0624V15ZM14.3179 6.09V9.3165H15.7894C17.4904 9.3165 18.1789 8.682 18.1789 7.683C18.1789 6.522 17.3824 6.09 15.8434 6.09H14.3179ZM14.3179 14.001V10.275H16.0459C17.7739 10.275 18.7459 10.8285 18.7459 12.057C18.7459 13.3935 17.7469 14.001 16.0459 14.001H14.3179Z" fill="#404040"/>
<path id="123" fill-rule="evenodd" clip-rule="evenodd" d="M12.7613 28H18.9848V26.9335H16.2443C15.8024 26.9335 15.2761 26.9758 14.8054 27.0135L14.6243 27.028C16.9463 24.8275 18.4988 22.816 18.4988 20.845C18.4988 19.0765 17.3918 17.9155 15.6233 17.9155C14.3678 17.9155 13.5173 18.496 12.7073 19.3735L13.4228 20.0755C13.9628 19.4275 14.6648 18.928 15.4748 18.928C16.7033 18.928 17.2973 19.7515 17.2973 20.8855C17.2973 22.5865 15.8663 24.5575 12.7613 27.271V28ZM5.48779 28H10.9148V26.974H8.93029V18.1045H7.98529C7.44529 18.415 6.81079 18.6445 5.93329 18.8065V19.5895H7.68829V26.974H5.48779V28ZM20.7263 26.8255C21.3743 27.5275 22.3463 28.1755 23.8988 28.1755C25.6538 28.1755 27.0713 27.1225 27.0713 25.354C27.0713 24.004 26.1398 23.113 24.9653 22.843V22.789C26.0183 22.3975 26.7338 21.601 26.7338 20.3995C26.7338 18.8065 25.5188 17.9155 23.8583 17.9155C22.7108 17.9155 21.8333 18.415 21.0908 19.1035L21.7523 19.8865C22.3058 19.333 23.0078 18.928 23.8043 18.901C24.8303 18.928 25.4783 19.5355 25.4783 20.494C25.4783 21.5605 24.7763 22.384 22.7378 22.384V23.329C25.0193 23.329 25.8158 24.1255 25.8158 25.3135C25.8158 26.4475 24.9788 27.1495 23.8043 27.1495C22.6838 27.1495 21.9278 26.623 21.3473 26.0155L20.7263 26.8255Z" fill="#404040"/>
</g>
</g>
<defs>
<clipPath id="clip0_0_31035">
<rect width="25" height="25" fill="white" transform="translate(4 4)"/>
</clipPath>
</defs>
</svg>
