<svg width="32" height="32" viewBox="0 0 32 32" fill="none" xmlns="http://www.w3.org/2000/svg">
<g clip-path="url(#clip0_1319_11840)">
<mask id="mask0_1319_11840" style="mask-type:alpha" maskUnits="userSpaceOnUse" x="0" y="0" width="32" height="32">
<path fill-rule="evenodd" clip-rule="evenodd" d="M32 0H0V32H32V0ZM28 18V20.0854C28.1564 20.0301 28.3247 20 28.5 20C29.3284 20 30 20.6716 30 21.5V22C30 24.0873 28.9345 25.9252 27.3176 27H27.5C28.3284 27 29 27.6716 29 28.5C29 29.3284 28.3284 30 27.5 30H20.5C19.6716 30 19 29.3284 19 28.5C19 27.6716 19.6716 27 20.5 27H20.6824C19.0655 25.9252 18 24.0873 18 22V21.5C18 20.6716 18.6716 20 19.5 20C19.6753 20 19.8436 20.0301 20 20.0854V18C20 15.7909 21.7909 14 24 14C26.2091 14 28 15.7909 28 18Z" fill="#D9D9D9"/>
</mask>
<g mask="url(#mask0_1319_11840)">
<path d="M5 3.5H25C25.2761 3.5 25.5 3.72386 25.5 4V28C25.5 28.2761 25.2761 28.5 25 28.5H5C4.72386 28.5 4.5 28.2761 4.5 28V4C4.5 3.72386 4.72386 3.5 5 3.5Z" fill="white" stroke="#404040"/>
<path fill-rule="evenodd" clip-rule="evenodd" d="M18.4606 15.549L17.8323 13.5067C17.5766 12.9535 17.2829 12.5222 16.6724 12.3398L15.4376 12.0859C15.1809 12.0195 15 11.7728 15 11.4893C15 11.2057 15.1809 10.9591 15.4376 10.8926L16.6724 10.6388C17.4034 10.4337 17.6063 10.0834 17.8323 9.54375L18.4606 7.45113C18.6255 7.14576 18.8053 6.99542 19 7.00011L19.0825 7.00759C19.2458 7.04153 19.3981 7.18938 19.5394 7.45113L20.1677 9.54375C20.3937 10.0834 20.5966 10.4337 21.3276 10.6388L22.5624 10.8926C22.8191 10.9591 23 11.2057 23 11.4893C23 11.7728 22.8191 12.0195 22.5624 12.0859L21.3276 12.3398C20.7171 12.5222 20.4234 12.9535 20.1677 13.5067L19.5394 15.549C19.4338 15.8497 19.254 16 19 16C18.746 16 18.5662 15.8497 18.4606 15.549Z" fill="#9D75EC"/>
<rect opacity="0.8" x="8" y="11" width="5" height="1" rx="0.5" fill="#404040"/>
<path opacity="0.3" d="M8 17.5C8 17.2239 8.22386 17 8.5 17H16.5C16.7761 17 17 17.2239 17 17.5C17 17.7761 16.7761 18 16.5 18H8.5C8.22386 18 8 17.7761 8 17.5Z" fill="#404040"/>
<path d="M8 8.5C8 8.22386 8.22386 8 8.5 8H15.5C15.7761 8 16 8.22386 16 8.5C16 8.77614 15.7761 9 15.5 9H8.5C8.22386 9 8 8.77614 8 8.5Z" fill="#404040"/>
<path opacity="0.5" d="M8 14.5C8 14.2239 8.22386 14 8.5 14H15.5C15.7761 14 16 14.2239 16 14.5C16 14.7761 15.7761 15 15.5 15H8.5C8.22386 15 8 14.7761 8 14.5Z" fill="#404040"/>
</g>
<rect x="21.5" y="15.5" width="5" height="9" rx="2.5" stroke="#404040"/>
<rect x="23.5" y="26" width="1" height="3" fill="#404040"/>
<rect x="28" y="28" width="1" height="8" rx="0.5" transform="rotate(90 28 28)" fill="#404040"/>
<path fill-rule="evenodd" clip-rule="evenodd" d="M19.5 21C19.2239 21 19 21.2239 19 21.5V22C19 24.7614 21.2386 27 24 27C26.7614 27 29 24.7614 29 22V21.5C29 21.2239 28.7761 21 28.5 21C28.2239 21 28 21.2239 28 21.5V22C28 24.2091 26.2091 26 24 26C21.7909 26 20 24.2091 20 22V21.5C20 21.2239 19.7761 21 19.5 21Z" fill="#404040"/>
</g>
<defs>
<clipPath id="clip0_1319_11840">
<rect width="32" height="32" fill="white"/>
</clipPath>
</defs>
</svg>
