<svg width="32" height="32" viewBox="0 0 32 32" fill="none" xmlns="http://www.w3.org/2000/svg">
<mask id="path-1-inside-1_0_16609" fill="white">
<path fill-rule="evenodd" clip-rule="evenodd" d="M16 4C20.0022 4 23.3942 6.61232 24.564 10.2248C28.8183 11.1673 32 14.9621 32 19.5C32 24.7467 27.7467 29 22.5 29C22.3323 29 22.1656 28.9957 22 28.9871V29H8H7V28.9381C3.05369 28.446 0 25.0796 0 21C0 16.9203 3.05379 13.5539 7.00021 13.0619L7 13C7 8.02944 11.0294 4 16 4Z"/>
</mask>
<path fill-rule="evenodd" clip-rule="evenodd" d="M16 4C20.0022 4 23.3942 6.61232 24.564 10.2248C28.8183 11.1673 32 14.9621 32 19.5C32 24.7467 27.7467 29 22.5 29C22.3323 29 22.1656 28.9957 22 28.9871V29H8H7V28.9381C3.05369 28.446 0 25.0796 0 21C0 16.9203 3.05379 13.5539 7.00021 13.0619L7 13C7 8.02944 11.0294 4 16 4Z" fill="white"/>
<path d="M24.564 10.2248L23.6126 10.5329L23.789 11.0774L24.3477 11.2012L24.564 10.2248ZM22 28.9871L22.0518 27.9884L21 27.9339V28.9871H22ZM22 29V30H23V29H22ZM7 29H6V30H7V29ZM7 28.9381H8V28.0551L7.12374 27.9458L7 28.9381ZM7.00021 13.0619L7.12392 14.0542L8.00319 13.9446L8.0002 13.0585L7.00021 13.0619ZM7 13H5.99999L6.00001 13.0034L7 13ZM25.5154 9.91678C24.2159 5.90388 20.4484 3 16 3V5C19.556 5 22.5725 7.32076 23.6126 10.5329L25.5154 9.91678ZM33 19.5C33 14.4832 29.4826 10.2903 24.7803 9.24852L24.3477 11.2012C28.154 12.0444 31 15.441 31 19.5H33ZM22.5 30C28.299 30 33 25.299 33 19.5H31C31 24.1944 27.1944 28 22.5 28V30ZM21.9482 29.9857C22.131 29.9952 22.315 30 22.5 30V28C22.3496 28 22.2001 27.9961 22.0518 27.9884L21.9482 29.9857ZM21 28.9871V29H23V28.9871H21ZM22 28H8V30H22V28ZM8 28H7V30H8V28ZM8 29V28.9381H6V29H8ZM-1 21C-1 25.5903 2.43564 29.3767 6.87626 29.9304L7.12374 27.9458C3.67174 27.5153 1 24.5689 1 21H-1ZM6.87649 12.0696C2.43576 12.6232 -1 16.4096 -1 21H1C1 17.431 3.67183 14.4846 7.12392 14.0542L6.87649 12.0696ZM6.00001 13.0034L6.00021 13.0652L8.0002 13.0585L7.99999 12.9966L6.00001 13.0034ZM16 3C10.4772 3 6 7.47715 6 13H8C8 8.58172 11.5817 5 16 5V3Z" fill="#404040" mask="url(#path-1-inside-1_0_16609)"/>
<path d="M10 14H22V18H20V16H17V24H19V26H13V24H15V16H12V18H10V14Z" fill="#404040"/>
<circle cx="27.5" cy="4.5" r="2" fill="white" stroke="#404040"/>
</svg>
