<svg width="32" height="32" viewBox="0 0 32 32" fill="none" xmlns="http://www.w3.org/2000/svg">
<g id="big/ribbon_big_ico_page_column">
<g id="-g-&#235;&#139;&#168;">
<path id="Rectangle" d="M6 3.5H26C26.2761 3.5 26.5 3.72386 26.5 4V28C26.5 28.2761 26.2761 28.5 26 28.5H6C5.72386 28.5 5.5 28.2761 5.5 28V4C5.5 3.72386 5.72386 3.5 6 3.5Z" fill="white" stroke="#404040"/>
<path id="Combined Shape" fill-rule="evenodd" clip-rule="evenodd" d="M9.5 8C9.22386 8 9 8.22386 9 8.5C9 8.77614 9.22386 9 9.5 9H14.5C14.7761 9 15 8.77614 15 8.5C15 8.22386 14.7761 8 14.5 8H9.5ZM17.5 8C17.2239 8 17 8.22386 17 8.5C17 8.77614 17.2239 9 17.5 9H22.5C22.7761 9 23 8.77614 23 8.5C23 8.22386 22.7761 8 22.5 8H17.5ZM9 14.5C9 14.2239 9.22386 14 9.5 14H14.5C14.7761 14 15 14.2239 15 14.5C15 14.7761 14.7761 15 14.5 15H9.5C9.22386 15 9 14.7761 9 14.5ZM17.5 14C17.2239 14 17 14.2239 17 14.5C17 14.7761 17.2239 15 17.5 15H22.5C22.7761 15 23 14.7761 23 14.5C23 14.2239 22.7761 14 22.5 14H17.5ZM9 20.5C9 20.2239 9.22386 20 9.5 20H14.5C14.7761 20 15 20.2239 15 20.5C15 20.7761 14.7761 21 14.5 21H9.5C9.22386 21 9 20.7761 9 20.5ZM17.5 20C17.2239 20 17 20.2239 17 20.5C17 20.7761 17.2239 21 17.5 21H22.5C22.7761 21 23 20.7761 23 20.5C23 20.2239 22.7761 20 22.5 20H17.5ZM9 11.5C9 11.2239 9.22386 11 9.5 11H14.5C14.7761 11 15 11.2239 15 11.5C15 11.7761 14.7761 12 14.5 12H9.5C9.22386 12 9 11.7761 9 11.5ZM17.5 11C17.2239 11 17 11.2239 17 11.5C17 11.7761 17.2239 12 17.5 12H22.5C22.7761 12 23 11.7761 23 11.5C23 11.2239 22.7761 11 22.5 11H17.5ZM9 17.5C9 17.2239 9.22386 17 9.5 17H14.5C14.7761 17 15 17.2239 15 17.5C15 17.7761 14.7761 18 14.5 18H9.5C9.22386 18 9 17.7761 9 17.5ZM17.5 17C17.2239 17 17 17.2239 17 17.5C17 17.7761 17.2239 18 17.5 18H22.5C22.7761 18 23 17.7761 23 17.5C23 17.2239 22.7761 17 22.5 17H17.5ZM9 23.5C9 23.2239 9.22386 23 9.5 23H14.5C14.7761 23 15 23.2239 15 23.5C15 23.7761 14.7761 24 14.5 24H9.5C9.22386 24 9 23.7761 9 23.5ZM17.5 23C17.2239 23 17 23.2239 17 23.5C17 23.7761 17.2239 24 17.5 24H22.5C22.7761 24 23 23.7761 23 23.5C23 23.2239 22.7761 23 22.5 23H17.5Z" fill="#3D6EC9"/>
</g>
</g>
</svg>
