<svg width="32" height="33" viewBox="0 0 32 33" fill="none" xmlns="http://www.w3.org/2000/svg">
<path fill-rule="evenodd" clip-rule="evenodd" d="M20.1651 12.785C20.1651 15.59 18.5001 17.195 16.6251 17.195C15.8751 17.195 15.0201 16.82 14.3001 16.16H14.2551L14.1351 17H13.0401V5.06H14.4051V8.33L14.3601 9.8C15.0951 9.155 16.0101 8.645 16.9101 8.645C19.0251 8.645 20.1651 10.295 20.1651 12.785ZM7.25512 17.195C8.26012 17.195 9.17512 16.67 9.95512 16.025H10.0001L10.1201 17H11.2451V11.99C11.2451 9.98 10.4051 8.645 8.42512 8.645C7.12012 8.645 5.96512 9.23 5.21512 9.71L5.75512 10.655C6.40012 10.22 7.25512 9.785 8.20012 9.785C9.53512 9.785 9.88012 10.79 9.88012 11.84C6.41512 12.23 4.87012 13.115 4.87012 14.885C4.87012 16.355 5.89012 17.195 7.25512 17.195ZM7.64512 16.1C6.83512 16.1 6.20512 15.725 6.20512 14.795C6.20512 13.745 7.13512 13.07 9.88012 12.74V15.02C9.08512 15.725 8.44012 16.1 7.64512 16.1ZM16.4001 16.055C15.8601 16.055 15.1251 15.83 14.4051 15.2V10.925C15.1851 10.19 15.9051 9.8 16.5951 9.8C18.1401 9.8 18.7401 11.015 18.7401 12.815C18.7401 14.84 17.7501 16.055 16.4001 16.055ZM21.4951 12.935C21.4951 15.635 23.1601 17.195 25.3201 17.195C26.2951 17.195 27.2251 16.82 27.9451 16.16L27.3601 15.245C26.8501 15.71 26.1901 16.055 25.4401 16.055C23.9401 16.055 22.9201 14.81 22.9201 12.935C22.9201 11.06 24.0001 9.785 25.4701 9.785C26.1301 9.785 26.6251 10.085 27.1051 10.52L27.8101 9.605C27.2251 9.095 26.4901 8.645 25.4251 8.645C23.3401 8.645 21.4951 10.22 21.4951 12.935Z" fill="#404040"/>
<path d="M9 23.2535L14.7237 29.1152L23.53 20" stroke="#4F9D70" stroke-width="1.33" stroke-linecap="round" stroke-linejoin="round"/>
</svg>
