<svg width="32" height="32" viewBox="0 0 32 32" fill="none" xmlns="http://www.w3.org/2000/svg">
<path d="M25.0991 5.3098C23.3773 3.56894 20.5815 3.56065 18.8598 5.30151L13.3994 10.8226C12.6861 11.5438 12.2761 12.4557 12.1532 13.4007C12.0876 13.8732 12.0958 14.3623 12.1942 14.8266C12.2187 14.9509 12.2516 15.0753 12.2844 15.1996C12.3746 15.5229 12.5058 15.8379 12.6697 16.1364L12.6615 16.1446C12.7189 16.2524 12.7844 16.3519 12.8501 16.4514C13.0059 16.6918 13.1944 16.9156 13.4076 17.1311C14.2849 18.0264 15.449 18.4575 16.6215 18.4161L16.2526 17.1146C15.5885 17.0399 14.8588 16.7332 14.3505 16.2358C14.3423 16.2275 14.3258 16.211 14.3177 16.2027C14.2029 16.0866 14.1045 15.9706 14.0143 15.8462C13.9159 15.7136 13.834 15.5726 13.7601 15.4317C13.6208 15.1582 13.5224 14.8763 13.4732 14.5862C13.4485 14.4452 13.4322 14.3043 13.424 14.1634C13.3912 13.6991 13.4567 13.2266 13.6372 12.7955C13.7848 12.4142 14.0143 12.0577 14.3095 11.751L19.7781 6.22998C20.9914 5.00308 22.9674 5.00308 24.1808 6.22998C25.3941 7.45688 25.3941 9.45473 24.1808 10.6816L19.5484 15.3737L19.5648 15.4045C19.5572 15.3939 19.5521 15.3825 19.5444 15.3719L20.186 16.5765C20.1824 16.5668 20.1769 16.5581 20.1733 16.5483L20.188 16.5757L25.099 11.6101C26.8208 9.86923 26.8126 7.04238 25.0991 5.3098Z" fill="#404040"/>
<path d="M18.7206 16.2026C18.5402 15.8462 18.2861 15.5063 17.9827 15.2078C17.1055 14.3208 15.933 13.8732 14.777 13.9146L15.2116 15.2327C15.8839 15.3073 16.548 15.6058 17.0727 16.1363C17.3022 16.3684 17.4826 16.6254 17.6302 16.9156C17.8352 17.3052 17.9499 17.7362 17.9663 18.1839C17.9909 18.6481 17.9253 19.1372 17.7368 19.5683C17.5892 19.9414 17.3678 20.2812 17.0727 20.5797L11.604 26.109C10.3907 27.3359 8.42298 27.3359 7.20957 26.109C5.99615 24.8821 5.99615 22.8842 7.20957 21.6574L11.8501 16.9653C11.5713 16.5922 11.3581 16.1778 11.2106 15.755L6.2913 20.7289C4.56957 22.4698 4.56957 25.2966 6.2913 27.0375C8.01304 28.77 10.8006 28.77 12.5224 27.0375L17.9827 21.5081C18.6878 20.7952 19.106 19.9082 19.2289 18.9714C19.2945 18.4906 19.2863 18.0015 19.1961 17.5207C19.106 17.0648 18.9584 16.6171 18.7206 16.2026Z" fill="#404040"/>
</svg>
