<svg width="32" height="32" viewBox="0 0 32 32" fill="none" xmlns="http://www.w3.org/2000/svg">
<g clip-path="url(#clip0_0_16388)">
<mask id="mask0_0_16388" style="mask-type:alpha" maskUnits="userSpaceOnUse" x="0" y="0" width="32" height="32">
<path fill-rule="evenodd" clip-rule="evenodd" d="M20.5504 9.65144L19.9511 7.58747C19.9434 7.57121 19.9362 7.55627 19.9293 7.54254L18.96 7.3314L18.9088 7.31734C17.6388 6.96914 17 5.79868 17 4.7564C17 3.71413 17.6388 2.54367 18.9088 2.19547L18.96 2.18141L19.9609 1.96338L20.5173 0H0V32H32V14.1329L31.7053 14.199L31.3194 15.5661L31.3081 15.6011C31.2035 15.9255 31.0013 16.3683 30.591 16.7422C30.1378 17.1551 29.5694 17.3559 29 17.3559C28.4306 17.3559 27.8622 17.1551 27.409 16.7422C26.9987 16.3683 26.7965 15.9255 26.6919 15.6011L26.6806 15.5661L26.2947 14.199L25.8378 14.0966L25.7853 14.0818C24.5588 13.7359 24 12.6041 24 11.6692C24 11.5546 24.0084 11.4369 24.0254 11.3181C23.6985 11.4648 23.3487 11.5354 23 11.5354C22.4149 11.5354 21.8264 11.3364 21.3485 10.9131C20.9103 10.525 20.6841 10.0546 20.5622 9.68722L20.5504 9.65144ZM32 9.20556V0H25.4827L26.0391 1.96338L27.04 2.18141L27.0912 2.19547C28.3612 2.54367 29 3.71413 29 4.7564C29 5.17701 28.896 5.6185 28.6884 6.0184C28.8037 6.00385 28.925 5.99752 29.0525 6.00087L29.1247 6.00276L29.3824 6.02822L29.5039 6.05574C30.5693 6.29716 31.0447 7.17424 31.1966 7.48079L31.2818 7.65268L31.6905 9.13621L32 9.20556Z" fill="#D9D9D9"/>
</mask>
<g mask="url(#mask0_0_16388)">
<path d="M6 3.5H26C26.2761 3.5 26.5 3.72386 26.5 4V28C26.5 28.2761 26.2761 28.5 26 28.5H6C5.72386 28.5 5.5 28.2761 5.5 28V4C5.5 3.72386 5.72386 3.5 6 3.5Z" fill="white" stroke="#404040"/>
<path d="M13.5 6.5V12.5H8.5V6.5H13.5Z" fill="#E6E6E6" stroke="#B4B4B4"/>
<path d="M23.5 21.5V25.5H18.5V21.5H23.5Z" fill="#E6E6E6" stroke="#B4B4B4"/>
<path d="M23.5 15.5V18.5H8.5V15.5H23.5Z" fill="#E6E6E6" stroke="#B4B4B4"/>
<path d="M20.5 11C20.7761 11 21 11.2239 21 11.5C21 11.7761 20.7761 12 20.5 12H16.5C16.2239 12 16 11.7761 16 11.5C16 11.2239 16.2239 11 16.5 11H20.5ZM22.5 8C22.7761 8 23 8.22386 23 8.5C23 8.77614 22.7761 9 22.5 9H16.5C16.2239 9 16 8.77614 16 8.5C16 8.22386 16.2239 8 16.5 8H22.5Z" fill="#B4B4B4"/>
<path d="M12.5 24C12.7761 24 13 24.2239 13 24.5C13 24.7761 12.7761 25 12.5 25H8.5C8.22386 25 8 24.7761 8 24.5C8 24.2239 8.22386 24 8.5 24H12.5ZM14.5 21C14.7761 21 15 21.2239 15 21.5C15 21.7761 14.7761 22 14.5 22H8.5C8.22386 22 8 21.7761 8 21.5C8 21.2239 8.22386 21 8.5 21H14.5Z" fill="#B4B4B4"/>
</g>
<path fill-rule="evenodd" clip-rule="evenodd" d="M21.8323 6.89377L22.4606 9.0575C22.5662 9.37607 22.746 9.53535 23 9.53535C23.254 9.53535 23.4338 9.37607 23.5394 9.0575L24.1677 6.89377C24.4234 6.30764 24.7171 5.85065 25.3276 5.65741L26.5624 5.38844C26.8191 5.31805 27 5.05674 27 4.75631C27 4.45589 26.8191 4.19457 26.5624 4.12418L25.3276 3.85521C24.5966 3.638 24.3937 3.26686 24.1677 2.69506L23.5394 0.477968C23.3981 0.200648 23.2458 0.0440047 23.0825 0.00803914L23 0.000112797C22.8053 -0.00485744 22.6255 0.154428 22.4606 0.477968L21.8323 2.69506C21.6063 3.26686 21.4034 3.638 20.6724 3.85521L19.4376 4.12418C19.1809 4.19457 19 4.45589 19 4.75631C19 5.05674 19.1809 5.31805 19.4376 5.38844L20.6724 5.65741C21.2829 5.85065 21.5766 6.30764 21.8323 6.89377ZM28.1242 13.3181L28.5954 14.9872C28.6747 15.233 28.8095 15.3558 29 15.3558C29.1905 15.3558 29.3253 15.233 29.4046 14.9872L29.8758 13.3181C30.0675 12.8659 30.2878 12.5134 30.7457 12.3643L31.6718 12.1568C31.8643 12.1025 32 11.9009 32 11.6692C32 11.4374 31.8643 11.2358 31.6718 11.1815L30.7457 10.974C30.1974 10.8065 30.0453 10.5202 29.8758 10.079L29.4046 8.36872C29.2986 8.15479 29.1843 8.03395 29.0619 8.0062L29 8.00009C28.854 7.99625 28.7191 8.11913 28.5954 8.36872L28.1242 10.079C27.9547 10.5202 27.8026 10.8065 27.2543 10.974L26.3282 11.1815C26.1357 11.2358 26 11.4374 26 11.6692C26 11.9009 26.1357 12.1025 26.3282 12.1568L27.2543 12.3643C27.7122 12.5134 27.9325 12.8659 28.1242 13.3181Z" fill="#9D75EC"/>
</g>
<defs>
<clipPath id="clip0_0_16388">
<rect width="32" height="32" fill="white"/>
</clipPath>
</defs>
</svg>
