<svg width="32" height="32" viewBox="0 0 32 32" fill="none" xmlns="http://www.w3.org/2000/svg">
<g clip-path="url(#clip0_769_68414)">
<rect x="3" y="5" width="26" height="22" rx="1" fill="#CAE0FF"/>
<mask id="mask0_769_68414" style="mask-type:luminance" maskUnits="userSpaceOnUse" x="3" y="5" width="26" height="22">
<rect x="3" y="5" width="26" height="22" rx="1" fill="white"/>
</mask>
<g mask="url(#mask0_769_68414)">
</g>
<path fill-rule="evenodd" clip-rule="evenodd" d="M30 22.7515C32.8915 22.0139 35 19.718 35 17C35 13.6863 31.866 11 28 11C24.9931 11 22.429 12.625 21.4379 14.9064C20.9181 14.6984 20.3468 14.5835 19.7471 14.5835C17.9902 14.5835 16.4764 15.5704 15.7892 16.9913C15.0687 16.3778 14.0848 16 13 16C11.7564 16 10.6453 16.4966 9.91166 17.2755C8.85574 16.2327 7.37037 15.5835 5.72505 15.5835C2.52058 15.5835 -0.0771484 18.0459 -0.0771484 21.0835C-0.0771484 23.1874 1.1691 25.0154 3 25.9404V27H30V22.7515Z" fill="white"/>
<mask id="path-6-inside-1_769_68414" fill="white">
<path fill-rule="evenodd" clip-rule="evenodd" d="M37.9995 25.2612H37.9047L33.3151 21.2772C33.0732 21.0671 32.7127 21.0697 32.4738 21.2833L29.9266 23.561L26.0517 18.7313C25.8078 18.4273 25.3503 18.412 25.0867 18.699L20.3214 23.8865L17.3156 21.2773C17.0736 21.0672 16.7132 21.0699 16.4743 21.2835L13.927 23.5611L10.0522 18.7314C9.80826 18.4274 9.35083 18.4121 9.08716 18.6992L3.05914 25.2614H3.00049V30H22V29.9999H37.9995V25.2612Z"/>
</mask>
<path fill-rule="evenodd" clip-rule="evenodd" d="M37.9995 25.2612H37.9047L33.3151 21.2772C33.0732 21.0671 32.7127 21.0697 32.4738 21.2833L29.9266 23.561L26.0517 18.7313C25.8078 18.4273 25.3503 18.412 25.0867 18.699L20.3214 23.8865L17.3156 21.2773C17.0736 21.0672 16.7132 21.0699 16.4743 21.2835L13.927 23.5611L10.0522 18.7314C9.80826 18.4274 9.35083 18.4121 9.08716 18.6992L3.05914 25.2614H3.00049V30H22V29.9999H37.9995V25.2612Z" fill="#A3DEC6"/>
<path d="M37.9047 25.2612L37.2491 26.0164L37.5312 26.2612H37.9047V25.2612ZM37.9995 25.2612H38.9995V24.2612H37.9995V25.2612ZM33.3151 21.2772L32.6596 22.0323V22.0323L33.3151 21.2772ZM32.4738 21.2833L33.1404 22.0288V22.0288L32.4738 21.2833ZM29.9266 23.561L29.1466 24.1868L29.8067 25.0096L30.5931 24.3065L29.9266 23.561ZM26.0517 18.7313L26.8317 18.1055V18.1055L26.0517 18.7313ZM25.0867 18.699L24.3502 18.0225L24.3502 18.0225L25.0867 18.699ZM20.3214 23.8865L19.6659 24.6417L20.4001 25.2791L21.0579 24.563L20.3214 23.8865ZM17.3156 21.2773L16.6601 22.0324V22.0324L17.3156 21.2773ZM16.4743 21.2835L17.1409 22.0289L17.1409 22.0289L16.4743 21.2835ZM13.927 23.5611L13.147 24.1869L13.8072 25.0098L14.5936 24.3066L13.927 23.5611ZM10.0522 18.7314L10.8322 18.1056L10.8322 18.1056L10.0522 18.7314ZM9.08716 18.6992L8.35071 18.0227V18.0227L9.08716 18.6992ZM3.05914 25.2614V26.2614H3.49841L3.79558 25.9378L3.05914 25.2614ZM3.00049 25.2614V24.2614H2.00049V25.2614H3.00049ZM3.00049 30H2.00049V31H3.00049V30ZM22 30V31H23V30H22ZM22 29.9999V28.9999H21V29.9999H22ZM37.9995 29.9999V30.9999H38.9995V29.9999H37.9995ZM37.9047 26.2612H37.9995V24.2612H37.9047V26.2612ZM32.6596 22.0323L37.2491 26.0164L38.5602 24.5061L33.9707 20.522L32.6596 22.0323ZM33.1404 22.0288C33.0039 22.1509 32.7979 22.1524 32.6596 22.0323L33.9707 20.522C33.3484 19.9818 32.4215 19.9886 31.8073 20.5379L33.1404 22.0288ZM30.5931 24.3065L33.1404 22.0288L31.8073 20.5379L29.26 22.8156L30.5931 24.3065ZM25.2717 19.3571L29.1466 24.1868L30.7065 22.9352L26.8317 18.1055L25.2717 19.3571ZM25.8231 19.3755C25.6724 19.5396 25.4111 19.5308 25.2717 19.3571L26.8317 18.1055C26.2045 17.3238 25.0282 17.2844 24.3502 18.0225L25.8231 19.3755ZM21.0579 24.563L25.8231 19.3755L24.3502 18.0225L19.585 23.2101L21.0579 24.563ZM16.6601 22.0324L19.6659 24.6417L20.977 23.1314L17.9712 20.5221L16.6601 22.0324ZM17.1409 22.0289C17.0044 22.151 16.7984 22.1525 16.6601 22.0324L17.9712 20.5221C17.3489 19.9819 16.422 19.9887 15.8077 20.538L17.1409 22.0289ZM14.5936 24.3066L17.1409 22.0289L15.8077 20.538L13.2605 22.8157L14.5936 24.3066ZM9.27217 19.3572L13.147 24.1869L14.707 22.9354L10.8322 18.1056L9.27217 19.3572ZM9.8236 19.3757C9.67293 19.5397 9.41155 19.5309 9.27217 19.3572L10.8322 18.1056C10.205 17.3239 9.02873 17.2846 8.35071 18.0227L9.8236 19.3757ZM3.79558 25.9378L9.8236 19.3757L8.35071 18.0227L2.32269 24.5849L3.79558 25.9378ZM3.00049 26.2614H3.05914V24.2614H3.00049V26.2614ZM4.00049 30V25.2614H2.00049V30H4.00049ZM22 29H3.00049V31H22V29ZM21 29.9999V30H23V29.9999H21ZM37.9995 28.9999H22V30.9999H37.9995V28.9999ZM36.9995 25.2612V29.9999H38.9995V25.2612H36.9995Z" fill="#00A661" mask="url(#path-6-inside-1_769_68414)"/>
<path fill-rule="evenodd" clip-rule="evenodd" d="M29 5H3V14.6364C3 14.2849 3.28491 14 3.63636 14H18.3636C18.7151 14 19 14.2849 19 14.6364V26.3636C19 26.7151 18.7151 27 18.3636 27H29V5ZM3.63636 27C3.28491 27 3 26.7151 3 26.3636V27H3.63636Z" fill="white" fill-opacity="0.5"/>
<path d="M21.5 7.5H26.5V12.5" stroke="#3D6EC9" stroke-linecap="round" stroke-linejoin="round"/>
<path d="M26.5 7.5L20 13" stroke="#3D6EC9" stroke-linecap="round" stroke-linejoin="round"/>
</g>
<rect x="3.5" y="5.5" width="25" height="21" rx="0.5" stroke="#989898"/>
<path d="M3.63672 14.5H18.3633C18.4386 14.5 18.5 14.5614 18.5 14.6367V26.3633C18.5 26.4386 18.4386 26.5 18.3633 26.5H3.63672C3.56141 26.5 3.5 26.4386 3.5 26.3633V14.6367C3.5 14.5614 3.56141 14.5 3.63672 14.5Z" stroke="#404040"/>
<defs>
<clipPath id="clip0_769_68414">
<rect x="3" y="5" width="26" height="22" rx="1" fill="white"/>
</clipPath>
</defs>
</svg>
