<svg width="32" height="32" viewBox="0 0 32 32" fill="none" xmlns="http://www.w3.org/2000/svg">
<rect x="3" y="5" width="26" height="22" rx="1" fill="#CAE0FF"/>
<mask id="mask0_926_112273" style="mask-type:luminance" maskUnits="userSpaceOnUse" x="3" y="5" width="26" height="22">
<rect x="3" y="5" width="26" height="22" rx="1" fill="white"/>
</mask>
<g mask="url(#mask0_926_112273)">
<path opacity="0.2" d="M11.29 7.92071C11.6923 7.54937 12.318 7.57008 12.6943 7.96758L17.9531 13.5272L21.415 10.9012C21.7681 10.6334 22.2554 10.6296 22.6123 10.8924L28.8701 15.4998H29V20.9998H3V15.4998H3.08105L11.29 7.92071Z" fill="#00A661"/>
<path opacity="0.4" d="M11.29 10.9207C11.6923 10.5494 12.318 10.5701 12.6943 10.9676L17.9531 16.5272L21.415 13.9012C21.7681 13.6334 22.2554 13.6296 22.6123 13.8924L28.8701 18.4998H29V23.9998H3V18.4998H3.08105L11.29 10.9207Z" fill="#00A661"/>
<mask id="path-5-inside-1_926_112273" fill="white">
<path d="M11.29 13.9207C11.6923 13.5494 12.318 13.5701 12.6943 13.9676L17.9531 19.5272L21.415 16.9012C21.7681 16.6334 22.2554 16.6296 22.6123 16.8924L28.8701 21.4998H29V26.9998H3V21.4998H3.08105L11.29 13.9207Z"/>
</mask>
<path d="M11.29 13.9207C11.6923 13.5494 12.318 13.5701 12.6943 13.9676L17.9531 19.5272L21.415 16.9012C21.7681 16.6334 22.2554 16.6296 22.6123 16.8924L28.8701 21.4998H29V26.9998H3V21.4998H3.08105L11.29 13.9207Z" fill="#A3DEC6"/>
<path d="M11.29 13.9207L10.6117 13.186L10.6117 13.186L11.29 13.9207ZM12.6943 13.9676L13.4208 13.2804L13.4205 13.2801L12.6943 13.9676ZM17.9531 19.5272L17.2266 20.2143L17.8429 20.8659L18.5575 20.3239L17.9531 19.5272ZM21.415 16.9012L20.8108 16.1044L20.8107 16.1045L21.415 16.9012ZM22.6123 16.8924L23.2052 16.0871L23.2052 16.0871L22.6123 16.8924ZM28.8701 21.4998L28.2772 22.3051L28.5417 22.4998H28.8701V21.4998ZM29 21.4998H30V20.4998H29V21.4998ZM29 26.9998V27.9998H30V26.9998H29ZM3 26.9998H2V27.9998H3V26.9998ZM3 21.4998V20.4998H2V21.4998H3ZM3.08105 21.4998V22.4998H3.4721L3.75941 22.2345L3.08105 21.4998ZM11.29 13.9207L11.9684 14.6555L11.9681 14.6551L12.6943 13.9676L13.4205 13.2801C12.6674 12.4846 11.4156 12.4437 10.6117 13.186L11.29 13.9207ZM12.6943 13.9676L11.9679 14.6548L17.2266 20.2143L17.9531 19.5272L18.6796 18.84L13.4208 13.2804L12.6943 13.9676ZM17.9531 19.5272L18.5575 20.3239L22.0194 17.6979L21.415 16.9012L20.8107 16.1045L17.3488 18.7304L17.9531 19.5272ZM21.415 16.9012L22.0193 17.698L22.0194 17.6977L22.6123 16.8924L23.2052 16.0871C22.491 15.5613 21.5165 15.5692 20.8108 16.1044L21.415 16.9012ZM22.6123 16.8924L22.0194 17.6977L28.2772 22.3051L28.8701 21.4998L29.463 20.6945L23.2052 16.0871L22.6123 16.8924ZM28.8701 21.4998V22.4998H29V21.4998V20.4998H28.8701V21.4998ZM29 21.4998H28V26.9998H29H30V21.4998H29ZM29 26.9998V25.9998H3V26.9998V27.9998H29V26.9998ZM3 26.9998H4V21.4998H3H2V26.9998H3ZM3 21.4998V22.4998H3.08105V21.4998V20.4998H3V21.4998ZM3.08105 21.4998L3.75941 22.2345L11.9684 14.6554L11.29 13.9207L10.6117 13.186L2.4027 20.7651L3.08105 21.4998Z" fill="#00A661" mask="url(#path-5-inside-1_926_112273)"/>
<rect x="3.5" y="5.5" width="25" height="21" rx="0.5" stroke="#404040"/>
</g>
</svg>
