<svg width="32" height="32" viewBox="0 0 32 32" fill="none" xmlns="http://www.w3.org/2000/svg">
<mask id="mask0_0_27948" style="mask-type:luminance" maskUnits="userSpaceOnUse" x="2" y="5" width="16" height="15">
<path d="M17 5L17.0007 12.0129C12.49 12.2464 8.8115 15.6263 8.11775 20L2 20V5H17Z" fill="white"/>
</mask>
<g mask="url(#mask0_0_27948)">
<path d="M16.5 5.5H2.5V19.5H16.5V5.5Z" fill="white" stroke="#5A667D"/>
</g>
<mask id="mask1_0_27948" style="mask-type:luminance" maskUnits="userSpaceOnUse" x="18" y="2" width="12" height="14">
<path d="M22 2L30 15L24.4285 15.0002C22.8018 13.267 20.5322 12.1443 18.0003 12.0129L18 8.499L22 2Z" fill="white"/>
</mask>
<g mask="url(#mask1_0_27948)">
<path d="M22.1052 3L29.2104 14.546H15L22.1052 3Z" fill="white" stroke="#0FAB6A"/>
</g>
<path d="M17.5 29.5C21.9183 29.5 25.5 25.9183 25.5 21.5C25.5 17.0817 21.9183 13.5 17.5 13.5C13.0817 13.5 9.5 17.0817 9.5 21.5C9.5 25.9183 13.0817 29.5 17.5 29.5Z" fill="white" stroke="#3D6EC9"/>
</svg>
