<svg width="32" height="32" viewBox="0 0 32 32" fill="none" xmlns="http://www.w3.org/2000/svg">
<g id="big/ribbon_big_ico_setpage">
<g id="element/big/page">
<g id="page" clip-path="url(#clip0_0_27900)">
<g id="Combined Shape">
<mask id="path-1-inside-1_0_27900" fill="white">
<path fill-rule="evenodd" clip-rule="evenodd" d="M6 3C5.44772 3 5 3.44772 5 4V28C5 28.5523 5.44772 29 6 29H21L27 23V4C27 3.44772 26.5523 3 26 3H6Z"/>
</mask>
<path fill-rule="evenodd" clip-rule="evenodd" d="M6 3C5.44772 3 5 3.44772 5 4V28C5 28.5523 5.44772 29 6 29H21L27 23V4C27 3.44772 26.5523 3 26 3H6Z" fill="white"/>
<path d="M21 29V30H21.4142L21.7071 29.7071L21 29ZM27 23L27.7071 23.7071L28 23.4142V23H27ZM6 4V4V2C4.89543 2 4 2.89543 4 4H6ZM6 28V4H4V28H6ZM6 28H6H4C4 29.1046 4.89543 30 6 30V28ZM21 28H6V30H21V28ZM21.7071 29.7071L27.7071 23.7071L26.2929 22.2929L20.2929 28.2929L21.7071 29.7071ZM26 4V23H28V4H26ZM26 4H28C28 2.89543 27.1046 2 26 2V4ZM6 4H26V2H6V4Z" fill="#404040" mask="url(#path-1-inside-1_0_27900)"/>
</g>
<g id="Combined Shape_2">
<mask id="path-3-inside-2_0_27900" fill="white">
<path fill-rule="evenodd" clip-rule="evenodd" d="M27 22H21C20.4477 22 20 22.4477 20 23V29H21L27 23V22Z"/>
</mask>
<path fill-rule="evenodd" clip-rule="evenodd" d="M27 22H21C20.4477 22 20 22.4477 20 23V29H21L27 23V22Z" fill="white"/>
<path d="M27 22H28V21H27V22ZM20 29H19V30H20V29ZM21 29V30H21.4142L21.7071 29.7071L21 29ZM27 23L27.7071 23.7071L28 23.4142V23H27ZM21 23H27V21H21V23ZM21 23V23V21C19.8954 21 19 21.8954 19 23H21ZM21 29V23H19V29H21ZM21 28H20V30H21V28ZM21.7071 29.7071L27.7071 23.7071L26.2929 22.2929L20.2929 28.2929L21.7071 29.7071ZM26 22V23H28V22H26Z" fill="#404040" mask="url(#path-3-inside-2_0_27900)"/>
</g>
</g>
</g>
<g id="Combined Shape_3">
<path fill-rule="evenodd" clip-rule="evenodd" d="M17.8645 10.543C18.0256 10.4002 18.2599 10.3764 18.4463 10.4841L19.5541 11.1237C19.7405 11.2313 19.8371 11.4461 19.794 11.6569L19.3522 13.8158C19.4639 13.9875 19.5618 14.167 19.6454 14.3524L21.6096 15.0023C21.8152 15.0703 21.9536 15.2629 21.9525 15.4794L21.9478 16.4694C21.9467 16.6827 21.8105 16.8719 21.6085 16.9405L19.6668 17.5997C19.6075 17.7352 19.54 17.8689 19.4643 18C19.3886 18.1311 19.3066 18.2564 19.2189 18.3755L19.6188 20.3867C19.6604 20.5959 19.5647 20.8085 19.3805 20.916L18.5255 21.4152C18.3385 21.5243 18.1026 21.5008 17.9409 21.3568L16.396 19.9807C16.1936 20.001 15.9892 20.0059 15.7846 19.9951L14.1359 21.4571C13.9748 21.5999 13.7405 21.6236 13.5541 21.516L12.4463 20.8764C12.2599 20.7688 12.1633 20.554 12.2064 20.3431L12.6482 18.1843C12.5365 18.0125 12.4386 17.833 12.355 17.6476L10.3908 16.9977C10.1852 16.9297 10.0468 16.7371 10.0479 16.5206L10.0527 15.5306C10.0537 15.3173 10.1899 15.1281 10.3919 15.0596L12.3336 14.4003C12.393 14.2648 12.4604 14.1311 12.5361 14C12.6118 13.8689 12.6938 13.7437 12.7815 13.6245L12.3816 11.6133C12.34 11.4041 12.4357 11.1915 12.6199 11.084L13.4749 10.5848C13.6619 10.4757 13.8979 10.4993 14.0595 10.6433L15.6045 12.0193C15.8068 11.999 16.0112 11.9941 16.2158 12.005L17.8645 10.543ZM15.2002 17.3857C15.9655 17.8275 16.944 17.5653 17.3858 16.8C17.8277 16.0347 17.5655 15.0562 16.8002 14.6144C16.0349 14.1725 15.0564 14.4347 14.6146 15.2C14.1727 15.9653 14.4349 16.9438 15.2002 17.3857Z" fill="#ABCEFF"/>
<path d="M18.4463 10.4841L18.6963 10.051L18.4463 10.4841ZM17.8645 10.543L17.5328 10.1689L17.5328 10.1689L17.8645 10.543ZM19.5541 11.1237L19.3041 11.5567L19.5541 11.1237ZM19.794 11.6569L20.2838 11.7572L20.2838 11.7572L19.794 11.6569ZM19.3522 13.8158L18.8624 13.7155L18.8212 13.9165L18.9331 14.0884L19.3522 13.8158ZM19.6454 14.3524L19.1897 14.558L19.2799 14.7581L19.4884 14.8271L19.6454 14.3524ZM21.6096 15.0023L21.4525 15.477L21.6096 15.0023ZM21.9525 15.4794L21.4525 15.477L21.4525 15.477L21.9525 15.4794ZM21.9478 16.4694L21.4478 16.467L21.9478 16.4694ZM21.6085 16.9405L21.4478 16.467L21.6085 16.9405ZM19.6668 17.5997L19.506 17.1263L19.2972 17.1972L19.2088 17.3992L19.6668 17.5997ZM19.2189 18.3755L18.8162 18.0791L18.6855 18.2567L18.7285 18.473L19.2189 18.3755ZM19.6188 20.3867L19.1284 20.4842L19.1284 20.4842L19.6188 20.3867ZM19.3805 20.916L19.6326 21.3478L19.6326 21.3478L19.3805 20.916ZM18.5255 21.4152L18.7776 21.847L18.7776 21.847L18.5255 21.4152ZM17.9409 21.3568L17.6083 21.7301L17.6083 21.7301L17.9409 21.3568ZM16.396 19.9807L16.7285 19.6073L16.5646 19.4613L16.3461 19.4832L16.396 19.9807ZM15.7846 19.9951L15.8111 19.4958L15.6063 19.4849L15.4529 19.621L15.7846 19.9951ZM14.1359 21.4571L14.4676 21.8312L14.1359 21.4571ZM13.5541 21.516L13.3041 21.949L13.5541 21.516ZM12.4463 20.8764L12.6963 20.4433L12.4463 20.8764ZM12.2064 20.3431L12.6963 20.4433L12.2064 20.3431ZM12.6482 18.1843L13.1381 18.2845L13.1792 18.0836L13.0673 17.9116L12.6482 18.1843ZM12.355 17.6476L12.8108 17.4421L12.7205 17.2419L12.512 17.1729L12.355 17.6476ZM10.3908 16.9977L10.2337 17.4724L10.2337 17.4724L10.3908 16.9977ZM10.0479 16.5206L10.5479 16.523L10.5479 16.523L10.0479 16.5206ZM10.0527 15.5306L10.5526 15.533L10.5526 15.533L10.0527 15.5306ZM10.3919 15.0596L10.2312 14.5861L10.2312 14.5861L10.3919 15.0596ZM12.3336 14.4003L12.4944 14.8738L12.7032 14.8029L12.7917 14.6008L12.3336 14.4003ZM12.7815 13.6245L13.1842 13.9209L13.315 13.7433L13.2719 13.527L12.7815 13.6245ZM12.3816 11.6133L12.872 11.5158L12.872 11.5158L12.3816 11.6133ZM12.6199 11.084L12.3678 10.6522L12.3678 10.6522L12.6199 11.084ZM13.4749 10.5848L13.2228 10.153L13.2228 10.153L13.4749 10.5848ZM14.0595 10.6433L13.727 11.0166L13.727 11.0166L14.0595 10.6433ZM15.6045 12.0193L15.2719 12.3927L15.4359 12.5388L15.6543 12.5168L15.6045 12.0193ZM16.2158 12.005L16.1893 12.5043L16.3941 12.5152L16.5476 12.3791L16.2158 12.005ZM18.6963 10.051C18.3235 9.83583 17.8549 9.88329 17.5328 10.1689L18.1963 10.9171L18.1963 10.9171L18.6963 10.051ZM19.8041 10.6907L18.6963 10.051L18.1963 10.9171L19.3041 11.5567L19.8041 10.6907ZM20.2838 11.7572C20.3701 11.3355 20.1769 10.9059 19.8041 10.6907L19.3041 11.5567L19.3041 11.5567L20.2838 11.7572ZM19.8421 13.916L20.2838 11.7572L19.3041 11.5567L18.8624 13.7155L19.8421 13.916ZM20.1012 14.1469C20.0072 13.9383 19.8971 13.7364 19.7713 13.5431L18.9331 14.0884C19.0308 14.2386 19.1165 14.3957 19.1897 14.558L20.1012 14.1469ZM21.7667 14.5276L19.8025 13.8777L19.4884 14.8271L21.4525 15.477L21.7667 14.5276ZM22.4525 15.4818C22.4546 15.0488 22.1778 14.6637 21.7667 14.5276L21.4525 15.477L21.4525 15.477L22.4525 15.4818ZM22.4478 16.4719L22.4525 15.4818L21.4525 15.477L21.4478 16.467L22.4478 16.4719ZM21.7692 17.4139C22.1732 17.2768 22.4457 16.8985 22.4478 16.4719L21.4478 16.467L21.4478 16.467L21.7692 17.4139ZM19.8275 18.0732L21.7692 17.4139L21.4478 16.467L19.506 17.1263L19.8275 18.0732ZM19.8973 18.25C19.9823 18.1028 20.0581 17.9527 20.1248 17.8002L19.2088 17.3992C19.1568 17.5178 19.0977 17.6349 19.0313 17.75L19.8973 18.25ZM19.6215 18.6719C19.7202 18.5379 19.8123 18.3972 19.8973 18.25L19.0313 17.75C18.9649 17.8651 18.893 17.9748 18.8162 18.0791L19.6215 18.6719ZM20.1092 20.2892L19.7093 18.278L18.7285 18.473L19.1284 20.4842L20.1092 20.2892ZM19.6326 21.3478C20.001 21.1328 20.1924 20.7076 20.1092 20.2892L19.1284 20.4842L19.1284 20.4842L19.6326 21.3478ZM18.7776 21.847L19.6326 21.3478L19.1284 20.4842L18.2734 20.9834L18.7776 21.847ZM17.6083 21.7301C17.9317 22.0181 18.4037 22.0653 18.7776 21.847L18.2734 20.9834L18.2734 20.9834L17.6083 21.7301ZM16.0634 20.3541L17.6083 21.7301L18.2734 20.9834L16.7285 19.6073L16.0634 20.3541ZM15.758 20.4944C15.9883 20.5066 16.2182 20.501 16.4458 20.4782L16.3461 19.4832C16.1689 19.501 15.9901 19.5053 15.8111 19.4958L15.758 20.4944ZM14.4676 21.8312L16.1163 20.3692L15.4529 19.621L13.8041 21.083L14.4676 21.8312ZM13.3041 21.949C13.6769 22.1642 14.1456 22.1167 14.4676 21.8312L13.8041 21.083L13.8041 21.083L13.3041 21.949ZM12.1963 21.3094L13.3041 21.949L13.8041 21.083L12.6963 20.4433L12.1963 21.3094ZM11.7166 20.2429C11.6303 20.6646 11.8235 21.0942 12.1963 21.3094L12.6963 20.4433L12.6963 20.4433L11.7166 20.2429ZM12.1584 18.084L11.7166 20.2429L12.6963 20.4433L13.1381 18.2845L12.1584 18.084ZM11.8992 17.8532C11.9932 18.0617 12.1033 18.2636 12.2291 18.4569L13.0673 17.9116C12.9696 17.7614 12.884 17.6044 12.8108 17.4421L11.8992 17.8532ZM10.2337 17.4724L12.1979 18.1223L12.512 17.1729L10.5479 16.523L10.2337 17.4724ZM9.54788 16.5182C9.54578 16.9512 9.82263 17.3364 10.2337 17.4724L10.5479 16.523L10.5479 16.523L9.54788 16.5182ZM9.55266 15.5282L9.54788 16.5182L10.5479 16.523L10.5526 15.533L9.55266 15.5282ZM10.2312 14.5861C9.82719 14.7232 9.55472 15.1016 9.55266 15.5282L10.5526 15.533L10.5526 15.533L10.2312 14.5861ZM12.1729 13.9269L10.2312 14.5861L10.5526 15.533L12.4944 14.8738L12.1729 13.9269ZM12.1031 13.75C12.0181 13.8972 11.9423 14.0474 11.8756 14.1998L12.7917 14.6008C12.8436 14.4822 12.9027 14.3651 12.9691 14.25L12.1031 13.75ZM12.3789 13.3281C12.2802 13.4621 12.1881 13.6028 12.1031 13.75L12.9691 14.25C13.0356 14.1349 13.1074 14.0252 13.1842 13.9209L12.3789 13.3281ZM11.8912 11.7108L12.2911 13.722L13.2719 13.527L12.872 11.5158L11.8912 11.7108ZM12.3678 10.6522C11.9994 10.8673 11.808 11.2924 11.8912 11.7108L12.872 11.5158L12.872 11.5158L12.3678 10.6522ZM13.2228 10.153L12.3678 10.6522L12.872 11.5158L13.727 11.0166L13.2228 10.153ZM14.3921 10.2699C14.0687 9.9819 13.5968 9.93473 13.2228 10.153L13.727 11.0166L13.727 11.0166L14.3921 10.2699ZM15.937 11.646L14.3921 10.2699L13.727 11.0166L15.2719 12.3927L15.937 11.646ZM16.2424 11.5057C16.0121 11.4934 15.7822 11.499 15.5546 11.5218L15.6543 12.5168C15.8315 12.4991 16.0103 12.4948 16.1893 12.5043L16.2424 11.5057ZM17.5328 10.1689L15.8841 11.6309L16.5476 12.3791L18.1963 10.9171L17.5328 10.1689ZM16.9528 16.55C16.6491 17.0761 15.9763 17.2564 15.4502 16.9526L14.9502 17.8187C15.9546 18.3986 17.239 18.0544 17.8189 17.05L16.9528 16.55ZM16.5502 15.0474C17.0763 15.3511 17.2566 16.0239 16.9528 16.55L17.8189 17.05C18.3988 16.0456 18.0546 14.7613 17.0502 14.1814L16.5502 15.0474ZM15.0476 15.45C15.3513 14.9239 16.0241 14.7436 16.5502 15.0474L17.0502 14.1814C16.0458 13.6015 14.7615 13.9456 14.1816 14.95L15.0476 15.45ZM15.4502 16.9526C14.9241 16.6489 14.7438 15.9761 15.0476 15.45L14.1816 14.95C13.6017 15.9544 13.9458 17.2388 14.9502 17.8187L15.4502 16.9526Z" fill="#3D6EC9"/>
</g>
</g>
<defs>
<clipPath id="clip0_0_27900">
<rect width="22" height="26" fill="white" transform="translate(5 3)"/>
</clipPath>
</defs>
</svg>
