<svg width="32" height="32" viewBox="0 0 32 32" fill="none" xmlns="http://www.w3.org/2000/svg">
<g id="big/ribbon_big_ico_linebreak">
<g id="-g-&#237;&#133;&#141;&#236;&#138;&#164;&#237;&#138;&#184; &#236;&#164;&#132;&#235;&#176;&#148;&#234;&#191;&#136; copy">
<g id="Group">
<path id="Combined Shape" fill-rule="evenodd" clip-rule="evenodd" d="M4 5.5C4 5.22386 4.22386 5 4.5 5H27.5C27.7761 5 28 5.22386 28 5.5C28 5.77614 27.7761 6 27.5 6H4.5C4.22386 6 4 5.77614 4 5.5ZM21.5 9C21.2239 9 21 9.22386 21 9.5C21 9.77614 21.2239 10 21.5 10H27.5C27.7761 10 28 9.77614 28 9.5C28 9.22386 27.7761 9 27.5 9H21.5ZM4 21.5C4 21.2239 4.22386 21 4.5 21H27.5C27.7761 21 28 21.2239 28 21.5C28 21.7761 27.7761 22 27.5 22H4.5C4.22386 22 4 21.7761 4 21.5ZM4 25.5C4 25.2239 4.22386 25 4.5 25H27.5C27.7761 25 28 25.2239 28 25.5C28 25.7761 27.7761 26 27.5 26H4.5C4.22386 26 4 25.7761 4 25.5ZM4.5 9C4.22386 9 4 9.22386 4 9.5C4 9.77614 4.22386 10 4.5 10H10.5C10.7761 10 11 9.77614 11 9.5C11 9.22386 10.7761 9 10.5 9H4.5ZM24 13.5C24 13.2239 24.2239 13 24.5 13H27.5C27.7761 13 28 13.2239 28 13.5C28 13.7761 27.7761 14 27.5 14H24.5C24.2239 14 24 13.7761 24 13.5ZM4.5 13C4.22386 13 4 13.2239 4 13.5C4 13.7761 4.22386 14 4.5 14H7.5C7.77614 14 8 13.7761 8 13.5C8 13.2239 7.77614 13 7.5 13H4.5ZM25 17.5C25 17.2239 25.2239 17 25.5 17H27.5C27.7761 17 28 17.2239 28 17.5C28 17.7761 27.7761 18 27.5 18H25.5C25.2239 18 25 17.7761 25 17.5ZM4.5 17C4.22386 17 4 17.2239 4 17.5C4 17.7761 4.22386 18 4.5 18H6.5C6.77614 18 7 17.7761 7 17.5C7 17.2239 6.77614 17 6.5 17H4.5Z" fill="#3D6EC9"/>
</g>
<path id="Oval 2 Copy" fill-rule="evenodd" clip-rule="evenodd" d="M23.5 18C23.5 13.8579 20.1421 10.5 16 10.5C11.8579 10.5 8.5 13.8579 8.5 18H10.5C10.5 14.9624 12.9624 12.5 16 12.5C19.0376 12.5 21.5 14.9624 21.5 18H23.5Z" fill="#404040"/>
</g>
</g>
</svg>
