<svg width="32" height="32" viewBox="0 0 32 32" fill="none" xmlns="http://www.w3.org/2000/svg">
<mask id="mask0_0_20799" style="mask-type:luminance" maskUnits="userSpaceOnUse" x="5" y="3" width="22" height="26">
<path fill-rule="evenodd" clip-rule="evenodd" d="M6 3C5.44772 3 5 3.44772 5 4V28C5 28.5523 5.44772 29 6 29H16V21C16 19.8954 16.8954 19 18 19V18C18 15.7909 19.7909 14 22 14H26C26.3453 14 26.6804 14.0438 27 14.126V4C27 3.44772 26.5523 3 26 3H6Z" fill="white"/>
</mask>
<g mask="url(#mask0_0_20799)">
<rect x="5.5" y="3.5" width="21" height="25" fill="white" stroke="#404040"/>
<path fill-rule="evenodd" clip-rule="evenodd" d="M9 9.5C9 9.22386 9.22386 9 9.5 9H22.5C22.7761 9 23 9.22386 23 9.5C23 9.77614 22.7761 10 22.5 10H9.5C9.22386 10 9 9.77614 9 9.5ZM9.5 12C9.22386 12 9 12.2239 9 12.5C9 12.7761 9.22386 13 9.5 13H22.5C22.7761 13 23 12.7761 23 12.5C23 12.2239 22.7761 12 22.5 12H9.5ZM9.5 18C9.22386 18 9 18.2239 9 18.5C9 18.7761 9.22386 19 9.5 19H16.5C16.7761 19 17 18.7761 17 18.5C17 18.2239 16.7761 18 16.5 18H9.5ZM9.5 15C9.22386 15 9 15.2239 9 15.5C9 15.7761 9.22386 16 9.5 16H18.5C18.7761 16 19 15.7761 19 15.5C19 15.2239 18.7761 15 18.5 15H9.5Z" fill="#B4B4B4"/>
</g>
<path fill-rule="evenodd" clip-rule="evenodd" d="M25 16H23C21.3431 16 20 17.3431 20 19V22C20 23.6569 21.3431 25 23 25H25C26.6569 25 28 23.6569 28 22V19C28 17.3431 26.6569 16 25 16ZM26.4142 23.4142C26.7761 23.0523 27 22.5523 27 22V19C27 18.4477 26.7761 17.9477 26.4142 17.5858C26.0523 17.2239 25.5523 17 25 17H23C22.4477 17 21.9477 17.2239 21.5858 17.5858C21.2239 17.9477 21 18.4477 21 19V22C21 22.5523 21.2239 23.0523 21.5858 23.4142C21.9477 23.7761 22.4477 24 23 24H25C25.5523 24 26.0523 23.7761 26.4142 23.4142Z" fill="#3D6EC9"/>
<path d="M19 21.5H29C29.2761 21.5 29.5 21.7239 29.5 22V29C29.5 29.2761 29.2761 29.5 29 29.5H19C18.7239 29.5 18.5 29.2761 18.5 29V22C18.5 21.7239 18.7239 21.5 19 21.5Z" fill="#CAE0FF" stroke="#3D6EC9"/>
<rect x="23" y="24" width="2" height="3" rx="1" fill="#3D6EC9"/>
</svg>
