<svg width="32" height="32" viewBox="0 0 32 32" fill="none" xmlns="http://www.w3.org/2000/svg">
<g id="big/ribbon_big_ico_movebackward">
<g id="-g-&#235;&#146;&#164;&#235;&#161;&#156; &#235;&#179;&#180;&#235;&#130;&#180;&#234;&#184;&#176;">
<g id="Rectangle">
<path id="Mask" fill-rule="evenodd" clip-rule="evenodd" d="M5.5 5C5.22386 5 5 5.22386 5 5.5V20.5C5 20.7761 5.22386 21 5.5 21H11.0549C11.0186 20.6717 11 20.338 11 20C11 15.0294 15.0294 11 20 11C20.338 11 20.6717 11.0186 21 11.0549V5.5C21 5.22386 20.7761 5 20.5 5H5.5Z" fill="#CAE0FF"/>
<mask id="mask0_0_24465" style="mask-type:luminance" maskUnits="userSpaceOnUse" x="5" y="5" width="16" height="16">
<path id="Mask_2" fill-rule="evenodd" clip-rule="evenodd" d="M5.5 5C5.22386 5 5 5.22386 5 5.5V20.5C5 20.7761 5.22386 21 5.5 21H11.0549C11.0186 20.6717 11 20.338 11 20C11 15.0294 15.0294 11 20 11C20.338 11 20.6717 11.0186 21 11.0549V5.5C21 5.22386 20.7761 5 20.5 5H5.5Z" fill="white"/>
</mask>
<g mask="url(#mask0_0_24465)">
<g id="Rectangle_2">
<mask id="path-3-inside-1_0_24465" fill="white">
<rect x="5" y="5" width="16" height="16" rx="0.5"/>
</mask>
<rect x="5" y="5" width="16" height="16" rx="0.5" fill="#CAE0FF" stroke="#3D6EC9" stroke-width="2" stroke-linecap="round" stroke-linejoin="round" mask="url(#path-3-inside-1_0_24465)"/>
</g>
</g>
</g>
<circle id="Combined Shape" cx="20" cy="20" r="7.5" fill="white" stroke="#404040"/>
</g>
</g>
</svg>
