<svg width="32" height="32" viewBox="0 0 32 32" fill="none" xmlns="http://www.w3.org/2000/svg">
<g clip-path="url(#clip0_778_15594)">
<mask id="mask0_778_15594" style="mask-type:alpha" maskUnits="userSpaceOnUse" x="-1" y="0" width="32" height="32">
<path fill-rule="evenodd" clip-rule="evenodd" d="M31 0H-1V32H31V13.0721L24.0529 25.1048L20.341 27.078C19.3622 27.5983 18.1766 26.9138 18.1378 25.806L17.9907 21.6048L25.6341 8.36606C26.1864 7.40947 27.4096 7.08172 28.3662 7.63401L30.9642 9.13401C30.9763 9.14094 30.9882 9.14799 31 9.15513V0ZM23.3303 24.3564L19.8716 26.195C19.746 26.2618 19.6103 26.269 19.49 26.2317C19.6102 26.269 19.7459 26.2617 19.8715 26.195L23.3301 24.3564L30.8301 11.366C31.1063 10.8877 30.9424 10.2761 30.4641 9.99999L27.866 8.49999C27.8313 8.47993 27.7959 8.46219 27.7599 8.44673C27.7959 8.4622 27.8314 8.47995 27.8662 8.50003L30.4642 10C30.9425 10.2762 31.1064 10.8878 30.8303 11.3661L23.3303 24.3564Z" fill="#FF0000"/>
</mask>
<g mask="url(#mask0_778_15594)">
<path d="M4 3.5H24C24.2761 3.5 24.5 3.72386 24.5 4V28C24.5 28.2761 24.2761 28.5 24 28.5H4C3.72386 28.5 3.5 28.2761 3.5 28V4C3.5 3.72386 3.72386 3.5 4 3.5Z" fill="white" stroke="#404040"/>
<rect opacity="0.8" x="7" y="11" width="5" height="1" rx="0.5" fill="#404040"/>
<path opacity="0.3" d="M7 17.5C7 17.2239 7.22386 17 7.5 17H15.5C15.7761 17 16 17.2239 16 17.5C16 17.7761 15.7761 18 15.5 18H7.5C7.22386 18 7 17.7761 7 17.5Z" fill="#404040"/>
<path d="M7 8.5C7 8.22386 7.22386 8 7.5 8H14.5C14.7761 8 15 8.22386 15 8.5C15 8.77614 14.7761 9 14.5 9H7.5C7.22386 9 7 8.77614 7 8.5Z" fill="#404040"/>
<path opacity="0.5" d="M7 14.5C7 14.2239 7.22386 14 7.5 14H14.5C14.7761 14 15 14.2239 15 14.5C15 14.7761 14.7761 15 14.5 15H7.5C7.22386 15 7 14.7761 7 14.5Z" fill="#404040"/>
</g>
<mask id="path-7-inside-1_778_15594" fill="white">
<path fill-rule="evenodd" clip-rule="evenodd" d="M23.8301 23.4905L19.5 20.9905L19 21.8565L19.1371 25.7711C19.15 26.1404 19.5452 26.3685 19.8715 26.1951L23.3301 24.3565L23.8301 23.4905Z"/>
</mask>
<path fill-rule="evenodd" clip-rule="evenodd" d="M23.8301 23.4905L19.5 20.9905L19 21.8565L19.1371 25.7711C19.15 26.1404 19.5452 26.3685 19.8715 26.1951L23.3301 24.3565L23.8301 23.4905Z" fill="white"/>
<path d="M19.5 20.9905L20 20.1245L19.134 19.6245L18.634 20.4905L19.5 20.9905ZM23.8301 23.4905L24.6962 23.9905L25.1962 23.1245L24.3301 22.6245L23.8301 23.4905ZM19 21.8565L18.134 21.3565L17.9906 21.6049L18.0006 21.8915L19 21.8565ZM19.1371 25.7711L20.1365 25.7361L20.1365 25.7361L19.1371 25.7711ZM19.8715 26.1951L19.4021 25.3121L19.4021 25.3121L19.8715 26.1951ZM23.3301 24.3565L23.7995 25.2395L24.0528 25.1049L24.1962 24.8565L23.3301 24.3565ZM19 21.8565L23.3301 24.3565L24.3301 22.6245L20 20.1245L19 21.8565ZM19.866 22.3565L20.366 21.4905L18.634 20.4905L18.134 21.3565L19.866 22.3565ZM18.0006 21.8915L18.1377 25.8061L20.1365 25.7361L19.9994 21.8215L18.0006 21.8915ZM18.1377 25.8061C18.1765 26.9139 19.3621 27.5984 20.3408 27.0781L19.4021 25.3121C19.7283 25.1387 20.1235 25.3668 20.1365 25.7361L18.1377 25.8061ZM20.3408 27.0781L23.7995 25.2395L22.8607 23.4735L19.4021 25.3121L20.3408 27.0781ZM22.9641 22.9905L22.4641 23.8565L24.1962 24.8565L24.6962 23.9905L22.9641 22.9905Z" fill="#6F3AD0" mask="url(#path-7-inside-1_778_15594)"/>
<path d="M29.1471 13.2812L23.1471 23.6735L19.683 21.6735L25.683 11.2812L29.1471 13.2812Z" fill="white" stroke="#6F3AD0"/>
<path d="M27.616 8.93301L30.2141 10.433C30.4532 10.5711 30.5352 10.8769 30.3971 11.116L29.1471 13.2811L25.683 11.2811L26.933 9.11603C27.0711 8.87688 27.3769 8.79494 27.616 8.93301Z" fill="#C6A9FF" stroke="#6F3AD0"/>
<path fill-rule="evenodd" clip-rule="evenodd" d="M29.7303 23.7494L29.4162 22.6148C29.2883 22.3075 29.1414 22.0679 28.8362 21.9665L28.2188 21.8255C28.0905 21.7886 28 21.6516 28 21.494C28 21.3365 28.0905 21.1995 28.2188 21.1626L28.8362 21.0215C29.2017 20.9076 29.3031 20.713 29.4162 20.4132L29.7303 19.2506C29.8127 19.081 29.9026 18.9975 30 19.0001L30.0413 19.0042C30.1229 19.0231 30.199 19.1052 30.2697 19.2506L30.5838 20.4132C30.6969 20.713 30.7983 20.9076 31.1638 21.0215L31.7812 21.1626C31.9095 21.1995 32 21.3365 32 21.494C32 21.6516 31.9095 21.7886 31.7812 21.8255L31.1638 21.9665C30.8586 22.0679 30.7117 22.3075 30.5838 22.6148L30.2697 23.7494C30.2169 23.9165 30.127 24 30 24C29.873 24 29.7831 23.9165 29.7303 23.7494Z" fill="#9D75EC"/>
<path fill-rule="evenodd" clip-rule="evenodd" d="M17.4606 16.0575L16.8323 13.8938C16.5766 13.3076 16.2829 12.8506 15.6724 12.6574L14.4376 12.3884C14.1809 12.3181 14 12.0567 14 11.7563C14 11.4559 14.1809 11.1946 14.4376 11.1242L15.6724 10.8552C16.4034 10.638 16.6063 10.2669 16.8323 9.69506L17.4606 7.47797C17.6255 7.15443 17.8053 6.99514 18 7.00011L18.0825 7.00804C18.2458 7.044 18.3981 7.20065 18.5394 7.47797L19.1677 9.69506C19.3937 10.2669 19.5966 10.638 20.3276 10.8552L21.5624 11.1242C21.8191 11.1946 22 11.4559 22 11.7563C22 12.0567 21.8191 12.3181 21.5624 12.3884L20.3276 12.6574C19.7171 12.8506 19.4234 13.3076 19.1677 13.8938L18.5394 16.0575C18.4338 16.3761 18.254 16.5354 18 16.5354C17.746 16.5354 17.5662 16.3761 17.4606 16.0575Z" fill="#9D75EC"/>
</g>
<defs>
<clipPath id="clip0_778_15594">
<rect width="32" height="32" fill="white"/>
</clipPath>
</defs>
</svg>
