<svg width="32" height="32" viewBox="0 0 32 32" fill="none" xmlns="http://www.w3.org/2000/svg">
<mask id="path-1-inside-1_0_16574" fill="white">
<path fill-rule="evenodd" clip-rule="evenodd" d="M28.8705 21.5H29V26C29 26.5523 28.5523 27 28 27H4C3.44772 27 3 26.5523 3 26V21.5H3.08051L11.2897 13.9203C11.692 13.5489 12.3183 13.57 12.6946 13.9678L17.9528 19.5266L21.4151 16.9008C21.7682 16.633 22.2554 16.6296 22.6123 16.8923L28.8705 21.5Z"/>
</mask>
<path fill-rule="evenodd" clip-rule="evenodd" d="M28.8705 21.5H29V26C29 26.5523 28.5523 27 28 27H4C3.44772 27 3 26.5523 3 26V21.5H3.08051L11.2897 13.9203C11.692 13.5489 12.3183 13.57 12.6946 13.9678L17.9528 19.5266L21.4151 16.9008C21.7682 16.633 22.2554 16.6296 22.6123 16.8923L28.8705 21.5Z" fill="#A3DEC6"/>
<path d="M28.8705 21.5L28.2776 22.3053L28.5421 22.5H28.8705V21.5ZM29 21.5H30V20.5H29V21.5ZM3 21.5V20.5H2V21.5H3ZM3.08051 21.5V22.5H3.47157L3.75889 22.2348L3.08051 21.5ZM11.2897 13.9203L10.6113 13.1856L10.6113 13.1856L11.2897 13.9203ZM12.6946 13.9678L13.421 13.2806V13.2806L12.6946 13.9678ZM17.9528 19.5266L17.2263 20.2138L17.8425 20.8653L18.5571 20.3234L17.9528 19.5266ZM21.4151 16.9008L20.8109 16.104L20.8108 16.104L21.4151 16.9008ZM22.6123 16.8923L23.2052 16.087V16.087L22.6123 16.8923ZM28.8705 22.5H29V20.5H28.8705V22.5ZM28 21.5V26H30V21.5H28ZM28 26V28C29.1046 28 30 27.1046 30 26H28ZM28 26H4V28H28V26ZM4 26H4H2C2 27.1046 2.89543 28 4 28V26ZM4 26V21.5H2V26H4ZM3 22.5H3.08051V20.5H3V22.5ZM3.75889 22.2348L11.9681 14.655L10.6113 13.1856L2.40213 20.7653L3.75889 22.2348ZM11.9681 14.655V14.655L13.421 13.2806C12.6685 12.485 11.416 12.4427 10.6113 13.1856L11.9681 14.655ZM11.9681 14.655L17.2263 20.2138L18.6793 18.8394L13.421 13.2806L11.9681 14.655ZM18.5571 20.3234L22.0194 17.6976L20.8108 16.104L17.3485 18.7299L18.5571 20.3234ZM22.0194 17.6976L22.0194 17.6976L23.2052 16.087C22.4915 15.5615 21.517 15.5685 20.8109 16.104L22.0194 17.6976ZM22.0194 17.6976L28.2776 22.3053L29.4634 20.6948L23.2052 16.087L22.0194 17.6976Z" fill="#00A661" mask="url(#path-1-inside-1_0_16574)"/>
<path fill-rule="evenodd" clip-rule="evenodd" d="M4 5C3.44772 5 3 5.44772 3 6V7H4V6H5V5H4ZM7 5H8H9V6H8H7V5ZM11 5H12H13V6H12H11V5ZM15 5H16H17V6H16H15V5ZM19 5H20H21V6H20H19V5ZM23 5H24H25V6H24H23V5ZM28 5C28.5523 5 29 5.44772 29 6V7H28V6H27V5H28ZM3 9H4V10V11H3V10V9ZM3 13H4V14V15H3V14V13ZM3 17H4V18V19H3V18V17ZM28 9H29V10V11H28V10V9ZM28 13H29V14V15H28V14V13ZM28 17H29V18V19H28V18V17Z" fill="#404040"/>
</svg>
