<svg width="32" height="32" viewBox="0 0 32 32" fill="none" xmlns="http://www.w3.org/2000/svg">
<mask id="mask0_0_20721" style="mask-type:alpha" maskUnits="userSpaceOnUse" x="3" y="3" width="15" height="20">
<path d="M18 13H10C8.89543 13 8 13.8954 8 15V23H3V3H18V13Z" fill="#D9D9D9"/>
</mask>
<g mask="url(#mask0_0_20721)">
<path d="M4 3.5H17C17.2761 3.5 17.5 3.72386 17.5 4V22C17.5 22.2761 17.2761 22.5 17 22.5H4C3.72386 22.5 3.5 22.2761 3.5 22V4C3.5 3.72386 3.72386 3.5 4 3.5Z" fill="white" stroke="#404040"/>
</g>
<mask id="path-3-inside-1_0_20721" fill="white">
<path fill-rule="evenodd" clip-rule="evenodd" d="M10 14C9.44772 14 9 14.4477 9 15V28C9 28.5523 9.44772 29 10 29H24L29 24V15C29 14.4477 28.5523 14 28 14H10Z"/>
</mask>
<path fill-rule="evenodd" clip-rule="evenodd" d="M10 14C9.44772 14 9 14.4477 9 15V28C9 28.5523 9.44772 29 10 29H24L29 24V15C29 14.4477 28.5523 14 28 14H10Z" fill="white"/>
<path d="M24 29V30H24.4142L24.7071 29.7071L24 29ZM29 24L29.7071 24.7071L30 24.4142V24H29ZM10 15V15V13C8.89543 13 8 13.8954 8 15H10ZM10 28V15H8V28H10ZM10 28H10H8C8 29.1046 8.89543 30 10 30V28ZM24 28H10V30H24V28ZM24.7071 29.7071L29.7071 24.7071L28.2929 23.2929L23.2929 28.2929L24.7071 29.7071ZM28 15V24H30V15H28ZM28 15H30C30 13.8954 29.1046 13 28 13V15ZM10 15H28V13H10V15Z" fill="#404040" mask="url(#path-3-inside-1_0_20721)"/>
<mask id="path-5-inside-2_0_20721" fill="white">
<path fill-rule="evenodd" clip-rule="evenodd" d="M29 23H24C23.4477 23 23 23.4477 23 24V29H24L29 24V23Z"/>
</mask>
<path fill-rule="evenodd" clip-rule="evenodd" d="M29 23H24C23.4477 23 23 23.4477 23 24V29H24L29 24V23Z" fill="white"/>
<path d="M29 23H30V22H29V23ZM23 29H22V30H23V29ZM24 29V30H24.4142L24.7071 29.7071L24 29ZM29 24L29.7071 24.7071L30 24.4142V24H29ZM24 24H29V22H24V24ZM24 24V24V22C22.8954 22 22 22.8954 22 24H24ZM24 29V24H22V29H24ZM23 30H24V28H23V30ZM24.7071 29.7071L29.7071 24.7071L28.2929 23.2929L23.2929 28.2929L24.7071 29.7071ZM30 24V23H28V24H30Z" fill="#404040" mask="url(#path-5-inside-2_0_20721)"/>
</svg>
