<svg width="32" height="32" viewBox="0 0 32 32" fill="none" xmlns="http://www.w3.org/2000/svg">
<mask id="mask0_769_68396" style="mask-type:alpha" maskUnits="userSpaceOnUse" x="2" y="6" width="26" height="21">
<path fill-rule="evenodd" clip-rule="evenodd" d="M19.5504 11.6514L18.9511 9.58747C18.9434 9.57121 18.9362 9.55627 18.9293 9.54254L17.96 9.3314L17.9088 9.31734C16.6388 8.96914 16 7.79868 16 6.7564C16 6.50727 16.0365 6.2508 16.1094 6H2V27H28V19.3559C27.4306 19.3559 26.8622 19.1551 26.409 18.7422C25.9987 18.3683 25.7965 17.9255 25.6919 17.6011L25.6806 17.5661L25.2947 16.199L24.8378 16.0966L24.7853 16.0818C23.5588 15.7359 23 14.6041 23 13.6692C23 13.5546 23.0084 13.4369 23.0254 13.3181C22.6985 13.4648 22.3487 13.5354 22 13.5354C21.4149 13.5354 20.8264 13.3364 20.3485 12.9131C19.9103 12.525 19.6841 12.0546 19.5622 11.6872L19.5504 11.6514ZM28 8.00003V6.7564V6H27.8906C27.9635 6.2508 28 6.50727 28 6.7564C28 7.17701 27.896 7.6185 27.6884 8.0184C27.7878 8.00586 27.8916 7.99943 28 8.00003Z" fill="#D9D9D9"/>
</mask>
<g mask="url(#mask0_769_68396)">
<mask id="path-2-inside-1_769_68396" fill="white">
<path fill-rule="evenodd" clip-rule="evenodd" d="M7 6C4.23858 6 2 8.23858 2 11V19C2 21.7614 4.23858 24 7 24H14V26.4922C14 27.08 14.6924 27.3942 15.1348 27.0071L18.5714 24H23C25.7614 24 28 21.7614 28 19V11C28 8.23858 25.7614 6 23 6H7Z"/>
</mask>
<path fill-rule="evenodd" clip-rule="evenodd" d="M7 6C4.23858 6 2 8.23858 2 11V19C2 21.7614 4.23858 24 7 24H14V26.4922C14 27.08 14.6924 27.3942 15.1348 27.0071L18.5714 24H23C25.7614 24 28 21.7614 28 19V11C28 8.23858 25.7614 6 23 6H7Z" fill="white"/>
<path d="M14 24H15C15 23.4477 14.5523 23 14 23V24ZM15.1348 27.0071L15.7933 27.7597H15.7933L15.1348 27.0071ZM18.5714 24V23C18.3292 23 18.0952 23.0879 17.9129 23.2474L18.5714 24ZM3 11C3 8.79086 4.79086 7 7 7V5C3.68629 5 1 7.68629 1 11H3ZM3 19V11H1V19H3ZM7 23C4.79086 23 3 21.2091 3 19H1C1 22.3137 3.68629 25 7 25V23ZM14 23H7V25H14V23ZM13 24V26.4922H15V24H13ZM13 26.4922C13 27.9392 14.7043 28.7125 15.7933 27.7597L14.4763 26.2545C14.6804 26.0758 15 26.2208 15 26.4922H13ZM15.7933 27.7597L19.2299 24.7526L17.9129 23.2474L14.4763 26.2545L15.7933 27.7597ZM23 23H18.5714V25H23V23ZM27 19C27 21.2091 25.2091 23 23 23V25C26.3137 25 29 22.3137 29 19H27ZM27 11V19H29V11H27ZM23 7C25.2091 7 27 8.79086 27 11H29C29 7.68629 26.3137 5 23 5V7ZM7 7H23V5H7V7Z" fill="#404040" mask="url(#path-2-inside-1_769_68396)"/>
<circle cx="9.52614" cy="14.8945" r="1.36842" fill="#404040"/>
<circle cx="14.9998" cy="14.8945" r="1.36842" fill="#404040"/>
<circle cx="20.4734" cy="14.8945" r="1.36842" fill="#404040"/>
</g>
<path fill-rule="evenodd" clip-rule="evenodd" d="M20.8323 8.89377L21.4606 11.0575C21.5662 11.3761 21.746 11.5354 22 11.5354C22.254 11.5354 22.4338 11.3761 22.5394 11.0575L23.1677 8.89377C23.4234 8.30764 23.7171 7.85065 24.3276 7.65741L25.5624 7.38844C25.8191 7.31805 26 7.05674 26 6.75631C26 6.45589 25.8191 6.19457 25.5624 6.12418L24.3276 5.85521C23.5966 5.638 23.3937 5.26686 23.1677 4.69506L22.5394 2.47797C22.3981 2.20065 22.2458 2.044 22.0825 2.00804L22 2.00011C21.8053 1.99514 21.6255 2.15443 21.4606 2.47797L20.8323 4.69506C20.6063 5.26686 20.4034 5.638 19.6724 5.85521L18.4376 6.12418C18.1809 6.19457 18 6.45589 18 6.75631C18 7.05674 18.1809 7.31805 18.4376 7.38844L19.6724 7.65741C20.2829 7.85065 20.5766 8.30764 20.8323 8.89377ZM27.1242 15.3181L27.5954 16.9872C27.6747 17.233 27.8095 17.3558 28 17.3558C28.1905 17.3558 28.3253 17.233 28.4046 16.9872L28.8758 15.3181C29.0675 14.8659 29.2878 14.5134 29.7457 14.3643L30.6718 14.1568C30.8643 14.1025 31 13.9009 31 13.6692C31 13.4374 30.8643 13.2358 30.6718 13.1815L29.7457 12.974C29.1974 12.8065 29.0453 12.5202 28.8758 12.079L28.4046 10.3687C28.2986 10.1548 28.1843 10.0339 28.0619 10.0062L28 10.0001C27.854 9.99625 27.7191 10.1191 27.5954 10.3687L27.1242 12.079C26.9547 12.5202 26.8026 12.8065 26.2543 12.974L25.3282 13.1815C25.1357 13.2358 25 13.4374 25 13.6692C25 13.9009 25.1357 14.1025 25.3282 14.1568L26.2543 14.3643C26.7122 14.5134 26.9325 14.8659 27.1242 15.3181Z" fill="#9D75EC"/>
</svg>
