<svg width="32" height="32" viewBox="0 0 32 32" fill="none" xmlns="http://www.w3.org/2000/svg">
<g clip-path="url(#clip0_1319_11838)">
<mask id="mask0_1319_11838" style="mask-type:alpha" maskUnits="userSpaceOnUse" x="0" y="0" width="32" height="32">
<path fill-rule="evenodd" clip-rule="evenodd" d="M0 0H32V32H0V0ZM4.50546 13.3544L3.89072 11.2371C3.78802 11.009 3.70503 10.8709 3.62665 10.7796C3.56468 10.7074 3.50087 10.6584 3.40506 10.6226L2.19882 10.3599L2.17319 10.3528C1.40987 10.1435 1 9.42766 1 8.75631C1 8.08496 1.40987 7.36908 2.17319 7.15978L2.19882 7.15275L3.41937 6.88688C3.62387 6.82211 3.67627 6.76403 3.69473 6.74329C3.73498 6.69807 3.78565 6.61712 3.88435 6.37253L4.52513 4.11112L4.56961 4.02386C4.75568 3.65879 5.19532 2.97925 6.02552 3.00044L6.06063 3.00133L6.23848 3.01841L6.29768 3.03146C6.92544 3.16975 7.26168 3.69285 7.43039 4.02386L7.47487 4.11112L8.11565 6.37253C8.21435 6.61712 8.26502 6.69807 8.30527 6.74329C8.32373 6.76403 8.37613 6.82211 8.58063 6.88688L9.80118 7.15275L9.82681 7.15978C10.5901 7.36908 11 8.08496 11 8.75631C11 9.42766 10.5901 10.1435 9.82681 10.3528L9.80118 10.3599L8.59494 10.6226C8.49913 10.6584 8.43532 10.7074 8.37335 10.7796C8.29497 10.8709 8.21198 11.009 8.10928 11.2371L7.49454 13.3544L7.4886 13.3723C7.40125 13.6357 7.25245 13.9306 6.98842 14.1644C6.70452 14.4159 6.35605 14.5354 6 14.5354C5.64395 14.5354 5.29548 14.4159 5.01158 14.1644C4.74755 13.9306 4.59875 13.6357 4.5114 13.3723L4.50546 13.3544ZM25.1853 13.4119L25.6422 14.952L25.6483 14.9701C25.7241 15.1937 25.8574 15.4567 26.1009 15.6678C26.363 15.8951 26.6816 16 27 16C27.3184 16 27.637 15.8951 27.8991 15.6678C28.1426 15.4567 28.2759 15.1937 28.3517 14.9701L28.3578 14.952L28.8147 13.4119C28.8825 13.2668 28.9294 13.1962 28.9628 13.1582C28.9781 13.1407 28.9882 13.133 28.9945 13.1288C28.9981 13.1265 29.0042 13.1228 29.0143 13.1184L29.9058 12.9283L29.931 12.9215C30.6217 12.7361 31 12.098 31 11.4917C31 10.8853 30.6217 10.2472 29.931 10.0618L29.9058 10.055L28.9955 9.86093C28.9425 9.84391 28.9157 9.83039 28.9056 9.82469C28.9019 9.81916 28.8958 9.80939 28.8875 9.79376C28.8704 9.76192 28.8501 9.71823 28.8215 9.64929L28.3375 7.97725L28.2915 7.88902C28.1548 7.62634 27.8542 7.15375 27.2727 7.02837L27.2146 7.01585L27.0593 7.00125L27.025 7.00039C26.255 6.98116 25.8584 7.60104 25.7085 7.88902L25.6625 7.97725L25.1785 9.6493C25.1499 9.71823 25.1296 9.76192 25.1125 9.79376C25.1042 9.80939 25.0981 9.81916 25.0944 9.82469C25.0843 9.83039 25.0575 9.84391 25.0045 9.86093L24.0942 10.055L24.069 10.0618C23.3783 10.2472 23 10.8853 23 11.4917C23 12.098 23.3783 12.7361 24.069 12.9215L24.0942 12.9283L24.9857 13.1184C24.9958 13.1228 25.0019 13.1265 25.0055 13.1288C25.0118 13.133 25.0219 13.1407 25.0372 13.1582C25.0706 13.1962 25.1175 13.2668 25.1853 13.4119Z" fill="#D9D9D9"/>
</mask>
<g mask="url(#mask0_1319_11838)">
<rect x="3.5" y="5.5" width="25" height="21" rx="0.5" fill="white" stroke="#404040"/>
</g>
<mask id="path-3-inside-1_1319_11838" fill="white">
<path fill-rule="evenodd" clip-rule="evenodd" d="M16 16C18.2091 16 20 14.2091 20 12C20 9.79086 18.2091 8 16 8C13.7909 8 12 9.79086 12 12C12 14.2091 13.7909 16 16 16ZM14 18C10.6863 18 8 20.6863 8 24V26H24V24C24 20.6863 21.3137 18 18 18H14Z"/>
</mask>
<path d="M8 26H7V27H8V26ZM24 26V27H25V26H24ZM19 12C19 13.6569 17.6569 15 16 15V17C18.7614 17 21 14.7614 21 12H19ZM16 9C17.6569 9 19 10.3431 19 12H21C21 9.23858 18.7614 7 16 7V9ZM13 12C13 10.3431 14.3431 9 16 9V7C13.2386 7 11 9.23858 11 12H13ZM16 15C14.3431 15 13 13.6569 13 12H11C11 14.7614 13.2386 17 16 17V15ZM9 24C9 21.2386 11.2386 19 14 19V17C10.134 17 7 20.134 7 24H9ZM9 26V24H7V26H9ZM24 25H8V27H24V25ZM23 24V26H25V24H23ZM18 19C20.7614 19 23 21.2386 23 24H25C25 20.134 21.866 17 18 17V19ZM14 19H18V17H14V19Z" fill="#404040" mask="url(#path-3-inside-1_1319_11838)"/>
<path fill-rule="evenodd" clip-rule="evenodd" d="M5.46055 13.0575L4.83233 10.8938C4.57663 10.3076 4.28287 9.85065 3.67238 9.65741L2.43763 9.38844C2.18091 9.31805 2 9.05674 2 8.75631C2 8.45589 2.18091 8.19457 2.43763 8.12418L3.67238 7.85521C4.40343 7.638 4.60629 7.26686 4.83233 6.69506L5.46055 4.47797C5.62546 4.15443 5.80527 3.99514 6 4.00011L6.08254 4.00804C6.2458 4.044 6.3981 4.20065 6.53945 4.47797L7.16767 6.69506C7.39371 7.26686 7.59657 7.638 8.32762 7.85521L9.56237 8.12418C9.81909 8.19457 10 8.45589 10 8.75631C10 9.05674 9.81909 9.31805 9.56237 9.38844L8.32762 9.65741C7.71713 9.85065 7.42337 10.3076 7.16767 10.8938L6.53945 13.0575C6.43379 13.3761 6.25397 13.5354 6 13.5354C5.74603 13.5354 5.56621 13.3761 5.46055 13.0575Z" fill="#9D75EC"/>
<path fill-rule="evenodd" clip-rule="evenodd" d="M26.5954 14.6492L26.1242 13.0608C25.9325 12.6305 25.7122 12.295 25.2543 12.1532L24.3282 11.9557C24.1357 11.904 24 11.7122 24 11.4917C24 11.2711 24.1357 11.0793 24.3282 11.0276L25.2543 10.8302C25.8026 10.6707 25.9547 10.3982 26.1242 9.97847L26.5954 8.35088C26.7191 8.11337 26.854 7.99643 27 8.00008L27.0619 8.0059C27.1843 8.0323 27.2986 8.1473 27.4046 8.35088L27.8758 9.97847C28.0453 10.3982 28.1974 10.6707 28.7457 10.8302L29.6718 11.0276C29.8643 11.0793 30 11.2711 30 11.4917C30 11.7122 29.8643 11.904 29.6718 11.9557L28.7457 12.1532C28.2878 12.295 28.0675 12.6305 27.8758 13.0608L27.4046 14.6492C27.3253 14.8831 27.1905 15 27 15C26.8095 15 26.6747 14.8831 26.5954 14.6492Z" fill="#9D75EC"/>
<rect x="3.5" y="23.5" width="25" height="3" rx="0.5" fill="white" stroke="#404040"/>
<rect x="4" y="24" width="15" height="2" fill="#9D75EC"/>
</g>
<defs>
<clipPath id="clip0_1319_11838">
<rect width="32" height="32" fill="white"/>
</clipPath>
</defs>
</svg>
