<svg width="32" height="32" viewBox="0 0 32 32" fill="none" xmlns="http://www.w3.org/2000/svg">
<rect x="3.5" y="5.5" width="25" height="21" rx="0.5" fill="#CAE0FF" stroke="#3D6EC9"/>
<path opacity="0.4" fill-rule="evenodd" clip-rule="evenodd" d="M9.35757 6H7.94336L4 9.94336V11.3576L9.35757 6ZM4 15.6001V14.1859L12.1859 6H13.6001L4 15.6001ZM4 19.8429V18.4286L16.4286 6H17.8429L4 19.8429ZM4 24.0855V22.6713L20.6713 6H22.0855L4 24.0855ZM6.32814 26H4.91392L24.9139 6H26.3281L6.32814 26ZM10.5708 26H9.15656L28 7.15656V8.57078L10.5708 26ZM14.8134 26H13.3992L28 11.3992V12.8134L14.8134 26ZM19.0561 26H17.6418L28 15.6418V17.0561L19.0561 26Z" fill="#3D6EC9"/>
<mask id="path-3-inside-1_769_68413" fill="white">
<path fill-rule="evenodd" clip-rule="evenodd" d="M28.8706 21.6422H29V26C29 26.5523 28.5523 27 28 27H4C3.44772 27 3 26.5523 3 26V21.6422H3.08046L11.3 14.2492C11.6996 13.8898 12.3117 13.9105 12.6861 14.296L17.9528 19.7198L21.425 17.1545C21.774 16.8967 22.2495 16.8933 22.6021 17.1462L28.8706 21.6422Z"/>
</mask>
<path fill-rule="evenodd" clip-rule="evenodd" d="M28.8706 21.6422H29V26C29 26.5523 28.5523 27 28 27H4C3.44772 27 3 26.5523 3 26V21.6422H3.08046L11.3 14.2492C11.6996 13.8898 12.3117 13.9105 12.6861 14.296L17.9528 19.7198L21.425 17.1545C21.774 16.8967 22.2495 16.8933 22.6021 17.1462L28.8706 21.6422Z" fill="#A3DEC6"/>
<path d="M28.8706 21.6422L28.2877 22.4548L28.549 22.6422H28.8706V21.6422ZM29 21.6422H30V20.6422H29V21.6422ZM3 21.6422V20.6422H2V21.6422H3ZM3.08046 21.6422V22.6422H3.46403L3.7492 22.3857L3.08046 21.6422ZM11.3 14.2492L11.9687 14.9927V14.9927L11.3 14.2492ZM12.6861 14.296L11.9687 14.9927V14.9927L12.6861 14.296ZM17.9528 19.7198L17.2354 20.4164L17.8441 21.0434L18.547 20.5241L17.9528 19.7198ZM21.425 17.1545L20.8308 16.3502V16.3502L21.425 17.1545ZM22.6021 17.1462L22.0192 17.9588V17.9588L22.6021 17.1462ZM28.8706 22.6422H29V20.6422H28.8706V22.6422ZM28 21.6422V26H30V21.6422H28ZM28 26V26V28C29.1046 28 30 27.1046 30 26H28ZM28 26H4V28H28V26ZM4 26H4H2C2 27.1046 2.89543 28 4 28V26ZM4 26V21.6422H2V26H4ZM3 22.6422H3.08046V20.6422H3V22.6422ZM3.7492 22.3857L11.9687 14.9927L10.6312 13.5057L2.41173 20.8987L3.7492 22.3857ZM11.9687 14.9927L11.9687 14.9927L13.4036 13.5994C12.6548 12.8283 11.4304 12.7869 10.6312 13.5057L11.9687 14.9927ZM11.9687 14.9927L17.2354 20.4164L18.6702 19.0231L13.4036 13.5994L11.9687 14.9927ZM18.547 20.5241L22.0192 17.9588L20.8308 16.3502L17.3586 18.9155L18.547 20.5241ZM22.0192 17.9588V17.9588L23.1849 16.3336C22.4797 15.8278 21.5288 15.8345 20.8308 16.3502L22.0192 17.9588ZM22.0192 17.9588L28.2877 22.4548L29.4534 20.8296L23.1849 16.3336L22.0192 17.9588Z" fill="#00A661" mask="url(#path-3-inside-1_769_68413)"/>
</svg>
