<svg width="32" height="32" viewBox="0 0 32 32" fill="none" xmlns="http://www.w3.org/2000/svg">
<rect x="3.5" y="3.5" width="25" height="25" rx="0.5" fill="white" stroke="#404040"/>
<path d="M13 28H12V4H13V28ZM9.5 15C9.77614 15 10 15.2239 10 15.5C10 15.7761 9.77614 16 9.5 16H6.5C6.22386 16 6 15.7761 6 15.5C6 15.2239 6.22386 15 6.5 15H9.5ZM9.5 11C9.77614 11 10 11.2239 10 11.5C10 11.7761 9.77614 12 9.5 12H6.5C6.22386 12 6 11.7761 6 11.5C6 11.2239 6.22386 11 6.5 11H9.5ZM9.5 7C9.77614 7 10 7.22386 10 7.5C10 7.77614 9.77614 8 9.5 8H6.5C6.22386 8 6 7.77614 6 7.5C6 7.22386 6.22386 7 6.5 7H9.5Z" fill="#B4B4B4"/>
<mask id="path-3-inside-1_0_24417" fill="white">
<path fill-rule="evenodd" clip-rule="evenodd" d="M26 6H15V15H23L26 12V6Z"/>
</mask>
<path fill-rule="evenodd" clip-rule="evenodd" d="M26 6H15V15H23L26 12V6Z" fill="#FFF0C7"/>
<path d="M15 6V5H14V6H15ZM26 6H27V5H26V6ZM15 15H14V16H15V15ZM23 15V16H23.4142L23.7071 15.7071L23 15ZM26 12L26.7071 12.7071L27 12.4142V12H26ZM15 7H26V5H15V7ZM16 15V6H14V15H16ZM23 14H15V16H23V14ZM23.7071 15.7071L26.7071 12.7071L25.2929 11.2929L22.2929 14.2929L23.7071 15.7071ZM25 6V12H27V6H25Z" fill="#D88C4F" mask="url(#path-3-inside-1_0_24417)"/>
<path fill-rule="evenodd" clip-rule="evenodd" d="M22.5 11.5H25.5L22.5 14.5V11.5Z" fill="#D88C4F"/>
<rect x="16" y="7" width="9" height="2" fill="#F8DB8F"/>
<mask id="path-7-inside-2_0_24417" fill="white">
<path fill-rule="evenodd" clip-rule="evenodd" d="M26 17H15V26H23L26 23V17Z"/>
</mask>
<path fill-rule="evenodd" clip-rule="evenodd" d="M26 17H15V26H23L26 23V17Z" fill="#FFF0C7"/>
<path d="M15 17V16H14V17H15ZM26 17H27V16H26V17ZM15 26H14V27H15V26ZM23 26V27H23.4142L23.7071 26.7071L23 26ZM26 23L26.7071 23.7071L27 23.4142V23H26ZM15 18H26V16H15V18ZM16 26V17H14V26H16ZM23 25H15V27H23V25ZM23.7071 26.7071L26.7071 23.7071L25.2929 22.2929L22.2929 25.2929L23.7071 26.7071ZM25 17V23H27V17H25Z" fill="#D88C4F" mask="url(#path-7-inside-2_0_24417)"/>
<path fill-rule="evenodd" clip-rule="evenodd" d="M22.5 22.5H25.5L22.5 25.5V22.5Z" fill="#D88C4F"/>
<rect x="16" y="18" width="9" height="2" fill="#F8DB8F"/>
</svg>
