<svg width="32" height="32" viewBox="0 0 32 32" fill="none" xmlns="http://www.w3.org/2000/svg">
<g id="big/ribbon_big_ico_setlayout">
<g id="element/big/page">
<g id="page" clip-path="url(#clip0_0_27863)">
<g id="Combined Shape">
<mask id="path-1-inside-1_0_27863" fill="white">
<path fill-rule="evenodd" clip-rule="evenodd" d="M6 3C5.44772 3 5 3.44772 5 4V28C5 28.5523 5.44772 29 6 29H21L27 23V4C27 3.44772 26.5523 3 26 3H6Z"/>
</mask>
<path fill-rule="evenodd" clip-rule="evenodd" d="M6 3C5.44772 3 5 3.44772 5 4V28C5 28.5523 5.44772 29 6 29H21L27 23V4C27 3.44772 26.5523 3 26 3H6Z" fill="white"/>
<path d="M21 29V30H21.4142L21.7071 29.7071L21 29ZM27 23L27.7071 23.7071L28 23.4142V23H27ZM6 4V4V2C4.89543 2 4 2.89543 4 4H6ZM6 28V4H4V28H6ZM6 28H6H4C4 29.1046 4.89543 30 6 30V28ZM21 28H6V30H21V28ZM21.7071 29.7071L27.7071 23.7071L26.2929 22.2929L20.2929 28.2929L21.7071 29.7071ZM26 4V23H28V4H26ZM26 4H28C28 2.89543 27.1046 2 26 2V4ZM6 4H26V2H6V4Z" fill="#404040" mask="url(#path-1-inside-1_0_27863)"/>
</g>
<g id="Combined Shape_2">
<mask id="path-3-inside-2_0_27863" fill="white">
<path fill-rule="evenodd" clip-rule="evenodd" d="M27 22H21C20.4477 22 20 22.4477 20 23V29H21L27 23V22Z"/>
</mask>
<path fill-rule="evenodd" clip-rule="evenodd" d="M27 22H21C20.4477 22 20 22.4477 20 23V29H21L27 23V22Z" fill="white"/>
<path d="M27 22H28V21H27V22ZM20 29H19V30H20V29ZM21 29V30H21.4142L21.7071 29.7071L21 29ZM27 23L27.7071 23.7071L28 23.4142V23H27ZM21 23H27V21H21V23ZM21 23V23V21C19.8954 21 19 21.8954 19 23H21ZM21 29V23H19V29H21ZM21 28H20V30H21V28ZM21.7071 29.7071L27.7071 23.7071L26.2929 22.2929L20.2929 28.2929L21.7071 29.7071ZM26 22V23H28V22H26Z" fill="#404040" mask="url(#path-3-inside-2_0_27863)"/>
</g>
</g>
</g>
<path id="Combined Shape_3" fill-rule="evenodd" clip-rule="evenodd" d="M24 6H8V10H24V6ZM20 22H8V26H20V22Z" fill="#ABCEFF"/>
<g id="Combined Shape_4">
<path fill-rule="evenodd" clip-rule="evenodd" d="M17.5327 10.1688L16.0322 11.4994C15.9476 11.4989 15.8631 11.5007 15.7786 11.505L14.392 10.2699C14.0687 9.98187 13.5967 9.9347 13.2227 10.153L12.3677 10.6522C11.9993 10.8673 11.8079 11.2924 11.8911 11.7108L12.2495 13.5132C12.1984 13.5904 12.1496 13.6693 12.103 13.75C12.0564 13.8306 12.0125 13.9124 11.9712 13.9953L10.2311 14.5861C9.8271 14.7232 9.55463 15.1015 9.55257 15.5282L9.54779 16.5182C9.5457 16.9512 9.82254 17.3363 10.2336 17.4724L11.9966 18.0557C12.0351 18.1309 12.0758 18.2051 12.1186 18.2781L11.7165 20.2428C11.6302 20.6645 11.8234 21.0941 12.1962 21.3093L13.304 21.949C13.6768 22.1642 14.1455 22.1167 14.4675 21.8311L15.968 20.5006C16.0526 20.5011 16.1371 20.4992 16.2216 20.495L17.6082 21.7301C17.9316 22.0181 18.4036 22.0653 18.7775 21.847L19.6325 21.3478C20.0009 21.1327 20.1923 20.7076 20.1091 20.2892L19.7507 18.4868C19.8018 18.4096 19.8507 18.3306 19.8972 18.25C19.9438 18.1693 19.9877 18.0875 20.0291 18.0047L21.7692 17.4139C22.1731 17.2768 22.4456 16.8984 22.4477 16.4718L22.4524 15.4818C22.4545 15.0488 22.1777 14.6636 21.7666 14.5276L20.0037 13.9443C19.9651 13.869 19.9244 13.7949 19.8817 13.7219L20.2837 11.7571C20.37 11.3354 20.1768 10.9058 19.804 10.6906L18.6962 10.051C18.3234 9.8358 17.8548 9.88326 17.5327 10.1688ZM13.3149 13.7433L12.8719 11.5158L13.7269 11.0166L15.4358 12.5387L15.6542 12.5168C15.832 12.499 16.0108 12.4948 16.1892 12.5042L16.394 12.5151L18.1962 10.917L19.304 11.5567L18.8211 13.9164L18.933 14.0884C19.0304 14.2381 19.1161 14.3951 19.1896 14.5579L19.2798 14.7581L21.4525 15.477L21.4477 16.467L19.2971 17.1971L19.2087 17.3992C19.1564 17.5186 19.0972 17.6357 19.0312 17.75C18.9652 17.8643 18.8934 17.9741 18.8161 18.0791L18.6854 18.2567L19.1283 20.4842L18.2733 20.9834L16.5645 19.4613L16.346 19.4832C16.1682 19.501 15.9894 19.5052 15.811 19.4957L15.6062 19.4848L13.804 21.0829L12.6962 20.4433L13.1791 18.0835L13.0672 17.9116C12.9699 17.7619 12.8841 17.6049 12.8107 17.442L12.7204 17.2419L10.5478 16.523L10.5526 15.533L12.7031 14.8028L12.7916 14.6008C12.8439 14.4813 12.903 14.3643 12.969 14.25C13.035 14.1357 13.1068 14.0259 13.1841 13.9209L13.3149 13.7433ZM14.9501 17.8186C13.9457 17.2387 13.6016 15.9544 14.1815 14.95C14.7614 13.9456 16.0457 13.6014 17.0501 14.1813C18.0545 14.7612 18.3987 16.0456 17.8188 17.05C17.2389 18.0544 15.9545 18.3985 14.9501 17.8186ZM16.9527 16.55C16.649 17.0761 15.9762 17.2564 15.4501 16.9526C14.924 16.6489 14.7437 15.9761 15.0475 15.45C15.3512 14.9239 16.024 14.7436 16.5501 15.0474C17.0762 15.3511 17.2565 16.0239 16.9527 16.55Z" fill="#3D6EC9"/>
<path d="M16.0322 11.4994L16.0259 12.4994L16.409 12.5018L16.6957 12.2476L16.0322 11.4994ZM17.5327 10.1688L16.8692 9.42063L16.8692 9.42063L17.5327 10.1688ZM15.7786 11.505L15.1135 12.2517L15.4195 12.5242L15.8287 12.5037L15.7786 11.505ZM14.392 10.2699L13.7269 11.0166L13.7269 11.0166L14.392 10.2699ZM13.2227 10.153L13.7269 11.0166L13.7269 11.0166L13.2227 10.153ZM12.3677 10.6522L11.8635 9.78856L11.8635 9.78856L12.3677 10.6522ZM11.8911 11.7108L12.8719 11.5158L12.8719 11.5158L11.8911 11.7108ZM12.2495 13.5132L13.0834 14.0651L13.3106 13.7218L13.2303 13.3181L12.2495 13.5132ZM11.9712 13.9953L12.2927 14.9422L12.6824 14.8099L12.8661 14.4415L11.9712 13.9953ZM10.2311 14.5861L9.90959 13.6392L9.90959 13.6392L10.2311 14.5861ZM9.55257 15.5282L10.5526 15.533L10.5526 15.533L9.55257 15.5282ZM9.54779 16.5182L10.5478 16.523L10.5478 16.523L9.54779 16.5182ZM10.2336 17.4724L9.91951 18.4218L9.91951 18.4218L10.2336 17.4724ZM11.9966 18.0557L12.8865 17.5997L12.6997 17.235L12.3107 17.1063L11.9966 18.0557ZM12.1186 18.2781L13.0982 18.4786L13.1751 18.1032L12.9814 17.7726L12.1186 18.2781ZM11.7165 20.2428L10.7368 20.0424L11.7165 20.2428ZM14.4675 21.8311L15.131 22.5793L14.4675 21.8311ZM15.968 20.5006L15.9743 19.5006L15.5912 19.4982L15.3045 19.7524L15.968 20.5006ZM16.2216 20.495L16.8867 19.7483L16.5808 19.4758L16.1715 19.4963L16.2216 20.495ZM17.6082 21.7301L16.9431 22.4768L17.6082 21.7301ZM18.7775 21.847L19.2817 22.7106L18.7775 21.847ZM19.6325 21.3478L19.1283 20.4842L19.1283 20.4842L19.6325 21.3478ZM20.1091 20.2892L21.0899 20.0941L21.0899 20.0941L20.1091 20.2892ZM19.7507 18.4868L18.9168 17.9349L18.6896 18.2781L18.7699 18.6818L19.7507 18.4868ZM20.0291 18.0047L19.7076 17.0578L19.3178 17.1901L19.1341 17.5585L20.0291 18.0047ZM21.7692 17.4139L21.4477 16.467L21.7692 17.4139ZM22.4477 16.4718L21.4477 16.467L22.4477 16.4718ZM22.4524 15.4818L23.4524 15.4866L23.4524 15.4866L22.4524 15.4818ZM21.7666 14.5276L21.4525 15.477L21.7666 14.5276ZM20.0037 13.9443L19.1137 14.4003L19.3005 14.7649L19.6895 14.8937L20.0037 13.9443ZM19.8817 13.7219L18.902 13.5214L18.8252 13.8968L19.0188 14.2274L19.8817 13.7219ZM20.2837 11.7571L21.2634 11.9576L21.2634 11.9576L20.2837 11.7571ZM12.8719 11.5158L12.3677 10.6522L11.7521 11.0116L11.8911 11.7108L12.8719 11.5158ZM13.3149 13.7433L14.1202 14.3361L14.3817 13.9809L14.2957 13.5482L13.3149 13.7433ZM13.7269 11.0166L14.392 10.2699L13.8498 9.78693L13.2227 10.153L13.7269 11.0166ZM15.4358 12.5387L14.7706 13.2855L15.0986 13.5775L15.5355 13.5337L15.4358 12.5387ZM15.6542 12.5168L15.5545 11.5218L15.5545 11.5218L15.6542 12.5168ZM16.1892 12.5042L16.1361 13.5028L16.1361 13.5028L16.1892 12.5042ZM16.394 12.5151L16.3409 13.5137L16.7505 13.5355L17.0575 13.2633L16.394 12.5151ZM18.1962 10.917L18.6962 10.051L18.072 9.69063L17.5327 10.1688L18.1962 10.917ZM19.304 11.5567L20.2837 11.7571L20.4282 11.051L19.804 10.6906L19.304 11.5567ZM18.8211 13.9164L17.8415 13.716L17.7592 14.1179L17.9829 14.4617L18.8211 13.9164ZM18.933 14.0884L19.7712 13.5431L18.933 14.0884ZM19.1896 14.5579L20.1012 14.1468L20.1012 14.1468L19.1896 14.5579ZM19.2798 14.7581L18.3682 15.1692L18.5488 15.5695L18.9657 15.7075L19.2798 14.7581ZM21.4525 15.477L22.4524 15.4818L22.456 14.7557L21.7666 14.5276L21.4525 15.477ZM21.4477 16.467L21.7692 17.4139L22.4442 17.1847L22.4477 16.4718L21.4477 16.467ZM19.2971 17.1971L18.9756 16.2502L18.5579 16.392L18.381 16.7961L19.2971 17.1971ZM19.2087 17.3992L18.2926 16.9982L18.2926 16.9982L19.2087 17.3992ZM18.8161 18.0791L18.0108 17.4863L18.0108 17.4863L18.8161 18.0791ZM18.6854 18.2567L17.88 17.6639L17.6185 18.0191L17.7046 18.4517L18.6854 18.2567ZM19.1283 20.4842L19.6325 21.3478L20.2482 20.9884L20.1091 20.2892L19.1283 20.4842ZM18.2733 20.9834L17.6082 21.7301L18.1504 22.213L18.7775 21.847L18.2733 20.9834ZM16.5645 19.4613L17.2296 18.7145L16.9017 18.4224L16.4647 18.4662L16.5645 19.4613ZM16.346 19.4832L16.2462 18.4881L16.2462 18.4881L16.346 19.4832ZM15.811 19.4957L15.758 20.4943L15.758 20.4943L15.811 19.4957ZM15.6062 19.4848L15.6593 18.4863L15.2497 18.4645L14.9428 18.7366L15.6062 19.4848ZM13.804 21.0829L13.304 21.949L13.9282 22.3093L14.4675 21.8311L13.804 21.0829ZM12.6962 20.4433L11.7165 20.2428L11.572 20.949L12.1962 21.3093L12.6962 20.4433ZM13.1791 18.0835L14.1588 18.284L14.241 17.8821L14.0173 17.5383L13.1791 18.0835ZM13.0672 17.9116L13.9055 17.3663L13.9055 17.3663L13.0672 17.9116ZM12.8107 17.442L11.8991 17.8531L11.8991 17.8531L12.8107 17.442ZM12.7204 17.2419L13.632 16.8308L13.4514 16.4305L13.0345 16.2925L12.7204 17.2419ZM10.5478 16.523L9.54779 16.5182L9.54428 17.2443L10.2336 17.4724L10.5478 16.523ZM10.5526 15.533L10.2311 14.5861L9.55601 14.8153L9.55257 15.5282L10.5526 15.533ZM12.7031 14.8028L13.0246 15.7498L13.4423 15.608L13.6192 15.2039L12.7031 14.8028ZM12.7916 14.6008L11.8755 14.1998L11.8755 14.1998L12.7916 14.6008ZM13.1841 13.9209L12.3788 13.3281L12.3788 13.3281L13.1841 13.9209ZM16.6957 12.2476L18.1962 10.917L16.8692 9.42063L15.3687 10.7512L16.6957 12.2476ZM15.8287 12.5037C15.8944 12.5004 15.9602 12.499 16.0259 12.4994L16.0385 10.4994C15.9351 10.4988 15.8318 10.501 15.7286 10.5062L15.8287 12.5037ZM13.7269 11.0166L15.1135 12.2517L16.4438 10.7582L15.0571 9.52314L13.7269 11.0166ZM13.7269 11.0166L13.7269 11.0166L15.0571 9.52315C14.4104 8.94712 13.4665 8.85278 12.7185 9.28942L13.7269 11.0166ZM12.8719 11.5158L13.7269 11.0166L12.7185 9.28942L11.8635 9.78856L12.8719 11.5158ZM12.8719 11.5158L12.8719 11.5158L11.8635 9.78856C11.1267 10.2187 10.7439 11.069 10.9103 11.9059L12.8719 11.5158ZM13.2303 13.3181L12.8719 11.5158L10.9103 11.9059L11.2687 13.7082L13.2303 13.3181ZM12.969 14.25C13.0054 14.1869 13.0436 14.1253 13.0834 14.0651L11.4156 12.9613C11.3533 13.0555 11.2937 13.1518 11.237 13.25L12.969 14.25ZM12.8661 14.4415C12.8983 14.3769 12.9326 14.3131 12.969 14.25L11.237 13.25C11.1803 13.3482 11.1267 13.448 11.0763 13.5491L12.8661 14.4415ZM10.5526 15.533L12.2927 14.9422L11.6497 13.0484L9.90959 13.6392L10.5526 15.533ZM10.5526 15.533L10.5526 15.533L9.90959 13.6392C9.10165 13.9135 8.5567 14.6701 8.55258 15.5233L10.5526 15.533ZM10.5478 16.523L10.5526 15.533L8.55258 15.5233L8.5478 16.5133L10.5478 16.523ZM10.5478 16.523L10.5478 16.523L8.5478 16.5133C8.54362 17.3794 9.09731 18.1497 9.91951 18.4218L10.5478 16.523ZM12.3107 17.1063L10.5478 16.523L9.91951 18.4218L11.6824 19.0051L12.3107 17.1063ZM12.9814 17.7726C12.9482 17.7159 12.9165 17.6582 12.8865 17.5997L11.1066 18.5117C11.1537 18.6037 11.2034 18.6943 11.2557 18.7835L12.9814 17.7726ZM12.6962 20.4433L13.0982 18.4786L11.1389 18.0776L10.7368 20.0424L12.6962 20.4433ZM12.6962 20.4433L10.7368 20.0424C10.5642 20.8857 10.9507 21.7449 11.6962 22.1754L12.6962 20.4433ZM13.804 21.0829L12.6962 20.4433L11.6962 22.1754L12.804 22.815L13.804 21.0829ZM13.804 21.0829L12.804 22.815C13.5496 23.2454 14.4869 23.1505 15.131 22.5793L13.804 21.0829ZM15.3045 19.7524L13.804 21.0829L15.131 22.5793L16.6315 21.2488L15.3045 19.7524ZM16.1715 19.4963C16.1059 19.4996 16.0401 19.501 15.9743 19.5006L15.9617 21.5005C16.0651 21.5012 16.1684 21.4989 16.2716 21.4938L16.1715 19.4963ZM18.2733 20.9834L16.8867 19.7483L15.5565 21.2418L16.9431 22.4768L18.2733 20.9834ZM18.2733 20.9834L18.2733 20.9834L16.9431 22.4768C17.5898 23.0529 18.5338 23.1472 19.2817 22.7106L18.2733 20.9834ZM19.1283 20.4842L18.2733 20.9834L19.2817 22.7106L20.1367 22.2114L19.1283 20.4842ZM19.1283 20.4842L19.1283 20.4842L20.1367 22.2114C20.8735 21.7812 21.2563 20.931 21.0899 20.0941L19.1283 20.4842ZM18.7699 18.6818L19.1283 20.4842L21.0899 20.0941L20.7315 18.2918L18.7699 18.6818ZM19.0312 17.75C18.9948 17.8131 18.9566 17.8747 18.9168 17.9349L20.5846 19.0387C20.647 18.9445 20.7065 18.8482 20.7633 18.75L19.0312 17.75ZM19.1341 17.5585C19.1019 17.6231 19.0676 17.6869 19.0312 17.75L20.7633 18.75C20.82 18.6518 20.8736 18.552 20.924 18.4509L19.1341 17.5585ZM21.4477 16.467L19.7076 17.0578L20.3505 18.9516L22.0906 18.3608L21.4477 16.467ZM21.4477 16.467L21.4477 16.467L22.0906 18.3608C22.8986 18.0865 23.4435 17.3299 23.4477 16.4767L21.4477 16.467ZM21.4525 15.477L21.4477 16.467L23.4477 16.4767L23.4524 15.4866L21.4525 15.477ZM21.4525 15.477L21.4525 15.477L23.4524 15.4866C23.4566 14.6206 22.9029 13.8503 22.0807 13.5782L21.4525 15.477ZM19.6895 14.8937L21.4525 15.477L22.0807 13.5782L20.3178 12.9949L19.6895 14.8937ZM19.0188 14.2274C19.0521 14.2841 19.0837 14.3418 19.1137 14.4003L20.8936 13.4882C20.8465 13.3963 20.7968 13.3057 20.7445 13.2164L19.0188 14.2274ZM19.304 11.5567L18.902 13.5214L20.8614 13.9224L21.2634 11.9576L19.304 11.5567ZM19.304 11.5567L19.304 11.5567L21.2634 11.9576C21.436 11.1142 21.0496 10.255 20.304 9.82461L19.304 11.5567ZM18.1962 10.917L19.304 11.5567L20.304 9.82461L19.1962 9.18499L18.1962 10.917ZM18.1962 10.917L18.1962 10.917L19.1962 9.18499C18.4507 8.75456 17.5133 8.84948 16.8692 9.42063L18.1962 10.917ZM11.8911 11.7108L12.3341 13.9383L14.2957 13.5482L13.8527 11.3207L11.8911 11.7108ZM13.2227 10.153L12.3677 10.6522L13.3761 12.3794L14.2311 11.8802L13.2227 10.153ZM16.1009 11.792L14.392 10.2699L13.0618 11.7634L14.7706 13.2855L16.1009 11.792ZM15.5545 11.5218L15.336 11.5437L15.5355 13.5337L15.754 13.5118L15.5545 11.5218ZM16.2423 11.5057C16.0128 11.4935 15.7828 11.4989 15.5545 11.5218L15.754 13.5118C15.8812 13.4991 16.0089 13.4961 16.1361 13.5028L16.2423 11.5057ZM16.4471 11.5165L16.2423 11.5057L16.1361 13.5028L16.3409 13.5137L16.4471 11.5165ZM17.5327 10.1688L15.7305 11.7669L17.0575 13.2633L18.8597 11.6652L17.5327 10.1688ZM19.804 10.6906L18.6962 10.051L17.6962 11.7831L18.804 12.4227L19.804 10.6906ZM19.8008 14.1169L20.2837 11.7571L18.3243 11.3562L17.8415 13.716L19.8008 14.1169ZM19.7712 13.5431L19.6594 13.3712L17.9829 14.4617L18.0947 14.6337L19.7712 13.5431ZM20.1012 14.1468C20.0068 13.9376 19.8966 13.7358 19.7712 13.5431L18.0947 14.6337C18.1642 14.7404 18.2254 14.8525 18.278 14.969L20.1012 14.1468ZM20.1914 14.347L20.1012 14.1468L18.278 14.969L18.3682 15.1692L20.1914 14.347ZM21.7666 14.5276L19.594 13.8087L18.9657 15.7075L21.1383 16.4264L21.7666 14.5276ZM22.4477 16.4718L22.4524 15.4818L20.4525 15.4722L20.4477 16.4622L22.4477 16.4718ZM19.6186 18.144L21.7692 17.4139L21.1262 15.5201L18.9756 16.2502L19.6186 18.144ZM20.1247 17.8002L20.2132 17.5981L18.381 16.7961L18.2926 16.9982L20.1247 17.8002ZM19.8972 18.25C19.9816 18.1038 20.0575 17.9537 20.1247 17.8002L18.2926 16.9982C18.2552 17.0835 18.2128 17.1676 18.1652 17.25L19.8972 18.25ZM19.6214 18.6719C19.7208 18.5369 19.8128 18.3962 19.8972 18.25L18.1652 17.25C18.1176 17.3324 18.0661 17.4112 18.0108 17.4863L19.6214 18.6719ZM19.4907 18.8495L19.6214 18.6719L18.0108 17.4863L17.88 17.6639L19.4907 18.8495ZM20.1091 20.2892L19.6662 18.0617L17.7046 18.4517L18.1475 20.6793L20.1091 20.2892ZM18.7775 21.847L19.6325 21.3478L18.6242 19.6206L17.7692 20.1198L18.7775 21.847ZM15.8993 20.208L17.6082 21.7301L18.9385 20.2366L17.2296 18.7145L15.8993 20.208ZM16.4458 20.4782L16.6642 20.4563L16.4647 18.4662L16.2462 18.4881L16.4458 20.4782ZM15.758 20.4943C15.9875 20.5065 16.2174 20.5011 16.4458 20.4782L16.2462 18.4881C16.1191 18.5009 15.9913 18.5039 15.8641 18.4971L15.758 20.4943ZM15.5531 20.4834L15.758 20.4943L15.8641 18.4971L15.6593 18.4863L15.5531 20.4834ZM14.4675 21.8311L16.2697 20.233L14.9428 18.7366L13.1406 20.3347L14.4675 21.8311ZM12.1962 21.3093L13.304 21.949L14.304 20.2169L13.1962 19.5773L12.1962 21.3093ZM12.1994 17.8831L11.7165 20.2428L13.6759 20.6438L14.1588 18.284L12.1994 17.8831ZM12.229 18.4569L12.3408 18.6288L14.0173 17.5383L13.9055 17.3663L12.229 18.4569ZM11.8991 17.8531C11.9934 18.0624 12.1037 18.2642 12.229 18.4569L13.9055 17.3663C13.8361 17.2596 13.7748 17.1474 13.7223 17.0309L11.8991 17.8531ZM11.8088 17.653L11.8991 17.8531L13.7223 17.0309L13.632 16.8308L11.8088 17.653ZM10.2336 17.4724L12.4063 18.1913L13.0345 16.2925L10.8619 15.5736L10.2336 17.4724ZM9.55257 15.5282L9.54779 16.5182L11.5478 16.5278L11.5525 15.5378L9.55257 15.5282ZM12.3816 13.8559L10.2311 14.5861L10.874 16.4799L13.0246 15.7498L12.3816 13.8559ZM11.8755 14.1998L11.7871 14.4018L13.6192 15.2039L13.7076 15.0018L11.8755 14.1998ZM12.103 13.75C12.0186 13.8962 11.9427 14.0463 11.8755 14.1998L13.7076 15.0018C13.745 14.9164 13.7875 14.8324 13.8351 14.75L12.103 13.75ZM12.3788 13.3281C12.2794 13.463 12.1874 13.6038 12.103 13.75L13.8351 14.75C13.8826 14.6676 13.9342 14.5888 13.9894 14.5137L12.3788 13.3281ZM12.5095 13.1504L12.3788 13.3281L13.9894 14.5137L14.1202 14.3361L12.5095 13.1504ZM13.3154 14.45C12.4594 15.9327 12.9674 17.8286 14.4501 18.6847L15.4501 16.9526C14.924 16.6489 14.7437 15.9761 15.0475 15.45L13.3154 14.45ZM17.5501 13.3153C16.0674 12.4593 14.1715 12.9673 13.3154 14.45L15.0475 15.45C15.3512 14.9239 16.024 14.7436 16.5501 15.0474L17.5501 13.3153ZM18.6848 17.55C19.5408 16.0673 19.0328 14.1714 17.5501 13.3153L16.5501 15.0474C17.0762 15.3511 17.2565 16.0239 16.9527 16.55L18.6848 17.55ZM14.4501 18.6847C15.9328 19.5407 17.8288 19.0327 18.6848 17.55L16.9527 16.55C16.649 17.0761 15.9762 17.2564 15.4501 16.9526L14.4501 18.6847ZM14.9501 17.8186C15.9545 18.3985 17.2389 18.0544 17.8188 17.05L16.0867 16.05C16.0591 16.0978 15.9979 16.1142 15.9501 16.0866L14.9501 17.8186ZM14.1815 14.95C13.6016 15.9544 13.9457 17.2387 14.9501 17.8186L15.9501 16.0866C15.9023 16.059 15.8859 15.9978 15.9135 15.95L14.1815 14.95ZM17.0501 14.1813C16.0457 13.6014 14.7614 13.9456 14.1815 14.95L15.9135 15.95C15.9411 15.9022 16.0023 15.8858 16.0501 15.9134L17.0501 14.1813ZM17.8188 17.05C18.3987 16.0456 18.0545 14.7612 17.0501 14.1813L16.0501 15.9134C16.0979 15.941 16.1143 16.0022 16.0867 16.05L17.8188 17.05Z" fill="white"/>
</g>
<g id="Combined Shape Copy">
<path fill-rule="evenodd" clip-rule="evenodd" d="M17.8645 10.543C18.0256 10.4002 18.2599 10.3764 18.4463 10.4841L19.5541 11.1237C19.7405 11.2313 19.8371 11.4461 19.794 11.6569L19.3522 13.8158C19.4639 13.9875 19.5618 14.167 19.6454 14.3524L21.6096 15.0023C21.8152 15.0703 21.9536 15.2629 21.9525 15.4794L21.9478 16.4694C21.9467 16.6827 21.8105 16.8719 21.6085 16.9405L19.6668 17.5997C19.6075 17.7352 19.54 17.8689 19.4643 18C19.3886 18.1311 19.3066 18.2564 19.2189 18.3755L19.6188 20.3867C19.6604 20.5959 19.5647 20.8085 19.3805 20.916L18.5255 21.4152C18.3385 21.5243 18.1026 21.5008 17.9409 21.3568L16.396 19.9807C16.1936 20.001 15.9892 20.0059 15.7846 19.9951L14.1359 21.4571C13.9748 21.5999 13.7405 21.6236 13.5541 21.516L12.4463 20.8764C12.2599 20.7688 12.1633 20.554 12.2064 20.3431L12.6482 18.1843C12.5365 18.0125 12.4386 17.833 12.355 17.6476L10.3908 16.9977C10.1852 16.9297 10.0468 16.7371 10.0479 16.5206L10.0527 15.5306C10.0537 15.3173 10.1899 15.1281 10.3919 15.0596L12.3336 14.4003C12.393 14.2648 12.4604 14.1311 12.5361 14C12.6118 13.8689 12.6938 13.7437 12.7815 13.6245L12.3816 11.6133C12.34 11.4041 12.4357 11.1915 12.6199 11.084L13.4749 10.5848C13.6619 10.4757 13.8979 10.4993 14.0595 10.6433L15.6045 12.0193C15.8068 11.999 16.0112 11.9941 16.2158 12.005L17.8645 10.543ZM15.2002 17.3857C15.9655 17.8275 16.944 17.5653 17.3858 16.8C17.8277 16.0347 17.5655 15.0562 16.8002 14.6144C16.0349 14.1725 15.0564 14.4347 14.6146 15.2C14.1727 15.9653 14.4349 16.9438 15.2002 17.3857Z" fill="#ABCEFF"/>
<path d="M18.4463 10.4841L18.6963 10.051L18.4463 10.4841ZM17.8645 10.543L17.5328 10.1689L17.5328 10.1689L17.8645 10.543ZM19.5541 11.1237L19.3041 11.5567L19.5541 11.1237ZM19.794 11.6569L20.2838 11.7572L20.2838 11.7572L19.794 11.6569ZM19.3522 13.8158L18.8624 13.7155L18.8212 13.9165L18.9331 14.0884L19.3522 13.8158ZM19.6454 14.3524L19.1897 14.558L19.2799 14.7581L19.4884 14.8271L19.6454 14.3524ZM21.6096 15.0023L21.4525 15.477L21.6096 15.0023ZM21.9525 15.4794L21.4525 15.477L21.4525 15.477L21.9525 15.4794ZM21.9478 16.4694L21.4478 16.467L21.9478 16.4694ZM21.6085 16.9405L21.4478 16.467L21.6085 16.9405ZM19.6668 17.5997L19.506 17.1263L19.2972 17.1972L19.2088 17.3992L19.6668 17.5997ZM19.2189 18.3755L18.8162 18.0791L18.6855 18.2567L18.7285 18.473L19.2189 18.3755ZM19.6188 20.3867L19.1284 20.4842L19.1284 20.4842L19.6188 20.3867ZM19.3805 20.916L19.6326 21.3478L19.6326 21.3478L19.3805 20.916ZM18.5255 21.4152L18.7776 21.847L18.7776 21.847L18.5255 21.4152ZM17.9409 21.3568L17.6083 21.7301L17.6083 21.7301L17.9409 21.3568ZM16.396 19.9807L16.7285 19.6073L16.5646 19.4613L16.3461 19.4832L16.396 19.9807ZM15.7846 19.9951L15.8111 19.4958L15.6063 19.4849L15.4529 19.621L15.7846 19.9951ZM14.1359 21.4571L14.4676 21.8312L14.1359 21.4571ZM13.5541 21.516L13.3041 21.949L13.5541 21.516ZM12.4463 20.8764L12.6963 20.4433L12.4463 20.8764ZM12.2064 20.3431L12.6963 20.4433L12.2064 20.3431ZM12.6482 18.1843L13.1381 18.2845L13.1792 18.0836L13.0673 17.9116L12.6482 18.1843ZM12.355 17.6476L12.8108 17.4421L12.7205 17.2419L12.512 17.1729L12.355 17.6476ZM10.3908 16.9977L10.2337 17.4724L10.2337 17.4724L10.3908 16.9977ZM10.0479 16.5206L10.5479 16.523L10.5479 16.523L10.0479 16.5206ZM10.0527 15.5306L10.5526 15.533L10.5526 15.533L10.0527 15.5306ZM10.3919 15.0596L10.2312 14.5861L10.2312 14.5861L10.3919 15.0596ZM12.3336 14.4003L12.4944 14.8738L12.7032 14.8029L12.7917 14.6008L12.3336 14.4003ZM12.7815 13.6245L13.1842 13.9209L13.315 13.7433L13.2719 13.527L12.7815 13.6245ZM12.3816 11.6133L12.872 11.5158L12.872 11.5158L12.3816 11.6133ZM12.6199 11.084L12.3678 10.6522L12.3678 10.6522L12.6199 11.084ZM13.4749 10.5848L13.2228 10.153L13.2228 10.153L13.4749 10.5848ZM14.0595 10.6433L13.727 11.0166L13.727 11.0166L14.0595 10.6433ZM15.6045 12.0193L15.2719 12.3927L15.4359 12.5388L15.6543 12.5168L15.6045 12.0193ZM16.2158 12.005L16.1893 12.5043L16.3941 12.5152L16.5476 12.3791L16.2158 12.005ZM18.6963 10.051C18.3235 9.83583 17.8549 9.88329 17.5328 10.1689L18.1963 10.9171L18.1963 10.9171L18.6963 10.051ZM19.8041 10.6907L18.6963 10.051L18.1963 10.9171L19.3041 11.5567L19.8041 10.6907ZM20.2838 11.7572C20.3701 11.3355 20.1769 10.9059 19.8041 10.6907L19.3041 11.5567L19.3041 11.5567L20.2838 11.7572ZM19.8421 13.916L20.2838 11.7572L19.3041 11.5567L18.8624 13.7155L19.8421 13.916ZM20.1012 14.1469C20.0072 13.9383 19.8971 13.7364 19.7713 13.5431L18.9331 14.0884C19.0308 14.2386 19.1165 14.3957 19.1897 14.558L20.1012 14.1469ZM21.7667 14.5276L19.8025 13.8777L19.4884 14.8271L21.4525 15.477L21.7667 14.5276ZM22.4525 15.4818C22.4546 15.0488 22.1778 14.6637 21.7667 14.5276L21.4525 15.477L21.4525 15.477L22.4525 15.4818ZM22.4478 16.4719L22.4525 15.4818L21.4525 15.477L21.4478 16.467L22.4478 16.4719ZM21.7692 17.4139C22.1732 17.2768 22.4457 16.8985 22.4478 16.4719L21.4478 16.467L21.4478 16.467L21.7692 17.4139ZM19.8275 18.0732L21.7692 17.4139L21.4478 16.467L19.506 17.1263L19.8275 18.0732ZM19.8973 18.25C19.9823 18.1028 20.0581 17.9527 20.1248 17.8002L19.2088 17.3992C19.1568 17.5178 19.0977 17.6349 19.0313 17.75L19.8973 18.25ZM19.6215 18.6719C19.7202 18.5379 19.8123 18.3972 19.8973 18.25L19.0313 17.75C18.9649 17.8651 18.893 17.9748 18.8162 18.0791L19.6215 18.6719ZM20.1092 20.2892L19.7093 18.278L18.7285 18.473L19.1284 20.4842L20.1092 20.2892ZM19.6326 21.3478C20.001 21.1328 20.1924 20.7076 20.1092 20.2892L19.1284 20.4842L19.1284 20.4842L19.6326 21.3478ZM18.7776 21.847L19.6326 21.3478L19.1284 20.4842L18.2734 20.9834L18.7776 21.847ZM17.6083 21.7301C17.9317 22.0181 18.4037 22.0653 18.7776 21.847L18.2734 20.9834L18.2734 20.9834L17.6083 21.7301ZM16.0634 20.3541L17.6083 21.7301L18.2734 20.9834L16.7285 19.6073L16.0634 20.3541ZM15.758 20.4944C15.9883 20.5066 16.2182 20.501 16.4458 20.4782L16.3461 19.4832C16.1689 19.501 15.9901 19.5053 15.8111 19.4958L15.758 20.4944ZM14.4676 21.8312L16.1163 20.3692L15.4529 19.621L13.8041 21.083L14.4676 21.8312ZM13.3041 21.949C13.6769 22.1642 14.1456 22.1167 14.4676 21.8312L13.8041 21.083L13.8041 21.083L13.3041 21.949ZM12.1963 21.3094L13.3041 21.949L13.8041 21.083L12.6963 20.4433L12.1963 21.3094ZM11.7166 20.2429C11.6303 20.6646 11.8235 21.0942 12.1963 21.3094L12.6963 20.4433L12.6963 20.4433L11.7166 20.2429ZM12.1584 18.084L11.7166 20.2429L12.6963 20.4433L13.1381 18.2845L12.1584 18.084ZM11.8992 17.8532C11.9932 18.0617 12.1033 18.2636 12.2291 18.4569L13.0673 17.9116C12.9696 17.7614 12.884 17.6044 12.8108 17.4421L11.8992 17.8532ZM10.2337 17.4724L12.1979 18.1223L12.512 17.1729L10.5479 16.523L10.2337 17.4724ZM9.54788 16.5182C9.54578 16.9512 9.82263 17.3364 10.2337 17.4724L10.5479 16.523L10.5479 16.523L9.54788 16.5182ZM9.55266 15.5282L9.54788 16.5182L10.5479 16.523L10.5526 15.533L9.55266 15.5282ZM10.2312 14.5861C9.82719 14.7232 9.55472 15.1016 9.55266 15.5282L10.5526 15.533L10.5526 15.533L10.2312 14.5861ZM12.1729 13.9269L10.2312 14.5861L10.5526 15.533L12.4944 14.8738L12.1729 13.9269ZM12.1031 13.75C12.0181 13.8972 11.9423 14.0474 11.8756 14.1998L12.7917 14.6008C12.8436 14.4822 12.9027 14.3651 12.9691 14.25L12.1031 13.75ZM12.3789 13.3281C12.2802 13.4621 12.1881 13.6028 12.1031 13.75L12.9691 14.25C13.0356 14.1349 13.1074 14.0252 13.1842 13.9209L12.3789 13.3281ZM11.8912 11.7108L12.2911 13.722L13.2719 13.527L12.872 11.5158L11.8912 11.7108ZM12.3678 10.6522C11.9994 10.8673 11.808 11.2924 11.8912 11.7108L12.872 11.5158L12.872 11.5158L12.3678 10.6522ZM13.2228 10.153L12.3678 10.6522L12.872 11.5158L13.727 11.0166L13.2228 10.153ZM14.3921 10.2699C14.0687 9.9819 13.5968 9.93473 13.2228 10.153L13.727 11.0166L13.727 11.0166L14.3921 10.2699ZM15.937 11.646L14.3921 10.2699L13.727 11.0166L15.2719 12.3927L15.937 11.646ZM16.2424 11.5057C16.0121 11.4934 15.7822 11.499 15.5546 11.5218L15.6543 12.5168C15.8315 12.4991 16.0103 12.4948 16.1893 12.5043L16.2424 11.5057ZM17.5328 10.1689L15.8841 11.6309L16.5476 12.3791L18.1963 10.9171L17.5328 10.1689ZM16.9528 16.55C16.6491 17.0761 15.9763 17.2564 15.4502 16.9526L14.9502 17.8187C15.9546 18.3986 17.239 18.0544 17.8189 17.05L16.9528 16.55ZM16.5502 15.0474C17.0763 15.3511 17.2566 16.0239 16.9528 16.55L17.8189 17.05C18.3988 16.0456 18.0546 14.7613 17.0502 14.1814L16.5502 15.0474ZM15.0476 15.45C15.3513 14.9239 16.0241 14.7436 16.5502 15.0474L17.0502 14.1814C16.0458 13.6015 14.7615 13.9456 14.1816 14.95L15.0476 15.45ZM15.4502 16.9526C14.9241 16.6489 14.7438 15.9761 15.0476 15.45L14.1816 14.95C13.6017 15.9544 13.9458 17.2388 14.9502 17.8187L15.4502 16.9526Z" fill="#3D6EC9"/>
</g>
</g>
<defs>
<clipPath id="clip0_0_27863">
<rect width="22" height="26" fill="white" transform="translate(5 3)"/>
</clipPath>
</defs>
</svg>
