<svg width="32" height="32" viewBox="0 0 32 32" fill="none" xmlns="http://www.w3.org/2000/svg">
<g clip-path="url(#clip0_1318_11822)">
<mask id="mask0_1318_11822" style="mask-type:alpha" maskUnits="userSpaceOnUse" x="0" y="0" width="32" height="32">
<path fill-rule="evenodd" clip-rule="evenodd" d="M0 0H32V32H0V0ZM30 26.876C30.6372 25.7278 31 24.4063 31 23C31 18.5817 27.4183 15 23 15C18.5817 15 15 18.5817 15 23C15 27.4183 18.5817 31 23 31C24.4063 31 25.7278 30.6372 26.876 30H30V26.876Z" fill="#D9D9D9"/>
</mask>
<g mask="url(#mask0_1318_11822)">
<rect x="2.5" y="4.5" width="27" height="23" rx="0.5" fill="white" stroke="#404040"/>
<path opacity="0.5" d="M6 19.5C6 19.2239 6.22386 19 6.5 19H21.5C21.7761 19 22 19.2239 22 19.5C22 19.7761 21.7761 20 21.5 20H6.5C6.22386 20 6 19.7761 6 19.5Z" fill="#404040"/>
<path opacity="0.3" d="M6 22.5C6 22.2239 6.22386 22 6.5 22H21.5C21.7761 22 22 22.2239 22 22.5C22 22.7761 21.7761 23 21.5 23H6.5C6.22386 23 6 22.7761 6 22.5Z" fill="#404040"/>
<path opacity="0.8" d="M6 16.5C6 16.2239 6.22386 16 6.5 16H21.5C21.7761 16 22 16.2239 22 16.5C22 16.7761 21.7761 17 21.5 17H6.5C6.22386 17 6 16.7761 6 16.5Z" fill="#404040"/>
<path d="M6 13.5C6 13.2239 6.22386 13 6.5 13H23.5C23.7761 13 24 13.2239 24 13.5C24 13.7761 23.7761 14 23.5 14H6.5C6.22386 14 6 13.7761 6 13.5Z" fill="#404040"/>
<rect x="3" y="9" width="26" height="1" fill="#404040"/>
<path d="M3 5H29V9H3V5Z" fill="#CAE0FF"/>
</g>
<circle cx="23" cy="23" r="6.53333" fill="white" stroke="#3D6EC9" stroke-width="0.933333"/>
<path d="M23 16.4668C23.9313 16.4669 24.8542 17.0983 25.5693 18.29C26.279 19.4727 26.7334 21.137 26.7334 23C26.7334 24.863 26.279 26.5273 25.5693 27.71C24.8542 28.9017 23.9313 29.5331 23 29.5332C22.0685 29.5332 21.1449 28.9019 20.4297 27.71C19.7201 26.5273 19.2666 24.863 19.2666 23C19.2666 21.137 19.7201 19.4727 20.4297 18.29C21.1449 17.0981 22.0685 16.4668 23 16.4668Z" stroke="#3D6EC9" stroke-width="0.933333"/>
<rect x="22.5332" y="16" width="0.933333" height="14" fill="#3D6EC9"/>
<rect x="16" y="22.5334" width="14" height="0.933333" fill="#3D6EC9"/>
<mask id="mask1_1318_11822" style="mask-type:luminance" maskUnits="userSpaceOnUse" x="16" y="16" width="14" height="14">
<circle cx="23" cy="23" r="7" fill="white"/>
</mask>
<g mask="url(#mask1_1318_11822)">
<path d="M29.5879 16.4668C29.5878 17.4249 28.9387 18.3626 27.7383 19.083C26.5457 19.7986 24.8712 20.2549 23 20.2549C21.1288 20.2549 19.4543 19.7986 18.2617 19.083C17.0613 18.3626 16.4122 17.4249 16.4121 16.4668C16.4121 15.5085 17.0611 14.5701 18.2617 13.8496C19.4543 13.1341 21.1288 12.6787 23 12.6787C24.8712 12.6787 26.5457 13.1341 27.7383 13.8496C28.9389 14.5701 29.5879 15.5085 29.5879 16.4668Z" stroke="#3D6EC9" stroke-width="0.823529"/>
<path d="M29.5879 29.5332C29.5878 30.4914 28.9387 31.429 27.7383 32.1494C26.5457 32.865 24.8712 33.3213 23 33.3213C21.1288 33.3213 19.4543 32.865 18.2617 32.1494C17.0613 31.429 16.4122 30.4914 16.4121 29.5332C16.4121 28.5749 17.0611 27.6365 18.2617 26.916C19.4543 26.2005 21.1288 25.7451 23 25.7451C24.8712 25.7451 26.5457 26.2005 27.7383 26.916C28.9389 27.6365 29.5879 28.5749 29.5879 29.5332Z" stroke="#3D6EC9" stroke-width="0.823529"/>
</g>
<circle cx="11" cy="7" r="1" fill="#4F9D70"/>
<circle cx="8" cy="7" r="1" fill="#FD8900"/>
<circle cx="5" cy="7" r="1" fill="#DB4C4C"/>
</g>
<defs>
<clipPath id="clip0_1318_11822">
<rect width="32" height="32" fill="white"/>
</clipPath>
</defs>
</svg>
