<svg width="32" height="32" viewBox="0 0 32 32" fill="none" xmlns="http://www.w3.org/2000/svg">
<g id="big/ribbon_big_ico_image_position">
<g id="-g-&#236;&#157;&#180;&#235;&#175;&#184;&#236;&#167;&#128; &#236;&#156;&#132;&#236;&#185;&#152;">
<path id="Rectangle" d="M6 3.5H26C26.2761 3.5 26.5 3.72386 26.5 4V28C26.5 28.2761 26.2761 28.5 26 28.5H6C5.72386 28.5 5.5 28.2761 5.5 28V4C5.5 3.72386 5.72386 3.5 6 3.5Z" fill="white" stroke="#404040"/>
<g id="Group">
<path id="Combined Shape" fill-rule="evenodd" clip-rule="evenodd" d="M8 8.5C8 8.22386 8.22386 8 8.5 8H11.5C11.7761 8 12 8.22386 12 8.5C12 8.77614 11.7761 9 11.5 9H8.5C8.22386 9 8 8.77614 8 8.5ZM8.5 11C8.22386 11 8 11.2239 8 11.5C8 11.7761 8.22386 12 8.5 12H11.5C11.7761 12 12 11.7761 12 11.5C12 11.2239 11.7761 11 11.5 11H8.5ZM8 18.5C8 18.2239 8.22386 18 8.5 18H23.5C23.7761 18 24 18.2239 24 18.5C24 18.7761 23.7761 19 23.5 19H8.5C8.22386 19 8 18.7761 8 18.5ZM8.5 21C8.22386 21 8 21.2239 8 21.5C8 21.7761 8.22386 22 8.5 22H23.5C23.7761 22 24 21.7761 24 21.5C24 21.2239 23.7761 21 23.5 21H8.5ZM8.5 24C8.22386 24 8 24.2239 8 24.5C8 24.7761 8.22386 25 8.5 25H23.5C23.7761 25 24 24.7761 24 24.5C24 24.2239 23.7761 24 23.5 24H8.5ZM8.5 14C8.22386 14 8 14.2239 8 14.5C8 14.7761 8.22386 15 8.5 15H11.5C11.7761 15 12 14.7761 12 14.5C12 14.2239 11.7761 14 11.5 14H8.5Z" fill="#B4B4B4"/>
</g>
</g>
<g id="Group_2">
<path id="Rectangle_2" d="M14 7.625C14 7.27982 14.2798 7 14.625 7H23.375C23.7202 7 24 7.27982 24 7.625V15.375C24 15.7202 23.7202 16 23.375 16H14.625C14.2798 16 14 15.7202 14 15.375V7.625Z" fill="#CAE0FF"/>
<mask id="mask0_0_23525" style="mask-type:luminance" maskUnits="userSpaceOnUse" x="14" y="7" width="10" height="9">
<path id="Rectangle_3" d="M14 7.625C14 7.27982 14.2798 7 14.625 7H23.375C23.7202 7 24 7.27982 24 7.625V15.375C24 15.7202 23.7202 16 23.375 16H14.625C14.2798 16 14 15.7202 14 15.375V7.625Z" fill="white"/>
</mask>
<g mask="url(#mask0_0_23525)">
<path id="Combined Shape_2" fill-rule="evenodd" clip-rule="evenodd" d="M25.25 10.9215C25.639 10.532 25.875 10.0203 25.875 9.45982C25.875 8.23937 24.7557 7.25 23.375 7.25C22.4715 7.25 21.68 7.67361 21.2408 8.30838C20.9344 8.14656 20.5761 8.05357 20.1932 8.05357C19.5056 8.05357 18.8972 8.35346 18.5264 8.81334C18.245 8.59072 17.8733 8.45536 17.4659 8.45536C16.8068 8.45536 16.2414 8.80961 15.9999 9.31445C15.5379 8.56338 14.6375 8.05357 13.6023 8.05357C12.096 8.05357 10.875 9.13288 10.875 10.4643C10.875 11.728 11.9751 12.7647 13.375 12.8667V16H25.25V10.9215Z" fill="white"/>
<g id="Combined Shape_3">
<mask id="path-6-inside-1_0_23525" fill="white">
<path fill-rule="evenodd" clip-rule="evenodd" d="M17.2746 10.4291L13.3784 13.6361L14 13.6371V16H24V13.6531L25.8784 13.6561L22.8756 11.6852C22.6648 11.5468 22.3915 11.5487 22.1826 11.6899L20.5675 12.7819L18.1004 10.4568C17.8714 10.2409 17.5176 10.2291 17.2746 10.4291Z"/>
</mask>
<path fill-rule="evenodd" clip-rule="evenodd" d="M17.2746 10.4291L13.3784 13.6361L14 13.6371V16H24V13.6531L25.8784 13.6561L22.8756 11.6852C22.6648 11.5468 22.3915 11.5487 22.1826 11.6899L20.5675 12.7819L18.1004 10.4568C17.8714 10.2409 17.5176 10.2291 17.2746 10.4291Z" fill="#A3DEC6"/>
<path d="M13.3784 13.6361L12.7429 12.864L10.5954 14.6316L13.3768 14.6361L13.3784 13.6361ZM17.2746 10.4291L17.9101 11.2012V11.2012L17.2746 10.4291ZM14 13.6371H15V12.6387L14.0016 12.6371L14 13.6371ZM14 16H13V17H14V16ZM24 16V17H25V16H24ZM24 13.6531L24.0016 12.6531L23 12.6515V13.6531H24ZM25.8784 13.6561L25.8768 14.6561L29.2326 14.6615L26.4271 12.8201L25.8784 13.6561ZM22.8756 11.6852L23.4244 10.8492L23.4244 10.8492L22.8756 11.6852ZM22.1826 11.6899L22.7427 12.5183L22.7427 12.5183L22.1826 11.6899ZM20.5675 12.7819L19.8817 13.5096L20.4644 14.0587L21.1276 13.6103L20.5675 12.7819ZM18.1004 10.4568L18.7863 9.72904L18.7863 9.72904L18.1004 10.4568ZM14.0139 14.4082L17.9101 11.2012L16.6391 9.65698L12.7429 12.864L14.0139 14.4082ZM14.0016 12.6371L13.38 12.6361L13.3768 14.6361L13.9984 14.6371L14.0016 12.6371ZM15 16V13.6371H13V16H15ZM24 15H14V17H24V15ZM23 13.6531V16H25V13.6531H23ZM25.88 12.6561L24.0016 12.6531L23.9984 14.6531L25.8768 14.6561L25.88 12.6561ZM22.3269 12.5212L25.3297 14.4921L26.4271 12.8201L23.4244 10.8492L22.3269 12.5212ZM22.7427 12.5183C22.6174 12.6031 22.4534 12.6042 22.3269 12.5212L23.4244 10.8492C22.8763 10.4894 22.1657 10.4943 21.6225 10.8615L22.7427 12.5183ZM21.1276 13.6103L22.7427 12.5183L21.6225 10.8615L20.0074 11.9534L21.1276 13.6103ZM17.4146 11.1845L19.8817 13.5096L21.2534 12.0541L18.7863 9.72904L17.4146 11.1845ZM17.9101 11.2012C17.7643 11.3212 17.552 11.314 17.4146 11.1845L18.7863 9.72904C18.1908 9.16781 17.2709 9.13694 16.6391 9.65698L17.9101 11.2012Z" fill="#00A661" mask="url(#path-6-inside-1_0_23525)"/>
</g>
<path id="Rectangle_4" d="M14.625 7.4541H23.375C23.4691 7.4541 23.5459 7.53086 23.5459 7.625V15.375C23.5459 15.4691 23.4691 15.5459 23.375 15.5459H14.625C14.5309 15.5459 14.4541 15.4691 14.4541 15.375V7.625C14.4541 7.53086 14.5309 7.4541 14.625 7.4541Z" stroke="#00A661" stroke-width="0.909091"/>
</g>
</g>
</g>
</svg>
