<svg width="32" height="32" viewBox="0 0 32 32" fill="none" xmlns="http://www.w3.org/2000/svg">
<path d="M14.2036 25.6291C14.3856 25.9446 14.6475 26.2066 14.9627 26.3888C15.278 26.5709 15.6357 26.6668 15.9998 26.6668C16.3638 26.6668 16.7215 26.5709 17.0368 26.3888C17.3521 26.2066 17.6139 25.9446 17.7959 25.6291M6.93794 19.4521C6.80247 19.6007 6.71306 19.7855 6.6806 19.984C6.64815 20.1825 6.67403 20.3862 6.75512 20.5702C6.8362 20.7543 6.96899 20.9108 7.13732 21.0207C7.30566 21.1307 7.50229 21.1893 7.70329 21.1894H24.2962C24.4972 21.1895 24.6939 21.1311 24.8623 21.0214C25.0308 20.9117 25.1637 20.7553 25.245 20.5714C25.3263 20.3875 25.3525 20.1838 25.3203 19.9853C25.2881 19.7868 25.1989 19.6019 25.0637 19.4531C23.6844 18.0302 22.2221 16.2298 22.2221 11.5606C22.2221 9.90903 21.5665 8.32516 20.3996 7.15736C19.2327 5.98956 17.65 5.3335 15.9998 5.3335C14.3495 5.3335 12.7668 5.98956 11.5999 7.15736C10.433 8.32516 9.77741 9.90903 9.77741 11.5606C9.77741 16.2298 8.31412 18.0302 6.93794 19.4521Z" stroke="#454C53" stroke-width="2" stroke-linecap="round" stroke-linejoin="round"/>
</svg>
