<svg width="32" height="32" viewBox="0 0 32 32" fill="none" xmlns="http://www.w3.org/2000/svg">
<path d="M26.6663 18.6665L20.7813 23.9998L17.333 21.1533" stroke="#454C53" stroke-width="2" stroke-linecap="round" stroke-linejoin="round"/>
<path fill-rule="evenodd" clip-rule="evenodd" d="M8.94727 6C10.1072 6 11.0358 5.99889 11.7842 6.05762C12.543 6.11721 13.2036 6.24259 13.8135 6.54102C14.5477 6.90033 15.1828 7.42345 15.667 8.06543C16.1512 7.42345 16.7863 6.90031 17.5205 6.54102C18.1304 6.24264 18.791 6.11719 19.5498 6.05762C20.2983 5.99891 21.2268 6 22.3867 6H22.8066C23.3787 6 23.8663 5.99902 24.2647 6.03028C24.6734 6.06238 25.0747 6.13278 25.46 6.32129C26.0397 6.60503 26.5186 7.06224 26.8213 7.63282C27.0247 8.01637 27.1006 8.41608 27.1348 8.81739C27.1678 9.20582 27.167 9.67914 27.167 10.2266V15.9648C26.488 15.8396 25.7705 15.9702 25.167 16.3643V10.2266C25.167 9.64501 25.1657 9.27132 25.1416 8.98731C25.1186 8.71701 25.08 8.61823 25.0547 8.57032C24.9549 8.38215 24.7913 8.22116 24.5811 8.11817C24.5173 8.08699 24.3993 8.04729 24.1084 8.02442C23.8065 8.00073 23.4104 8 22.8066 8H22.3867C21.1953 8 20.359 8.00065 19.707 8.05176C19.0656 8.10209 18.6878 8.19685 18.3994 8.33789C17.794 8.63422 17.309 9.10326 17.0078 9.6709C16.868 9.93435 16.7724 10.2822 16.7207 10.8897C16.6943 11.1999 16.6806 11.5543 16.6738 11.9746L16.667 13.4541V13.4629L16.6201 18.5C16.0868 18.6428 15.5911 18.9452 15.2129 19.4033C14.8551 19.8368 14.6516 20.3471 14.5977 20.8672L14.667 13.4541L14.6602 11.9746C14.6534 11.5544 14.6397 11.1999 14.6133 10.8897C14.5616 10.2823 14.4659 9.93434 14.3262 9.6709C14.025 9.10328 13.5399 8.63425 12.9346 8.33789C12.6462 8.1968 12.2684 8.10211 11.627 8.05176C10.975 8.00063 10.1387 8 8.94727 8H8.52735C7.92365 8 7.52753 8.00075 7.22559 8.02442C6.93481 8.04726 6.81674 8.08699 6.75293 8.11817C6.54263 8.22113 6.37918 8.38213 6.2793 8.57032C6.25397 8.61818 6.2154 8.71678 6.19238 8.98731C6.16824 9.27132 6.16699 9.64499 6.16699 10.2266V18.8994C6.16699 19.481 6.16825 19.8547 6.19238 20.1387C6.21545 20.4098 6.25397 20.5089 6.2793 20.5566C6.37918 20.7447 6.54278 20.9049 6.75293 21.0078C6.81674 21.039 6.93482 21.0787 7.22559 21.1016C7.52753 21.1252 7.92365 21.126 8.52735 21.126H9.97071C11.225 21.126 12.0532 21.1165 12.8193 21.3398C13.4615 21.5272 14.0618 21.8344 14.5859 22.2441L14.5938 21.3779C14.6523 22.0918 14.9871 22.7824 15.583 23.2744L17.1631 24.5791C16.9303 24.8356 16.6718 25.1554 16.3838 25.5703C16.197 25.8394 15.8891 25.9999 15.5615 26C15.234 25.9999 14.927 25.8393 14.7402 25.5703C13.9761 24.4695 13.7036 24.0945 13.3662 23.8281C13.042 23.5723 12.666 23.3783 12.2598 23.2598C11.8326 23.1352 11.3453 23.126 9.97071 23.126H8.52735C7.9553 23.126 7.46766 23.1269 7.06934 23.0957C6.66057 23.0636 6.25934 22.9932 5.87403 22.8047C5.29425 22.521 4.81546 22.0638 4.5127 21.4932C4.30925 21.1096 4.23337 20.7099 4.19922 20.3086C4.16617 19.9201 4.16699 19.4469 4.16699 18.8994V10.2266C4.16699 9.67912 4.16617 9.20583 4.19922 8.81739C4.23337 8.41604 4.30922 8.0164 4.5127 7.63282C4.81546 7.06221 5.29425 6.605 5.87403 6.32129C6.25932 6.13283 6.66059 6.06236 7.06934 6.03028C7.46766 5.99904 7.9553 6 8.52735 6H8.94727Z" fill="#454C53"/>
</svg>
