<svg width="32" height="32" viewBox="0 0 32 32" fill="none" xmlns="http://www.w3.org/2000/svg">
<path d="M26.6663 16.0002H20.2663L18.133 18.5002H13.8663L11.733 16.0002H5.33301M5.33301 16.0002L9.01301 10.2585C9.18962 9.98082 9.46189 9.74714 9.79919 9.58373C10.1365 9.42032 10.5255 9.33366 10.9223 9.3335H21.077C21.4739 9.33366 21.8629 9.42032 22.2002 9.58373C22.5375 9.74714 22.8097 9.98082 22.9863 10.2585L26.6663 16.0002V21.0002C26.6663 21.4422 26.4416 21.8661 26.0415 22.1787C25.6414 22.4912 25.0988 22.6668 24.533 22.6668H7.46634C6.90055 22.6668 6.35792 22.4912 5.95785 22.1787C5.55777 21.8661 5.33301 21.4422 5.33301 21.0002V16.0002Z" stroke="#454C53" stroke-width="2" stroke-linecap="round" stroke-linejoin="round"/>
</svg>
