<svg width="32" height="32" viewBox="0 0 32 32" fill="none" xmlns="http://www.w3.org/2000/svg">
<path d="M11.1311 25.4909C13.3931 26.6513 15.9952 26.9656 18.4685 26.3772C20.9417 25.7888 23.1235 24.3364 24.6206 22.2817C26.1177 20.227 26.8317 17.7051 26.634 15.1705C26.4363 12.636 25.3398 10.2554 23.5421 8.4577C21.7445 6.66004 19.3639 5.56355 16.8293 5.36582C14.2947 5.16809 11.7729 5.88212 9.71817 7.37925C7.66347 8.87637 6.21106 11.0581 5.62265 13.5314C5.03425 16.0046 5.34854 18.6067 6.50891 20.8687L5.62266 26.3772L11.1311 25.4909Z" stroke="#454C53" stroke-width="2" stroke-linecap="round" stroke-linejoin="round"/>
<circle cx="19.9218" cy="15.6664" r="0.980392" fill="#454C53"/>
<circle cx="15.9999" cy="15.6664" r="0.980392" fill="#454C53"/>
<circle cx="12.078" cy="15.6664" r="0.980392" fill="#454C53"/>
</svg>
