<svg width="32" height="32" viewBox="0 0 32 32" fill="none" xmlns="http://www.w3.org/2000/svg">
<path d="M13.6 6.6665C15.6096 6.6665 17.3873 7.61865 18.4762 9.07918C18.8402 9.01274 19.2159 8.97762 19.6 8.97762C22.9137 8.97762 25.6 11.5644 25.6 14.7554C25.6 14.9585 25.5884 15.1591 25.5672 15.3569C27.0197 16.1516 28 17.6539 28 19.3776C28 21.9304 25.851 23.9998 23.2 23.9998H10C6.68629 23.9998 4 21.413 4 18.2221C4 15.8449 5.4907 13.8029 7.62109 12.916C7.60803 12.7604 7.6 12.6031 7.6 12.4443C7.6 9.2533 10.2863 6.6665 13.6 6.6665Z" stroke="#454C53" stroke-width="2" stroke-linejoin="round"/>
</svg>
