<svg width="32" height="32" viewBox="0 0 32 32" fill="none" xmlns="http://www.w3.org/2000/svg">
<path d="M8.53098 25.3332H23.4673M15.5318 6.93504C15.5779 6.85371 15.6455 6.78589 15.7277 6.73866C15.8099 6.69142 15.9037 6.6665 15.9991 6.6665C16.0946 6.6665 16.1883 6.69142 16.2705 6.73866C16.3527 6.78589 16.4204 6.85371 16.4664 6.93504L19.6159 12.7489C19.691 12.8835 19.7958 13.0003 19.9228 13.0909C20.0498 13.1814 20.1959 13.2435 20.3505 13.2727C20.5051 13.3018 20.6645 13.2973 20.8171 13.2595C20.9697 13.2217 21.1118 13.1515 21.2333 13.0539L25.7963 9.2527C25.8839 9.18342 25.9918 9.14296 26.1046 9.13713C26.2173 9.13131 26.3291 9.16042 26.4237 9.22028C26.5184 9.28014 26.5911 9.36766 26.6313 9.47025C26.6716 9.57283 26.6773 9.68519 26.6477 9.79114L23.6241 20.4208C23.5624 20.6384 23.4295 20.8304 23.2454 20.9678C23.0613 21.1052 22.8362 21.1805 22.6042 21.1823H9.39515C9.16293 21.1808 8.93758 21.1055 8.75331 20.9681C8.56904 20.8307 8.43591 20.6385 8.37415 20.4208L5.35167 9.79218C5.32207 9.68622 5.3278 9.57387 5.36804 9.47128C5.40828 9.3687 5.48096 9.28118 5.57561 9.22132C5.67026 9.16146 5.78201 9.13234 5.89476 9.13817C6.00751 9.144 6.11545 9.18446 6.20304 9.25374L10.765 13.055C10.8864 13.1525 11.0286 13.2227 11.1812 13.2606C11.3338 13.2984 11.4931 13.3029 11.6478 13.2737C11.8024 13.2446 11.9484 13.1825 12.0755 13.0919C12.2025 13.0014 12.3073 12.8846 12.3824 12.7499L15.5318 6.93504Z" stroke="#454C53" stroke-width="2" stroke-linecap="round" stroke-linejoin="round"/>
</svg>
