<svg width="32" height="32" viewBox="0 0 32 32" fill="none" xmlns="http://www.w3.org/2000/svg">
<path d="M13.6293 14.9335V21.3335M18.37 14.9335V21.3335M24.296 9.60016V24.5335C24.296 25.0993 24.0462 25.6419 23.6017 26.042C23.1572 26.4421 22.5543 26.6668 21.9256 26.6668H10.0737C9.44509 26.6668 8.84217 26.4421 8.39764 26.042C7.95311 25.6419 7.70338 25.0993 7.70338 24.5335V9.60016M5.33301 9.60016H26.6663M11.2589 9.60016V7.46683C11.2589 6.90103 11.5087 6.35841 11.9532 5.95833C12.3977 5.55826 13.0006 5.3335 13.6293 5.3335H18.37C18.9987 5.3335 19.6016 5.55826 20.0461 5.95833C20.4907 6.35841 20.7404 6.90103 20.7404 7.46683V9.60016" stroke="#454C53" stroke-width="2" stroke-linecap="round" stroke-linejoin="round"/>
</svg>
