<svg width="32" height="32" viewBox="0 0 32 32" fill="none" xmlns="http://www.w3.org/2000/svg">
<path d="M26.1757 19.2002H21.333C20.7672 19.2002 20.2246 19.4249 19.8245 19.825C19.4244 20.2251 19.1997 20.7677 19.1997 21.3335V26.1762M10.6663 6.76283V8.5335C10.6663 9.38219 11.0035 10.1961 11.6036 10.7962C12.2037 11.3964 13.0176 11.7335 13.8663 11.7335C14.4321 11.7335 14.9748 11.9583 15.3748 12.3583C15.7749 12.7584 15.9997 13.301 15.9997 13.8668C15.9997 15.0402 16.9597 16.0002 18.133 16.0002C18.6988 16.0002 19.2414 15.7754 19.6415 15.3753C20.0416 14.9752 20.2663 14.4326 20.2663 13.8668C20.2663 12.6935 21.2263 11.7335 22.3997 11.7335H25.781M14.933 26.6135V22.4002C14.933 21.8344 14.7082 21.2917 14.3082 20.8917C13.9081 20.4916 13.3655 20.2668 12.7997 20.2668C12.2339 20.2668 11.6913 20.0421 11.2912 19.642C10.8911 19.2419 10.6663 18.6993 10.6663 18.1335V17.0668C10.6663 16.501 10.4416 15.9584 10.0415 15.5583C9.64143 15.1583 9.0988 14.9335 8.53301 14.9335H5.38634M26.6663 16.0002C26.6663 21.8912 21.8907 26.6668 15.9997 26.6668C10.1086 26.6668 5.33301 21.8912 5.33301 16.0002C5.33301 10.1091 10.1086 5.3335 15.9997 5.3335C21.8907 5.3335 26.6663 10.1091 26.6663 16.0002Z" stroke="#454C53" stroke-width="2" stroke-linecap="round" stroke-linejoin="round"/>
</svg>
