<svg width="32" height="32" viewBox="0 0 32 32" fill="none" xmlns="http://www.w3.org/2000/svg">
<mask id="mask0_1288_5995" style="mask-type:alpha" maskUnits="userSpaceOnUse" x="5" y="4" width="19" height="24">
<path d="M16.667 5.3335V9.60016C16.667 10.166 16.8777 10.7086 17.2528 11.1087C17.6279 11.5087 18.1366 11.7335 18.667 11.7335H22.667M17.667 5.3335H8.66699C8.13656 5.3335 7.62785 5.55826 7.25278 5.95833C6.87771 6.35841 6.66699 6.90103 6.66699 7.46683V24.5335C6.66699 25.0993 6.87771 25.6419 7.25278 26.042C7.62785 26.4421 8.13656 26.6668 8.66699 26.6668H20.667C21.1974 26.6668 21.7061 26.4421 22.0812 26.042C22.4563 25.6419 22.667 25.0993 22.667 24.5335V10.6668L17.667 5.3335Z" stroke="#454C53" stroke-width="2" stroke-linecap="round" stroke-linejoin="round"/>
</mask>
<g mask="url(#mask0_1288_5995)">
<path d="M29.4209 31.1313H1.62988V2.81494H29.4209V31.1313ZM22.498 15.3345C21.2188 15.3234 19.9845 15.8152 19.0645 16.7046L19.04 16.729L18.1865 17.5786C17.7816 17.9819 17.5521 18.4949 17.4961 19.021C17.4306 19.0424 17.3643 19.0624 17.2998 19.0864C16.6452 19.3309 16.0492 19.7146 15.5547 20.2095L14.0654 21.6987H14.0664L14.0352 21.73C13.1471 22.6506 12.6559 23.884 12.667 25.1626C12.6783 26.4416 13.1915 27.6654 14.0947 28.5698V28.5708C14.9984 29.4751 16.2224 29.9891 17.502 30.0005C18.703 30.0109 19.8639 29.5767 20.7627 28.7876L21.501 28.7651C21.6537 28.7605 21.7979 28.7008 21.9131 28.6021C21.9217 28.5991 21.9457 28.5923 21.9912 28.5854C22.1026 28.5688 22.2276 28.5686 22.418 28.564C22.5556 28.5606 22.826 28.556 23.0557 28.4692C23.1877 28.4193 23.3697 28.3198 23.498 28.1206C23.5589 28.026 23.5939 27.9272 23.6133 27.8315C23.6427 27.7649 23.6596 27.7097 23.666 27.6821C23.6964 27.5502 23.6951 27.4192 23.6914 27.3364C23.6834 27.1596 23.6498 26.9441 23.625 26.7788C23.6099 26.6783 23.5965 26.5906 23.5869 26.5161C23.8762 26.2709 24.022 25.9451 24.1064 25.7485C24.1813 25.5743 24.2188 25.4723 24.2764 25.355C24.3238 25.2583 24.3599 25.2073 24.3857 25.1802C24.3987 25.1691 24.4222 25.1506 24.4463 25.1265L25.9443 23.6255H25.9453C25.9537 23.6171 25.961 23.6093 25.9658 23.604V23.603L25.9648 23.605L25.9658 23.6021V23.603C25.97 23.5986 25.9739 23.595 25.9756 23.5933V23.5923C26.8564 22.6731 27.3438 21.4454 27.333 20.1724C27.3218 18.8934 26.8091 17.669 25.9053 16.7642C25.0014 15.8595 23.7776 15.3459 22.498 15.3345Z" fill="#454C53"/>
</g>
<path d="M18.9276 23.2037C19.1579 23.512 19.4518 23.767 19.7893 23.9516C20.1268 24.1362 20.4999 24.2459 20.8835 24.2734C21.2671 24.3009 21.6521 24.2455 22.0124 24.111C22.3727 23.9764 22.6999 23.7659 22.9718 23.4937L24.5808 21.883C25.0694 21.3767 25.3397 20.6985 25.3336 19.9947C25.3274 19.2908 25.0454 18.6175 24.5482 18.1198C24.0509 17.622 23.3783 17.3397 22.6752 17.3336C21.972 17.3275 21.2946 17.5981 20.7888 18.0871L19.8662 19.0052M21.073 22.1299C20.8427 21.8217 20.5488 21.5666 20.2114 21.3821C19.8739 21.1975 19.5007 21.0877 19.1171 21.0602C18.7336 21.0327 18.3486 21.0881 17.9883 21.2227C17.6279 21.3572 17.3008 21.5678 17.0289 21.84L15.4198 23.4507C14.9313 23.957 14.661 24.6351 14.6671 25.339C14.6732 26.0429 14.9552 26.7162 15.4525 27.2139C15.9497 27.7116 16.6223 27.9939 17.3255 28.0001C18.0287 28.0062 18.7061 27.7356 19.2119 27.2466L20.1291 26.3285" stroke="#454C53" stroke-width="2" stroke-linecap="round" stroke-linejoin="round"/>
</svg>
