<svg width="32" height="32" viewBox="0 0 32 32" fill="none" xmlns="http://www.w3.org/2000/svg">
<path d="M18 5.3335V9.60016C18 10.166 18.2107 10.7086 18.5858 11.1087C18.9609 11.5087 19.4696 11.7335 20 11.7335H24M19 5.3335H10C9.46957 5.3335 8.96086 5.55826 8.58579 5.95833C8.21071 6.35841 8 6.90103 8 7.46683V24.5335C8 25.0993 8.21071 25.6419 8.58579 26.042C8.96086 26.4421 9.46957 26.6668 10 26.6668H22C22.5304 26.6668 23.0391 26.4421 23.4142 26.042C23.7893 25.6419 24 25.0993 24 24.5335V10.6668L19 5.3335Z" stroke="#454C53" stroke-width="2" stroke-linecap="round" stroke-linejoin="round"/>
</svg>
