<svg width="32" height="32" viewBox="0 0 32 32" fill="none" xmlns="http://www.w3.org/2000/svg">
<path d="M19.1114 5.3335V9.35995C19.1114 9.89389 19.33 10.406 19.7189 10.7835C20.1079 11.1611 20.6354 11.3732 21.1855 11.3732H25.3337M9.90773 10.3666V7.34672C9.90773 6.81278 10.1263 6.30071 10.5152 5.92316C10.9042 5.5456 11.4317 5.3335 11.9818 5.3335H20.1485L25.3337 10.3666V24.6377C25.3337 25.1717 25.1151 25.6837 24.7262 26.0613C24.3372 26.4389 23.8097 26.651 23.2596 26.651L12.0471 26.65C11.6375 26.7018 11.2212 26.6336 10.8516 26.4543C10.4821 26.2749 10.1762 25.9926 9.97307 25.6433M9.7781 20.4327L6.66699 17.4129L9.7781 14.393M6.66699 17.4129H17.0374" stroke="#454C53" stroke-width="2" stroke-linecap="round" stroke-linejoin="round"/>
</svg>
