<svg width="32" height="32" viewBox="0 0 32 32" fill="none" xmlns="http://www.w3.org/2000/svg">
<mask id="mask0_1288_6003" style="mask-type:alpha" maskUnits="userSpaceOnUse" x="5" y="4" width="19" height="24">
<path d="M16.667 5.3335V9.60016C16.667 10.166 16.8777 10.7086 17.2528 11.1087C17.6279 11.5087 18.1366 11.7335 18.667 11.7335H22.667M17.667 5.3335H8.66699C8.13656 5.3335 7.62785 5.55826 7.25278 5.95833C6.87771 6.35841 6.66699 6.90103 6.66699 7.46683V24.5335C6.66699 25.0993 6.87771 25.6419 7.25278 26.042C7.62785 26.4421 8.13656 26.6668 8.66699 26.6668H20.667C21.1974 26.6668 21.7061 26.4421 22.0812 26.042C22.4563 25.6419 22.667 25.0993 22.667 24.5335V10.6668L17.667 5.3335Z" stroke="#454C53" stroke-width="2" stroke-linecap="round" stroke-linejoin="round"/>
</mask>
<g mask="url(#mask0_1288_6003)">
<mask id="path-2-inside-1_1288_6003" fill="white">
<path fill-rule="evenodd" clip-rule="evenodd" d="M28.7773 29.0234H23.623C23.9528 28.6975 24.1592 28.2675 24.1592 27.7773V24.333H26.1738C27.3142 24.333 28.3329 23.5356 28.333 22.4443C28.3328 21.3532 27.3142 20.5557 26.1738 20.5557H24.1592V18.8887C24.159 17.7975 23.1404 17 22 17C20.8596 17 19.841 17.7975 19.8408 18.8887V20.5557H17.8262C16.7534 20.5557 15.7958 21.2559 15.6777 22.2461C15.677 22.2525 15.6771 22.2592 15.6768 22.2656L15.667 22.4248C15.6666 22.4311 15.667 22.438 15.667 22.4443C15.6671 23.5356 16.6858 24.333 17.8262 24.333H19.8408V27.7773C19.8408 28.2675 20.0472 28.6975 20.377 29.0234H1.56348V3.75293H28.7773V29.0234Z"/>
</mask>
<path fill-rule="evenodd" clip-rule="evenodd" d="M28.7773 29.0234H23.623C23.9528 28.6975 24.1592 28.2675 24.1592 27.7773V24.333H26.1738C27.3142 24.333 28.3329 23.5356 28.333 22.4443C28.3328 21.3532 27.3142 20.5557 26.1738 20.5557H24.1592V18.8887C24.159 17.7975 23.1404 17 22 17C20.8596 17 19.841 17.7975 19.8408 18.8887V20.5557H17.8262C16.7534 20.5557 15.7958 21.2559 15.6777 22.2461C15.677 22.2525 15.6771 22.2592 15.6768 22.2656L15.667 22.4248C15.6666 22.4311 15.667 22.438 15.667 22.4443C15.6671 23.5356 16.6858 24.333 17.8262 24.333H19.8408V27.7773C19.8408 28.2675 20.0472 28.6975 20.377 29.0234H1.56348V3.75293H28.7773V29.0234Z" fill="#454C53"/>
<path d="M28.7773 29.0234V31.0234H30.7773V29.0234H28.7773ZM23.623 29.0234L22.2171 27.6011L18.7548 31.0234H23.623V29.0234ZM24.1592 24.333V22.333H22.1592V24.333H24.1592ZM28.333 22.4443L30.333 22.4446V22.444L28.333 22.4443ZM24.1592 20.5557H22.1592V22.5557H24.1592V20.5557ZM24.1592 18.8887H26.1592V18.8883L24.1592 18.8887ZM22 17V15V15V17ZM19.8408 18.8887L17.8408 18.8883V18.8887H19.8408ZM19.8408 20.5557V22.5557H21.8408V20.5557H19.8408ZM15.6777 22.2461L13.6918 22.0093L13.6916 22.0113L15.6777 22.2461ZM15.6768 22.2656L17.673 22.3881L17.6736 22.378L15.6768 22.2656ZM15.667 22.4248L13.6707 22.3023L13.6703 22.3095L15.667 22.4248ZM15.667 22.4443L17.667 22.4441L17.667 22.4405L15.667 22.4443ZM19.8408 24.333H21.8408V22.333H19.8408V24.333ZM20.377 29.0234V31.0234H25.2452L21.7829 27.6011L20.377 29.0234ZM1.56348 29.0234H-0.436523V31.0234H1.56348V29.0234ZM1.56348 3.75293V1.75293H-0.436523V3.75293H1.56348ZM28.7773 3.75293H30.7773V1.75293H28.7773V3.75293ZM28.7773 29.0234V27.0234H23.623V29.0234V31.0234H28.7773V29.0234ZM23.623 29.0234L25.029 30.4458C25.6937 29.7888 26.1592 28.8623 26.1592 27.7773H24.1592H22.1592C22.1592 27.7364 22.1688 27.691 22.1862 27.6519C22.2023 27.6156 22.2178 27.6003 22.2171 27.6011L23.623 29.0234ZM24.1592 27.7773H26.1592V24.333H24.1592H22.1592V27.7773H24.1592ZM24.1592 24.333V26.333H26.1738V24.333V22.333H24.1592V24.333ZM26.1738 24.333V26.333C28.0907 26.333 30.3327 24.942 30.333 22.4446L28.333 22.4443L26.333 22.4441C26.333 22.3988 26.345 22.3498 26.3647 22.3102C26.3824 22.2745 26.3972 22.2643 26.3899 22.2704C26.3821 22.2771 26.3585 22.2939 26.3168 22.3089C26.2758 22.3236 26.2267 22.333 26.1738 22.333V24.333ZM28.333 22.4443L30.333 22.444C30.3325 19.9469 28.0908 18.5557 26.1738 18.5557V20.5557V22.5557C26.2267 22.5557 26.2758 22.5651 26.3167 22.5798C26.3584 22.5948 26.382 22.6116 26.3899 22.6182C26.3972 22.6244 26.3824 22.6142 26.3647 22.5785C26.345 22.539 26.333 22.49 26.333 22.4447L28.333 22.4443ZM26.1738 20.5557V18.5557H24.1592V20.5557V22.5557H26.1738V20.5557ZM24.1592 20.5557H26.1592V18.8887H24.1592H22.1592V20.5557H24.1592ZM24.1592 18.8887L26.1592 18.8883C26.1587 16.3912 23.917 15 22 15V17V19C22.0529 19 22.1019 19.0094 22.1429 19.0241C22.1846 19.0391 22.2082 19.0559 22.216 19.0626C22.2233 19.0687 22.2086 19.0585 22.1908 19.0229C22.1712 18.9834 22.1592 18.9343 22.1592 18.889L24.1592 18.8887ZM22 17V15C20.083 15 17.8413 16.3912 17.8408 18.8883L19.8408 18.8887L21.8408 18.889C21.8408 18.9343 21.8288 18.9834 21.8092 19.0229C21.7914 19.0585 21.7767 19.0687 21.784 19.0626C21.7918 19.0559 21.8154 19.0391 21.8571 19.0241C21.8981 19.0094 21.9471 19 22 19V17ZM19.8408 18.8887H17.8408V20.5557H19.8408H21.8408V18.8887H19.8408ZM19.8408 20.5557V18.5557H17.8262V20.5557V22.5557H19.8408V20.5557ZM17.8262 20.5557V18.5557C15.9999 18.5557 13.9582 19.7751 13.6918 22.0093L15.6777 22.2461L17.6637 22.4829C17.6583 22.5281 17.6427 22.5676 17.6266 22.5945C17.612 22.6188 17.6032 22.6226 17.6138 22.6144C17.6247 22.6061 17.6493 22.5905 17.689 22.5772C17.7281 22.5641 17.7749 22.5557 17.8262 22.5557V20.5557ZM15.6777 22.2461L13.6916 22.0113C13.6858 22.0601 13.6827 22.1011 13.681 22.1301C13.6792 22.1587 13.6785 22.1815 13.6781 22.1919C13.6779 22.1973 13.6778 22.2017 13.6778 22.2026C13.6777 22.2047 13.6778 22.2024 13.6779 22.2C13.678 22.1951 13.6786 22.177 13.6799 22.1532L15.6768 22.2656L17.6736 22.378C17.6751 22.3511 17.6758 22.3297 17.676 22.3216C17.6761 22.3192 17.6762 22.3173 17.6762 22.3161C17.6762 22.3155 17.6762 22.315 17.6762 22.3146C17.6762 22.3145 17.6762 22.3143 17.6762 22.3142C17.6762 22.3141 17.6763 22.314 17.6763 22.314C17.6763 22.3132 17.6762 22.3161 17.6761 22.3198C17.6758 22.3269 17.6752 22.3464 17.6737 22.3718C17.6721 22.3975 17.6693 22.4353 17.6639 22.4808L15.6777 22.2461ZM15.6768 22.2656L13.6805 22.1432L13.6707 22.3023L15.667 22.4248L17.6632 22.5473L17.673 22.3881L15.6768 22.2656ZM15.667 22.4248L13.6703 22.3095C13.668 22.3498 13.6672 22.3837 13.667 22.4076C13.6667 22.4316 13.6669 22.4509 13.667 22.4611C13.6671 22.4686 13.6673 22.4804 13.6672 22.4749C13.6672 22.4743 13.667 22.463 13.667 22.4481L15.667 22.4443L17.667 22.4405C17.667 22.4225 17.6667 22.408 17.6666 22.4041C17.6665 22.3954 17.6666 22.4038 17.6667 22.408C17.6668 22.415 17.6669 22.4309 17.6667 22.4516C17.6665 22.4723 17.6658 22.5029 17.6637 22.5401L15.667 22.4248ZM15.667 22.4443L13.667 22.4446C13.6673 24.942 15.9093 26.333 17.8262 26.333V24.333V22.333C17.7733 22.333 17.7242 22.3236 17.6832 22.3089C17.6415 22.2939 17.6179 22.2771 17.6101 22.2704C17.6028 22.2643 17.6176 22.2745 17.6353 22.3102C17.655 22.3498 17.667 22.3988 17.667 22.4441L15.667 22.4443ZM17.8262 24.333V26.333H19.8408V24.333V22.333H17.8262V24.333ZM19.8408 24.333H17.8408V27.7773H19.8408H21.8408V24.333H19.8408ZM19.8408 27.7773H17.8408C17.8408 28.8623 18.3063 29.7888 18.971 30.4458L20.377 29.0234L21.7829 27.6011C21.7822 27.6003 21.7977 27.6156 21.8138 27.6519C21.8312 27.691 21.8408 27.7364 21.8408 27.7773H19.8408ZM20.377 29.0234V27.0234H1.56348V29.0234V31.0234H20.377V29.0234ZM1.56348 29.0234H3.56348V3.75293H1.56348H-0.436523V29.0234H1.56348ZM1.56348 3.75293V5.75293H28.7773V3.75293V1.75293H1.56348V3.75293ZM28.7773 3.75293H26.7773V29.0234H28.7773H30.7773V3.75293H28.7773Z" fill="#454C53" mask="url(#path-2-inside-1_1288_6003)"/>
</g>
<path d="M18.667 22.6668H25.3337M22.0003 19.3335V26.0002" stroke="#454C53" stroke-width="2" stroke-linecap="round" stroke-linejoin="round"/>
</svg>
