<svg width="32" height="32" viewBox="0 0 32 32" fill="none" xmlns="http://www.w3.org/2000/svg">
<path d="M13.8671 24.5529C13.867 24.7492 13.9222 24.9418 14.0264 25.1088C14.1306 25.2759 14.2797 25.4109 14.4571 25.4986L16.5907 26.5554C16.7534 26.6359 16.9341 26.6739 17.1158 26.6657C17.2975 26.6576 17.4741 26.6036 17.6287 26.5088C17.7834 26.4141 17.911 26.2817 17.9995 26.1243C18.088 25.9669 18.1344 25.7898 18.1344 25.6096V16.9576C18.1346 16.4338 18.3312 15.9288 18.6859 15.5405L26.3915 7.09824C26.5296 6.94666 26.6204 6.7587 26.653 6.55707C26.6855 6.35545 26.6584 6.1488 26.5749 5.96212C26.4914 5.77544 26.355 5.61672 26.1824 5.50516C26.0098 5.3936 25.8082 5.33398 25.602 5.3335H6.39943C6.19312 5.33357 5.99125 5.3929 5.81829 5.5043C5.64532 5.6157 5.50868 5.7744 5.42491 5.96116C5.34114 6.14792 5.31383 6.35473 5.3463 6.55655C5.37878 6.75837 5.46963 6.94653 5.60786 7.09824L13.3156 15.5405C13.6703 15.9288 13.8669 16.4338 13.8671 16.9576V24.5529Z" stroke="#454C53" stroke-width="2" stroke-linecap="round" stroke-linejoin="round"/>
</svg>
