<svg width="32" height="32" viewBox="0 0 32 32" fill="none" xmlns="http://www.w3.org/2000/svg">
<path d="M24.5907 24C25.4295 24 25.6691 23.7967 26.0584 23.4323C26.4477 23.0679 26.6663 22.5747 26.6663 22.0594V12.8577C26.6663 12.3423 26.4477 11.8481 26.0584 11.4837C25.6691 11.1193 25.1412 10.9146 24.5907 10.9146H17.2566C16.9095 10.9178 16.567 10.8394 16.2606 10.6867C15.9542 10.5339 15.6936 10.3117 15.5027 10.0402L14.662 8.87438C14.473 8.60572 14.2157 8.38519 13.9132 8.23258C13.6107 8.07997 13.2725 8.00005 12.9288 8H7.40868C6.85818 8 6.33022 8.20472 5.94096 8.56911C5.55169 8.93351 5.33301 9.42774 5.33301 9.94307V22.0594C5.33301 22.5747 5.55169 23.0679 5.94096 23.4323C6.33022 23.7967 6.85818 24 7.40868 24H24.5907Z" stroke="#454C53" stroke-width="2" stroke-linecap="round" stroke-linejoin="round"/>
</svg>
