<svg width="32" height="32" viewBox="0 0 32 32" fill="none" xmlns="http://www.w3.org/2000/svg">
<path d="M15.9997 11.2598V26.6668M15.9997 11.2598C15.571 9.49321 14.8328 7.98291 13.8814 6.92587C12.9301 5.86883 11.8097 5.31409 10.6663 5.33401C9.88051 5.33401 9.12687 5.64618 8.57121 6.20183C8.01555 6.75747 7.70338 7.5111 7.70338 8.29691C7.70338 9.08271 8.01555 9.83634 8.57121 10.392C9.12687 10.9476 9.88051 11.2598 10.6663 11.2598M15.9997 11.2598C16.4284 9.49321 17.1666 7.98291 18.1179 6.92587C19.0693 5.86883 20.1897 5.31409 21.333 5.33401C22.1188 5.33401 22.8725 5.64618 23.4281 6.20183C23.9838 6.75747 24.296 7.5111 24.296 8.29691C24.296 9.08271 23.9838 9.83634 23.4281 10.392C22.8725 10.9476 22.1188 11.2598 21.333 11.2598M24.296 16.0004V24.2965C24.296 24.9252 24.0462 25.5281 23.6017 25.9726C23.1572 26.4171 22.5543 26.6668 21.9256 26.6668H10.0737C9.44509 26.6668 8.84217 26.4171 8.39764 25.9726C7.95311 25.5281 7.70338 24.9252 7.70338 24.2965V16.0004M6.51819 11.2598H25.4812C26.1357 11.2598 26.6663 11.7904 26.6663 12.445V14.8153C26.6663 15.4698 26.1357 16.0004 25.4812 16.0004H6.51819C5.86363 16.0004 5.33301 15.4698 5.33301 14.8153V12.445C5.33301 11.7904 5.86363 11.2598 6.51819 11.2598Z" stroke="#454C53" stroke-width="2" stroke-linecap="round" stroke-linejoin="round"/>
</svg>
