<svg width="32" height="32" viewBox="0 0 32 32" fill="none" xmlns="http://www.w3.org/2000/svg">
<path d="M23.7835 12.6665V8.95222C23.7835 8.34601 23.5405 7.76463 23.108 7.33597C22.6754 6.90732 22.0888 6.6665 21.4772 6.6665H7.63931C7.02764 6.6665 6.44103 6.90732 6.00851 7.33597C5.57599 7.76463 5.33301 8.34601 5.33301 8.95222V18.3808C5.33301 18.987 5.57599 19.5684 6.00851 19.997C6.44103 20.4257 7.02764 20.6665 7.63931 20.6665H16.8645M14.5582 25.5236V20.7122V24.3122M11.0988 25.5236H16.8645M22.0537 16.0951H24.36C25.6338 16.0951 26.6663 17.1184 26.6663 18.3808V24.3808C26.6663 25.6432 25.6338 26.6665 24.36 26.6665H22.0537C20.78 26.6665 19.7474 25.6432 19.7474 24.3808V18.3808C19.7474 17.1184 20.78 16.0951 22.0537 16.0951Z" stroke="#454C53" stroke-width="2" stroke-linecap="round" stroke-linejoin="round"/>
</svg>
