<svg width="32" height="32" viewBox="0 0 32 32" fill="none" xmlns="http://www.w3.org/2000/svg">
<path d="M5.66121 16.1643C5.66121 18.2415 6.27718 20.272 7.43121 21.9992C8.58525 23.7263 10.2255 25.0725 12.1446 25.8674C14.0637 26.6623 16.1754 26.8703 18.2127 26.465C20.25 26.0598 22.1214 25.0595 23.5902 23.5907C25.059 22.1219 26.0593 20.2505 26.4645 18.2132C26.8698 16.1759 26.6618 14.0642 25.8669 12.1451C25.072 10.226 23.7258 8.58574 21.9987 7.4317C20.2715 6.27767 18.241 5.6617 16.1638 5.6617C13.2277 5.67275 10.4095 6.81841 8.29852 8.85915L5.33301 11.8188M11.8183 11.8188H5.33301V5.3335M16.1638 10.3295V16.1643L20.8316 18.4982" stroke="#454C53" stroke-width="2" stroke-linecap="round" stroke-linejoin="round"/>
</svg>
