<svg width="32" height="32" viewBox="0 0 32 32" fill="none" xmlns="http://www.w3.org/2000/svg">
<path d="M26.6663 14.9171C27.2186 14.9171 27.6663 14.4694 27.6663 13.9171C27.6663 13.3648 27.2186 12.9171 26.6663 12.9171V13.9171V14.9171ZM17.1849 12.9171C16.6326 12.9171 16.1849 13.3648 16.1849 13.9171C16.1849 14.4694 16.6326 14.9171 17.1849 14.9171V13.9171V12.9171ZM26.6663 9.74539C27.2186 9.74539 27.6663 9.29767 27.6663 8.74539C27.6663 8.1931 27.2186 7.74539 26.6663 7.74539V8.74539V9.74539ZM17.1849 7.74539C16.6326 7.74539 16.1849 8.1931 16.1849 8.74539C16.1849 9.29767 16.6326 9.74539 17.1849 9.74539V8.74539V7.74539ZM26.6663 20.0888C27.2186 20.0888 27.6663 19.6411 27.6663 19.0888C27.6663 18.5365 27.2186 18.0888 26.6663 18.0888V19.0888V20.0888ZM17.1849 18.0888C16.6326 18.0888 16.1849 18.5365 16.1849 19.0888C16.1849 19.6411 16.6326 20.0888 17.1849 20.0888V19.0888V18.0888ZM26.6663 25.2605C27.2186 25.2605 27.6663 24.8128 27.6663 24.2605C27.6663 23.7082 27.2186 23.2605 26.6663 23.2605V24.2605V25.2605ZM17.1849 23.2605C16.6326 23.2605 16.1849 23.7082 16.1849 24.2605C16.1849 24.8128 16.6326 25.2605 17.1849 25.2605V24.2605V23.2605ZM9.77745 14.0608L9.09198 14.7889C9.47691 15.1513 10.0774 15.1514 10.4625 14.7892L9.77745 14.0608ZM10.7798 5.33377C10.78 4.78149 10.3324 4.33365 9.78012 4.3335C9.22784 4.33334 8.78 4.78094 8.77985 5.33322L9.77985 5.3335L10.7798 5.33377ZM14.907 10.6096C15.3093 10.2312 15.3287 9.59834 14.9504 9.19601C14.572 8.79369 13.9391 8.77426 13.5368 9.15262L14.2219 9.88109L14.907 10.6096ZM6.02327 9.15299C5.62115 8.77441 4.98827 8.7935 4.6097 9.19562C4.23112 9.59774 4.25021 10.2306 4.65233 10.6092L5.3378 9.88109L6.02327 9.15299ZM8.77506 26.6666C8.7749 27.2188 9.2225 27.6667 9.77478 27.6668C10.3271 27.667 10.7749 27.2194 10.7751 26.6671L9.77506 26.6668L8.77506 26.6666ZM9.77745 17.9396L10.4581 17.2069C10.0745 16.8506 9.48101 16.8504 9.09724 17.2065L9.77745 17.9396ZM4.6528 21.3308C4.24796 21.7064 4.22432 22.3392 4.59999 22.744C4.97566 23.1488 5.60838 23.1725 6.01322 22.7968L5.33301 22.0638L4.6528 21.3308ZM13.5365 22.7964C13.9411 23.1723 14.5739 23.149 14.9498 22.7444C15.3256 22.3398 15.3023 21.707 14.8977 21.3311L14.2171 22.0638L13.5365 22.7964ZM26.6663 13.9171V12.9171H17.1849V13.9171V14.9171H26.6663V13.9171ZM26.6663 8.74539V7.74539H17.1849V8.74539V9.74539H26.6663V8.74539ZM26.6663 19.0888V18.0888H17.1849V19.0888V20.0888H26.6663V19.0888ZM26.6663 24.2605V23.2605H17.1849V24.2605V25.2605H26.6663V24.2605ZM9.77745 14.0608L10.7775 14.061L10.7798 5.33377L9.77985 5.3335L8.77985 5.33322L8.77745 14.0605L9.77745 14.0608ZM14.2219 9.88109L13.5368 9.15262L9.09238 13.3323L9.77745 14.0608L10.4625 14.7892L14.907 10.6096L14.2219 9.88109ZM9.77745 14.0608L10.4629 13.3327L6.02327 9.15299L5.3378 9.88109L4.65233 10.6092L9.09198 14.7889L9.77745 14.0608ZM9.77506 26.6668L10.7751 26.6671L10.7775 17.9398L9.77745 17.9396L8.77745 17.9393L8.77506 26.6666L9.77506 26.6668ZM5.33301 22.0638L6.01322 22.7968L10.4577 18.6726L9.77745 17.9396L9.09724 17.2065L4.6528 21.3308L5.33301 22.0638ZM9.77745 17.9396L9.09685 18.6722L13.5365 22.7964L14.2171 22.0638L14.8977 21.3311L10.4581 17.2069L9.77745 17.9396Z" fill="#454C53"/>
</svg>
