<svg width="32" height="32" viewBox="0 0 32 32" fill="none" xmlns="http://www.w3.org/2000/svg">
<path d="M25.1428 25.4826H16.8648M6 26L11.7421 23.7915C12.1093 23.6502 12.293 23.5796 12.4648 23.4874C12.6174 23.4055 12.7629 23.3109 12.8997 23.2047C13.0538 23.0852 13.1929 22.9461 13.4711 22.6678L25.1428 10.9962C26.2857 9.85325 26.2857 8.00016 25.1428 6.85721C23.9998 5.71426 22.1468 5.71426 21.0038 6.85721L9.33217 18.5288C9.05392 18.8071 8.91479 18.9462 8.79525 19.1003C8.68906 19.2371 8.59452 19.3826 8.5126 19.5352C8.42038 19.707 8.34975 19.8907 8.20849 20.2579L6 26ZM6 26L8.12963 20.463C8.28202 20.0668 8.35822 19.8687 8.48891 19.778C8.60313 19.6987 8.74445 19.6687 8.88103 19.6947C9.03732 19.7246 9.18741 19.8747 9.48759 20.1749L11.8252 22.5124C12.1253 22.8126 12.2754 22.9627 12.3053 23.119C12.3314 23.2556 12.3014 23.3969 12.2221 23.5111C12.1313 23.6418 11.9332 23.718 11.537 23.8704L6 26Z" stroke="#454C53" stroke-width="2" stroke-linecap="round" stroke-linejoin="round"/>
</svg>
