<svg width="32" height="32" viewBox="0 0 32 32" fill="none" xmlns="http://www.w3.org/2000/svg">
<path fill-rule="evenodd" clip-rule="evenodd" d="M7.37488 13.1768C4.15713 6.78803 6.79334 4.16631 13.2176 7.36621L22.7821 12.1211C27.0721 14.2543 27.072 17.7437 22.7821 19.8769L13.2176 24.6318C6.78215 27.8317 4.15713 25.21 7.37488 18.8213L8.34655 16.8994C8.37676 16.8393 8.4019 16.7737 8.42468 16.7051C8.50203 16.732 8.58423 16.75 8.67077 16.75H14.704C15.1181 16.7499 15.454 16.4141 15.454 16C15.454 15.5859 15.1181 15.2501 14.704 15.25H8.67077C8.58326 15.25 8.49984 15.2674 8.42175 15.2949C8.3997 15.2298 8.37537 15.1677 8.34655 15.1103L7.37488 13.1768Z" fill="#454C53"/>
</svg>
