<svg width="32" height="32" viewBox="0 0 32 32" fill="none" xmlns="http://www.w3.org/2000/svg">
<path d="M13.5733 7.59737C13.6307 6.97795 13.9113 6.40274 14.3602 5.98411C14.8091 5.56547 15.3941 5.3335 16.0008 5.3335C16.6076 5.3335 17.1926 5.56547 17.6415 5.98411C18.0904 6.40274 18.371 6.97795 18.4284 7.59737C18.4629 7.9975 18.5909 8.38322 18.8016 8.72188C19.0123 9.06053 19.2994 9.34216 19.6387 9.54291C19.9781 9.74366 20.3595 9.85763 20.7509 9.87518C21.1423 9.89272 21.532 9.81332 21.8871 9.6437C22.4385 9.387 23.0633 9.34986 23.6399 9.5395C24.2165 9.72914 24.7037 10.132 25.0066 10.6697C25.3095 11.2073 25.4065 11.8413 25.2787 12.4483C25.1509 13.0552 24.8074 13.5917 24.3152 13.9533C23.9946 14.1839 23.7329 14.4904 23.5523 14.8467C23.3716 15.2029 23.2773 15.5986 23.2773 16.0002C23.2773 16.4017 23.3716 16.7974 23.5523 17.1537C23.7329 17.51 23.9946 17.8164 24.3152 18.047C24.8074 18.4086 25.1509 18.9451 25.2787 19.5521C25.4065 20.159 25.3095 20.793 25.0066 21.3307C24.7037 21.8683 24.2165 22.2712 23.6399 22.4608C23.0633 22.6505 22.4385 22.6133 21.8871 22.3566C21.532 22.187 21.1423 22.1076 20.7509 22.1251C20.3595 22.1427 19.9781 22.2567 19.6387 22.4574C19.2994 22.6582 19.0123 22.9398 18.8016 23.2784C18.5909 23.6171 18.4629 24.0028 18.4284 24.403C18.371 25.0224 18.0904 25.5976 17.6415 26.0162C17.1926 26.4349 16.6076 26.6668 16.0008 26.6668C15.3941 26.6668 14.8091 26.4349 14.3602 26.0162C13.9113 25.5976 13.6307 25.0224 13.5733 24.403C13.5388 24.0027 13.4108 23.6168 13.2001 23.278C12.9893 22.9393 12.7021 22.6576 12.3626 22.4568C12.0232 22.256 11.6415 22.1421 11.25 22.1246C10.8585 22.1072 10.4687 22.1868 10.1136 22.3566C9.56218 22.6133 8.93738 22.6505 8.36076 22.4608C7.78415 22.2712 7.29697 21.8683 6.99404 21.3307C6.69112 20.793 6.59412 20.159 6.72193 19.5521C6.84974 18.9451 7.19321 18.4086 7.68549 18.047C8.00606 17.8164 8.26774 17.51 8.44839 17.1537C8.62905 16.7974 8.72336 16.4017 8.72336 16.0002C8.72336 15.5986 8.62905 15.2029 8.44839 14.8467C8.26774 14.4904 8.00606 14.1839 7.68549 13.9533C7.1939 13.5915 6.85104 13.0553 6.72354 12.4487C6.59604 11.8422 6.69301 11.2087 6.99561 10.6714C7.29821 10.1341 7.78481 9.7313 8.36086 9.54137C8.9369 9.35145 9.56123 9.38792 10.1125 9.6437C10.4676 9.81332 10.8573 9.89272 11.2487 9.87518C11.6401 9.85763 12.0216 9.74366 12.3609 9.54291C12.7002 9.34216 12.9873 9.06053 13.198 8.72188C13.4087 8.38322 13.5367 7.9975 13.5712 7.59737M19.1266 16.0007C19.1266 17.7712 17.7269 19.2064 16.0003 19.2064C14.2737 19.2064 12.8741 17.7712 12.8741 16.0007C12.8741 14.2302 14.2737 12.795 16.0003 12.795C17.7269 12.795 19.1266 14.2302 19.1266 16.0007Z" stroke="#454C53" stroke-width="2" stroke-linecap="round" stroke-linejoin="round"/>
</svg>
