<svg width="32" height="32" viewBox="0 0 32 32" fill="none" xmlns="http://www.w3.org/2000/svg">
<path d="M12.2111 17.6108L19.8 21.8562M19.7889 10.1442L12.2111 14.3895M26 8.5335C26 10.3008 24.5076 11.7335 22.6667 11.7335C20.8257 11.7335 19.3333 10.3008 19.3333 8.5335C19.3333 6.76618 20.8257 5.3335 22.6667 5.3335C24.5076 5.3335 26 6.76618 26 8.5335ZM12.6667 16.0002C12.6667 17.7675 11.1743 19.2002 9.33333 19.2002C7.49238 19.2002 6 17.7675 6 16.0002C6 14.2329 7.49238 12.8002 9.33333 12.8002C11.1743 12.8002 12.6667 14.2329 12.6667 16.0002ZM26 23.4668C26 25.2341 24.5076 26.6668 22.6667 26.6668C20.8257 26.6668 19.3333 25.2341 19.3333 23.4668C19.3333 21.6995 20.8257 20.2668 22.6667 20.2668C24.5076 20.2668 26 21.6995 26 23.4668Z" stroke="#454C53" stroke-width="2" stroke-linecap="round" stroke-linejoin="round"/>
</svg>
