<svg width="32" height="32" viewBox="0 0 32 32" fill="none" xmlns="http://www.w3.org/2000/svg">
<path d="M10.6663 25.2396V23.4668C10.6663 22.901 10.8911 22.3584 11.2912 21.9583C11.6913 21.5583 12.2339 21.3335 12.7997 21.3335H19.1997C19.7655 21.3335 20.3081 21.5583 20.7082 21.9583C21.1082 22.3584 21.333 22.901 21.333 23.4668V25.2396M26.6663 16.0002C26.6663 21.8912 21.8907 26.6668 15.9997 26.6668C10.1086 26.6668 5.33301 21.8912 5.33301 16.0002C5.33301 10.1091 10.1086 5.3335 15.9997 5.3335C21.8907 5.3335 26.6663 10.1091 26.6663 16.0002ZM19.1997 13.8668C19.1997 15.6341 17.767 17.0668 15.9997 17.0668C14.2324 17.0668 12.7997 15.6341 12.7997 13.8668C12.7997 12.0995 14.2324 10.6668 15.9997 10.6668C17.767 10.6668 19.1997 12.0995 19.1997 13.8668Z" stroke="#454C53" stroke-width="2" stroke-linecap="round" stroke-linejoin="round"/>
</svg>
